<svg xmlns="http://www.w3.org/2000/svg" width="1200" height="325" overflow="hidden"><defs><clipPath id="a"><path fill-rule="evenodd" d="M165 1691h4272v1149H165Z" clip-rule="evenodd"/></clipPath></defs><g clip-path="url(#a)" transform="translate(-165 -1691)"><path d="M301.948 1691.355c-3.217 1.476-3.72 11.05-3.92 13.495.02 11.642-.02 15.187 0 26.831l-3.921-40.326zM256.02 1691.355c3.218 1.476 3.72 11.05 3.921 13.494-.02 11.643.02 15.189 0 26.832l3.921-40.326z" style="color:#000;font-style:normal;font-variant:normal;font-weight:400;font-stretch:normal;font-size:medium;font-family:sans-serif;font-variant-ligatures:normal;font-variant-position:normal;font-variant-caps:normal;font-variant-numeric:normal;font-variant-alternates:normal;font-variant-east-asian:normal;font-feature-settings:normal;text-indent:0;text-decoration:none;text-decoration-line:none;text-decoration-style:solid;text-decoration-color:#000;letter-spacing:normal;word-spacing:normal;text-transform:none;writing-mode:lr-tb;direction:ltr;text-orientation:mixed;dominant-baseline:auto;baseline-shift:baseline;text-anchor:start;clip-rule:nonzero;display:inline;overflow:visible;visibility:visible;opacity:1;color-interpolation:sRGB;vector-effect:none;fill:#c90729;fill-opacity:1;fill-rule:evenodd;stroke:none;stroke-width:.280045;stroke-linecap:butt;stroke-linejoin:miter;stroke-miterlimit:4;stroke-dasharray:none;stroke-dashoffset:0;stroke-opacity:1;color-rendering:auto;image-rendering:auto;shape-rendering:auto;text-rendering:auto;enable-background:accumulate;stop-color:#000;stop-opacity:1"/><path d="M259.941 1691.355h38.087v132.461H259.94zM319.031 1691.355h38.086v84.853h-38.086z" style="color:#000;font-style:normal;font-variant:normal;font-weight:400;font-stretch:normal;font-size:medium;font-family:sans-serif;font-variant-ligatures:normal;font-variant-position:normal;font-variant-caps:normal;font-variant-numeric:normal;font-variant-alternates:normal;font-variant-east-asian:normal;font-feature-settings:normal;text-indent:0;text-decoration:none;text-decoration-line:none;text-decoration-style:solid;text-decoration-color:#000;letter-spacing:normal;word-spacing:normal;text-transform:none;writing-mode:lr-tb;direction:ltr;text-orientation:mixed;dominant-baseline:auto;baseline-shift:baseline;text-anchor:start;clip-rule:nonzero;display:inline;overflow:visible;visibility:visible;opacity:1;color-interpolation:sRGB;vector-effect:none;fill:#c90729;fill-opacity:1;fill-rule:nonzero;stroke:none;stroke-width:.280045;stroke-linecap:butt;stroke-linejoin:miter;stroke-miterlimit:4;stroke-dasharray:none;stroke-dashoffset:0;stroke-opacity:1;color-rendering:auto;image-rendering:auto;shape-rendering:auto;text-rendering:auto;enable-background:accumulate;stop-color:#000;stop-opacity:1"/><path d="M319.031 1722.44h27.725v70.291H319.03z" style="color:#000;font-style:normal;font-variant:normal;font-weight:400;font-stretch:normal;font-size:medium;font-family:sans-serif;font-variant-ligatures:normal;font-variant-position:normal;font-variant-caps:normal;font-variant-numeric:normal;font-variant-alternates:normal;font-variant-east-asian:normal;font-feature-settings:normal;text-indent:0;text-decoration:none;text-decoration-line:none;text-decoration-style:solid;text-decoration-color:#000;letter-spacing:normal;word-spacing:normal;text-transform:none;writing-mode:lr-tb;direction:ltr;text-orientation:mixed;dominant-baseline:auto;baseline-shift:baseline;text-anchor:start;clip-rule:nonzero;display:inline;overflow:visible;visibility:visible;opacity:1;color-interpolation:sRGB;vector-effect:none;fill:#c90729;fill-opacity:1;fill-rule:nonzero;stroke:none;stroke-width:.280045;stroke-linecap:butt;stroke-linejoin:miter;stroke-miterlimit:4;stroke-dasharray:none;stroke-dashoffset:0;stroke-opacity:1;color-rendering:auto;image-rendering:auto;shape-rendering:auto;text-rendering:auto;enable-background:accumulate;stop-color:#000;stop-opacity:1"/><path d="M361.038 1691.355c-3.217 1.476-3.72 11.05-3.92 13.495.02 11.642-.021 15.187 0 26.831l-3.921-40.326zM315.11 1691.355c3.217 1.476 3.72 11.05 3.921 13.494-.02 11.643.02 15.189 0 26.832l3.92-40.326zM262.862 1843.638c18.714-20.631 57.306-59.034 94.43-79.466 37.126-20.432 58.285-29.704 119.626-32.261-3.602 1.677-2.131 12.412-5.733 14.089-22.339.19-74.395 4.13-127.336 51.797-39.9 37.89-47.603 59.112-53.88 71.6z" style="color:#000;font-style:normal;font-variant:normal;font-weight:400;font-stretch:normal;font-size:medium;font-family:sans-serif;font-variant-ligatures:normal;font-variant-position:normal;font-variant-caps:normal;font-variant-numeric:normal;font-variant-alternates:normal;font-variant-east-asian:normal;font-feature-settings:normal;text-indent:0;text-decoration:none;text-decoration-line:none;text-decoration-style:solid;text-decoration-color:#000;letter-spacing:normal;word-spacing:normal;text-transform:none;writing-mode:lr-tb;direction:ltr;text-orientation:mixed;dominant-baseline:auto;baseline-shift:baseline;text-anchor:start;clip-rule:nonzero;display:inline;overflow:visible;visibility:visible;opacity:1;color-interpolation:sRGB;vector-effect:none;fill:#c90729;fill-opacity:1;fill-rule:evenodd;stroke:none;stroke-width:.280045;stroke-linecap:butt;stroke-linejoin:miter;stroke-miterlimit:4;stroke-dasharray:none;stroke-dashoffset:0;stroke-opacity:1;color-rendering:auto;image-rendering:auto;shape-rendering:auto;text-rendering:auto;enable-background:accumulate;stop-color:#000;stop-opacity:1"/><path d="M476.87 1731.902c.95 9.668-2.943 24.476-8.04 35.356-5.094 10.883-12.73 21.788-22.53 29.926-9.801 9.589-24.632 10.686-32.964 20.286-9.801 16.109-7.608 24.754-17.388 32.603-9.62 7.11-21.856 7.788-29.342 17.75-4.789 4.032-8.03 24.753-19.199 36.587-11.35 10.202-14.16 8.732-22.821 15.938-33.97 32.194-33.111 72.795-33.131 79.572l-7.56-.017c-.033-11.431-3.932-67.39 39.604-103.102 25.196-17.463 11.37-27.945 28.799-46.728 9.358-11.594 13.845-9.048 27.711-17.027 9.72-7.485 11.008-26.374 22.459-35.498 11.45-11.3 14.21-7.077 27.377-14.901 15.461-13.627 20.497-19.993 24.073-37.067 2.335-2.977 19.894-11.97 22.952-13.678zM260.535 1967.076c.177-10.793-2.259-29.02-7.492-40.909-7.226-15.876-13.313-25.478-29.402-33.387-13.816-6.348-20.296-8.04-28.86-14.249-8.562-6.208-17.59-13.473-22.518-23.002-5.896-9.446-7.977-24.11-7.052-34.782 2.74-19.914 13.826-28.943 15.313-29.979 10-9.004 22.714-13.722 32.733-14.268 22.478-.297 32.762 9.96 35.62 12.918 9.297 8.135 13.946 21.978 14.128 31.878-.364 22.263-12.619 27.833-19.2 31.636-15.758 5.66-24.873-1.086-30.428-5.192-11.411-11.003-8.392-23.787-6.882-27.41 2.757-6.159 5.675-8.934 7.003-9.9 1.57-1.207 5.48-3.652 9.66-3.865 3.938.149 9.68-.437 13.725 7.53-6.46-1.327-4.555-1.525-9.74-.044-5.307 2.691-10.238 7.693-5.193 16.906 8.936 8.09 14.128 4.708 18.716 2.414 4.287-3.803 12.765-11.204 3.864-28.738-4.145-5.231-2.355-3.683-6.279-6.88-2.234-1.754-6.756-3.863-12.558-4.106-4.186.079-9.056.924-13.161 2.655-4.105 1.73-7.295 4.497-11.833 8.936-4.538 5.887-6.918 10.227-8.634 22.398.151 9.53.871 11.574 6.158 22.157 5.162 7.637 7.952 11.348 17.207 17.397 8.15 4.497 16.75 7.13 26.202 15.99 13.282 13.1 16.297 21.205 20.286 39.907 3.808 13.994 2.445 37.89 2.585 43.975z" style="color:#000;font-style:normal;font-variant:normal;font-weight:400;font-stretch:normal;font-size:medium;font-family:sans-serif;font-variant-ligatures:normal;font-variant-position:normal;font-variant-caps:normal;font-variant-numeric:normal;font-variant-alternates:normal;font-variant-east-asian:normal;font-feature-settings:normal;text-indent:0;text-decoration:none;text-decoration-line:none;text-decoration-style:solid;text-decoration-color:#000;letter-spacing:normal;word-spacing:normal;text-transform:none;writing-mode:lr-tb;direction:ltr;text-orientation:mixed;dominant-baseline:auto;baseline-shift:baseline;text-anchor:start;clip-rule:nonzero;display:inline;overflow:visible;visibility:visible;opacity:1;color-interpolation:sRGB;vector-effect:none;fill:#c90729;fill-opacity:1;fill-rule:evenodd;stroke:none;stroke-width:.280045;stroke-linecap:butt;stroke-linejoin:miter;stroke-miterlimit:4;stroke-dasharray:none;stroke-dashoffset:0;stroke-opacity:1;color-rendering:auto;image-rendering:auto;shape-rendering:auto;text-rendering:auto;enable-background:accumulate;stop-color:#000;stop-opacity:1"/><path d="M261.902 1819.055h27.87c0 15.705.694 33.858.694 49.563-11.098 24.549-13.348 30.365-18.723 48.775-3.745 16.235-6.786 27.907-7.037 49.806h-2.804z" style="color:#000;font-style:normal;font-variant:normal;font-weight:400;font-stretch:normal;font-size:medium;font-family:sans-serif;font-variant-ligatures:normal;font-variant-position:normal;font-variant-caps:normal;font-variant-numeric:normal;font-variant-alternates:normal;font-variant-east-asian:normal;font-feature-settings:normal;text-indent:0;text-decoration:none;text-decoration-line:none;text-decoration-style:solid;text-decoration-color:#000;letter-spacing:normal;word-spacing:normal;text-transform:none;writing-mode:lr-tb;direction:ltr;text-orientation:mixed;dominant-baseline:auto;baseline-shift:baseline;text-anchor:start;clip-rule:nonzero;display:inline;overflow:visible;visibility:visible;opacity:1;color-interpolation:sRGB;vector-effect:none;fill:#c90729;fill-opacity:1;fill-rule:evenodd;stroke:none;stroke-width:.280045;stroke-linecap:butt;stroke-linejoin:miter;stroke-miterlimit:4;stroke-dasharray:none;stroke-dashoffset:0;stroke-opacity:1;color-rendering:auto;image-rendering:auto;shape-rendering:auto;text-rendering:auto;enable-background:accumulate;stop-color:#000;stop-opacity:1"/><g style="opacity:1"><path d="M1218.402 1781.734a4.201 4.201 0 0 0-4.207 4.145v-3.988a4.201 4.201 0 0 0-2.385 1.609c-8.45 11.648-20.373 19.462-31.203 26.195a4.201 4.201 0 0 0-1.982 3.569c0 5.382.089 10.794.086 16.08a4.201 4.201 0 0 0 6.066 3.767c.287-.142.565-.319.852-.463v7.055a4.201 4.201 0 0 0 4.201 4.201h23.805v3.64h-27.164a4.201 4.201 0 0 0-4.201 4.202v13.162a4.201 4.201 0 0 0 4.2 4.2h.845a4.201 4.201 0 0 0-1.52 4.525c3.456 11.99 6.24 24.223 8.338 35.678-2.541.06-5.195.266-7.701.289a4.201 4.201 0 0 0-4.162 4.199v14.398a4.201 4.201 0 0 0 4.404 4.198c25.511-1.242 50.69-2.58 76.004-5.848-.011 1.143-.034 1.778-.035 3.328a4.201 4.201 0 0 0 5.92 3.836c15.816-7.09 34.106-24.521 46.082-42.404 11.792 17.872 29.793 35.292 45.394 42.394a4.201 4.201 0 0 0 5.94-3.822c0-8.011-.174-9.309-.178-17.197a4.201 4.201 0 0 0-2.217-3.701c-4.45-2.385-12.059-8.525-18.969-16.63-5.712-6.699-10.915-14.792-14.236-23.244h30a4.201 4.201 0 0 0 4.2-4.199v-13.162a4.201 4.201 0 0 0-4.2-4.201h-33.605v-15.402h29.125a4.201 4.201 0 0 0 4.199-4.202v-13.162a4.201 4.201 0 0 0-4.2-4.199h-29.124v-23.805a4.201 4.201 0 0 0-4.202-4.2h-16.802a4.201 4.201 0 0 0-4.201 4.2v23.803h-5.047c1.292-5.391 2.403-11.174 3.066-17.783a4.201 4.201 0 0 0-4.18-4.62h-14.689a4.201 4.201 0 0 0-4.193 3.98c-.632 12.001-3.52 19.922-6.63 25.536.01-1.484.026-2.948.024-4.431a4.201 4.201 0 0 0-1.975-3.559c-10.765-6.73-22.611-14.543-31.014-26.191a4.201 4.201 0 0 0-2.3-1.596v4.022a4.201 4.201 0 0 0-4.21-4.202l-5.91.012zm-386.865.766a4.201 4.201 0 0 0-3.035 1.418c-11.256 12.735-25.208 24.054-39.025 31.266a4.201 4.201 0 0 0-1.7.865c-4.894 2.436-9.754 4.385-14.427 5.648a4.201 4.201 0 0 0-3.106 4.121l.233 14.625a4.201 4.201 0 0 0 4.998 4.057c5.763-1.114 12.995-3.883 20.998-7.877h119.754v2.8h-119.3a4.201 4.201 0 0 0-4.2 4.202v12.88a4.201 4.201 0 0 0 4.2 4.202h119.3v3.08h-119.3a4.201 4.201 0 0 0-4.2 4.201v12.883a4.201 4.201 0 0 0 4.195 4.201c-1.994 12.192-14.89 19.395-21.701 23.336a4.201 4.201 0 0 0-2.098 3.635c-.003 5.084.126 10.097.123 15.033a4.201 4.201 0 0 0 5.594 3.965c4.75-1.67 13.632-5.574 22.217-12.875 8.567-7.286 16.82-18.093 19.584-33.094h2.33v30.233c-.024 3.804 1.785 7.244 4.572 10.027 2.596 2.592 6.268 4.53 10.56 4.957a4.201 4.201 0 0 0 1.11.15h63.29a4.201 4.201 0 0 0 1.302-.207c3.025-.507 5.52-2.09 7.136-3.888 1.666-1.853 2.595-3.803 3.268-5.348l.006-.01 7.629-13.828c2.965 4.359 5.776 8.731 8.15 13a4.201 4.201 0 0 0 3.672 2.158h19.246a4.201 4.201 0 0 0 3.627-6.32c-6.153-10.53-13.362-20.821-21.562-30.924h2.254a4.201 4.201 0 0 0 4.199-4.201v-61.611a4.201 4.201 0 0 0-4.2-4.2h-22.847l5.889-4.761h-.965a4.201 4.201 0 0 0 4.2-4.201v-13.163a4.201 4.201 0 0 0-4.2-4.199h-65.403a4.201 4.201 0 0 0-3.748-5.97l-18.445-.266a4.201 4.201 0 0 0-.174 0zm152.74 2.035a4.201 4.201 0 0 0-4.2 4.2v12.042h-3.92a4.201 4.201 0 0 0-4.202 4.201v39.206a4.201 4.201 0 0 0 4.201 4.2h9.666a4.201 4.201 0 0 0-2.105 3.641V1905.234a4.201 4.201 0 0 0 4.201 4.202h58.25v5.875c-.024 3.786 1.816 7.167 4.611 9.884 2.61 2.537 6.277 4.416 10.555 4.823a4.201 4.201 0 0 0 .01 0 4.201 4.201 0 0 0 1.07.138h77.012a4.201 4.201 0 0 0 1.305-.209c3.024-.508 5.516-2.088 7.133-3.886 1.665-1.854 2.595-3.803 3.267-5.348l.01-.01 9.89-17.928a4.201 4.201 0 0 0-3.677-6.228h-15.168a4.201 4.201 0 0 0-3.648 2.119l-2.746 4.814V1852.02a4.201 4.201 0 0 0-2.102-3.636h11.621a4.201 4.201 0 0 0 4.201-4.202v-39.205a4.201 4.201 0 0 0-4.2-4.2h-4.2v-12.044a4.201 4.201 0 0 0-4.201-4.199zm-238.879.555H644.582a4.201 4.201 0 0 0-1.223.183 4.201 4.201 0 0 0-3.088 2.256 4.201 4.201 0 0 0-3.81-2.44H570.09a4.201 4.201 0 0 0-4.201 4.202v136.943a4.201 4.201 0 0 0 4.2 4.2h16.804a4.201 4.201 0 0 0 4.2-4.2v-35.244c4.57.24 11.493.815 19.292-.463 9.93-1.627 20.716-7.469 24.78-21.416a4.201 4.201 0 0 0 .005-.016c1.886-6.57.217-13.8-3.299-21.064-3.036-6.273-7.77-12.649-13.328-18.85l21.131-24.22a4.201 4.201 0 0 0 .148-.182c.12 24.642.437 44.898-3.035 59.402-4.223 17.645-13.3 29.376-36.56 40.326a4.201 4.201 0 0 0-2.412 3.801v17.92a4.201 4.201 0 0 0 5.377 4.033c14.851-4.328 26.379-11.28 35.23-19.863v15.83a4.201 4.201 0 0 0 4.736 4.168c21.745-2.803 39.12-11.283 52.805-21.967 12.65 10.66 28.728 19.15 48.856 21.961a4.201 4.201 0 0 0 4.78-4.162v-17.326a4.201 4.201 0 0 0-3.218-4.084c-13.427-3.227-23.966-7.839-32.576-13.74 7.7-9.355 13.463-19.077 17.357-27.82 4.216-9.466 6.369-17.545 6.82-23.348a4.201 4.201 0 0 0 .135-1.055v-12.883a4.201 4.201 0 0 0-4.2-4.201h-67.58c.04-5.384.01-10.53-.062-15.402H745.4a4.201 4.201 0 0 0 4.2-4.2v-12.882a4.201 4.201 0 0 0-4.2-4.202zm473.405 5.047 5.7.01a4.201 4.201 0 0 0 .017 0l5.506-.01a4.201 4.201 0 0 0 .39.019h1.178c8.805 11.408 19.997 19.136 29.912 25.384-.01 2.221-.017 4.47-.035 6.715-13.808-7.624-26.896-17.266-33.736-26.224a4.201 4.201 0 0 0-6.672-.01c-6.889 8.969-20.079 18.624-33.988 26.254-.018-2.25-.028-4.502-.037-6.727 9.976-6.251 21.236-13.978 30.094-25.39h1.277a4.201 4.201 0 0 0 .394-.023zm-385.397.789 8.389.12a4.201 4.201 0 0 0 3.752 6.09h69.558v6.536l-15.24 12.322a4.201 4.201 0 0 0 2.64 7.467H933.03v53.209H801.127v-4.48h119.3a4.201 4.201 0 0 0 4.2-4.202v-11.482a4.201 4.201 0 0 0-4.2-4.2h-119.3v-4.48h119.3a4.201 4.201 0 0 0 4.2-4.201v-11.201a4.201 4.201 0 0 0-4.2-4.201h-124.84a4.201 4.201 0 0 0-1.905.457c-5.708 2.905-10.622 4.77-14.893 6.097l-.096-6.023c4.566-1.456 9.148-3.265 13.7-5.582a4.201 4.201 0 0 0 .15-.08 4.201 4.201 0 0 0 .008-.01 4.201 4.201 0 0 0 .186-.088c14.624-7.512 28.864-19.045 40.67-32.072zm476.565.05h8.4v23.803a4.201 4.201 0 0 0 4.201 4.202h29.125v4.76h-29.125a4.201 4.201 0 0 0-4.2 4.2v23.805a4.201 4.201 0 0 0 4.2 4.2h33.606v4.761h-31.774a4.201 4.201 0 0 0-4.045 5.338c3.38 12.018 10.377 22.976 17.864 31.756 6.64 7.787 13.488 13.679 19.199 17.21.02 2.893.044 5.611.082 7.726-13.567-8.534-30.09-25.65-39.2-41.352a4.201 4.201 0 0 0-7.251-.024c-9.274 15.746-26.117 32.925-39.934 41.443.038-2.132.061-4.868.082-7.773 5.788-3.525 12.745-9.416 19.488-17.205 7.6-8.779 14.704-19.737 18.139-31.766a4.201 4.201 0 0 0-4.039-5.353h-32.625v-4.762h33.605a4.201 4.201 0 0 0 4.202-4.2v-23.804a4.201 4.201 0 0 0-4.202-4.201h-19.593a4.201 4.201 0 0 0-3.774 2.355c-3.414 6.975-7.27 11.468-10.744 14.399a2312.14 2312.14 0 0 1-.049-10.502c4.96-5.68 11.209-16.028 12.924-33.416h6.033c-.851 6.32-1.957 12.111-3.394 17.023a4.201 4.201 0 0 0 4.03 5.381h14.567a4.201 4.201 0 0 0 4.201-4.201zm-321.492 1.96H1132.7v4.48h-64.69a4.201 4.201 0 0 0-4.2 4.201v3.362a4.201 4.201 0 0 0 4.2 4.199h73.093v30.807h-8.403v-22.125a4.201 4.201 0 0 0-4.201-4.2h-60.488a4.201 4.201 0 0 0-4.201 4.2v26.605h-8.403v-26.605a4.201 4.201 0 0 0-4.199-4.2h-58.25a4.201 4.201 0 0 0-4.201 4.2v22.125h-8.4V1809.178h70.851a4.201 4.201 0 0 0 4.2-4.2v-3.36a4.201 4.201 0 0 0-4.2-4.202h-62.73zm-247.282.556v4.48H662.06a4.201 4.201 0 0 0-4.2 4.26c.104 7.332.258 15.337.094 23.663a4.201 4.201 0 0 0 4.2 4.283h67.564v8.203a4.201 4.201 0 0 0-.022.258c-.21 3.999-2.125 12.036-6.209 21.205-4.084 9.169-10.3 19.628-18.96 29.32a4.201 4.201 0 0 0 .548 6.114c9.58 7.466 21.533 12.939 36.123 16.798v9.137c-17.46-3.38-31.36-11.281-42.32-21.156a4.201 4.201 0 0 0-5.5-.11c-11.997 9.982-27.3 17.98-46.555 21.333v-9.141c16.45-3.998 29.771-9.74 40.354-17.66a4.201 4.201 0 0 0 .75-6.004c-14.157-17.508-21.03-37.636-22.362-47.365a4.201 4.201 0 0 0-8.35.232c-1.376 17.061-4.944 34.302-13.353 48.64-7.673 13.085-19.325 23.844-37.644 30.401v-9.523c22.976-11.431 34.2-25.755 38.74-44.72 4.483-18.729 3.248-42.072 3.271-72.644zm-166.906 0H632.26v8.665a4.201 4.201 0 0 0 1.422 3.15l-3.084-2.723-20.75 23.785a4.201 4.201 0 0 0 .132 5.668c6.33 6.6 11.342 13.479 14.33 19.655 2.99 6.175 3.813 11.501 2.784 15.085-3.2 10.963-9.974 14.135-18.067 15.461-8.097 1.327-16.524-.222-22.443.215a4.201 4.201 0 0 0-3.893 4.19v35.39h-8.4v-119.859Zm12.602 4.48a4.201 4.201 0 0 0-4.202 4.202v69.86a4.201 4.201 0 0 0 3.756 4.175c13.274 1.416 21.877.804 27.805-2.308 2.964-1.556 5.238-3.996 6.248-6.864 1.01-2.868.806-5.867.031-8.687-2.78-10.126-12.416-20.306-21.172-28.596l21.65-24.818a4.201 4.201 0 0 0-3.165-6.963zm52.414 1.095.515.455v.096a4.201 4.201 0 0 0-.515-.551zm193.861 2.826a4.201 4.201 0 0 0-2.865 1.13c-5.007 4.672-10.327 8.972-15.682 12.823a4.201 4.201 0 0 0 2.453 7.611h61.364a4.201 4.201 0 0 0 2.64-.933l16.28-13.163a4.201 4.201 0 0 0-2.641-7.468zm391.217 3.185c5.55 6.152 12.923 11.946 20.949 17.258h-42.018c8.072-5.311 15.488-11.106 21.069-17.258zm-633.291 1.297h17.51l-17.51 20.074zm243.644 3.92h48.102l-5.889 4.76h-47.674a161.58 161.58 0 0 0 5.461-4.76zm237.473 11.762h.844a4.201 4.201 0 0 0-.844 2.473zm51.246 0h.844v2.521a4.201 4.201 0 0 0-.844-2.521zm-119.016 6.72h35.286v.282h-35.286zm76.172 0h35.285v.282h-35.285zm113.418 1.962h60.77v4.76h-20.162a4.201 4.201 0 0 0-4.201 4.2v12.043a4.201 4.201 0 0 0 4.2 4.2h23.524v4.761h-23.523a4.201 4.201 0 0 0-4.201 4.202v46.478a4.201 4.201 0 0 0 4.554 4.186c7.862-.664 15.698-1.492 23.496-2.35l.137 5.328c-22.463 2.766-45.017 4.068-67.955 5.201v-5.908c9.013-.155 18.148-.448 27.428-1.027a4.201 4.201 0 0 0 3.937-4.192v-47.717a4.201 4.201 0 0 0-4.2-4.2h-27.165v-4.762h27.166a4.201 4.201 0 0 0 4.2-4.2V1839.7a4.201 4.201 0 0 0-4.2-4.2h-23.805zm94.551 1.4h12.986v15.402h-25.22c4.277-3.396 8.482-8.447 12.234-15.402zm-25.379.66c.01 0 .013.01.02.01.023 4.963.065 9.92.068 14.836a4.201 4.201 0 0 0-.93-.104h-23.523v-3.64h20.164a4.201 4.201 0 0 0 4.201-4.201zm-190.992.459a4.201 4.201 0 0 0 .648 2.24 4.201 4.201 0 0 0-.648 2.194zm52.09 0v4.482a4.201 4.201 0 0 0-.649-2.24 4.201 4.201 0 0 0 .649-2.242zm-533.207.223c8.96 8.352 19.48 20.339 21.336 27.093.47 1.716.415 2.903.144 3.672-.27.77-.709 1.42-2.226 2.217-2.699 1.417-9.11 2.369-19.254 1.647zm86.105 1.177a4.201 4.201 0 0 0-4.078 5.206c4.266 17.318 10.327 31.736 19.668 43.326a4.201 4.201 0 0 0 6.436.125c10.107-11.579 16.69-26.03 21.318-43.373a4.201 4.201 0 0 0-4.059-5.284zm5.569 8.403h28.023c-3.633 11.931-8.349 21.97-14.596 30.346-5.736-8.37-10.08-18.417-13.427-30.346zm441.533 1.119a4.201 4.201 0 0 0 2.097 3.637h-2.447a4.201 4.201 0 0 0 .35-1.676zm-52.09 1.96a4.201 4.201 0 0 0 .35 1.679h-.35zm-76.094.808a4.201 4.201 0 0 0 .274.873h-1.338a4.201 4.201 0 0 0 1.064-.873zm131.264 9.271v44.807h-60.264a4.201 4.201 0 0 0-4.201 4.183c-.01 1.797-.01 3.59-.019 5.36a4.201 4.201 0 0 0 .031.535c.029.238-.088.945.44 2.386.527 1.442 2.165 2.946 3.584 3.495a4.201 4.201 0 0 0 1.513.283h64.586a4.201 4.201 0 0 0 1.451-.26c1.544-.084 3.2-.444 4.627-2.475a4.201 4.201 0 0 0 .213-.334l5.276-9.253h5.613l-6.46 11.707a4.201 4.201 0 0 0-.185.379c-.552 1.292-1.234 2.588-1.974 3.412-.74.821-1.31 1.211-2.518 1.31h-76.377a4.201 4.201 0 0 0-.13-.01c-2.444-.102-4.5-1.169-5.952-2.58s-2.07-3.187-2.066-3.805a4.201 4.201 0 0 0 0-.027v-10.103a4.201 4.201 0 0 0-4.201-4.201h-58.249V1856.22zm-122.66 3.084a4.201 4.201 0 0 0-4.201 4.201v8.4a4.201 4.201 0 0 0 4.2 4.202h45.647a4.201 4.201 0 0 0 4.201-4.201v-8.4a4.201 4.201 0 0 0-4.2-4.202zm62.449 0a4.201 4.201 0 0 0-4.2 4.201v8.4a4.201 4.201 0 0 0 4.2 4.202h47.61a4.201 4.201 0 0 0 4.199-4.201v-8.4a4.201 4.201 0 0 0-4.2-4.202zm-404.371 2.227a122.016 122.016 0 0 0 15.818 28.517c-9.087 6.04-20.335 10.75-34.51 14.123 2.605-3.171 4.969-6.475 7-9.94 5.953-10.149 9.449-21.345 11.692-32.7zm602.363 6.503a4.201 4.201 0 0 0 2.8 1.07h30.823c-3.37 8.44-8.651 16.526-14.447 23.221-6.28 7.255-13 12.773-17.62 15.602a4.201 4.201 0 0 0-4.624-3.508c-1.39.16-2.805.266-4.2.42 3.355-12.514 4.738-22.081 5.303-33.851a4.201 4.201 0 0 0-.36-1.91 4.201 4.201 0 0 0 2.325-1.044zm-56.799 1.07h5.272v17.886a721.24 721.24 0 0 0-3.715-15.545 4.201 4.201 0 0 0-1.557-2.34zm30.475 0h2.285a4.201 4.201 0 0 0-.328 1.231c-.535 4.957-1.224 9.837-1.957 14.713zm9.81 5.884h5.852c-.648 9.446-1.967 17.614-4.871 28.283h-5.662c2.067-9.441 3.578-18.836 4.681-28.283zm-53.39 1.68h7.271c2.66 10.699 4.541 19.207 6.047 28.167l-6.826-.156c-1.741-9.095-3.925-18.537-6.492-28.012zm-190.537 2.519a4.201 4.201 0 0 0-4.201 4.2v10.362a4.201 4.201 0 0 0 4.2 4.201h45.647a4.201 4.201 0 0 0 4.201-4.2v-10.362a4.201 4.201 0 0 0-4.2-4.201zm62.449 0a4.201 4.201 0 0 0-4.2 4.2v1.683a4.201 4.201 0 0 0 .017.367c0 1.476-.01 2.952-.016 4.41a4.201 4.201 0 0 0 0 .027v3.26a4.201 4.201 0 0 0-.014.336v.279a4.201 4.201 0 0 0 4.199 4.201h47.623a4.201 4.201 0 0 0 4.2-4.201v-10.361a4.201 4.201 0 0 0-4.2-4.202zm.082 1.681h4.119v2.52l-.238.238a4.201 4.201 0 0 0-3.881-2.758zm-219.063 4.202h8.194a4.201 4.201 0 0 0 .427 1.17c4.272 7.829 9.01 15.72 12.561 22.908h-21.266l.084-24.078zm35.235 0h22.248a4.201 4.201 0 0 0 .888 1.851c2.619 3.134 5.118 6.561 7.666 9.904h-8.966a4.201 4.201 0 0 0-3.649 2.122l-5.506 9.654a4.201 4.201 0 0 0-.193-.461c-3.81-7.754-7.862-15.37-12.488-23.07zm125.498 2.52h37.246v1.958h-37.246zm62.457 0h39.199v1.958h-39.205c0-.657 0-1.305.01-1.959zm-231.602.837-.076 22.008a4.201 4.201 0 0 0 .03.514c.033.278-.14 1.14.57 2.775.139.32.47.55.687.844a4.201 4.201 0 0 0 4.02 2.982h51.125a4.201 4.201 0 0 0 1.457-.262c1.542-.085 3.196-.445 4.62-2.472a4.201 4.201 0 0 0 .212-.336l5.277-9.252h5.611l-6.459 11.707a4.201 4.201 0 0 0-.183.379c-.552 1.292-1.234 2.586-1.975 3.41-.737.82-1.308 1.21-2.511 1.31h-62.66a4.201 4.201 0 0 0-.128-.01c-2.413-.103-4.455-1.184-5.916-2.642-1.46-1.458-2.11-3.312-2.105-4.031a4.201 4.201 0 0 0 0-.025v-26.899zm-35.021 0h6.226c-3.047 10.175-8.895 17.83-15.367 23.334-5.046 4.29-9.88 6.914-14.02 8.856-.025-2.067-.037-4.145-.05-6.186 6.944-3.947 19.846-11.695 23.21-26.004zm62.949 0h7.96c3.501 5.757 6.63 11.526 9.606 17.363h-8.183c-2.82-5.762-6.085-11.593-9.383-17.363zm50.643 0h8.62c6.908 8.329 12.859 16.84 18.266 25.484h-9.191c-5.012-8.674-11.238-17.28-17.695-25.484z" style="color:#000;font-style:normal;font-variant:normal;font-weight:400;font-stretch:normal;font-size:medium;font-family:sans-serif;font-variant-ligatures:normal;font-variant-position:normal;font-variant-caps:normal;font-variant-numeric:normal;font-variant-alternates:normal;font-variant-east-asian:normal;font-feature-settings:normal;text-indent:0;text-decoration:none;text-decoration-line:none;text-decoration-style:solid;text-decoration-color:#000;letter-spacing:normal;word-spacing:normal;text-transform:none;writing-mode:lr-tb;direction:ltr;text-orientation:mixed;dominant-baseline:auto;baseline-shift:baseline;text-anchor:start;clip-rule:nonzero;display:inline;overflow:visible;visibility:visible;color-interpolation:sRGB;vector-effect:none;fill:#fff;fill-opacity:1;fill-rule:nonzero;stroke:none;stroke-linecap:round;stroke-linejoin:round;stroke-miterlimit:4;stroke-dasharray:none;stroke-dashoffset:0;stroke-opacity:1;color-rendering:auto;image-rendering:auto;shape-rendering:auto;text-rendering:auto;enable-background:accumulate;stop-color:#000;stop-opacity:1" transform="translate(-.979 .354)"/><path d="M1218.395 1785.935v.022l-3.185.01c-9.023 12.437-21.502 20.53-32.385 27.297 0 5.334.09 10.748.087 16.083 16.446-8.145 32.864-19.54 41.483-30.762 8.568 11.222 24.89 22.617 41.239 30.762 0-5.336.09-10.748.085-16.084-10.819-6.764-23.224-14.86-32.195-27.297l-3.094-.01v-.02l-5.919.01zm-386.745.765c-11.733 13.275-26.24 25.065-40.832 32.56h-.332v.17c-5.383 2.74-10.775 4.898-16.04 6.322l.232 14.624c5.367-1.037 12.713-3.781 20.91-7.953h124.839v11.202h-123.5v12.882h123.5v11.482h-123.5v12.882H937.23v-61.61H902.506l16.28-13.162h.52v-13.162h-73.76a110.344 110.344 0 0 0 4.55-5.971zm474.12.075v28.005h-14.566c1.873-6.4 3.344-13.83 4.204-22.404h-14.689c-1.07 20.323-8.443 31.043-13.316 36.176 0 6.52.09 13.036.09 19.553 5.622-2.096 12.87-8.287 18.683-20.163h19.594v23.804h-37.807v13.162h36.826c-6.39 22.381-27.09 42.144-37.764 47.775-.01 7.95-.176 9.245-.182 17.195 16.03-7.187 36.676-27.45 47.829-46.386 10.985 18.936 31.317 39.199 47.107 46.386 0-7.95-.175-9.245-.18-17.195-10.513-5.633-30.9-25.394-37.195-47.775h35.974v-13.162h-37.806v-23.804h33.326v-13.162h-33.326v-28.005zm-321.493 1.96v12.882h66.931v3.36h-75.052v39.207h16.803v-26.324h58.25v30.805h16.802v-30.805h60.49v26.324h16.802v-39.206h-77.292v-3.36h68.891v-12.883zm-414.187.56v136.942h16.803v-39.59c9.11-.674 36.978 6.216 44.239-18.707 2.915-10.154-4.985-25.11-18.119-38.806l23.496-26.931-.048-.042v-12.866h-49.568zm74.492 0v.13h-.56c-.35 66.027 5.951 96.31-42.007 118.888v17.92c44.879-13.079 56.578-49.736 59.388-84.554 1.479 10.805 8.546 31.243 23.256 49.436-10.719 8.022-24.397 13.878-42.037 17.792v17.326c22.351-2.881 39.93-11.814 53.442-23.056 12.475 11.24 28.7 20.175 49.335 23.056v-17.326c-15.706-3.775-28.008-9.357-37.742-16.943 17.988-20.131 25.714-43.264 26.232-53.105h.028v-12.882h-71.765c.167-8.43.01-16.489-.093-23.804h83.34v-12.882zm-57.689 12.882h30.95l-23.99 27.502-.342.293c18.454 17.06 45.002 47.57-6.618 42.065zm246.275 3.921h61.548l-16.278 13.162h-61.364c5.488-3.947 10.943-8.355 16.094-13.162zm167.072 18.483v8.681h43.687v-8.68zm76.172 0v8.681h43.687v-8.68zm113.418 1.96v13.163h28.005v12.041h-31.365v13.163h31.365v47.716c-10.625.663-21.143 1.082-31.365 1.176v14.398c25.765-1.254 51.085-2.59 76.452-5.906l-.35-13.697a947.486 947.486 0 0 1-27.934 2.792v-46.48h27.724v-13.161h-27.724v-12.042h24.364v-13.163zm-189.59 11.202v8.402h43.687v-8.402zm76.172 0v8.402h43.687v-8.402zm-399.212 1.12h39.285c-4.522 16.947-10.862 30.738-20.426 41.694-8.83-10.956-14.684-24.747-18.859-41.694zm310.718 13.162v53.209h62.45v10.104c-.028 4.404 4.92 10.311 12.042 10.609v.01h77.012v-.01c4.696-.377 6.796-4.382 8.026-7.26l9.897-17.938h-15.167l-6.486 11.373c-.45.64-1.515.868-2.71.809l.068.14h-64.585c-1.389-.537-1.23-1.36-1.367-2.475.01-1.783.012-3.577.019-5.366h64.465V1852.022zm16.803 11.482h45.647v8.402h-45.647zm62.45 0h47.607v8.402h-47.607zm177.8 7.282c-1.333 12.352-3.147 24.456-6.133 36.685h14.03c4.117-14.327 5.52-23.915 6.134-36.685zm-55.14 1.68c3.524 12.228 6.357 24.683 8.485 36.336l15.318.35c-1.831-12.42-4.112-22.01-7.789-36.686zm-185.11 10.922h45.647V1893.752h-45.647zm62.45 0h47.607v10.361h-47.621v-.28h.014v-3.596c.01-1.6.011-3.209.017-4.805h-.017zm-265.794.84c-1.501 15.624-17.234 23.868-24.053 27.814-.003 5.01.126 10.023.123 15.033 8.684-3.053 33.992-14.963 39.083-42.847zm25.795 0v31.099c-.028 4.523 4.92 10.59 12.042 10.896v.012h63.29v-.01c4.696-.378 6.796-4.383 8.026-7.261l9.897-17.938H905.26l-6.486 11.373c-.451.641-1.515.868-2.711.81l.069.14h-51.124c.202-.148.416-.225.647-.219-1.81-.543-1.605-1.437-1.753-2.68.03-8.712.059-17.514.09-26.226zm33.325 0c4.686 8.588 10.303 17.58 14.057 25.764h17.588c-4.286-8.723-8.705-17.176-14.056-25.764zm49.288 0c8.763 10.489 17.525 22.456 23.88 33.885h19.247c-6.757-11.564-14.583-22.859-23.88-33.885z" style="color:#000;font-style:normal;font-variant:normal;font-weight:400;font-stretch:normal;font-size:medium;font-family:sans-serif;font-variant-ligatures:normal;font-variant-position:normal;font-variant-caps:normal;font-variant-numeric:normal;font-variant-alternates:normal;font-variant-east-asian:normal;font-feature-settings:normal;text-indent:0;text-decoration:none;text-decoration-line:none;text-decoration-style:solid;text-decoration-color:#000;letter-spacing:normal;word-spacing:normal;text-transform:none;writing-mode:lr-tb;direction:ltr;text-orientation:mixed;dominant-baseline:auto;baseline-shift:baseline;text-anchor:start;clip-rule:nonzero;display:inline;overflow:visible;visibility:visible;color-interpolation:sRGB;vector-effect:none;fill:#000;fill-opacity:1;fill-rule:nonzero;stroke:none;stroke-width:8.40136;stroke-linecap:round;stroke-linejoin:round;stroke-miterlimit:4;stroke-dasharray:none;stroke-dashoffset:0;stroke-opacity:1;color-rendering:auto;image-rendering:auto;shape-rendering:auto;text-rendering:auto;enable-background:accumulate;stop-color:#000;stop-opacity:1" transform="translate(-.979 .354)"/></g><g style="opacity:1"><path d="M356.977 1929.318a2.8 2.8 0 0 0-2.801 2.801v68.33a2.8 2.8 0 0 0 2.8 2.801h11.202a2.8 2.8 0 0 0 2.8-2.8v-27.165h4.481v27.164a2.8 2.8 0 0 0 2.8 2.801h11.202a2.8 2.8 0 0 0 2.8-2.8v-68.33a2.8 2.8 0 0 0-2.8-2.802H378.26a2.8 2.8 0 0 0-2.801 2.801v24.645h-4.48v-24.645a2.8 2.8 0 0 0-2.801-2.8zm108.377 0a2.8 2.8 0 0 0-2.801 2.801v68.33a2.8 2.8 0 0 0 2.8 2.801h10.083a2.8 2.8 0 0 0 2.8-2.8v-7.542l3.19 8.27a2.8 2.8 0 0 0 2.613 1.793h11.28a2.8 2.8 0 0 0 2.613-3.809l-10.682-27.695 8.676-17.473 5.834 31.606a2.8 2.8 0 0 0 .049.527l2.802 14.828a2.8 2.8 0 0 0-.23.053h-3.461a2.8 2.8 0 0 0-2.8 2.8v8.682a2.8 2.8 0 0 0 2.8 2.801h5.039a2.8 2.8 0 0 0 .746-.101c.187-.021.374-.035.563-.064a2.8 2.8 0 0 0 .002 0c6.216-.966 10.875-5.918 11.716-11.875l-.021.129 9.119-48.274v37.22a2.8 2.8 0 0 0 .176.975c.52 4.492 3.01 7.713 6.017 9.112 3.2 1.487 6.572 1.364 9.217.535.55-.172 1.15-.47 1.736-.738a2.8 2.8 0 0 0 2.176 1.039h10.082a2.8 2.8 0 0 0 2.801-2.801v-51.527a2.8 2.8 0 0 0-2.8-2.801h-10.083a2.8 2.8 0 0 0-2.8 2.8v35.616c-.14 1.066-.308 2.147-.55 2.652-.072.152-.08.183-.103.256-.056-.073-.134-.132-.187-.256v-38.267a2.8 2.8 0 0 0-2.801-2.801h-10.08a2.8 2.8 0 0 0-2.242 1.12 2.8 2.8 0 0 0-2.24-1.12h-9.112a2.8 2.8 0 0 0-2.752 2.281l-2.125 11.244-2.072-11.232a2.8 2.8 0 0 0-2.754-2.293h-9.75a2.8 2.8 0 0 0-1.26.3 2.8 2.8 0 0 0-1.26-.3H484.04a2.8 2.8 0 0 0-2.51 1.555l-3.293 6.632v-22.19a2.8 2.8 0 0 0-2.8-2.8zm-105.579 5.602h5.602v24.643a2.8 2.8 0 0 0 2.8 2.8h10.083a2.8 2.8 0 0 0 2.8-2.8v-24.643h5.6v62.73h-5.6v-27.166a2.8 2.8 0 0 0-2.8-2.798h-10.082a2.8 2.8 0 0 0-2.801 2.798v27.166h-5.602zm108.38 0h4.48v31.328a2.8 2.8 0 0 0 5.308 1.246l7.83-15.771h5.028l-9.115 18.357a2.8 2.8 0 0 0-.104 2.252l9.654 25.037h-5.277l-7.912-20.515a2.8 2.8 0 0 0-5.412 1.007v19.79h-4.48zm-58.509 10.084c-4.676-.071-8.421 1.361-10.833 3.574a2.8 2.8 0 0 0-.06.055c-1.903 1.85-4.17 4.638-4.526 10.518a2.8 2.8 0 0 0-.004.21c.042 2.82.003 2.224.03 6.66a2.8 2.8 0 0 0 2.802 2.784h3.535c-3.326 2.366-6.505 6.072-6.785 12.147-.715 11.539 1.296 17.278 4.67 20.154 1.688 1.44 3.593 1.926 4.949 2.05.677.063 1.244.05 1.568.044h.078a2.8 2.8 0 0 0 .885.03c.98-.12 2.335.144 4.27-.394.137-.038.255-.193.392-.244a2.8 2.8 0 0 0 1.807.66h10.363a2.8 2.8 0 0 0 2.8-2.8v-43.407a2.8 2.8 0 0 0-.146-.889c-.399-3.478-2.348-6.977-5.978-9.17a2.8 2.8 0 0 0-.242-.13c-3.116-1.486-5.444-1.788-9.575-1.85zm39.36.277c-1.417 0-2.751.206-3.951.578-.582.18-1.283.7-1.907.987a2.8 2.8 0 0 0-1.878-.725h-10.082a2.8 2.8 0 0 0-2.801 2.8v51.528a2.8 2.8 0 0 0 2.8 2.801h10.083a2.8 2.8 0 0 0 2.8-2.8v-36.11c.258-1.185.398-2.193.56-2.684v38.793a2.8 2.8 0 0 0 2.8 2.801h10.082a2.8 2.8 0 0 0 2.8-2.8v-41.934a2.8 2.8 0 0 0 .28-1.221c0-4.153-1.532-7.43-3.87-9.397-2.098-1.766-4.593-2.376-6.913-2.5a2.8 2.8 0 0 0-.801-.117zm-39.443 5.323a2.8 2.8 0 0 0 .043 0c3.84.058 4.634.117 7.029 1.242 2.301 1.428 3.252 3.414 3.342 5.326a2.8 2.8 0 0 0 .01.14v40.336h-4.762v-.822a2.8 2.8 0 0 0-5.424-.978c-.628 1.684-.719 1.488-1.076 1.588-.318.088-1.546.062-3.068.207-.026 0-.112-.04-.135-.041-.274-.015-.45-.01-.623-.01-.345.01-.649.01-.961-.02-.625-.057-1.187-.19-1.828-.737-1.284-1.094-3.39-4.793-2.715-15.58a2.8 2.8 0 0 0 .004-.047c.222-4.881 2.072-6.432 5.058-8.342 2.987-1.909 7.31-3.514 10.254-7.677a2.8 2.8 0 0 0 .514-1.618v-5.117a2.8 2.8 0 0 0-.123-.822c-.31-1.009-.986-2.154-2.06-2.87-1.075-.714-2.299-.929-3.495-.929a2.8 2.8 0 0 0-.55.055c-1.421.285-2.737 1.09-3.579 2.133-.84 1.044-1.253 2.21-1.496 3.336-.278 1.286-.35 2.572-.369 3.84h-3.71c0-.965.001-2.248-.02-3.74.297-4.85.946-4.984 2.795-6.77 1.116-1.016 3.502-2.142 6.945-2.09zm39.435.279a2.8 2.8 0 0 0 .014 0c1.525 0 3.061.423 4.103 1.3.91.766 1.562 2.07 1.739 4.268a2.8 2.8 0 0 0-.143.877v40.322h-4.48v-37.154a2.8 2.8 0 0 0-.229-1.11c-.607-1.405-1.81-2.904-3.605-3.644a2.8 2.8 0 0 0-1.067-.21c-1.389 0-2.743.37-3.787 1.12-1.044.75-1.68 1.774-2.053 2.684-.745 1.82-.788 3.441-.94 4.053a2.8 2.8 0 0 0-.081.672v33.59h-4.48v-45.928h4.593a2.8 2.8 0 0 0 4.291 1.513c1.515-1.058 3.006-1.768 3.842-2.027a8.056 8.056 0 0 1 2.283-.326zm52.205.84h4.053l4.373 23.69a2.8 2.8 0 0 0 5.506.011l4.476-23.701h3.414l-9.564 50.62a2.8 2.8 0 0 0-.022.126 8.386 8.386 0 0 1-7.687 7.2 2.8 2.8 0 0 0-.203.022h-1.83v-3.08h1.4a2.8 2.8 0 0 0 1.631-.523c1.113-.383 2.12-.99 2.748-1.957a2.8 2.8 0 0 0 .402-1.006l.313-1.65a2.8 2.8 0 0 0 0-1.04l-2.805-14.832a2.8 2.8 0 0 0-.045-.504zm32.48 0h4.483v36.164a2.8 2.8 0 0 0 .146.898c.542 1.598 1.76 3.425 3.817 4.281a2.8 2.8 0 0 0 1.076.215c2.765 0 5.04-1.865 5.906-3.678.866-1.812.953-3.533 1.073-4.464a2.8 2.8 0 0 0 .023-.358v-33.058h4.48v45.927h-4.482a2.8 2.8 0 0 0-4.437-2.181c-1.555 1.12-3.099 1.87-3.95 2.136-1.333.419-3.612.46-5.181-.27-1.57-.729-2.756-1.836-2.936-5.157a2.8 2.8 0 0 0-.017-.196zm-124.058 8.22v2.563c-.105.122-.22.238-.334.355.035-.762-.002-1.815.105-2.314.077-.353.15-.434.229-.604zm2.836 11.705a2.8 2.8 0 0 0-1.291.297c-2.119 1.062-4.44 2.787-6.03 5.399a2.8 2.8 0 0 0-.21.422c-.783 1.972-.812 4.018-.873 6.306-.062 2.288.003 4.462.218 5.963a2.8 2.8 0 0 0 .082.383c.412 1.42 1.422 2.807 2.668 3.424 1.247.617 2.254.59 3.004.637a2.8 2.8 0 0 0 .54-.018c1.145-.15 1.573-.606 1.945-.93.372-.324.642-.635.902-.957.52-.644.977-1.336 1.38-1.979a2.8 2.8 0 0 0 .429-1.488v-14.658a2.8 2.8 0 0 0-2.764-2.801z" style="color:#000;font-style:normal;font-variant:normal;font-weight:400;font-stretch:normal;font-size:medium;font-family:sans-serif;font-variant-ligatures:normal;font-variant-position:normal;font-variant-caps:normal;font-variant-numeric:normal;font-variant-alternates:normal;font-variant-east-asian:normal;font-feature-settings:normal;text-indent:0;text-decoration:none;text-decoration-line:none;text-decoration-style:solid;text-decoration-color:#000;letter-spacing:normal;word-spacing:normal;text-transform:none;writing-mode:lr-tb;direction:ltr;text-orientation:mixed;dominant-baseline:auto;baseline-shift:baseline;text-anchor:start;clip-rule:nonzero;display:inline;overflow:visible;visibility:visible;color-interpolation:sRGB;vector-effect:none;fill:#fff;fill-opacity:1;fill-rule:nonzero;stroke:none;stroke-linecap:round;stroke-linejoin:round;stroke-miterlimit:4;stroke-dasharray:none;stroke-dashoffset:0;stroke-opacity:1;color-rendering:auto;image-rendering:auto;shape-rendering:auto;text-rendering:auto;enable-background:accumulate;stop-color:#000;stop-opacity:1" transform="translate(-.979 .354)"/><path d="M356.976 1932.119v68.331h11.202v-29.965h10.081v29.965h11.202v-68.331H378.26v27.444h-10.081v-27.444zm108.377 0v68.331h10.082v-22.589l8.603 22.309h11.28l-11.123-28.845 11.123-22.403h-11.28l-8.603 17.327v-34.13zm-55.748 15.685c-4.067-.062-7.139 1.221-8.9 2.837-1.9 1.846-3.355 3.269-3.683 8.679.043 2.84.004 2.263.033 6.684h9.293c0-4.335-.235-8.675 3.198-9.364 1.717 0 2.51.62 2.879 1.821v5.117c-4.692 6.636-15.302 6.023-15.825 17.51-1.397 22.356 8.238 18.886 9.011 19.362 2.838-.35 5.194.722 6.814-3.622v3.622h10.361v-43.407h-.012c-.132-2.83-1.626-5.77-4.76-7.662-2.847-1.358-4.34-1.515-8.41-1.577zm39.403.277c-1.134 0-2.215.172-3.123.454-1.24.384-2.899 1.206-4.616 2.405v-2.018h-10.081v51.528h10.081v-36.39c.526-2.129.286-5.729 4.061-5.729 1.047.431 1.697 1.23 2.1 2.165v39.954h10.082v-43.121a1.3 1.3 0 0 1 .28-.033c0-7.054-4.733-9.22-8.784-9.215zm48.83.84 6.77 36.687h-.048l2.9 15.347-.311 1.65a2.417 2.417 0 0 1-2.03 1.105v.1h-4.2v8.682h5.04v-.032c.295-.022.589-.055.88-.1 4.995-.776 8.702-4.74 9.374-9.5l10.19-53.938h-9.112l-4.909 25.982-4.795-25.983zm33.046 0v43.408h.021c.448 8.277 7.773 9.196 11.752 7.948 1.27-.399 2.986-1.265 4.75-2.537v2.71h10.081v-51.528h-10.081v35.86c-.263 2.043-.531 5.699-4.201 5.699-1.19-.496-1.862-1.478-2.24-2.594v-38.965zm-118.46 25.528v14.658c-.744 1.186-1.678 2.507-2.217 2.577-1.504-.095-2.613-.162-3.159-2.046-.328-2.283-.348-8.744.484-10.838 1.224-2.01 3.16-3.483 4.893-4.35z" style="color:#000;font-style:normal;font-variant:normal;font-weight:400;font-stretch:normal;font-size:medium;font-family:sans-serif;font-variant-ligatures:normal;font-variant-position:normal;font-variant-caps:normal;font-variant-numeric:normal;font-variant-alternates:normal;font-variant-east-asian:normal;font-feature-settings:normal;text-indent:0;text-decoration:none;text-decoration-line:none;text-decoration-style:solid;text-decoration-color:#000;letter-spacing:normal;word-spacing:normal;text-transform:none;writing-mode:lr-tb;direction:ltr;text-orientation:mixed;dominant-baseline:auto;baseline-shift:baseline;text-anchor:start;clip-rule:nonzero;display:inline;overflow:visible;visibility:visible;color-interpolation:sRGB;vector-effect:none;fill:#000;fill-opacity:1;fill-rule:nonzero;stroke:none;stroke-width:5.60091;stroke-linecap:round;stroke-linejoin:round;stroke-miterlimit:4;stroke-dasharray:none;stroke-dashoffset:0;stroke-opacity:1;color-rendering:auto;image-rendering:auto;shape-rendering:auto;text-rendering:auto;enable-background:accumulate;stop-color:#000;stop-opacity:1" transform="translate(-.979 .354)"/></g></g></svg>