<svg xmlns="http://www.w3.org/2000/svg" width="368.98874mm" height="102.09771mm" viewBox="0 0 368.98874 102.09771"><defs><clipPath id="a"><path d="M0 0h595.278v841.891H0Z"/></clipPath><clipPath id="b"><path d="M515.948 23.986c-.083.006-.162.061-.243.071-.082.008-.164.023-.245.036a4.891 4.891 0 0 0-.242.042c-.081.017-.165.021-.244.041-.081.018-.169.011-.249.033-.078.021-.154.065-.231.091-.079.022-.14.101-.217.127-.077.027-.16.041-.236.07-.077.03-.173.01-.247.042-.077.032-.115.15-.19.183s-.152.062-.223.098c-.077.037-.151.069-.223.105-.072.04-.17.034-.24.075-.073.038-.117.126-.185.167-.073.042-.14.087-.208.131-.073.044-.155.065-.222.109-.07.047-.109.133-.175.179-.068.048-.14.088-.204.135-.07.05-.172.051-.232.1-.069.055-.104.139-.161.19-.069.061-.147.139-.199.19-.05-.051-.143-.111-.211-.173-.058-.049-.078-.15-.149-.204-.059-.049-.133-.09-.201-.143-.061-.047-.095-.142-.165-.193-.064-.046-.152-.065-.222-.112-.067-.044-.168-.041-.239-.086-.066-.043-.139-.08-.212-.123-.069-.04-.093-.164-.167-.202-.071-.041-.154-.062-.226-.099-.073-.039-.164-.041-.239-.078-.074-.035-.171-.018-.248-.052-.073-.034-.122-.123-.198-.155-.074-.03-.141-.092-.217-.12-.077-.029-.151-.066-.231-.092-.039-.015-.086-.005-.133.005-.046.009-.091.018-.129.006-.077-.024-.149-.068-.228-.09-.079-.021-.161-.028-.242-.046-.079-.02-.16-.026-.241-.042-.08-.016-.151-.077-.232-.092-.081-.012-.16-.037-.242-.047-.081-.011-.163-.03-.244-.036-.082-.006-.164-.018-.246-.02-.082-.002-.164.008-.246.01-.036.001-.072-.002-.107-.004-.048-.002-.096-.005-.142-.002-.082.004-.157.088-.24.098-.039.004-.082-.017-.125-.036-.045-.021-.091-.043-.132-.035-.08.011-.15.09-.231.106-.08.019-.153.066-.231.087-.079.021-.164.024-.243.05-.075.027-.161.035-.237.064-.077.029-.13.115-.205.148a.27.27 0 0 1-.13.003c-.05-.008-.1-.015-.137.004-.075.038-.115.136-.187.177-.07.041-.173.032-.242.078-.069.043-.077.18-.144.227-.066.047-.167.047-.233.098-.063.049-.152.072-.215.125a4.606 4.606 0 0 0-.189.164c-.058.054-.08.148-.137.205-.059.057-.092.136-.15.193-.056.059-.102.123-.156.182-.054.06-.154.078-.205.141-.053.062-.072.148-.12.212a7.278 7.278 0 0 0-.142.193c-.046.067-.129.108-.171.176-.045.068-.075.144-.117.213-.038.07-.129.115-.164.187-.038.072-.022.171-.055.244-.033.074-.016.167-.044.243-.029.073-.106.131-.133.208-.024.076-.067.148-.09.225-.021.079.031.173.014.252-.019.079-.132.138-.147.218-.014.079.074.173.065.256-.011.078-.083.151-.091.232-.008.079-.069.156-.074.237-.004.08.111.167.109.249-.002.079-.125.158-.125.239 0 .079.114.16.117.241.002.081-.023.16-.019.243.004.08-.073.164-.066.247.005.079.053.157.062.238.008.08.048.157.058.238.009.078-.006.161.003.243.011.079.035.159.047.239.013.078.016.161.031.241.016.081.06.154.079.233.019.078.032.158.054.237.023.078.029.161.055.238.025.078.018.166.047.243.027.078.075.146.105.222.03.076.036.163.069.237.032.074.099.134.136.207.035.073.022.171.06.243.038.072.131.115.172.187.039.071.126.114.166.184.043.071.019.179.063.247.044.07.143.101.189.169.045.066.07.146.119.213.047.066.122.111.171.176.05.064.083.139.133.203.052.064.071.153.124.216.055.06.131.101.186.161.054.06.082.145.138.205.056.059.083.145.14.204.059.058.153.076.213.134.058.056.148.078.207.135.06.054.061.174.124.228.06.054.13.098.193.149.062.053.177.041.242.092.062.05.117.111.181.16.065.049.088.156.153.204.066.047.123.11.19.156.066.047.168.046.234.091.069.044.104.14.174.184.068.043.181.016.25.056.07.041.151.063.222.104.071.041.134.091.206.131.071.038.148.068.219.104.073.036.131.104.204.14.073.035.125.119.198.152.037.018.085.011.134.004.046-.008.093-.014.13.001.076.031.129.114.204.144.076.03.167.021.243.051.077.028.155.046.232.072.076.027.155.055.231.08.077.025.155.042.234.066.077.024.127.146.204.169.08.022.161.034.24.054.079.019.164.018.245.035.039.011.083.003.126-.003a.348.348 0 0 1 .124-.005c.08.018.155.054.235.068.079.015.149.089.23.103l.243.034c.079.012.163.012.244.021.08.01.162.009.244.016.081.009.16.039.242.045.04.004.083-.004.125-.011.041-.007.081-.014.122-.013a.562.562 0 0 0 .129-.007c.039-.004.077-.009.116-.008.081.004.159.066.241.068.081.001.163.004.244.004.083 0 .165.02.247.019.081-.003.158-.099.24-.103.041-.001.083.015.124.03.043.015.084.031.126.029.08-.006.154-.094.234-.1.041-.003.082.017.125.036.043.02.086.04.128.034.08-.007.16-.042.241-.054.08-.01.156-.051.237-.063.04-.005.081.001.123.007a.364.364 0 0 0 .127.007c.08-.014.164-.005.245-.019.079-.016.15-.087.228-.102.081-.018.167-.006.246-.025.079-.018.14-.114.219-.133.039-.011.084.001.129.012.045.009.09.02.129.009.079-.021.152-.06.231-.083.078-.024.159-.038.237-.062.076-.026.154-.056.231-.083.076-.026.132-.108.209-.139a.362.362 0 0 1 .124-.009.294.294 0 0 0 .13-.011c.075-.03.136-.096.211-.129.076-.033.152-.06.226-.092.074-.034.132-.101.206-.136.075-.035.133-.097.204-.136.075-.037.169-.03.239-.069.071-.038.158-.052.228-.092.071-.04.114-.129.184-.17.07-.042.132-.094.202-.135.068-.044.168-.039.235-.084.069-.045.113-.124.179-.17.068-.046.145-.078.211-.125.065-.049.161-.058.225-.109.065-.048.124-.105.188-.156.061-.051.069-.17.132-.223.063-.052.134-.092.195-.145.062-.054.128-.1.186-.156.061-.055.129-.101.187-.158.058-.057.107-.12.165-.179.057-.058.15-.083.204-.141.057-.06.108-.123.162-.184.054-.06.107-.124.16-.185.052-.063.058-.162.111-.226.052-.062.178-.066.228-.13.049-.066.083-.143.13-.209.046-.066.109-.125.152-.193.047-.067.019-.184.062-.252s.13-.109.172-.179c.041-.071.03-.17.069-.24.041-.073.077-.144.114-.215.039-.072.112-.126.146-.199.036-.075.034-.164.068-.238l.092-.225c.031-.075.127-.126.154-.201.029-.078.064-.153.088-.229.025-.078.029-.163.05-.24.022-.081.032-.162.051-.241.02-.079.077-.151.091-.231.015-.079-.069-.177-.057-.257.011-.081.125-.146.135-.224.012-.082-.02-.17-.011-.248.009-.081.014-.163.02-.241.009-.082-.027-.166-.02-.245.006-.082.082-.158.086-.236.006-.082-.058-.165-.057-.245.003-.082.063-.163.063-.241 0-.082-.077-.161-.08-.24-.003-.082.007-.162.002-.242-.006-.081-.006-.161-.014-.24-.007-.081.073-.172.061-.252-.012-.081-.078-.152-.093-.232-.014-.079-.032-.157-.049-.237-.018-.078-.051-.153-.072-.23-.022-.077-.06-.151-.084-.225-.024-.079-.023-.165-.052-.239-.028-.077-.118-.125-.151-.198-.033-.074.024-.189-.011-.262-.037-.071-.153-.102-.193-.172-.039-.07 0-.188-.044-.255-.044-.068-.146-.098-.192-.165-.046-.067-.097-.127-.146-.19a3.805 3.805 0 0 0-.15-.191c-.049-.06-.128-.097-.184-.159-.052-.06-.021-.199-.079-.258-.054-.056-.129-.1-.188-.156-.056-.056-.161-.063-.221-.117-.063-.056-.067-.176-.129-.228-.064-.054-.174-.049-.239-.099s-.098-.145-.165-.192c-.069-.048-.185-.021-.253-.066-.07-.044-.105-.143-.174-.185-.073-.04-.152-.071-.223-.107-.075-.039-.178-.011-.252-.042-.076-.035-.126-.124-.204-.152-.075-.03-.165-.02-.243-.046-.079-.026-.153-.062-.23-.082-.08-.024-.166-.016-.245-.035-.081-.017-.155-.056-.236-.071-.082-.012-.161-.027-.242-.036-.082-.009-.165-.011-.246-.016-.082-.006-.163-.053-.244-.053-.082-.002-.163.058-.246.06a.28.28 0 0 1-.123-.039c-.04-.02-.079-.04-.117-.04h-.009"/></clipPath><clipPath id="d"><path d="M497.402 36.965h12.814V26.539h-12.814z"/></clipPath><clipPath id="e"><path d="M508.764 39.692h11.568V27.874h-11.568z"/></clipPath><clipPath id="f"><path d="M497.279 43.024h11.627V31.24h-11.627z"/></clipPath><clipPath id="g"><path d="M498.808 29.852h12.058V18.527h-12.058z"/></clipPath><clipPath id="h"><path d="M503.9 46.091h12.439V35.156H503.9Z"/></clipPath><clipPath id="i"><path d="M506.118 31.369H517.2V19.097h-11.082z"/></clipPath><clipPath id="j"><path d="M511.227 33.157h12.471V22.218h-12.471z"/></clipPath><clipPath id="k"><path d="M516.646 38.521h11.373V26.478h-11.373z"/></clipPath><filter id="c" width="1" height="1" x="0" y="0"><feBlend in="SourceGraphic" in2="BackgroundImage" mode="multiply"/></filter></defs><g style="stroke-width:.0734819"><g clip-path="url(#a)" style="stroke-width:.0734819" transform="translate(-2403.314 -86.143) scale(4.80088)"><path fill="#fff" d="M511.332 38.837c-.08 0-.163-.003-.244-.005-.082-.002-.16-.063-.24-.067-.083-.003-.165.021-.246.015-.082-.005-.166.031-.247.024-.082-.006-.162-.036-.243-.045-.08-.008-.163-.006-.243-.017-.08-.009-.165-.009-.244-.02l-.243-.034c-.08-.014-.152-.088-.23-.103-.08-.015-.155-.05-.235-.068-.08-.018-.173.028-.25.008-.082-.018-.166-.017-.245-.036-.078-.019-.16-.03-.239-.053-.078-.023-.128-.146-.205-.169-.08-.024-.158-.04-.234-.067a7.764 7.764 0 0 1-.23-.08c-.077-.026-.157-.044-.233-.072-.076-.029-.167-.02-.243-.05-.075-.03-.129-.113-.204-.144-.074-.033-.189.03-.264-.005-.074-.033-.125-.117-.198-.153-.073-.036-.13-.103-.204-.139-.07-.036-.148-.067-.22-.105-.07-.039-.134-.09-.205-.13-.07-.042-.152-.063-.222-.104-.07-.04-.182-.013-.25-.056-.07-.044-.106-.14-.174-.184-.067-.045-.168-.044-.234-.09-.067-.047-.124-.11-.19-.158-.066-.047-.088-.154-.152-.204-.065-.048-.12-.109-.182-.16-.066-.05-.18-.039-.242-.092-.063-.05-.133-.094-.194-.148-.062-.054-.063-.175-.123-.229-.059-.056-.149-.079-.208-.134-.059-.058-.153-.076-.212-.135-.056-.059-.085-.145-.14-.203-.056-.06-.084-.145-.138-.205-.055-.06-.132-.1-.186-.16-.053-.065-.073-.154-.123-.217-.05-.065-.084-.14-.134-.203-.049-.066-.124-.11-.17-.176-.05-.067-.075-.147-.119-.214-.046-.067-.146-.099-.19-.168-.044-.068-.02-.177-.062-.247-.04-.07-.128-.114-.167-.184-.04-.072-.134-.115-.172-.187-.038-.072-.026-.17-.06-.243-.037-.074-.104-.133-.137-.207-.032-.074-.038-.16-.068-.238-.03-.076-.078-.144-.105-.22-.029-.078-.023-.166-.047-.244-.026-.078-.032-.16-.055-.239-.022-.078-.035-.158-.055-.236-.018-.08-.062-.152-.078-.233-.015-.08-.018-.163-.03-.242-.013-.08-.037-.159-.048-.238-.01-.082.006-.165-.003-.243-.009-.08-.05-.158-.058-.238-.009-.08-.057-.16-.063-.239-.006-.082.071-.167.067-.247-.004-.083.021-.162.02-.242-.004-.082-.118-.162-.118-.24 0-.082.122-.16.125-.24.002-.082-.113-.169-.109-.249.004-.08.066-.159.074-.238.008-.08.08-.153.091-.232.01-.082-.079-.176-.065-.255.015-.08.128-.139.147-.218.017-.079-.036-.174-.014-.252.022-.078.066-.149.091-.225.026-.077.103-.135.132-.208.028-.076.011-.169.044-.243.033-.074.017-.172.054-.244.035-.072.126-.117.165-.187.041-.069.073-.145.117-.213.041-.068.125-.109.171-.176.046-.064.092-.129.142-.193.048-.065.067-.15.12-.213.051-.063.15-.08.205-.14.054-.059.101-.124.156-.182.058-.058.091-.137.15-.194.057-.056.08-.15.138-.205.062-.056.125-.112.188-.164.063-.053.151-.075.215-.125.066-.05.167-.05.232-.097.068-.047.076-.184.145-.227.07-.046.172-.037.242-.078.071-.04.112-.14.187-.177.073-.037.193.024.267-.008.075-.033.128-.118.205-.147.076-.029.161-.037.237-.065.08-.025.164-.029.243-.05.08-.02.151-.068.23-.086.081-.016.152-.095.232-.107.081-.015.177.08.257.071.083-.009.158-.093.24-.098.082-.005.166.008.25.007.081-.002.163-.012.245-.01.082.002.164.014.246.02.081.005.163.025.244.036.082.01.161.035.242.046.081.015.153.077.233.093.081.015.162.022.24.041.081.018.163.026.242.047.08.022.151.065.23.09.077.024.184-.04.26-.012.08.027.155.064.231.093.076.028.142.09.217.12.076.031.125.12.2.154.075.035.173.018.246.053.075.036.166.038.238.077.073.038.156.06.228.1.073.038.097.162.166.202.073.043.145.08.213.123.07.045.171.041.238.085.07.047.158.067.221.113.071.05.104.146.166.193.068.052.142.093.202.142.07.055.091.156.148.205.068.061.161.121.211.173.052-.052.13-.13.2-.19.056-.05.091-.135.16-.19.06-.049.163-.05.232-.1.063-.048.136-.087.204-.135.065-.047.105-.132.176-.179.066-.044.148-.066.22-.11.07-.043.136-.088.208-.13.07-.042.113-.129.186-.168.07-.04.167-.035.24-.074.072-.036.146-.068.223-.106.071-.036.148-.064.222-.098.076-.032.114-.15.191-.183.073-.03.17-.012.247-.042.076-.028.158-.042.236-.069.078-.027.138-.106.217-.128.077-.025.153-.069.232-.09.08-.022.167-.016.248-.033.08-.02.163-.025.244-.04.08-.017.161-.03.242-.043.081-.014.162-.027.244-.036.081-.01.16-.066.243-.072.081-.006.167.081.25.08.082-.002.163-.062.246-.06.081 0 .162.047.245.053.081.005.163.007.245.015.081.01.16.025.242.036.081.015.155.054.236.072.08.018.164.011.244.034.078.02.152.057.231.082.078.026.168.017.243.046.077.03.128.118.204.152.074.031.177.004.252.042.071.036.15.068.223.108.07.042.104.141.174.185.068.045.184.018.253.066.067.046.1.142.164.192.066.05.176.045.241.1.06.05.065.17.128.227.06.054.165.061.221.117.06.056.133.1.188.156.058.058.026.198.08.258.054.061.134.098.183.16.053.061.102.126.15.19.05.062.1.123.145.19.047.067.15.096.193.164.044.068.005.185.044.255.04.071.156.101.193.172.035.073-.02.19.011.262.033.074.123.122.151.198.028.075.028.16.052.24.024.074.062.147.084.225.021.077.054.151.071.231.018.08.035.157.05.236.015.08.081.151.093.232.012.08-.069.171-.062.252.01.078.01.158.015.24.006.08-.005.16-.002.242.003.08.08.158.08.24 0 .078-.06.158-.062.241-.002.08.061.163.056.245-.004.078-.08.154-.087.236-.006.08.03.163.022.245-.007.078-.012.16-.022.241-.009.078.024.165.012.247-.01.078-.124.145-.136.225-.01.08.073.177.058.256-.015.08-.07.153-.09.232-.02.078-.03.16-.052.24-.02.077-.025.162-.05.24-.024.077-.059.152-.087.23-.028.075-.124.126-.155.201-.03.075-.06.15-.093.225-.033.074-.03.163-.067.237-.034.074-.107.127-.145.2-.038.07-.075.142-.115.214-.039.07-.028.17-.069.24-.042.071-.129.112-.172.18-.044.068-.015.185-.062.252-.043.068-.106.127-.153.192-.047.067-.08.144-.129.21-.05.064-.176.068-.228.13-.053.063-.059.162-.11.226l-.16.185c-.054.061-.106.123-.163.184-.054.058-.147.082-.204.14-.059.06-.107.122-.165.18-.058.057-.126.103-.186.157-.059.056-.125.103-.187.157-.06.052-.133.092-.195.145-.064.052-.07.172-.132.223-.064.051-.123.107-.188.156-.064.05-.16.06-.225.108-.067.047-.143.08-.21.125-.068.046-.11.126-.18.171-.067.045-.167.04-.235.083-.07.042-.132.093-.202.136-.07.041-.114.13-.184.17-.07.04-.157.054-.228.092-.07.038-.164.032-.239.07-.07.037-.13.1-.204.135-.074.035-.133.101-.206.136-.074.032-.15.06-.226.091-.075.034-.136.1-.21.13-.078.03-.178-.008-.255.02-.077.03-.133.112-.209.138-.077.028-.155.058-.232.083-.077.025-.158.04-.236.062-.079.023-.152.063-.23.084-.079.021-.18-.043-.259-.02-.079.017-.14.114-.219.131-.079.02-.165.008-.246.026-.078.015-.149.086-.228.101-.08.015-.166.006-.246.02-.08.012-.168-.026-.249-.014-.08.012-.157.053-.237.063-.08.011-.16.047-.24.054-.082.01-.17-.077-.253-.07-.08.006-.156.094-.236.1-.082.004-.167-.063-.249-.059-.082.004-.159.1-.24.102-.082.002-.164-.018-.247-.018" style="stroke-width:.00539959"/></g><g clip-path="url(#b)" style="stroke-width:.0734819" transform="translate(-2403.314 -86.143) scale(4.80088)"><g filter="url(#c)" style="stroke-width:.00539959"><g clip-path="url(#d)" style="stroke-width:.0734819"><path fill="#f468a7" d="M504.664 26.61c.066.013.11.155.176.167.066.015.148-.053.214-.04.066.016.132.028.197.044.066.015.138.015.201.032.065.018.11.105.175.126.065.018.16-.055.223-.034.064.019.09.152.154.175.064.022.12.059.182.084.064.023.151-.012.211.014.064.026.142.017.203.044l.183.088c.061.029.087.129.146.159.06.033.17-.03.23.002.058.033.058.17.115.204.06.035.16-.003.217.033.057.036.078.128.134.165.056.037.094.099.147.138.056.039.15.026.203.066.053.04.123.059.176.103.053.042.108.08.16.126.051.045.028.17.078.216.05.046.101.085.148.133.048.047.187.006.233.054.047.048.082.109.128.16.044.05.067.12.11.174.043.05.098.094.14.147.042.053.106.09.146.146.038.054.037.14.073.195.037.057.11.092.146.149.036.057.074.115.107.173.033.059.064.122.094.182.031.06.041.132.07.193.027.062-.029.158-.003.22.026.063.084.11.108.176.022.062.08.114.1.178.02.064-.01.142.01.206.017.066.02.134.035.199.014.064.076.122.087.186.013.067-.016.14-.007.205.008.069-.02.136-.017.203.005.068.01.13.012.199.001.067.04.132.04.199-.003.068 0 .135-.004.202-.004.065.078.143.071.21-.008.066-.122.118-.133.187-.01.067.07.15.055.216-.014.067-.125.109-.14.173-.019.066-.054.123-.074.188-.02.065.067.167.044.229-.024.064-.054.126-.082.187-.027.062-.05.129-.08.19-.029.06-.132.084-.165.143-.03.059-.108.089-.145.147-.033.058.027.175-.012.232-.036.055-.143.062-.183.118-.04.053-.004.166-.047.218-.042.053-.142.059-.186.11-.045.05-.077.11-.124.159-.046.048-.07.12-.119.167-.048.048-.109.083-.159.127-.05.045-.116.073-.168.115-.052.043-.099.092-.15.134-.054.04-.135.044-.19.083-.056.039-.107.08-.164.118-.056.036-.086.114-.144.149-.057.034-.094.107-.153.14-.058.033-.158-.007-.217.025-.059.03-.107.087-.167.115-.06.029-.138.022-.2.05-.062.027-.119.06-.182.087-.06.025-.13.027-.195.05-.062.024-.129.039-.193.059-.062.022-.115.073-.18.094-.064.018-.11.11-.175.128-.064.017-.158-.077-.223-.061-.065.015-.119.083-.185.098-.065.014-.139-.015-.205-.002-.066.012-.114.13-.183.14-.066.01-.148-.096-.215-.088-.068.009-.123.11-.192.117-.066.007-.137-.028-.205-.023-.065.005-.134.02-.2.024-.067.002-.135.01-.202.01-.068.002-.136-.082-.203-.082s-.132-.007-.2-.011c-.068-.003-.134.013-.202.009-.067-.003-.13-.034-.199-.041-.065-.005-.145.116-.214.109-.066-.007-.13-.04-.197-.05-.066-.01-.14.014-.206.002a4.163 4.163 0 0 1-.2-.036c-.068-.014-.115-.122-.18-.137-.066-.013-.132-.024-.198-.04-.064-.016-.12-.065-.187-.083-.064-.017-.165.089-.229.07-.064-.02-.108-.112-.172-.131-.064-.023-.142-.004-.205-.028-.064-.022-.122-.058-.186-.082-.063-.025-.145-.004-.207-.03-.06-.026-.082-.154-.14-.183-.063-.026-.13-.041-.19-.07-.06-.03-.143-.018-.203-.048-.06-.03-.1-.098-.158-.132-.06-.032-.097-.1-.155-.134-.059-.036-.16.003-.217-.034-.057-.036-.069-.14-.124-.177-.057-.037-.12-.061-.176-.1-.055-.04-.146-.027-.2-.067-.054-.041-.07-.13-.123-.172-.053-.042-.077-.116-.128-.16-.05-.044-.172-.007-.223-.054-.049-.046-.046-.147-.094-.194-.048-.048-.133-.057-.18-.105-.046-.051-.034-.151-.08-.2-.044-.051-.149-.05-.193-.102-.042-.051-.028-.148-.07-.201-.04-.053-.139-.064-.179-.118-.038-.056-.089-.103-.127-.158-.038-.057-.054-.127-.09-.184-.035-.058-.035-.137-.067-.194-.033-.06-.123-.09-.153-.148-.03-.06.026-.163-.002-.223-.029-.061-.148-.082-.174-.144-.026-.062 0-.145-.023-.21-.022-.062.01-.142-.01-.207-.022-.063-.164-.092-.18-.157-.02-.065.021-.145.005-.211-.014-.066-.017-.133-.028-.201-.012-.066-.027-.131-.036-.2-.008-.066-.052-.13-.057-.197-.005-.066.013-.136.01-.204-.002-.067.08-.132.08-.201.002-.066-.059-.136-.054-.202.004-.068-.059-.143-.052-.21.01-.065.027-.135.038-.202.012-.067.138-.111.151-.177.015-.065.045-.126.062-.19.016-.065-.038-.151-.018-.213.02-.067.117-.102.14-.165.023-.064.01-.138.035-.2.03-.063.053-.124.082-.184.031-.061.098-.1.13-.158.033-.06-.025-.17.01-.227.035-.057.058-.125.094-.181.038-.056.132-.073.173-.127.04-.055.11-.084.151-.137.042-.051.062-.121.106-.173.043-.05.068-.12.114-.168.047-.048.115-.073.164-.122.048-.047.051-.143.1-.188.05-.044.127-.06.181-.103.051-.043.07-.131.122-.172.053-.041.168 0 .224-.04.055-.037.08-.12.137-.155.055-.038.13-.047.188-.081.057-.035.103-.088.162-.122.06-.033.123-.054.182-.085.06-.032.136-.03.198-.057.061-.028.082-.145.143-.174.062-.026.133-.032.197-.057.062-.026.138-.016.202-.04.062-.022.111-.087.176-.11.064-.018.153.039.217.02.066-.02.123-.063.187-.08.066-.018.111-.111.177-.126.066-.016.141.013.21 0 .063-.014.146.056.213.046.066-.012.12-.1.185-.11.066-.008.144.06.211.052.068-.008.12-.141.187-.146.067-.006.14.049.207.044.067-.004.133-.048.201-.05.067-.004.136.097.203.095.067-.002.134-.101.201-.1.068.003.133.087.201.089.067.003.131.013.2.017.067.004.141-.094.21-.09.065.006.122.118.19.127.066.008.135-.005.201.005.067.008.151-.086.217-.075" style="stroke-width:.00539959"/></g></g><g filter="url(#c)" style="stroke-width:.00539959"><g clip-path="url(#e)" style="stroke-width:.0734819"><path fill="#ffdc08" d="M518.435 37.25c-.044.05-.113.078-.16.127-.046.05-.14.052-.187.1-.048.048-.051.138-.1.185a3.9 3.9 0 0 1-.15.137c-.05.046-.083.11-.133.154-.052.044-.124.065-.174.107-.053.044-.111.079-.163.12-.054.042-.11.078-.163.119-.055.04-.085.113-.14.15-.056.04-.142.032-.198.069-.057.039-.104.087-.161.123-.058.035-.114.074-.17.107-.06.035-.133.04-.193.072-.058.032-.088.12-.147.15-.06.032-.136.03-.196.059-.061.03-.134.03-.196.058-.06.028-.092.127-.155.152-.062.027-.131.034-.193.058-.065.023-.126.052-.19.072-.063.024-.126.053-.19.073-.064.02-.152-.042-.218-.026-.065.019-.107.122-.172.138-.066.015-.143-.02-.21-.005-.064.013-.131.022-.196.035-.068.01-.135.012-.202.02-.067.01-.131.034-.198.04-.066.006-.133.013-.201.017-.067.005-.135.007-.201.009-.067.002-.135.007-.202.006-.067-.002-.135-.002-.201-.005-.068-.003-.137.028-.205.02-.067-.004-.132-.037-.198-.046-.067-.008-.124-.08-.19-.09-.066-.012-.128-.03-.194-.045-.066-.014-.131-.02-.196-.037-.065-.018-.13-.028-.194-.047-.065-.02-.14-.006-.202-.03-.064-.023-.132-.033-.194-.058-.061-.028-.114-.075-.174-.104-.062-.027-.155.007-.214-.024-.06-.031-.088-.121-.147-.155-.057-.034-.085-.115-.141-.152-.057-.038-.161-.003-.215-.043-.054-.038-.102-.088-.155-.13-.053-.042-.134-.052-.186-.096-.05-.046-.068-.126-.117-.173-.048-.048-.103-.088-.15-.138-.047-.05-.106-.087-.15-.138-.044-.052-.038-.145-.078-.197-.041-.054-.1-.093-.138-.15-.038-.056-.07-.114-.106-.171-.037-.058-.12-.087-.155-.146-.032-.058.009-.158-.021-.217-.031-.06-.027-.134-.054-.197-.028-.06-.104-.1-.13-.164-.024-.061-.04-.127-.061-.192-.022-.063-.053-.122-.072-.188-.02-.064-.07-.12-.086-.186-.016-.064.06-.15.046-.22-.013-.063-.08-.118-.09-.184-.01-.067.019-.137.009-.205-.008-.067-.032-.13-.038-.198-.007-.066-.111-.127-.115-.194-.003-.067.113-.14.11-.206 0-.068-.007-.133-.006-.201.002-.068-.031-.134-.03-.201.005-.07-.05-.14-.045-.208.006-.066.074-.126.08-.195.008-.066.055-.128.066-.194.01-.066-.02-.138-.007-.204.013-.068.057-.125.069-.193.015-.065-.035-.144-.018-.212.015-.064.027-.13.046-.196.017-.064.016-.137.036-.201.02-.063.109-.106.13-.171.022-.063-.028-.153-.004-.217.023-.062.149-.086.175-.148.025-.063.054-.121.083-.184.025-.06.057-.12.086-.18.028-.061-.045-.171-.015-.232.03-.06.077-.113.108-.172.033-.06.104-.097.138-.156.032-.058.085-.105.12-.163.035-.057.019-.147.056-.202.035-.057.11-.088.148-.145.038-.055.066-.12.106-.174.038-.054.13-.07.17-.123.042-.054.003-.17.045-.221.043-.052.094-.098.137-.151.044-.051.077-.112.122-.163.045-.05.099-.092.146-.142.046-.047.099-.092.145-.141.047-.048.077-.115.124-.163.049-.046.169-.02.219-.063.05-.047.052-.144.102-.188.05-.044.083-.112.134-.154.053-.045.139-.045.192-.087.053-.042.076-.122.13-.163.054-.04.126-.06.179-.098.057-.038.115-.073.17-.11.057-.038.119-.066.177-.1.057-.036.132-.042.19-.075.058-.035.128-.048.186-.081.058-.032.108-.082.166-.113.06-.031.134-.033.195-.062.06-.03.07-.17.13-.196.062-.028.16.028.222.003.062-.026.135-.022.197-.047.065-.023.082-.17.147-.191a2.93 2.93 0 0 1 .195-.062c.065-.021.155.053.22.034.066-.018.129-.045.193-.062.066-.014.126-.05.19-.062.068-.015.139-.004.206-.017.065-.01.138.028.205.019.067-.01.123-.098.19-.105.068-.006.138.028.204.023.068-.005.132-.082.199-.083.069-.002.137.015.205.015.067 0 .132.059.2.063.067.003.142-.087.209-.08.067.005.133.038.2.047.068.008.137.009.204.02.066.01.122.083.187.098.067.014.135.019.2.035.065.017.112.097.175.115.066.022.14.006.204.029.06.023.136.017.2.042.062.026.13.044.19.07.062.029.128.049.188.08.06.03.112.079.169.112.058.036.09.112.146.15.056.036.155.012.21.053.054.038.096.099.148.14.052.044.056.143.106.189.052.045.174.01.223.057.049.048.01.179.057.227.045.05.125.068.169.118.042.052.11.085.152.138.04.053.023.15.06.206.039.054.104.092.14.148.035.057.103.096.136.155.033.058 0 .152.029.21.03.063.075.114.103.175.028.062.097.105.123.167.024.064.03.133.052.198.023.062.007.138.026.202.019.065.05.126.067.19.018.067.094.117.107.183.015.065 0 .139.012.205.01.066-.046.14-.036.209.009.065.118.122.124.188.006.069-.005.137 0 .205.003.067-.081.137-.08.205.002.067.07.134.068.202 0 .068 0 .134-.004.203-.002.066.045.137.04.205-.005.066-.021.136-.03.202-.007.067-.021.136-.03.202-.01.066-.114.118-.127.185-.011.066.058.149.044.214-.014.066-.14.106-.155.17-.016.067.057.156.04.22-.02.065-.063.12-.081.188-.022.064-.083.114-.107.177-.02.064.05.16.028.225-.023.062-.112.1-.137.163-.026.063.002.148-.026.21-.027.06-.06.12-.087.182-.03.06-.064.12-.094.18-.031.06-.128.086-.16.146-.033.058-.022.139-.056.197-.035.06-.026.145-.062.202-.036.057-.164.055-.201.113-.036.056-.064.118-.101.173-.037.055-.075.112-.114.166-.04.055-.1.092-.14.145-.04.055.02.187-.022.24-.041.053-.105.089-.15.14-.043.052-.083.108-.13.159" style="stroke-width:.00539959"/></g></g><g filter="url(#c)" style="stroke-width:.00539959"><g clip-path="url(#f)" style="stroke-width:.0734819"><path fill="#f6695f" d="M499.291 33.667c.046-.05.07-.119.117-.168.047-.05.074-.119.121-.167.05-.047.11-.083.158-.13.05-.046.174-.009.224-.053.051-.045.095-.097.145-.14.051-.044.064-.134.117-.176.053-.043.072-.127.126-.168.053-.042.141-.039.194-.078.056-.04.082-.12.137-.158.057-.039.133-.048.19-.085.057-.036.118-.064.176-.099.06-.035.144-.02.203-.055.058-.034.116-.064.176-.095.061-.033.102-.098.161-.128.062-.029.122-.062.182-.089.061-.029.105-.102.167-.128.061-.025.132-.033.195-.058.063-.023.16.043.224.022.062-.024.092-.147.155-.167.065-.02.146.011.21-.008.065-.018.112-.105.177-.12.067-.019.155.06.22.044.067-.014.117-.11.181-.123.066-.012.14.001.205-.009.067-.01.14.014.205.004.067-.006.133-.019.2-.023.07-.006.132-.07.2-.073.067-.004.138.05.204.05.068-.002.133.056.201.057.067.002.135-.014.202-.01.066.004.138-.03.203-.023.068.008.136.01.201.018.068.01.124.071.192.084.066.012.155-.078.22-.063.066.016.108.127.172.145.065.018.135.02.2.04.062.021.113.077.175.101.064.023.153-.018.215.008.062.027.124.057.186.087.06.03.086.122.145.155.06.033.111.074.168.11.056.034.107.078.161.115.056.038.14.034.195.075.052.041.133.047.186.09.052.042.111.08.161.124.051.046.02.175.068.222.047.05.136.055.18.105.045.05.108.086.151.138.042.053.068.118.108.172.041.054.092.101.13.157.037.055.072.114.107.171.036.06.033.136.063.196.034.058.072.114.101.174.03.062.066.117.092.18.028.062.012.141.036.203.023.063.074.115.095.18.02.062.03.13.048.195.017.065.031.128.047.193.016.067.06.125.073.191.013.066-.032.142-.02.21.008.065.11.12.116.185.01.068.012.136.017.204.004.067.046.133.05.201.002.067-.13.138-.13.205 0 .067.1.136.098.203-.002.066-.03.135-.035.202-.005.066-.066.128-.073.196-.005.066-.025.13-.035.198-.008.065-.018.13-.029.198-.01.065.097.153.084.22-.013.065-.084.121-.1.187-.014.065-.036.13-.053.194-.017.065.026.15.007.214-.018.065-.114.106-.135.17-.02.065.023.152 0 .214-.024.064-.099.108-.123.172-.025.061-.106.101-.133.161-.025.063.02.156-.007.217-.027.062-.047.13-.077.19s-.028.136-.06.197c-.033.06-.088.108-.12.167-.034.058-.094.1-.13.16-.035.056-.096.097-.132.155-.036.056-.02.147-.058.203-.037.056-.094.1-.132.155-.039.055-.073.116-.113.17-.042.054-.112.083-.154.136-.04.054-.107.086-.15.138-.044.053-.045.14-.09.19-.044.05-.116.076-.162.125-.046.05-.063.126-.109.174-.048.05-.152.04-.2.087-.047.047-.043.148-.092.194-.05.047-.089.104-.14.148-.05.046-.093.101-.143.144-.053.045-.093.102-.147.144-.053.042-.138.044-.19.084-.056.041-.126.058-.18.097-.055.04-.073.131-.13.17-.056.038-.142.028-.199.064-.057.037-.1.096-.157.131-.059.035-.143.023-.2.055-.06.033-.125.053-.183.085-.06.031-.109.084-.169.114-.06.03-.106.088-.167.116-.063.028-.127.05-.189.074-.062.027-.134.025-.198.048-.063.025-.103.112-.166.135-.064.022-.155-.04-.219-.018-.064.02-.117.078-.18.097-.066.018-.129.041-.194.056-.065.017-.124.064-.189.08-.066.014-.132.038-.198.05-.067.013-.13.044-.196.054-.068.012-.146-.055-.21-.047-.07.01-.137-.01-.204-.005-.068.007-.13.064-.197.068-.068.003-.137-.018-.204-.016-.067 0-.135.016-.202.014s-.13-.057-.199-.06c-.068-.006-.14.078-.208.071-.069-.007-.123-.107-.19-.117-.065-.01-.15.09-.217.077-.066-.01-.104-.155-.17-.17-.066-.014-.143.018-.208.001-.065-.02-.12-.06-.184-.082-.065-.02-.153.03-.216.003-.063-.022-.12-.063-.182-.09-.062-.027-.12-.066-.18-.095-.06-.029-.119-.063-.178-.095-.057-.033-.112-.075-.17-.112-.057-.033-.125-.054-.18-.092-.055-.039-.114-.073-.168-.113-.054-.04-.09-.105-.142-.148-.05-.043-.106-.082-.155-.129-.05-.045-.117-.074-.164-.122s-.083-.108-.128-.157c-.046-.05-.08-.11-.123-.162-.042-.052-.104-.092-.143-.145-.04-.054-.062-.123-.099-.178-.037-.056-.054-.124-.089-.183-.035-.058-.075-.11-.107-.17-.03-.059-.029-.136-.057-.196-.029-.06-.136-.086-.164-.148-.025-.062.03-.156.006-.219-.023-.063-.035-.127-.055-.192-.022-.064-.15-.095-.168-.16-.019-.065.005-.142-.01-.207-.016-.066.028-.144.013-.21-.01-.067-.008-.133-.019-.199-.01-.067-.106-.12-.112-.189-.008-.067.018-.137.013-.204-.004-.067-.077-.13-.08-.199-.003-.066.03-.136.03-.204 0-.067.09-.133.092-.2.001-.068-.042-.135-.037-.203.004-.067.057-.129.064-.196.008-.067-.03-.138-.02-.204.008-.068.06-.127.07-.193.011-.065-.08-.15-.067-.217.014-.065.091-.118.108-.184.014-.067-.042-.15-.025-.215s.114-.109.134-.174c.018-.065-.003-.14.018-.204.022-.064.085-.113.108-.176.023-.064.008-.142.032-.204.024-.064.118-.097.144-.16.027-.06-.059-.17-.03-.234.028-.06.121-.09.151-.152.03-.06.094-.103.126-.162.031-.06.073-.11.107-.169.032-.059.01-.15.044-.207.035-.058.11-.092.145-.149.035-.056.013-.152.05-.207l.116-.168c.038-.054.102-.09.143-.146.04-.054.097-.096.138-.148.041-.053.111-.08.155-.133.043-.05-.01-.186.034-.237.044-.05.136-.059.182-.109" style="stroke-width:.00539959"/></g></g><g filter="url(#c)" style="stroke-width:.00539959"><g clip-path="url(#g)" style="stroke-width:.0734819"><path fill="#a05ea4" d="M507.858 28.399c-.055.04-.129.052-.185.089-.055.038-.118.066-.173.103-.058.036-.103.094-.16.128-.056.036-.126.049-.184.082-.06.034-.113.074-.173.107-.06.032-.148.01-.208.04s-.067.164-.13.194c-.06.027-.157-.023-.22.004-.062.027-.093.127-.155.153-.063.026-.149-.007-.212.017-.062.023-.12.06-.183.082-.065.023-.132.037-.195.057-.064.02-.146-.018-.21.002-.065.019-.13.032-.195.047-.065.017-.103.144-.168.16-.067.014-.138.01-.202.025-.067.014-.135.025-.2.037-.067.01-.137.007-.202.016-.068.009-.13.064-.197.072-.067.007-.142-.062-.21-.057-.065.005-.13.09-.197.094-.067.002-.137-.094-.204-.092-.069 0-.137.094-.204.093-.068-.001-.135-.041-.202-.044-.068-.004-.127-.1-.195-.104-.067-.005-.14.049-.206.042-.068-.01-.142.037-.21.027-.067-.011-.123-.082-.188-.096-.067-.011-.122-.074-.187-.09-.067-.014-.15.04-.214.024-.065-.02-.127-.051-.19-.07a5.423 5.423 0 0 1-.192-.07c-.063-.021-.096-.12-.159-.146-.062-.026-.123-.047-.183-.075-.062-.03-.155.008-.214-.024-.06-.03-.144-.02-.2-.055-.06-.033-.059-.165-.116-.201-.055-.037-.104-.081-.159-.12-.055-.04-.137-.036-.192-.077-.053-.041-.144-.04-.195-.082-.05-.045-.024-.174-.075-.221-.048-.045-.1-.085-.146-.133-.048-.048-.108-.082-.151-.132-.046-.051-.124-.071-.167-.123-.043-.052-.04-.138-.08-.193-.038-.055-.126-.077-.162-.134-.036-.058.009-.162-.025-.22-.035-.057-.19-.05-.22-.11a5.287 5.287 0 0 1-.094-.183c-.027-.061.052-.17.026-.233-.024-.062-.05-.121-.072-.185-.024-.063-.022-.131-.04-.198-.02-.064-.092-.112-.109-.178-.015-.065.007-.138-.005-.204-.014-.066-.12-.116-.13-.183-.01-.066.04-.142.034-.21-.008-.065-.058-.13-.063-.197-.005-.067.044-.137.042-.204-.001-.07.043-.134.043-.201.002-.068-.046-.136-.043-.203.006-.066-.05-.138-.043-.207.006-.067.058-.13.067-.196.009-.066.07-.125.082-.192.01-.067-.062-.148-.047-.213.013-.066.072-.123.089-.19.014-.064.055-.123.075-.187.017-.067-.044-.154-.026-.22.022-.063.084-.113.108-.178.023-.063.053-.124.077-.186.024-.063-.01-.152.017-.215.026-.061.163-.072.19-.136.029-.06-.01-.152.02-.213s.1-.1.132-.16.102-.094.135-.154c.034-.06 0-.155.034-.215.036-.056.11-.09.144-.147.038-.055.065-.12.103-.172.04-.056.12-.08.16-.135.041-.053-.014-.18.028-.233.041-.053.138-.063.181-.114.041-.051.094-.094.139-.145.043-.051.046-.141.092-.19.046-.048.101-.09.149-.14.046-.047.067-.125.115-.172.046-.047.137-.05.188-.096.05-.045.12-.064.172-.11.05-.044.118-.066.171-.107.053-.044.091-.101.144-.144.053-.041.046-.158.1-.202.054-.04.146-.027.201-.066l.166-.115c.057-.04.111-.077.168-.112.058-.038.087-.117.144-.153.058-.034.103-.094.16-.13.06-.032.181.049.241.018.06-.033.068-.16.128-.19s.171.042.231.013c.063-.03.067-.18.13-.206.062-.028.168.052.23.027.063-.026.11-.088.173-.112.063-.023.107-.1.17-.123.065-.021.141-.01.204-.03.065-.02.117-.085.181-.105.065-.018.151.04.216.026.067-.017.121-.078.188-.093.065-.015.137-.001.203-.013.067-.014.12-.095.188-.106.065-.013.136-.002.203-.013.067-.008.133-.036.202-.043.067-.007.14.058.207.054.067-.005.135-.032.202-.034.067-.004.135-.038.202-.04.067 0 .135.062.2.063.07.002.14-.072.208-.067.066.003.13.075.197.08.066.006.135.002.202.01.067.009.144-.04.21-.031.067.01.12.103.185.117.067.012.129.045.195.06.065.016.132.022.197.04.064.019.127.043.19.063.065.02.123.056.187.08.062.023.132.023.195.049.063.026.146.006.206.035.061.027.118.067.178.099.06.03.072.148.132.18.056.034.18-.037.236-.002.056.037.044.175.1.213.054.04.111.07.165.11.055.042.182-.005.233.037.053.043.058.14.106.187.05.047.132.059.18.108.046.049.099.093.144.146.044.05.007.167.048.22.043.053.123.076.163.13.04.056.05.129.087.184.038.057.038.133.072.192.034.058.14.077.17.135.031.06-.009.154.018.215.029.06.13.09.154.153.026.06-.032.155-.01.219.02.064.134.098.154.16.019.066-.012.145.005.21.017.066-.014.139 0 .204.014.067.06.125.07.192.01.065.095.124.101.19.009.068-.025.14-.02.206.005.068-.072.138-.07.204.002.068.091.134.09.202 0 .068-.053.133-.055.2-.005.066-.003.133-.01.2-.005.067-.02.133-.029.2a3.276 3.276 0 0 1-.025.199c-.012.067.026.143.013.209-.013.065-.106.114-.123.18-.015.064-.026.13-.043.194-.019.066-.053.123-.075.187-.02.064-.016.136-.038.198-.022.065-.043.128-.067.192-.025.06-.007.14-.034.202-.027.06-.09.108-.12.17-.027.06-.075.11-.103.17-.03.06-.04.13-.072.19-.034.06-.06.12-.095.178-.033.059-.091.1-.127.159-.036.057-.024.143-.06.2-.038.056-.065.119-.103.175-.04.055-.072.115-.113.168-.04.055-.08.109-.123.162-.041.053-.072.114-.115.166-.043.053-.151.05-.197.1-.043.05-.046.138-.094.187-.044.05-.108.082-.156.129-.046.049-.125.066-.171.113-.048.046-.091.098-.142.145-.048.046-.06.13-.113.176-.05.044-.139.043-.19.086-.051.043-.089.103-.142.146-.053.04-.125.057-.178.097-.053.04-.05.158-.106.197" style="stroke-width:.00539959"/></g></g><g filter="url(#c)" style="stroke-width:.00539959"><g clip-path="url(#h)" style="stroke-width:.0734819"><path fill="#fda500" d="M512.434 36.01c.06.03.123.058.183.09.059.03.127.05.185.082.059.032.113.075.172.11.058.034.076.132.133.168.056.036.107.078.164.116.056.04.152.015.207.055.056.04.077.124.13.164.055.04.086.111.136.152.055.042.12.066.17.108.053.044.135.051.185.095.052.045.088.104.137.15.05.046.086.105.134.15.049.048.133.06.18.107.049.048.125.07.169.118.045.051.07.12.114.17.044.053.08.111.123.163.042.054.019.157.06.211.04.053.108.085.148.14.04.053.138.067.175.123.039.056.026.145.062.202.036.058.05.127.084.184.035.06.047.127.079.186l.088.18c.03.06.18.061.21.122.027.062-.04.165-.014.227.026.062.058.12.082.184.025.063.053.124.075.187.022.064-.002.141.017.205.019.066.166.094.183.16.018.064.039.13.052.196.016.065.018.137.029.203.013.066-.015.14-.006.206.009.068.04.133.047.2.006.068-.028.138-.025.205.006.068.037.135.037.202s-.038.135-.04.203c-.003.065.037.137.032.204-.005.067-.1.124-.11.191-.007.068.075.148.064.214-.012.066-.098.118-.113.185-.013.064.012.14-.007.205-.018.064-.083.115-.104.178-.02.065-.06.12-.085.182-.024.064.049.166.02.227-.025.061-.09.108-.12.17-.03.058-.014.145-.048.204-.032.058-.095.102-.13.16-.037.056-.09.103-.127.16-.04.054-.04.14-.08.192-.041.054-.14.063-.183.115-.044.051-.031.154-.078.203-.045.05-.167.027-.214.075-.048.047-.097.091-.147.136-.05.046-.105.083-.157.126-.051.042-.12.06-.174.101-.053.038-.083.112-.14.148-.055.04-.097.093-.154.13-.058.035-.133.04-.192.072-.058.034-.122.055-.182.084-.06.031-.066.172-.126.201-.062.028-.15.003-.21.03-.062.025-.121.065-.184.088-.062.024-.153-.034-.218-.012-.063.021-.105.113-.171.132-.063.018-.118.075-.184.092-.065.017-.143-.013-.21.002-.065.015-.145-.044-.211-.032-.066.011-.118.103-.185.114-.066.01-.132.034-.2.042-.066.008-.142-.086-.21-.08-.066.005-.126.112-.193.117-.068.004-.137-.029-.204-.026-.07.002-.134-.026-.202-.026s-.133-.024-.201-.027c-.067-.002-.134.01-.202.004-.067-.004-.14.072-.208.066-.067-.006-.127-.08-.194-.088-.067-.007-.132-.028-.198-.038-.066-.008-.147.065-.214.052-.065-.01-.114-.119-.18-.132-.066-.013-.128-.04-.194-.056-.066-.015-.13-.026-.196-.043-.064-.017-.14.004-.205-.016-.063-.018-.133-.024-.196-.045-.064-.02-.121-.063-.185-.085-.063-.02-.12-.066-.182-.09-.063-.023-.121-.056-.183-.082-.063-.025-.166.045-.228.018-.062-.026-.1-.105-.161-.134-.062-.028-.112-.08-.172-.11-.06-.03-.127-.046-.186-.076-.061-.033-.153-.003-.212-.036-.06-.034-.07-.153-.126-.187-.06-.035-.1-.094-.156-.13-.058-.037-.123-.055-.18-.092-.056-.037-.118-.064-.174-.102-.055-.039-.14-.036-.193-.077-.055-.04-.064-.137-.117-.179-.053-.04-.154-.023-.206-.065-.053-.043-.047-.154-.096-.199-.052-.044-.098-.09-.147-.136a3.758 3.758 0 0 1-.146-.137c-.05-.048-.105-.084-.152-.132-.046-.049-.158-.034-.204-.084-.046-.052-.068-.123-.112-.173-.044-.05-.041-.14-.084-.193-.043-.05-.09-.1-.13-.153-.041-.052-.061-.12-.1-.173-.04-.056-.082-.107-.12-.163-.037-.055-.134-.072-.17-.128-.036-.057-.041-.132-.075-.19-.033-.058-.055-.122-.088-.183-.032-.059-.107-.094-.137-.155-.03-.06-.028-.135-.057-.196-.028-.062-.071-.115-.098-.178-.026-.06-.098-.105-.121-.169-.025-.063.058-.164.037-.227-.023-.065-.15-.094-.17-.158-.02-.064.069-.159.053-.223-.018-.066-.064-.12-.078-.187-.015-.066-.021-.134-.033-.198-.011-.067-.088-.123-.096-.189-.01-.067.005-.137-.001-.205-.006-.066-.008-.133-.011-.202-.004-.066-.077-.132-.077-.2 0-.067.136-.133.14-.2 0-.067-.043-.136-.037-.202.006-.069.017-.133.025-.199.008-.069.057-.126.069-.192.013-.066-.068-.15-.054-.217.015-.065.118-.107.135-.173.019-.066-.052-.156-.03-.22.02-.064.054-.124.078-.188.023-.062.028-.134.055-.198.027-.06.13-.086.162-.146.029-.06.06-.119.093-.176.035-.06-.012-.166.022-.224.036-.057.124-.08.16-.136.04-.056.112-.085.154-.138.04-.054.098-.092.14-.143.044-.052 0-.178.048-.227.044-.05.152-.04.2-.087.047-.048.063-.13.112-.176.049-.045.105-.084.158-.127.05-.043.097-.096.15-.135.054-.04.14-.035.197-.073.056-.038.12-.054.18-.09.058-.035.089-.112.148-.145.057-.034.092-.11.154-.143.059-.03.135-.032.196-.06.06-.03.117-.07.179-.097.062-.027.143-.005.206-.028.063-.024.137-.015.2-.036.064-.02.098-.14.162-.16.065-.019.14-.002.207-.017.065-.017.145.03.21.014.065-.014.134-.002.2-.014.066-.013.115-.136.18-.146.066-.01.143.036.209.027.067-.007.126-.09.193-.096.068-.006.145.121.212.117.068-.004.13-.065.198-.068.067 0 .135-.082.202-.082s.133.087.2.09c.069.001.139-.047.206-.044.067.005.126.111.194.117.067.006.145-.093.21-.084.069.007.13.06.196.068.067.01.138-.004.204.01.067.01.114.113.18.128.066.012.143-.025.208-.01.066.016.124.058.19.074.065.018.16-.074.224-.056.066.02.088.174.153.195.063.02.158-.05.222-.027.062.021.118.072.179.095.064.024.133.033.196.06.062.023.144.005.206.032.063.026.1.106.16.136.062.028.132.04.193.07" style="stroke-width:.00539959"/></g></g><g filter="url(#c)" style="stroke-width:.00539959"><g clip-path="url(#i)" style="stroke-width:.0734819"><path fill="#79d0f7" d="M515.988 27.95c-.036.058.005.164-.032.22-.037.056-.153.06-.19.116-.04.055-.096.096-.136.149-.04.055.014.18-.027.234-.04.052-.08.109-.123.162-.043.052-.108.087-.153.137-.043.052-.13.064-.177.114-.044.05-.112.076-.16.125-.046.048-.098.09-.146.136-.047.05-.025.169-.076.215-.048.045-.085.108-.137.152-.048.044-.109.079-.16.124-.052.042-.132.05-.186.094-.052.04-.113.074-.166.113-.054.04-.083.115-.139.152-.055.04-.119.067-.175.105-.055.036-.146.02-.203.057-.057.035-.126.048-.184.082-.058.034-.108.078-.167.112-.06.03-.106.086-.166.115-.062.03-.133.032-.195.06-.06.03-.107.084-.169.112-.062.025-.139.012-.203.036-.062.024-.12.054-.183.077-.065.022-.098.138-.162.157-.064.02-.123.063-.188.08-.066.019-.136.027-.2.043-.067.017-.149-.04-.214-.027-.066.013-.122.093-.187.102-.067.01-.142-.038-.21-.03-.068.009-.133.013-.202.018-.065.005-.13.038-.199.04-.067.003-.136.037-.203.037-.067-.002-.132-.098-.199-.102-.069-.003-.139.063-.207.057-.068-.006-.13-.043-.198-.053-.067-.008-.134-.012-.2-.023-.068-.013-.123-.075-.188-.09-.066-.015-.152.054-.216.036-.065-.02-.106-.12-.169-.141-.064-.021-.134-.024-.196-.047-.063-.025-.126-.046-.188-.074-.06-.026-.129-.038-.189-.07-.06-.03-.124-.055-.182-.09-.059-.031-.116-.068-.174-.102-.057-.037-.128-.054-.183-.09-.056-.04-.135-.048-.189-.088-.053-.042-.089-.111-.14-.154-.05-.043-.107-.086-.155-.133-.049-.047-.11-.083-.158-.131-.046-.05-.035-.152-.079-.203-.045-.05-.084-.106-.125-.157-.043-.053-.118-.08-.157-.134-.04-.055-.09-.104-.128-.16-.036-.055-.106-.094-.14-.153-.036-.057-.032-.137-.065-.198-.03-.06-.098-.102-.128-.163-.028-.06.016-.156-.01-.22-.028-.06-.095-.105-.12-.168-.024-.062-.063-.121-.085-.184-.022-.065.037-.154.02-.22-.023-.065-.039-.127-.057-.192-.018-.067-.04-.127-.057-.192-.014-.067.006-.137-.007-.204-.01-.066-.129-.113-.139-.18-.01-.067-.035-.132-.044-.201-.007-.067.1-.143.094-.212-.006-.068-.078-.128-.082-.196-.004-.067.037-.134.035-.202 0-.068-.02-.135-.019-.203.001-.066.03-.131.033-.2.003-.066-.01-.134-.005-.201s.014-.133.02-.2c.008-.068-.003-.135.006-.203.008-.065.076-.123.087-.19.012-.066-.059-.145-.046-.212.012-.067-.016-.142 0-.208.012-.065.052-.128.067-.193.017-.064.03-.132.048-.198.018-.063.131-.1.152-.165.018-.064-.08-.168-.059-.231.022-.064.091-.113.114-.175.023-.064.024-.137.05-.198.024-.064.038-.131.064-.194.027-.062.11-.1.138-.161.028-.06.111-.096.141-.156.03-.06-.062-.182-.03-.243.032-.058.097-.101.13-.161.032-.058.1-.097.133-.156.034-.058.087-.104.124-.162.035-.057.063-.12.1-.176.037-.055.073-.112.113-.167.038-.055.066-.117.107-.17.04-.057.032-.147.073-.2.041-.053.171-.037.214-.088.043-.052.05-.134.092-.185.045-.05.072-.118.118-.168.044-.051.1-.09.147-.14.047-.05.052-.138.101-.185.046-.048.185-.002.233-.048.05-.047.011-.192.062-.235.05-.045.107-.085.157-.128.051-.044.161-.018.214-.061.052-.043.101-.086.155-.126.055-.042.106-.084.162-.122.055-.041.113-.073.17-.108.055-.04.091-.11.148-.144.057-.035.098-.102.157-.136.058-.032.143-.02.202-.051.058-.033.127-.047.188-.078.06-.031.088-.13.15-.157.06-.03.142-.013.204-.04.061-.025.113-.082.176-.107.063-.024.164.058.228.035.064-.022.113-.08.178-.1.063-.02.136-.011.2-.028.064-.02.104-.144.17-.16.064-.014.135-.015.202-.03.067-.01.143.038.21.028.067-.011.127-.06.194-.07.067-.006.137.008.204.002.067-.004.135.018.203.015.068-.002.134-.1.202-.1.067 0 .136.02.203.023.067.004.134.056.2.062.067.006.14-.028.206-.02.067.01.14-.001.206.012.067.01.133.034.2.05.065.015.128.05.192.07.065.017.127.054.19.076.063.02.117.073.18.098.063.023.12.06.182.089.06.028.117.063.176.093.061.03.103.089.16.122.06.033.184-.044.241-.008.057.037.047.174.102.213.056.038.13.047.184.088.054.043.141.04.191.085.053.043.123.068.173.114.05.046.07.124.117.173.046.049.131.065.176.115.046.05-.008.184.035.236.042.053.1.092.14.146.038.054.05.126.088.183.038.055.157.059.191.115.035.058-.01.162.021.22.032.06.087.106.116.167.03.06.083.11.11.172.026.06.092.107.117.17.026.062.062.122.084.186.023.064-.043.156-.022.22.02.065.073.119.09.185.017.065-.002.139.013.204.014.065.121.113.132.18.014.066-.005.138.006.204.011.068-.08.148-.072.214.007.066.118.122.123.19.006.067-.008.136-.005.204.003.066-.01.136-.009.203.002.066-.069.133-.069.2s.078.136.076.205c-.003.067 0 .134-.007.2-.004.069-.094.127-.1.195-.007.066.112.148.102.216-.01.066-.1.12-.112.187-.009.067-.009.135-.023.2-.012.068-.003.138-.018.204-.014.065-.11.112-.127.176-.016.065.1.166.083.232-.02.065-.156.093-.178.159-.019.064.074.166.052.228-.02.065-.116.102-.14.166-.022.063-.019.136-.045.199-.024.063-.005.144-.033.206-.027.062-.106.1-.136.163-.027.06-.116.092-.146.153-.029.06-.039.129-.07.189-.033.059.003.155-.03.214s-.107.094-.142.152c-.033.058-.097.099-.133.155" style="stroke-width:.00539959"/></g></g><g filter="url(#c)" style="stroke-width:.00539959"><g clip-path="url(#j)" style="stroke-width:.0734819"><path fill="#00bdf5" d="M515.28 32.278c-.062-.03-.14-.017-.2-.047-.062-.03-.138-.03-.197-.06-.059-.033-.094-.11-.153-.142-.059-.033-.142-.025-.199-.06-.059-.036-.093-.106-.148-.142-.058-.038-.15-.018-.208-.056-.054-.038-.072-.134-.127-.174-.053-.04-.116-.068-.168-.11-.054-.04-.11-.077-.16-.118-.055-.044-.079-.12-.13-.162-.05-.043-.11-.077-.16-.122l-.147-.137c-.05-.047-.138-.052-.187-.1-.046-.047-.134-.058-.179-.107-.046-.05-.037-.152-.08-.201-.046-.051-.05-.136-.093-.187-.044-.051-.155-.05-.197-.1-.042-.052-.099-.096-.139-.15-.04-.054-.027-.147-.065-.203-.038-.055-.12-.082-.156-.14-.037-.055-.022-.146-.056-.202-.036-.058-.157-.064-.19-.123-.034-.06.063-.188.031-.25-.03-.058-.09-.1-.122-.162-.028-.06-.116-.094-.143-.155-.029-.063.006-.15-.02-.211-.024-.064-.055-.121-.077-.187-.022-.062-.028-.131-.049-.194-.02-.063-.055-.122-.073-.188-.019-.065-.063-.122-.079-.187-.015-.065.027-.143.014-.21-.013-.064-.049-.125-.059-.191-.01-.068-.085-.125-.092-.191-.009-.067.017-.14.012-.206-.005-.068-.005-.135-.008-.201 0-.068-.05-.137-.05-.203.001-.07.036-.136.041-.203.005-.067-.03-.14-.023-.205.007-.07.057-.13.066-.198.011-.066.011-.136.025-.202.012-.065.106-.113.123-.178.017-.065-.084-.164-.065-.228.021-.064.093-.113.117-.18.023-.06.093-.105.12-.167.025-.062.087-.105.117-.167.03-.06.036-.13.067-.188.031-.061.074-.112.11-.168.034-.06-.013-.167.023-.224.04-.055.156-.054.196-.11.041-.053.066-.117.108-.17.042-.052.078-.106.124-.156.045-.05.031-.156.08-.203.046-.05.175-.013.224-.058.05-.046.014-.187.066-.231.052-.043.143-.04.196-.081.055-.041.125-.057.18-.096.055-.04.064-.15.121-.185.056-.036.184.043.242.009.058-.034.08-.128.14-.16.06-.03.096-.111.157-.14.061-.03.128-.047.19-.073.062-.027.153.014.215-.011.063-.024.121-.056.185-.078.063-.023.106-.11.171-.131.063-.02.16.07.226.055.063-.02.117-.072.185-.086.064-.016.121-.07.187-.082.066-.016.142.022.208.012.065-.012.117-.124.184-.133.066-.01.148.104.215.097.067-.006.13-.062.196-.066.067-.006.135.016.203.014.067-.002.131-.084.2-.084.067-.002.134.018.202.019.068 0 .138-.047.205-.045.068.004.128.13.195.135.068.006.132.02.2.027.067.006.137-.031.204-.022.067.009.138-.01.203 0 .07.01.135.02.202.032.066.014.132.03.197.043l.198.045c.065.016.133.026.198.044.065.017.141-.003.207.016.064.018.1.133.163.154.065.022.154-.03.217-.007.064.023.123.056.187.08.062.025.093.129.155.156.061.026.17-.052.23-.025.062.026.074.165.134.193.061.03.162-.027.224.004.06.03.12.065.178.097.06.032.13.044.188.077.06.035.12.069.177.104.057.034.076.134.133.17.055.037.135.038.192.076.055.037.107.082.162.12.055.04.064.14.117.18.055.042.121.063.173.104.054.044.146.037.196.082.051.043.113.078.163.122.05.046.037.159.086.206.048.046.11.078.16.124.046.048.105.083.151.132.047.049.085.106.13.155.045.05.103.09.144.14.043.053.08.113.12.164.043.054.063.122.103.175.041.054.141.065.178.12.04.057.074.115.111.17.037.058.031.142.067.197.035.06.107.095.14.153.033.058-.003.154.03.214.031.06.134.082.163.143.031.06-.03.162-.003.223.026.062.058.12.083.18.025.065.083.113.105.176.024.064.018.136.038.199l.06.19c.016.066.08.118.096.183.014.068.082.122.096.187.014.067.048.133.06.198.01.066-.068.147-.06.213.008.067.084.127.088.196.004.067.005.137.006.203.002.068-.016.138-.017.205-.002.067-.085.13-.089.198-.005.068.08.14.073.21-.008.065-.114.118-.125.186-.01.067.02.139.007.204-.015.067-.079.119-.097.183-.016.066.046.152.026.218-.02.063-.05.124-.074.187a3.518 3.518 0 0 1-.07.189c-.027.062-.012.144-.04.207-.03.06-.103.1-.135.16-.03.059-.107.094-.143.15-.034.06-.089.102-.127.157-.037.056-.017.152-.056.206-.039.053-.103.09-.145.14-.045.054-.063.126-.109.175-.043.052-.06.129-.108.177-.046.049-.086.109-.134.155-.05.046-.116.078-.165.123-.052.044-.175 0-.228.04-.055.042-.064.139-.12.178-.054.04-.1.09-.157.128-.057.036-.096.107-.155.14-.057.036-.146.019-.205.05-.058.032-.133.034-.194.064-.06.029-.11.08-.172.109-.062.025-.142.007-.204.03-.063.027-.12.062-.184.084-.064.023-.12.069-.183.087-.065.022-.125.055-.192.072-.062.017-.148-.042-.212-.027-.067.016-.103.159-.17.173-.066.014-.158-.104-.223-.094-.066.01-.112.157-.18.165-.066.009-.146-.086-.214-.08-.066.008-.127.076-.195.082-.067.004-.134.044-.2.048-.068 0-.139-.128-.206-.127-.067 0-.136.14-.202.139-.069-.001-.135-.064-.202-.07-.067 0-.136.004-.203 0-.067-.005-.126-.097-.192-.105-.067-.007-.136-.002-.202-.012-.066-.007-.135.006-.202-.005-.066-.01-.136-.002-.2-.014-.067-.012-.147.039-.213.025-.066-.013-.106-.144-.17-.16-.067-.017-.142.012-.207-.007-.065-.016-.135-.013-.2-.033-.065-.02-.113-.087-.178-.108-.063-.021-.132-.028-.196-.051-.062-.023-.126-.042-.19-.068-.062-.024-.144.002-.207-.024-.062-.025-.12-.061-.184-.09-.059-.026-.086-.128-.148-.157" style="stroke-width:.00539959"/></g></g><g filter="url(#c)" style="stroke-width:.00539959"><g clip-path="url(#k)" style="stroke-width:.0734819"><path fill="#008cd5" d="M526.437 35.678c-.041.056-.146.057-.191.108-.041.053-.004.172-.048.224-.044.052-.174.026-.218.075-.046.052-.018.17-.064.22-.046.05-.106.085-.154.133s-.171.018-.218.065c-.05.046-.016.181-.067.227-.05.045-.117.072-.17.116-.05.044-.097.095-.15.136-.052.043-.15.028-.202.068-.053.043-.095.098-.151.137-.053.041-.111.076-.166.112-.057.04-.11.081-.166.117-.057.036-.137.034-.195.07-.056.035-.09.11-.15.142-.057.033-.09.115-.15.147-.06.032-.14.026-.2.056-.06.03-.098.11-.158.137-.063.028-.157-.019-.218.008-.063.025-.116.074-.18.098-.062.024-.137.016-.2.04-.064.021-.122.057-.186.077-.066.02-.137.01-.204.027-.065.018-.122.062-.187.077-.066.017-.13.037-.194.053-.068.013-.127.061-.195.072-.065.011-.143-.057-.211-.05-.067.01-.134.008-.2.015a3.337 3.337 0 0 1-.2.017c-.067.003-.13.117-.197.12-.068.001-.135-.134-.203-.135-.067-.003-.14.125-.208.12-.065-.005-.124-.114-.192-.122-.066-.008-.146.085-.213.075-.066-.01-.12-.1-.185-.115-.067-.013-.147.04-.212.024-.066-.016-.128-.049-.193-.067-.065-.019-.103-.123-.166-.145-.064-.02-.128-.037-.19-.06-.062-.026-.13-.03-.192-.058-.062-.028-.106-.085-.166-.115-.06-.03-.133-.032-.192-.063-.058-.036-.133-.04-.19-.077-.057-.035-.124-.056-.18-.095-.055-.039-.125-.057-.18-.098-.052-.042-.104-.088-.156-.133a2.807 2.807 0 0 1-.151-.136c-.05-.046-.084-.11-.131-.158s-.03-.153-.074-.204c-.045-.05-.095-.093-.137-.144-.041-.054-.106-.088-.147-.142-.04-.056-.151-.06-.19-.117-.034-.056.02-.173-.013-.23-.034-.058-.13-.08-.162-.14-.03-.06.028-.165 0-.225-.027-.062-.068-.115-.096-.176-.025-.062-.068-.117-.09-.179-.025-.065-.1-.108-.122-.172-.021-.065-.021-.135-.04-.2-.017-.064.03-.146.015-.21-.015-.067-.075-.12-.091-.188-.012-.065.007-.136-.003-.203-.01-.066-.128-.117-.137-.185-.008-.067.054-.143.048-.209-.006-.067-.024-.133-.028-.2a4.501 4.501 0 0 1-.005-.203c-.002-.067.027-.135.027-.203.002-.066-.058-.136-.055-.203.004-.068.052-.133.058-.199.005-.068.023-.133.03-.2.008-.067-.052-.144-.042-.21.009-.067.01-.135.02-.204.015-.065.112-.117.125-.18.014-.068-.051-.15-.036-.218.015-.065.119-.107.138-.174.017-.064-.042-.15-.024-.217.018-.064.062-.123.083-.186.02-.064.128-.098.15-.162.024-.063.038-.128.062-.19.025-.063-.017-.152.009-.216.027-.06.027-.135.054-.197.028-.06.126-.09.156-.15s-.022-.162.009-.223c.029-.059.075-.114.108-.173.033-.058.124-.085.16-.142.033-.059.017-.146.053-.203.035-.058.137-.073.175-.129.036-.056.055-.124.094-.18.037-.056.018-.153.058-.207.039-.055.097-.099.138-.15.042-.055.084-.109.126-.16.042-.053.115-.08.159-.13.044-.053.065-.126.11-.176.045-.05.08-.11.128-.159.045-.05.173-.018.22-.066.049-.049.063-.129.11-.175.05-.046.082-.112.13-.157.05-.046.144-.043.194-.086.053-.044.087-.106.139-.147.052-.044.123-.063.175-.104.054-.042.112-.075.166-.114.055-.04.045-.168.1-.206.058-.039.166.003.223-.032.056-.038.103-.09.16-.124.057-.035.13-.04.189-.073.059-.034.107-.087.166-.118.059-.03.133-.03.194-.06.06-.03.063-.182.125-.209.062-.028.14-.02.203-.046.062-.027.125-.053.186-.077.064-.024.15.012.212-.01.065-.023.133-.026.197-.046.065-.019.107-.11.17-.129.067-.018.137-.018.202-.035.068-.017.125-.072.189-.086.067-.014.156.097.22.085.069-.012.123-.096.189-.105.069-.008.133-.042.198-.047.069-.006.136-.03.204-.034.066-.004.136.014.203.012.068 0 .137-.03.204-.029.067 0 .133.046.202.05.068.004.132.037.2.043.066.008.136-.005.203.005.066.01.124.068.19.081.067.012.14-.017.208-.002.065.015.133.02.199.038.063.018.122.06.184.083.066.021.14.017.203.042.062.023.134.031.197.057.062.028.115.077.174.108.06.03.095.108.154.14.059.034.097.1.152.136.058.034.17-.015.228.023.054.04.123.063.177.105.052.042.09.108.139.151.053.045.118.075.167.121.05.047.05.143.097.192.046.05.095.095.14.144.044.052.062.123.105.176.04.053.084.103.124.156.04.055.065.118.105.172.035.06.052.122.088.181.033.058.108.093.139.151.032.06.09.106.118.168.03.06.002.145.03.207.025.063.065.118.088.181.024.062.089.112.11.176.02.062-.032.15-.015.214l.052.193c.017.065.107.114.122.181.012.064-.04.143-.03.21.01.065.116.12.124.187.009.065.003.136.009.202.006.068-.056.141-.053.207.003.068.043.133.044.201 0 .068-.003.135-.004.203-.001.066-.022.133-.026.202-.003.065.066.14.059.207-.005.067-.105.126-.111.191-.01.068 0 .136-.011.202-.01.067.049.145.037.211-.011.067-.108.116-.124.184-.013.064-.04.126-.055.193-.015.066.034.147.018.212-.02.066-.111.108-.131.174-.02.063.076.164.056.228-.022.065-.134.097-.157.162-.022.062-.03.131-.053.194-.025.061-.047.126-.072.188-.028.063-.04.131-.067.192-.027.062-.12.092-.15.152-.03.061-.024.137-.055.197s-.072.114-.103.173c-.035.06-.097.1-.131.157-.034.057-.045.127-.082.185-.035.057-.016.15-.055.206-.037.055-.111.086-.15.142-.038.055-.03.144-.07.198-.04.055-.074.114-.116.167" style="stroke-width:.00539959"/></g></g></g><path fill="#776e5a" d="M563.229 20.828a.142.142 0 0 0-.156-.121l-1.616.204a.142.142 0 0 1-.16-.118l-.052-.35a.133.133 0 0 1 .115-.152l1.209-.138a.137.137 0 0 0 .123-.153l-.065-.562a.14.14 0 0 0-.154-.122l-1.208.137a.14.14 0 0 1-.154-.123l-.086-.66a.136.136 0 0 0-.154-.117l-.66.083a.133.133 0 0 0-.116.156l.102.635a.137.137 0 0 1-.118.155l-1.233.155a.134.134 0 0 0-.115.155l.098.565a.146.146 0 0 0 .162.118l1.209-.155a.135.135 0 0 1 .152.12l.042.37a.138.138 0 0 1-.123.154l-1.713.207a.141.141 0 0 0-.12.155l.062.539a.14.14 0 0 0 .156.12l1.76-.206a.145.145 0 0 1 .156.123l.224 1.543a.14.14 0 0 0 .159.118l.61-.081a.137.137 0 0 0 .116-.157l-.222-1.544a.136.136 0 0 1 .117-.155l1.615-.183a.133.133 0 0 0 .119-.153zm.385-2.081.185-.14a.156.156 0 0 0 .027-.22l-.296-.38a.172.172 0 0 0-.229-.035l-.176.12a.152.152 0 0 0-.037.218l.303.404a.16.16 0 0 0 .223.033m-.824.451a.17.17 0 0 0 .227.035l.173-.12a.16.16 0 0 0 .041-.222l-.284-.396a.166.166 0 0 0-.223-.045l-.2.13a.146.146 0 0 0-.039.213zm3.505 2.909h-.43a.113.113 0 0 1-.115-.137l.261-1.586a.115.115 0 0 0-.117-.135h-1.811a.14.14 0 0 0-.139.139v.259a.14.14 0 0 0 .139.138h1.065c.075 0 .129.06.117.136l-.151 1.049a.165.165 0 0 1-.158.137h-1.334a.138.138 0 0 0-.137.138v.277c0 .077.062.14.137.14h2.673a.142.142 0 0 0 .141-.14v-.277a.14.14 0 0 0-.141-.138m7.982.301a.286.286 0 0 1-.285-.286c0-.16.126-.288.285-.288.16 0 .288.129.288.288a.289.289 0 0 1-.288.286m0-.971a.683.683 0 1 0 .003 1.365.683.683 0 0 0-.003-1.365m-7.088-1.275a.148.148 0 0 0-.19-.068l-.362.164c.137.26.267.553.395.883l.486-.238a9.58 9.58 0 0 0-.33-.741m1.241.533c-.125-.283-.33-.706-.33-.706a.149.149 0 0 0-.19-.071l-.365.153c.124.237.248.51.375.814zm1.139-.633-.479-.148c-.214 1.102-.412 1.775-1.756 2.435-.145.067-.126.158-.088.21l.292.391c1.271-.59 1.952-1.479 2.141-2.725.013-.11-.047-.145-.11-.163m-19.375-.533c-.979 0-2.104.326-2.533.456-.147.039-.186.106-.156.218l.142.523c.655-.187 1.791-.51 2.428-.51.43 0 .838.284.838.745 0 .55-.47 1.082-1.33 1.187-.285.035-.652.069-.83.078-.096.007-.15.06-.123.177.023.114.117.533.117.533 2.342-.016 2.892-1.154 2.892-1.936 0-.868-.6-1.471-1.445-1.471m-18.405-.239a.134.134 0 0 1-.023-.187l.03-.04a.138.138 0 0 0-.036-.194l-.059-.04c-.06-.045-.14-.035-.193.033a9.7 9.7 0 0 0-.342.485.433.433 0 0 0 .117.604c.2.142.47.107.604-.085a.402.402 0 0 0-.098-.576m-1.026 0c-.064-.052-.07-.125-.024-.187l.027-.04a.142.142 0 0 0-.033-.194l-.061-.04c-.062-.045-.138-.035-.191.033-.084.104-.287.404-.344.485a.436.436 0 0 0 .117.604c.2.142.47.107.604-.085a.402.402 0 0 0-.095-.576m22.02-.38c-.2-.141-.47-.102-.602.086a.402.402 0 0 0 .097.577c.062.05.066.124.022.185l-.027.04a.14.14 0 0 0 .033.196l.06.04c.062.045.14.034.192-.031a9.69 9.69 0 0 0 .343-.49.435.435 0 0 0-.118-.603m1.03 0a.432.432 0 0 0-.603.086.403.403 0 0 0 .096.577c.062.05.068.124.024.185l-.03.04a.142.142 0 0 0 .036.196l.057.04c.063.045.142.034.194-.031.085-.106.288-.404.343-.49a.436.436 0 0 0-.117-.603m-14.213 2.84-.166-.111-.117-.077a.184.184 0 0 0-.097-.037c-.076-.003-.114.065-.138.114-.017.043-.037.09-.056.143l-.004.007c-.074.192-.167.432-.288.428-.163-.006-.338-.59-.337-1.136 0-.535.097-.987.142-1.206.048-.232-.072-.265-.157-.29l-.518-.127-.01-.002-.002.01c-.17.813-.167 1.37-.167 1.609 0 1.095.5 2.109 1.052 2.128.37.014.785-.611.958-1.197a.231.231 0 0 0-.095-.256m1.371-1.993a.164.164 0 0 0-.127-.067.237.237 0 0 0-.115.028l-.451.284.006.01c.35.487.786 1.402.9 2.133l.002.01.734-.255.007-.004-.002-.009c-.203-.878-.637-1.72-.954-2.13m5.618.203-.672.052v-.86a.141.141 0 0 0-.143-.142h-.578v.934a.153.153 0 0 1-.134.155l-.834.07a.127.127 0 0 1-.14-.128v-.725a.136.136 0 0 0-.142-.136l-.416.011a.146.146 0 0 0-.138.144v.776c0 .077-.065.16-.143.166l-.598.064a.142.142 0 0 0-.125.154l.044.436c.008.077.076.13.154.115l.527-.059c.079-.013.142.03.144.105l.015 1.22c0 .283.091.49.272.617.18.13.469.186.87.176a54.3 54.3 0 0 0 1.658-.088.154.154 0 0 0 .142-.15v-.562c-.696.064-1.311.097-1.838.097-.153-.003-.302-.026-.348-.083-.059-.076-.054-.243-.06-.4l-.016-.898c0-.079.061-.149.138-.159l.831-.082a.122.122 0 0 1 .139.124v.23c0 .128-.072.19-.215.19-.088 0-.203-.008-.203-.008-.079-.006-.131.05-.12.127l.079.5c.153.033.243.04.391.04.708 0 .787-.499.787-.769v-.392c0-.077.062-.143.139-.147l.551-.04a.146.146 0 0 0 .137-.148l-.009-.396a.136.136 0 0 0-.146-.132M535.91 22.63c-.402.013-.66.007-.76-.088-.094-.095.012-.306.015-.308a.129.129 0 0 0 .005-.11.14.14 0 0 0-.08-.077l-.495-.173c-.195.296-.26.586-.192.853.07.266.278.44.62.518.085.018.21.031.372.036.52.02 1.298-.04 1.305-.04a.158.158 0 0 0 .143-.164l-.03-.516c-.225.03-.565.055-.903.07m-.934-1.621.009.538h.02c.017-.003 1.559-.092 1.572-.092a.172.172 0 0 0 .123-.052.178.178 0 0 0 .04-.126l-.026-.537h-.02a24.57 24.57 0 0 0-1.552.092c-.098.01-.168.083-.166.176m.484-.903-.064-.554-.012.005a16.49 16.49 0 0 1-.815.136c.046-.202.096-.473.107-.528a.17.17 0 0 0-.025-.122.168.168 0 0 0-.106-.065l-.602-.097-.01-.002-.002.01a6.67 6.67 0 0 1-.175.907c-.32.038-.853.069-.874.07a.174.174 0 0 0-.163.173v.529h.011c.18 0 .488-.02.853-.051-.256.812-.947 2.164-.957 2.179a.169.169 0 0 0 .07.22l.503.259.01.006.005-.01c.488-.954.851-1.746 1.15-2.736.385-.045.715-.094.956-.138a.175.175 0 0 0 .14-.191m20.488.237c-.045 0-.097.002-.155.006a2.14 2.14 0 0 0 .093-.48c0-.089-.056-.145-.167-.168l-.434-.083c-.016.28-.053.54-.114.8-.285.038-.56.081-.684.103-.099.015-.186.078-.143.27l.08.346c.108-.028.326-.08.563-.136-.149.383-.365.794-.675 1.3-.054.096-.054.195.054.274l.323.227a9.487 9.487 0 0 0 .932-1.92c.088-.01.163-.017.22-.017.115 0 .22.112.22.296 0 .34-.186 1.047-.429 1.047-.047 0-.118-.004-.178-.004-.084 0-.142.092-.116.2l.08.358c.118.013.21.015.317.015a.605.605 0 0 0 .492-.227c.113-.14.382-.553.382-1.494 0-.294-.144-.713-.66-.713m.98-.17-.316.205c.16.234.405.662.543 1.286l.542-.256a5.562 5.562 0 0 0-.494-1.182c-.067-.117-.192-.106-.275-.053m.659-1.086a.19.19 0 0 0-.263-.034l-.035.027a.184.184 0 0 0-.033.258l.164.214a.18.18 0 0 0 .258.031l.035-.029a.188.188 0 0 0 .029-.263zm-.608.805c.06.08.178.094.257.031l.038-.029a.192.192 0 0 0 .029-.263l-.16-.205a.186.186 0 0 0-.26-.035l-.034.028a.183.183 0 0 0-.035.258zm15.993 2.074c-1.68.443-1.97.172-1.97-.066 0-.522 1.477-.989 1.706-1.072.216-.078.184-.198.14-.303l-.12-.304c-.324.118-.741.257-1.137.436-.113-.326-.173-.716-.198-.87-.03-.187-.15-.193-.245-.169l-.4.103c.055.474.17.891.333 1.207-.418.263-.726.594-.726 1.028 0 .418.326.801 1.2.801a7.24 7.24 0 0 0 1.337-.15c.105-.022.173-.096.147-.255zm-23.735 5.487h-.699v.906h.7c.14 0 .26.12.26.262v2.112h-.96v.907h.96v2.116c0 .14-.12.26-.26.26h-.7v.906h.7a1.17 1.17 0 0 0 1.168-1.166V28.62c0-.645-.524-1.168-1.169-1.168m-3.185 6.564a.265.265 0 0 1-.262-.26V31.64h1.558v-.907h-1.558V28.62c0-.14.119-.26.262-.26h1.296v-.907h-1.296c-.644 0-1.168.523-1.168 1.167v5.135c0 .643.524 1.166 1.168 1.166h1.296v-.905zm-1.516-5.763a.454.454 0 0 0-.395-.674h-1.127v-.922a.454.454 0 1 0-.908 0v.922h-.993a.454.454 0 0 0 0 .907h2.261l-2.943 5.335.796.438.816-1.523.063-.153v4.054h.908v-4.44l1.082 1.248.686-.593-1.697-1.96z" style="stroke-width:.00539959" transform="translate(-2403.314 -86.143) scale(4.80088)"/><path fill="#0072be" d="M547.156 36.637v-9.979c0-.25.202-.456.453-.456s.453.205.453.456v9.98z" style="stroke-width:.00539959" transform="translate(-2403.314 -86.143) scale(4.80088)"/><path fill="#776e5a" d="M576.959 27.156h-3.574v.907h3.574zm-9.005.907h4.239v-.907h-4.239zm9.503 6.316h-4.072v.906h4.072zm-10.006.907h4.742v-.906h-4.742zm1.906-2.629a.265.265 0 0 1-.261-.261v-.805h3.097v-.907h-3.097v-.805c0-.142.12-.261.261-.261h2.837v-.908h-2.837a1.17 1.17 0 0 0-1.168 1.169v2.517a1.17 1.17 0 0 0 1.168 1.169h2.837v-.908zm6.193-3.039c.142 0 .26.119.26.26v.806h-2.425v.907h2.426v.805a.264.264 0 0 1-.261.26h-2.165v.909h2.165c.643 0 1.169-.524 1.169-1.17V29.88c0-.645-.526-1.17-1.17-1.17h-2.164v.909z" style="stroke-width:.00539959" transform="translate(-2403.314 -86.143) scale(4.80088)"/><path fill="#0072be" d="M572.907 26.203v9.98a.454.454 0 1 1-.907 0v-9.98z" style="stroke-width:.00539959" transform="translate(-2403.314 -86.143) scale(4.80088)"/><path fill="#776e5a" d="M558.113 29.711h-2.269v-.555h2.269zm0 .98h-2.269v-.553h2.269zm4.133-.98h-2.27v-.555h2.27zm0 .98h-2.27v-.553h2.27z" style="stroke-width:.00539959" transform="translate(-2403.314 -86.143) scale(4.80088)"/><path fill="#776e5a" d="M562.736 27.915H559.5v-.555h3.54v-.81h-7.986v.81h3.54v.555h-3.24c-.628 0-1.14.512-1.14 1.14v1.635h.852v-1.636a.29.29 0 0 1 .288-.289h3.24v1.925h.906v-1.925h3.237c.16 0 .29.13.29.29v1.635h.85v-1.636a1.14 1.14 0 0 0-1.14-1.139m-6.852 6.436v-.725h2.899v-.839h-2.9v-.725h2.9v-.822h-2.954a.768.768 0 0 0-.77.768v2.398a.77.77 0 0 0 .77.769h2.954v-.824zm6.375-3.111h-2.284v.822h2.23v.725h-2.23v.84h2.23v.724h-2.23v.825h2.285a.77.77 0 0 0 .768-.77v-2.397a.77.77 0 0 0-.768-.77" style="stroke-width:.00539959" transform="translate(-2403.314 -86.143) scale(4.80088)"/><path fill="#0072be" d="M559.76 36.637a1.17 1.17 0 0 1-1.168-1.167v-4.23h.907v4.23c0 .141.119.26.26.26h3.398c.25 0 .455.203.455.454 0 .25-.205.453-.455.453z" style="stroke-width:.00539959" transform="translate(-2403.314 -86.143) scale(4.80088)"/><path fill="#776e5a" d="m532.872 36.173.78.464 1.45-2.445-.566-.824z" style="stroke-width:.00539959" transform="translate(-2403.314 -86.143) scale(4.80088)"/><path fill="#776e5a" d="M536.528 29.1h-3.854v-1.339c0-.14.12-.262.261-.262h3.717a.454.454 0 0 0 0-.906h-3.717a1.17 1.17 0 0 0-1.169 1.168v8.876h.908v-6.629h3.4v.77l-.818 1.377.567.824 1.094-1.845a.436.436 0 0 0 .064-.23v-1.35a.453.453 0 0 0-.453-.454m-5.853-2.507c.326 0 .519.322.433.59l-1.02 3.208c.369.493 1.219 1.822 1.219 3.538a1.17 1.17 0 0 1-1.167 1.168h-1.205v-.908h1.205c.142 0 .26-.117.26-.26 0-1.792-1.146-3.135-1.157-3.147a.459.459 0 0 1-.09-.436l.902-2.847h-1.35c-.18 0-.231.112-.231.262v8.876h-.906v-8.876c0-.645.489-1.168 1.089-1.168z" style="stroke-width:.00539959" transform="translate(-2403.314 -86.143) scale(4.80088)"/><path fill="#0072be" d="m536.661 36.626-3.595-5.227a.454.454 0 0 1 .75-.513l3.592 5.226z" style="stroke-width:.00539959" transform="translate(-2403.314 -86.143) scale(4.80088)"/></g></svg>