<svg xmlns="http://www.w3.org/2000/svg" width="480" height="140" viewBox="0 0 480 140"><path d="M69.59 22.594c-23.842 9.824-32.54-5.048-57.662 2.796v49.39c6.29-11.88 14.161-13.807 23.763-16.424 25.247-6.883 30.17-24.075 33.898-35.762Z" style="color:#000;font-style:normal;font-variant:normal;font-weight:400;font-stretch:normal;font-size:medium;font-family:sans-serif;font-variant-ligatures:normal;font-variant-position:normal;font-variant-caps:normal;font-variant-numeric:normal;font-variant-alternates:normal;font-variant-east-asian:normal;font-feature-settings:normal;text-indent:0;text-decoration:none;text-decoration-line:none;text-decoration-style:solid;text-decoration-color:#000;letter-spacing:normal;word-spacing:normal;text-transform:none;writing-mode:lr-tb;direction:ltr;text-orientation:mixed;dominant-baseline:auto;baseline-shift:baseline;text-anchor:start;clip-rule:nonzero;display:inline;overflow:visible;visibility:visible;color-interpolation:sRGB;vector-effect:none;fill:#fe330f;fill-opacity:1;fill-rule:nonzero;stroke-width:1;stroke-linecap:butt;stroke-linejoin:miter;stroke-miterlimit:4;stroke-dasharray:none;stroke-dashoffset:0;stroke-opacity:1;color-rendering:auto;image-rendering:auto;shape-rendering:auto;text-rendering:auto;enable-background:accumulate;stop-color:#000;stop-opacity:1;stroke:none;opacity:1"/><path d="M11.928 74.78v55.324h55.017Z" style="color:#000;font-style:normal;font-variant:normal;font-weight:400;font-stretch:normal;font-size:medium;font-family:sans-serif;font-variant-ligatures:normal;font-variant-position:normal;font-variant-caps:normal;font-variant-numeric:normal;font-variant-alternates:normal;font-variant-east-asian:normal;font-feature-settings:normal;text-indent:0;text-decoration:none;text-decoration-line:none;text-decoration-style:solid;text-decoration-color:#000;letter-spacing:normal;word-spacing:normal;text-transform:none;writing-mode:lr-tb;direction:ltr;text-orientation:mixed;dominant-baseline:auto;baseline-shift:baseline;text-anchor:start;clip-rule:nonzero;display:inline;overflow:visible;visibility:visible;color-interpolation:sRGB;vector-effect:none;fill:#74b4a7;fill-opacity:1;fill-rule:nonzero;stroke-width:1;stroke-linecap:butt;stroke-linejoin:miter;stroke-miterlimit:4;stroke-dasharray:none;stroke-dashoffset:0;stroke-opacity:1;color-rendering:auto;image-rendering:auto;shape-rendering:auto;text-rendering:auto;enable-background:accumulate;stop-color:#000;stop-opacity:1;stroke:none;opacity:1"/><g style="opacity:1"><path d="M390.523 7.402c-.004 0-.01.004-.015.004a2.5 2.5 0 0 0-1.112.262l-.001.002h-.002c-.773.387-1.167 1.092-1.311 1.525a2.671 2.671 0 0 0-.146.946 2.5 2.5 0 0 0 .084.644c.152.573.533.995.869 1.447a2.5 2.5 0 0 0-.3.463c-.075.152-.153.35-.228.606a3.49 3.49 0 0 0-.632.463 2.5 2.5 0 0 0-.172.191c-.967 1.19-1.575 2.693-1.575 4.232 0 1.042.491 1.815.944 2.325.452.509.937.861 1.48 1.2a2.5 2.5 0 0 0 .086.052c.644.368 1.798.575 2.71.195.91-.38 1.365-1.022 1.653-1.541l-.218.326c1.168-1.49 1.758-1.631 1.705-1.697.04.101.078.055.078.547 0 2.536-1.156 4.154-4.889 5.748a2.5 2.5 0 0 0-.787.531 2.817 2.817 0 0 0-.502.645c-.197.337-.535.985-.29 1.962.243.978 1.14 1.624 1.634 1.803.493.18.774.17 1.006.17a2.5 2.5 0 0 0 .654-.088c3.063-.83 5.568-2.055 7.39-3.894 1.823-1.84 2.815-4.334 2.815-6.955 0-1.667-.455-3.366-1.67-4.58-.323-.324-.755-.506-1.142-.752a3.383 3.383 0 0 0 .78-2.09 2.5 2.5 0 0 0-.015-.278c-.115-1.034-.64-2.039-1.341-2.74-.425-.425-1.128-.862-1.952-.937-.823-.075-1.572.22-2.062.547l.728-.332c-.443.12-.74.146-.748.146-1.136 0-1.493-.263-1.513-.283a2.5 2.5 0 0 0-.27-.233 2.671 2.671 0 0 0-.846-.45c-.049-.017-.14-.015-.199-.03a2.5 2.5 0 0 0-.652-.098c-.01 0-.015-.004-.026-.004zm-114.863.051c-1.111.046-1.699.464-2.283.873a2.5 2.5 0 0 0-.566.549 2.68 2.68 0 0 0-.45.846 2.745 2.745 0 0 0 .133 1.97c-.42-.363-1.077-.691-1.668-.691-1.276 0-1.63.555-1.865.791-.236.236-.344.398-.45.557a2.5 2.5 0 0 0-.29.595c-.197.59-.352 1.304-.133 2.178a2.5 2.5 0 0 0 .346.781c.466.7 1.045 1.328 1.726 1.948a2.5 2.5 0 0 0 .082.07c.38.316.969.56 1.608.68l-.592 3.195.137-.473c-.339.847-.3 1.83-.051 2.576a2.5 2.5 0 0 0 .4.747c.527.676 1.308 1.324 2.39 1.591-.266.38-.634 1.198-.402 2.127.233.93.901 1.446 1.291 1.658.39.213.646.262.86.305a2.5 2.5 0 0 0 .66.043c4.846-.33 8.449-1.171 10.816-3.539 1.233-1.233 1.905-2.995 1.905-4.736 0-1.572-.74-3.103-1.827-4.19-.962-.962-2.234-1.423-3.576-1.69.271-.254.546-.514.737-.972.476-1.143.014-2.336-.412-2.937-.42-.611-1.006-1.165-1.696-1.51-.547-.273-1.305-.311-2.05-.215-.187-.587-.47-1.08-.737-1.348a2.5 2.5 0 0 0-.267-.232 8.937 8.937 0 0 0-2.616-1.354 3.188 3.188 0 0 0-1.158-.193 2.5 2.5 0 0 0-.002 0zm-26.724.11a2.5 2.5 0 0 0-.856.152 5.01 5.01 0 0 0-1.486.619 2.5 2.5 0 0 0-.442.352 2.7 2.7 0 0 0-.609.86c-.21.457-.374 1.309-.063 2.089.09.222.245.23.368.396-.353.012-1.035.063-1.287.063-.305 0-.409-.027-.422-.024-.091-.106-.139-.191-.334-.343-.333-.26-1.194-.826-2.399-.424-1.205.401-1.555 1.37-1.666 1.777-.11.407-.101.62-.101.81a3.9 3.9 0 0 0 .724 2.25c.338.49.717.93 1.18 1.393.09.09.295.136.406.225-.016.15-.123.276-.123.43 0 1.024.447 2.185 1.201 2.939.104.103.21.088.313.176-.417.249-.895.387-1.25.742-.755.754-1.201 1.915-1.201 2.94 0 1.116.536 2.274 1.279 3.017 1.381 1.381 3.292 1.826 5.283 1.826 1.542 0 3.062-.295 4.29-1.332.216-.183.297-.465.472-.683.62.326 1.17.551 1.842.955a2.5 2.5 0 0 0 .047.027c.427.244.979.486 1.728.486.75 0 1.63-.38 2.139-.888a2.5 2.5 0 0 0 .469-.65c.568-1.139.422-2.094.214-2.964-.209-1.164-1.217-2.183-2.088-2.558-.635-.278-1.196-.387-1.806-.612.287-.068.757-.095 1.015-.175a2.5 2.5 0 0 0 .133-.047c.599-.225 1.399-.735 1.809-1.637.41-.902.27-1.843.045-2.441a2.5 2.5 0 0 0-.26-.508c-.06-.09-.18-.133-.246-.219.358-.219.714-.52 1.012-1.016.532-.886.436-2.08.154-2.738a2.5 2.5 0 0 0-.217-.402c-.493-.74-1.185-1.274-1.9-1.631-.586-.293-1.572-.297-2.422-.018-.002-.011.008-.021.006-.033-.278-1.387-1.12-1.803-1.63-2.086a2.5 2.5 0 0 0-.036-.021c-.704-.375-1.413-.574-2.13-.772a2.5 2.5 0 0 0-.7-.254c-.015-.002-.029-.013-.043-.015v.008a2.5 2.5 0 0 0-.412-.042zm96.421.078c-.833 0-1.389.242-1.9.498a2.5 2.5 0 0 0-.168.091c-.212.128-.467.28-.789.674s-.733 1.264-.55 2.176c.016.084.066.12.09.197-1.041.942-2.063 1.888-3.292 2.766l.02-.014c-.63.44-1.168.882-1.643 1.448-.729.855-1.064 1.999-1.064 3.023 0 1.32.677 2.66 1.609 3.498a2.5 2.5 0 0 0 .172.143 25.73 25.73 0 0 1 5.416 5.486c.527.74.725 1.08 1.27 1.625a2.5 2.5 0 0 0 .296.254c.65.472 1.77.92 2.92.601 1.15-.319 1.796-1.154 2.158-1.828a2.5 2.5 0 0 0 .139-.308 4.718 4.718 0 0 0 .164-2.735 2.5 2.5 0 0 0-.055-.183c-.286-.86-.769-1.447-1.296-1.977-1.36-1.445-3.223-3.007-5.182-4.597 1.436-1 2.868-1.991 4.38-3.155a2.5 2.5 0 0 0 .077-.06c.205-.17.303-.223.267-.207.552-.182 1.13-.484 1.565-1.21.67-1.117.371-2.244.103-2.847a2.5 2.5 0 0 0-.238-.418c-.534-.763-1.212-1.417-1.982-2.002-.626-.508-1.502-.94-2.487-.94zm-121.644.302c-.597.055-1.063.302-1.457.588-2.699.604-4.488.876-4.834.914-.085-.102-.078-.163-.215-.283-.426-.373-1.448-.789-2.33-.568-.882.22-1.277.72-1.494 1.017a2.865 2.865 0 0 0-.38.694 2.5 2.5 0 0 0-.103.324c-.18.726-.277 1.595.104 2.549a2.5 2.5 0 0 0 .387.654 9.973 9.973 0 0 0 1.974 1.86c.089.062.27.05.373.109l-2.279 2.435c-.395.394-.782.737-1.152 1.026l.082-.063c-.942.673-1.594 2.012-1.594 3.13 0 .833.24 1.74.732 2.48a2.5 2.5 0 0 0 .182.24c.443.517 1.387 1.216 2.574 1.117a2.893 2.893 0 0 0 1.416-.502c-.343.338-.685.815-.685 1.723 0 1.365.954 2.048 1.351 2.271.397.223.633.275.856.33a2.5 2.5 0 0 0 .69.073c4.83-.165 8.333-.74 10.667-3.075 1.33-1.33 2.139-3.173 2.139-5.049 0-1.638-.572-3.326-1.748-4.501-1.029-1.029-2.382-1.572-3.82-1.909.334-.298.6-.614.945-.91l.004-.004c.191-.16.294-.188.173-.148a2.5 2.5 0 0 0 .002 0c.551-.184 1.53-.491 1.99-1.873.231-.691.123-1.476-.087-1.967a3.006 3.006 0 0 0-.692-1.002 2.5 2.5 0 0 0-.445-.353 32.502 32.502 0 0 0-1.44-.848l.39.267c-.477-.397-1.303-.834-2.276-.746zm148 0c-.597.055-1.063.302-1.457.588-2.699.604-4.488.876-4.834.914-.085-.102-.078-.163-.215-.283-.426-.373-1.448-.789-2.33-.568-.882.22-1.277.72-1.494 1.017a2.865 2.865 0 0 0-.38.694 2.5 2.5 0 0 0-.103.324c-.18.726-.277 1.595.104 2.549a2.5 2.5 0 0 0 .387.654 9.973 9.973 0 0 0 1.974 1.86c.089.062.27.05.373.109l-2.279 2.435c-.395.394-.782.737-1.152 1.026l.082-.063c-.942.673-1.594 2.012-1.594 3.13 0 .833.24 1.74.732 2.48a2.5 2.5 0 0 0 .182.24c.443.517 1.387 1.216 2.574 1.117a2.893 2.893 0 0 0 1.416-.502c-.343.338-.685.815-.685 1.723 0 1.365.954 2.048 1.351 2.271.397.223.633.275.856.33a2.5 2.5 0 0 0 .69.073c4.83-.165 8.333-.74 10.667-3.075 1.33-1.33 2.139-3.173 2.139-5.049 0-1.638-.572-3.326-1.748-4.501-1.029-1.029-2.382-1.572-3.82-1.909.334-.298.6-.614.945-.91l.004-.004c.191-.16.294-.188.173-.148a2.5 2.5 0 0 0 .002 0c.55-.184 1.53-.491 1.99-1.873.231-.691.123-1.476-.087-1.967a3.008 3.008 0 0 0-.692-1.002 2.5 2.5 0 0 0-.445-.353 32.51 32.51 0 0 0-1.44-.848l.39.267c-.477-.397-1.303-.834-2.276-.746zm-122.777.586c.035.016.03.005.072.026.028.014.075.099.107.117-.063-.027-.117-.095-.18-.117v-.026zm-27.032.303c-.091.088-.226.171-.297.256l.155-.168c.07-.07.079-.04.142-.088zm148 0c-.091.088-.226.171-.297.256l.155-.168c.07-.07.079-.04.142-.088zm-212.793.648c-.04 0-.106.037-.148.04a2.5 2.5 0 0 0-.984.257l-.004.002h-.004l.002.002c-.245.123-.377.38-.56.588l-.089-.121a2.5 2.5 0 0 0-.73 1.713c-.003.036-.041.1-.041.133 0 .594.126.858.217 1.084a2.5 2.5 0 0 0 .253.478c.533.783 1.31 1.316 2.092 1.834a2.5 2.5 0 0 0-.293.395c-.108.18-.23.387-.338.765-.047.165-.088.41-.1.68-.844.002-1.497.443-1.804.75-.307.308-.418.534-.506.71-.175.349-.218.544-.267.743a2.5 2.5 0 0 0-.075.608c0 2.569.43 4.824 2.061 6.455 1.967 1.966 4.808 2.529 8.252 2.529 2.208 0 4.038-.151 5.605-.543a2.5 2.5 0 0 0 .13-.037c.706-.218 1.727-.701 2.21-1.91.484-1.21.04-2.352-.367-2.992a2.5 2.5 0 0 0-.342-.426c-.41-.41-.864-.797-1.361-1.17a2.5 2.5 0 0 0-.26-.172c-.82-.469-2.343-.724-3.465-.05a2.5 2.5 0 0 0-.1.064c.007-.005-.1.05-.306.1-.853.168-1.796.261-2.838.261-1.871 0-2.753-.43-3.076-.752-.25-.25-.5-.852-.723-1.553.139-.013.356.011.46-.01a2.5 2.5 0 0 0 .898-.37c1.134-.756 2.186-1.323 3.144-1.715.96-.383 2.114-.6 3.516-.6a2.5 2.5 0 0 0 .248-.014c.638-.064 1.562-.3 2.25-1.16.688-.86.716-1.976.566-2.65a2.5 2.5 0 0 0-.203-.576c-.32-.639-.712-1.123-1.187-1.66-.504-.598-1.414-1.087-2.23-1.141-.821-.055-1.456.176-1.97.433l.374-.15c-.466.145-1.342.277-2.536.277-1.634 0-2.948-.283-4.025-.783l.064.031a3.082 3.082 0 0 0-.707-.267c-.168-.042-.4-.11-.703-.11zm29 0c-.04 0-.106.037-.148.04a2.5 2.5 0 0 0-.984.257l-.004.002h-.004l.002.002c-.245.123-.377.38-.56.588l-.089-.121a2.5 2.5 0 0 0-.73 1.713c-.003.036-.041.1-.041.133 0 .594.126.858.217 1.084a2.5 2.5 0 0 0 .253.478c.533.783 1.31 1.316 2.092 1.834a2.5 2.5 0 0 0-.293.395c-.108.18-.23.387-.338.765-.047.165-.088.41-.1.68-.844.002-1.497.443-1.804.75-.307.308-.418.534-.506.71-.175.349-.218.544-.267.743a2.5 2.5 0 0 0-.075.608c0 2.569.43 4.824 2.061 6.455 1.967 1.966 4.808 2.529 8.252 2.529 2.208 0 4.038-.151 5.605-.543a2.5 2.5 0 0 0 .13-.037c.706-.218 1.727-.701 2.21-1.91.484-1.21.04-2.352-.367-2.992a2.5 2.5 0 0 0-.342-.426c-.41-.41-.864-.797-1.361-1.17a2.5 2.5 0 0 0-.26-.172c-.82-.469-2.342-.724-3.465-.05a2.5 2.5 0 0 0-.1.064c.007-.005-.1.05-.306.1-.853.168-1.796.261-2.838.261-1.871 0-2.753-.43-3.076-.752-.25-.25-.5-.852-.723-1.553.139-.013.356.011.46-.01a2.5 2.5 0 0 0 .898-.37c1.134-.756 2.186-1.323 3.144-1.715.96-.383 2.114-.6 3.516-.6a2.5 2.5 0 0 0 .248-.014c.638-.064 1.562-.3 2.25-1.16.688-.86.716-1.976.566-2.65a2.5 2.5 0 0 0-.203-.576c-.32-.639-.712-1.123-1.187-1.66-.504-.598-1.414-1.087-2.23-1.141-.821-.055-1.456.176-1.97.433l.374-.15c-.466.145-1.342.277-2.536.277-1.634 0-2.948-.283-4.025-.783l.064.031a3.082 3.082 0 0 0-.707-.267c-.168-.042-.4-.11-.703-.11zm90.55.065c-.205.102-.333.3-.51.443.224-.26.44-.408.51-.443zm-59.145.021c-.014-.015.079.034.056.006l.303.467c-.06-.118-.245-.313-.36-.473zm148 0c-.014-.015.079.034.056.006l.303.467c-.06-.118-.245-.313-.36-.473zm-140.84.164c-.208.07-.334.216-.518.307.253-.21.464-.29.518-.307zm148 0c-.208.07-.334.216-.518.307.253-.21.464-.29.518-.307zM317.514 11c-2.007 0-4.028.537-6.014 1.5l.117-.053c-1 .423-1.757.726-2.515 1.03-.146-.134-.28-.271-.579-.42a2.699 2.699 0 0 0-1.812-.205c-.74.184-1.285.707-1.541 1.091a2.632 2.632 0 0 0-.395.903 2.5 2.5 0 0 0-.045.226c-.146.953-.428 2.141.84 3.44.73.787 1.598 1.45 2.592 2.01a2.5 2.5 0 0 0 .012.007c.619.344 1.494.56 2.332.412.838-.148 1.512-.598 1.978-1.064l-.062.06a17.383 17.383 0 0 1 1.88-1.55c1.46-.971 2.565-1.293 3.212-1.293.694 0 .966.126 1.357.517.392.392.518.663.518 1.358 0 1.022-.213 1.443-.596 1.826-1.035 1.035-3.11 1.984-6.441 2.412a2.5 2.5 0 0 0-.61.158c-.198.08-.431.167-.781.448-.35.28-.986.963-.986 2.03 0 1.068.636 1.75.986 2.03.35.28.58.368.78.447a2.5 2.5 0 0 0 1.011.178c5.098-.166 9.035-1.127 11.607-3.7 1.513-1.512 2.295-3.642 2.295-5.83a7.644 7.644 0 0 0-2.216-5.36c-1.766-1.766-4.26-2.608-6.924-2.608zm-44.764.945c.075.103.157.122.24.207-.028.001-.082.008-.11.008-.046-.075-.065-.134-.13-.215zm-28.527.213c.037.028.045.022.101.092l.049.063c-.03-.04-.116-.11-.15-.155zm-77.053.092c-.092 0-.176.02-.268.021l.018-.01.25-.011zm29 0c-.092 0-.176.02-.268.021l.018-.01.25-.011zm60.236 2.549-.38.312c-.017.011-.043.006-.06.016.143-.106.27-.158.44-.328zm25.67.183-.277.192c-.005.002-.011-.003-.016 0 .093-.069.202-.119.293-.192zm-26.293.282.143.076c-.022-.013-.062-.003-.084-.016-.026-.014-.039-.043-.065-.056l.006-.004zm-15.316.142c.192.233.466.311.691.489-.146-.081-.35-.164-.424-.221-.203-.158-.224-.21-.267-.268zm64.943 1.32c.19.295.577.508.848.78a2.01 2.01 0 0 1-.514-.363l-.334-.416zm-144.412.311c.038.007.068.027.106.033-.037-.01-.03.002-.07-.011-.01-.003-.027-.019-.036-.022zm29 0c.038.007.068.027.106.033-.037-.01-.03.002-.07-.011-.01-.003-.027-.019-.036-.022zm32.125 4.041c.906 0 1.175.18 1.357.361.118.118.127.074.127.42 0 .376-.032.482-.36.81-.631.631-2.556 1.548-5.79 2.03a2.5 2.5 0 0 0-.51.131c-.21.08-.428.158-.771.395-.071.049-.195.19-.295.271.264-.217.511-.449.664-.652l-.072.092a42.166 42.166 0 0 1 2.55-2.836c.835-.683 1.74-1.022 3.1-1.022zm148 0c.906 0 1.175.18 1.357.361.118.118.127.074.127.42 0 .376-.032.482-.36.81-.631.631-2.556 1.548-5.79 2.03a2.5 2.5 0 0 0-.51.131c-.21.08-.428.158-.771.395-.071.049-.195.19-.295.271.264-.217.511-.449.664-.652l-.072.092a42.166 42.166 0 0 1 2.55-2.836c.835-.683 1.74-1.022 3.1-1.022zm-88.594.625c.26 0 .197-.017.342.127.118.118.127.074.127.42 0 .15.008.285-.44.732-.393.394-1.916 1.048-4.001 1.631.052-.112.215-.22.25-.324l-.082.213a4.514 4.514 0 0 1 .962-1.422c1.057-1.057 1.879-1.377 2.842-1.377zm-24.955 2.75.008.002.045.025c-.019-.01-.034-.016-.053-.027zM168.87 26.05l-.101.062c-.023.014-.037-.008-.061.004.051-.031.111-.032.162-.066zm29 0-.1.062c-.023.015-.037-.008-.062.004.051-.031.111-.032.162-.066zm76.553.303c.014.002.021.011.035.013l-.059-.01c.007.002.017-.004.024-.003zM244.516 42.24a2.5 2.5 0 0 0-2.5 2.5v1c0 .013-.024.236-.452.694-.428.457-1.191 1.026-2.082 1.535-1.78 1.018-4.058 1.836-5.168 2.16-1.775.519-4.25 1.723-6.626 3.74-2.376 2.018-4.672 5.003-4.672 8.871v38a2.5 2.5 0 0 0 2.5 2.5h15a2.5 2.5 0 0 0 2.5-2.5v-38c0-3.031.634-4.693 1.46-5.85.827-1.156 1.98-1.923 3.463-2.712 1.51-.803 3.139-1.51 4.633-2.614 1.495-1.103 2.944-2.997 2.944-5.324v-1.5a2.5 2.5 0 0 0-2.5-2.5h-8.5zm2.148 5h3.15c-.12.101-.018.159-.21.301-.832.614-2.328 1.327-4.012 2.223-.473.251-.98.61-1.477.92.359-.295.779-.489 1.102-.834.644-.69 1.129-1.602 1.447-2.61zm118.283 2.5c-5.587 0-11.167 3.295-13.763 8.283l-21.637 41.563a2.5 2.5 0 0 0 2.219 3.654h13a2.5 2.5 0 0 0 2.277-1.47l5.705-12.62c1-2.212 1.463-2.683 1.563-2.736.099-.053 1.07-.174 3.459-.174h10.63c2.343 0 3.308.108 3.434.174.126.066.602.535 1.613 2.746l5.772 12.62a2.5 2.5 0 0 0 2.273 1.46h16.637a2.5 2.5 0 0 0 2.217-3.654L378.71 58.023c-2.597-4.989-8.177-8.283-13.764-8.283zm51.819 0c-5.106 0-10 3.953-10 9.438v41.562a2.5 2.5 0 0 0 2.5 2.5h15a2.5 2.5 0 0 0 2.5-2.5V76.063l24.539 24.539c2.104 2.104 5.058 3.638 9.267 3.638 5.106 0 10-3.953 10-9.437V53.24a2.5 2.5 0 0 0-2.5-2.5h-15a2.5 2.5 0 0 0-2.5 2.5v24.678l-24.539-24.54c-2.105-2.104-5.059-3.638-9.267-3.638zm-330.5 1a2.5 2.5 0 0 0-2.5 2.5v47.5a2.5 2.5 0 0 0 2.5 2.5h15a2.5 2.5 0 0 0 2.5-2.5V80.871l.054-.043c.652-.5.808-.55.92-.55.164 0 .342.064.674.396l21.834 21.834a2.5 2.5 0 0 0 1.768.732h17.966a2.5 2.5 0 0 0 1.768-4.267l-24.965-24.965c-.524-.524-1.033-1.913-1.033-1.697 0 .248.301-.484.697-.788l21.24-16.3a2.5 2.5 0 0 0-1.521-4.483h-15a2.5 2.5 0 0 0-1.522.516l-22.88 17.558V53.24a2.5 2.5 0 0 0-2.5-2.5h-15zm77 0c-5.494 0-10 4.507-10 10v32.5c0 5.493 4.506 10 10 10h44.5a2.5 2.5 0 0 0 2.5-2.5v-7.5a2.5 2.5 0 0 0-2.5-2.5h-34.5v-9.25h28a2.5 2.5 0 0 0 2.5-2.5v-6.5a2.5 2.5 0 0 0-2.5-2.5h-28v-6.75h34.5a2.5 2.5 0 0 0 2.5-2.5v-7.5a2.5 2.5 0 0 0-2.5-2.5h-44.5zm100.5 0a2.5 2.5 0 0 0-2.5 2.5v47.5a2.5 2.5 0 0 0 2.5 2.5h15a2.5 2.5 0 0 0 2.5-2.5V81.49h21.25v19.25a2.5 2.5 0 0 0 2.5 2.5h15a2.5 2.5 0 0 0 2.5-2.5v-47.5a2.5 2.5 0 0 0-2.5-2.5h-15a2.5 2.5 0 0 0-2.5 2.5v16.75h-21.25V53.24a2.5 2.5 0 0 0-2.5-2.5h-15zm-21.457 1.31c-.663.573-1.333 1.142-1.9 1.936-1.501 2.1-2.393 4.975-2.393 8.754v35.5h-10v-35.5c0-1.84 1.174-3.586 2.91-5.06 1.735-1.474 4.01-2.524 4.79-2.752 1.447-.423 3.919-1.285 6.249-2.617.123-.07.221-.187.344-.26zm122.638 2.69c3.393 0 7.779 2.616 9.328 5.592l19.733 37.908h-10.91l-5.104-11.16c-1.1-2.406-1.987-4.125-3.844-5.096-1.856-.97-3.493-.744-5.75-.744h-10.63c-2.313 0-3.954-.227-5.81.762-1.854.989-2.692 2.708-3.769 5.09l-5.039 11.148h-7.267l19.734-37.908c1.55-2.977 5.935-5.592 9.328-5.592zm51.819 0c3.24 0 4.189.63 5.732 2.174l27.615 27.615c.313.313.637.597 1.112.848.474.251 1.196.518 2.11.305.916-.213 1.657-.996 1.933-1.598.275-.602.304-1.07.304-1.486V55.74h10v39.063c0 2.216-2.657 4.437-5 4.437-3.24 0-4.189-.63-5.732-2.174l-27.615-27.615a4.469 4.469 0 0 0-1.114-.847c-.474-.252-1.194-.52-2.109-.307-.915.213-1.656.996-1.932 1.598-.276.601-.304 1.07-.304 1.488V98.24h-10V59.178c0-2.216 2.657-4.438 5-4.438zm-328 1h10v18.145a2.5 2.5 0 0 0 2.771 2.484c-.252.172-.579.353-.76.492a2.5 2.5 0 0 0-.002 0l-1.033.793a2.5 2.5 0 0 0-.976 1.985V98.24h-10v-42.5zm40.25 0h6.787l-15.397 11.817c-1.216.933-2.654 2.333-2.654 4.754 0 2.386 1.186 3.92 2.498 5.232l20.697 20.697h-10.896L108.949 77.14c-.917-.918-2.368-1.862-4.209-1.862-.676 0-1.193.222-1.724.414l26-19.95zm34.25 0h42v2.5h-32c-2.732 0-5 2.268-5 5v6.75c0 2.732 2.268 5 5 5h25.5v1.5h-25.5c-2.732 0-5 2.268-5 5v9.25c0 2.732 2.268 5 5 5h32v2.5h-42c-2.791 0-5-2.209-5-5v-32.5c0-2.79 2.209-5 5-5zm103 0h10v14.25c0 2.732 2.268 5 5 5h21.25c2.731 0 5-2.268 5-5V55.74h10v42.5h-10V81.49c0-2.732-2.269-5-5-5h-21.25c-2.732 0-5 2.268-5 5v16.75h-10v-42.5zm96.757 4.301a2.5 2.5 0 0 0-1.378.44c-.838.379-1.576.91-1.95 1.462-.57.844-.865 1.624-1.232 2.436l-4.567 10.096c-.294.651-.503 1.193-.632 1.796-.13.604-.234 1.39.228 2.311.463.92 1.483 1.439 2.053 1.564.57.126.89.094 1.096.094h12.855c.213 0 .539.03 1.113-.101.575-.132 1.59-.666 2.041-1.584.452-.919.342-1.697.211-2.3-.13-.601-.342-1.142-.638-1.79l-4.618-10.096a2.5 2.5 0 0 0 0-.002c-.373-.816-.678-1.598-1.255-2.44-.38-.552-1.118-1.08-1.957-1.454a2.5 2.5 0 0 0-1.37-.432zm.012 6.36c.011.023.013.022.024.046l4.021 8.793h-8.043l3.98-8.802.018-.038z" style="color:#000;font-style:normal;font-variant:normal;font-weight:400;font-stretch:normal;font-size:medium;font-family:sans-serif;font-variant-ligatures:normal;font-variant-position:normal;font-variant-caps:normal;font-variant-numeric:normal;font-variant-alternates:normal;font-variant-east-asian:normal;font-feature-settings:normal;text-indent:0;text-decoration:none;text-decoration-line:none;text-decoration-style:solid;text-decoration-color:#000;letter-spacing:normal;word-spacing:normal;text-transform:none;writing-mode:lr-tb;direction:ltr;text-orientation:mixed;dominant-baseline:auto;baseline-shift:baseline;text-anchor:start;clip-rule:nonzero;display:inline;overflow:visible;visibility:visible;color-interpolation:sRGB;vector-effect:none;fill:#fff;fill-opacity:1;fill-rule:nonzero;stroke:none;stroke-linecap:round;stroke-linejoin:round;stroke-miterlimit:4;stroke-dasharray:none;stroke-dashoffset:0;stroke-opacity:1;color-rendering:auto;image-rendering:auto;shape-rendering:auto;text-rendering:auto;enable-background:accumulate;stop-color:#000;stop-opacity:1"/><path d="M390.513 9.906c-.052.026-.078.104-.078.234.209.782.86 1.407 1.953 1.875.209.052.235.13.079.235a15.862 15.862 0 0 0-1.641 1.562c-.156.313-.104.417.156.313 1.302-.938 2.656-1.406 4.063-1.406.364 0 .755.026 1.171.078.47 0 .704-.235.704-.703-.053-.47-.26-.886-.625-1.25-.26-.26-.547-.287-.86-.079-.573.157-1.041.235-1.406.235-1.51 0-2.604-.339-3.281-1.016-.104-.078-.183-.104-.235-.078zm-114.75.045c-.244.01-.562.15-.953.424-.156.208-.104.312.157.312.572.26.78.703.625 1.328l-.47 2.5c-.989.105-1.796.157-2.421.157-.833 0-1.432-.313-1.797-.938 0-.312-.104-.312-.312 0-.105.313-.13.573-.079.781.313.47.756.964 1.328 1.485.313.26.625.286.938.078l2.11-.156-1.173 6.328c-.104.26-.104.547 0 .86.365.468.73.728 1.094.78.313.052.521-.078.625-.39a7.07 7.07 0 0 1 1.485-2.188c1.406-1.406 2.942-2.11 4.609-2.11.833 0 1.536.287 2.11.86.572.573.859 1.302.859 2.188 0 .885-.39 1.718-1.172 2.5-1.198 1.198-3.542 2.135-7.031 2.812-.209.156-.183.26.078.313 4.583-.313 7.656-1.25 9.218-2.813.782-.781 1.172-1.77 1.172-2.969 0-.885-.364-1.692-1.093-2.421-.834-.834-2.058-1.25-3.672-1.25-2.396 0-4.61.885-6.64 2.656.207-1.458.52-3.23.937-5.313 2.343-.312 4.166-.677 5.468-1.093.573-.209.703-.521.391-.938a2.017 2.017 0 0 0-.781-.703c-.313-.156-.6-.156-.86 0a4.1 4.1 0 0 1-.703.469 19.68 19.68 0 0 1-3.125.86c.156-.626.313-1.199.469-1.72.104-.416.313-.703.625-.86.417-.207.469-.468.156-.78a6.375 6.375 0 0 0-1.953-1.016.525.525 0 0 0-.219-.033zm-26.828.111c-.26 0-.599.13-1.015.39-.209.21-.157.34.156.392.729.208 1.12.625 1.172 1.25.104.937.156 1.692.156 2.265-2.187.156-3.802.235-4.844.235-1.041 0-1.77-.26-2.187-.782-.156-.208-.235-.182-.235.078 0 .313.078.573.235.782.208.312.52.677.937 1.093.26.26.521.313.782.157l1.64-.078c-.937.677-1.406 1.458-1.406 2.343 0 .469.156.86.469 1.172.364.365 1.145.547 2.343.547.886 0 1.693-.026 2.422-.078.052.99.078 1.953.078 2.89a10.029 10.029 0 0 0-1.797-.156c-1.822 0-3.15.417-3.984 1.25-.312.313-.469.703-.469 1.172s.183.886.547 1.25c.73.73 1.901 1.094 3.516 1.094 2.396 0 3.568-.99 3.515-2.969 1.355.573 2.813 1.328 4.375 2.266.365.208.651.208.86 0 .156-.313.156-.781 0-1.406-.052-.313-.26-.547-.625-.704-1.667-.729-3.203-1.25-4.61-1.562 0-.99-.026-2.057-.078-3.203 1.927-.209 3.308-.443 4.14-.703.418-.157.548-.443.392-.86a2.016 2.016 0 0 0-.782-.703c-.26-.156-.52-.104-.78.156-.782.313-1.772.573-2.97.782a63.037 63.037 0 0 1-.078-2.97c1.98-.207 3.594-.494 4.844-.858.469-.157.625-.417.469-.782-.209-.312-.521-.573-.938-.781-.208-.104-.39-.104-.547 0-.104.104-.286.234-.547.39-.937.313-2.03.574-3.28.782 0-.625.025-1.276.077-1.953 0-.209.105-.417.313-.625.364-.26.312-.521-.156-.781-.782-.417-1.485-.677-2.11-.782zm96.422.078c-.208 0-.469.078-.781.235-.26.156-.235.286.078.39.208.157.39.339.547.547.156.209.13.417-.078.625a38.969 38.969 0 0 1-4.922 4.14c-.521.365-.912.704-1.172 1.016-.312.365-.469.834-.469 1.407 0 .625.26 1.172.782 1.64a28.268 28.268 0 0 1 5.937 6.016c.52.73.86 1.172 1.016 1.328.573.417 1.041.286 1.406-.39a2.06 2.06 0 0 0 .078-1.25c-.104-.313-.339-.652-.703-1.016-1.563-1.667-3.62-3.49-6.172-5.469-.469-.365-.703-.677-.703-.937 0-.365.156-.651.469-.86a106.959 106.959 0 0 0 5.859-4.219c.312-.26.573-.442.781-.547.521-.052.677-.312.469-.78-.365-.522-.86-1.016-1.484-1.485-.313-.26-.625-.39-.938-.39zm-121.418.293c-.143.013-.28.098-.41.254-.104.104-.26.182-.469.235-3.177.729-5.182 1.093-6.015 1.093-.47 0-.938-.286-1.407-.859-.104-.208-.208-.182-.312.078-.104.417-.104.755 0 1.016a7.477 7.477 0 0 0 1.484 1.406c.365.26.703.234 1.016-.078a32.032 32.032 0 0 1 4.14-1.172c.313-.052.365.026.157.234l-6.875 7.344c-.469.469-.938.885-1.406 1.25-.365.26-.547.625-.547 1.094 0 .417.104.781.312 1.094.313.364.625.338.938-.078a44.618 44.618 0 0 1 2.812-3.125c1.302-1.094 2.89-1.641 4.766-1.641 1.354 0 2.396.364 3.125 1.094.573.573.86 1.302.86 2.187 0 .99-.365 1.85-1.095 2.578-1.302 1.302-3.698 2.214-7.187 2.735-.417.156-.417.286 0 .39 4.583-.156 7.578-.937 8.984-2.344.938-.937 1.407-2.03 1.407-3.28 0-1.147-.34-2.058-1.016-2.735-1.042-1.042-2.5-1.563-4.375-1.563-1.458 0-2.969.339-4.531 1.016a74.61 74.61 0 0 1 6.172-5.938c.364-.312.702-.52 1.015-.625.469-.156.547-.39.235-.703a29.96 29.96 0 0 0-1.329-.78c-.156-.131-.306-.19-.449-.177zm148 0c-.143.013-.28.098-.41.254-.104.104-.26.182-.469.235-3.177.729-5.182 1.093-6.015 1.093-.47 0-.938-.286-1.407-.859-.104-.208-.208-.182-.312.078-.104.417-.104.755 0 1.016a7.477 7.477 0 0 0 1.484 1.406c.365.26.703.234 1.016-.078a32.032 32.032 0 0 1 4.14-1.172c.313-.052.365.026.157.234l-6.875 7.344c-.469.469-.938.885-1.406 1.25-.365.26-.547.625-.547 1.094 0 .417.104.781.312 1.094.313.364.625.338.938-.078a44.618 44.618 0 0 1 2.812-3.125c1.302-1.094 2.89-1.641 4.766-1.641 1.354 0 2.395.364 3.125 1.094.573.573.86 1.302.86 2.187 0 .99-.366 1.85-1.095 2.578-1.302 1.302-3.698 2.214-7.187 2.735-.417.156-.417.286 0 .39 4.583-.156 7.578-.937 8.984-2.344.938-.937 1.406-2.03 1.406-3.28 0-1.147-.338-2.058-1.015-2.735-1.042-1.042-2.5-1.563-4.375-1.563-1.459 0-2.969.339-4.531 1.016a74.61 74.61 0 0 1 6.171-5.938c.365-.312.703-.52 1.016-.625.469-.156.547-.39.234-.703a29.967 29.967 0 0 0-1.328-.78c-.156-.131-.306-.19-.449-.177zm-214.848 1.582c-.052.026-.052.104 0 .235.886 1.302 2.422 2.11 4.61 2.422.208 0 .234.078.078.234a48.185 48.185 0 0 0-2.813 2.266c-.156.26-.104.364.157.312 1.25-.833 2.448-1.484 3.593-1.953 1.302-.52 2.787-.781 4.454-.781.52-.052.729-.313.625-.781-.157-.313-.443-.704-.86-1.172-.26-.313-.65-.339-1.172-.078-.833.26-1.927.39-3.28.39-1.928 0-3.62-.338-5.08-1.015-.155-.079-.26-.105-.312-.079zm29 0c-.052.026-.052.104 0 .235.886 1.302 2.422 2.11 4.61 2.422.208 0 .234.078.078.234a48.185 48.185 0 0 0-2.813 2.266c-.156.26-.104.364.157.312 1.25-.833 2.448-1.484 3.593-1.953 1.302-.52 2.787-.781 4.454-.781.52-.052.729-.313.625-.781-.157-.313-.443-.704-.86-1.172-.26-.313-.65-.339-1.172-.078-.833.26-1.927.39-3.28.39-1.928 0-3.62-.338-5.08-1.015-.155-.079-.26-.105-.312-.079zM317.514 13.5c-1.562 0-3.203.416-4.922 1.25-1.354.573-2.5 1.041-3.437 1.406-.625.208-1.172-.052-1.64-.781-.157-.157-.261-.13-.313.078-.104.677-.052 1.12.156 1.328.52.573 1.198 1.094 2.031 1.562.47.26.912.183 1.328-.234.782-.73 1.51-1.328 2.188-1.797 1.719-1.146 3.255-1.719 4.61-1.719 1.25 0 2.291.417 3.124 1.25.834.834 1.25 1.875 1.25 3.125 0 1.51-.442 2.709-1.328 3.594-1.614 1.615-4.245 2.656-7.89 3.125-.26.104-.26.209 0 .313 4.791-.157 8.099-1.146 9.921-2.97 1.042-1.04 1.563-2.395 1.563-4.062 0-1.406-.495-2.604-1.484-3.593-1.25-1.25-2.97-1.875-5.157-1.875zm72.22 1.914c-.053-.026-.131.013-.235.117-.677.833-1.016 1.719-1.016 2.656 0 .417.417.886 1.25 1.406.365.209.677.079.938-.39 1.51-1.927 2.812-2.89 3.906-2.89.573 0 1.067.208 1.484.624.573.573.86 1.459.86 2.657 0 3.541-2.136 6.224-6.407 8.046-.208.209-.182.313.078.313 5.573-1.51 8.36-4.323 8.36-8.438 0-1.25-.313-2.187-.938-2.812-.78-.781-1.745-1.172-2.89-1.172-1.042 0-2.552.52-4.532 1.563-.52.26-.859.13-1.015-.391 0-.208.078-.547.234-1.016 0-.156-.026-.247-.078-.273zm-140.329.195.156 2.969c-1.354.104-2.344.156-2.969.156-.99 0-1.484-.339-1.484-1.016 0-.624.495-1.275 1.484-1.953zm-93.016 4.219c-.052 0-.104.104-.156.312 0 2.24.443 3.802 1.328 4.688 1.198 1.198 3.36 1.797 6.485 1.797 2.083 0 3.75-.156 5-.469.677-.208.833-.599.468-1.172a10.195 10.195 0 0 0-1.093-.937c-.365-.209-.677-.235-.938-.078-.312.208-.703.364-1.172.468a17.12 17.12 0 0 1-3.36.313c-2.239 0-3.853-.495-4.843-1.485-.73-.729-1.25-1.77-1.562-3.125-.053-.208-.105-.312-.157-.312zm29 0c-.052 0-.104.104-.156.312 0 2.24.443 3.802 1.328 4.688 1.198 1.198 3.36 1.797 6.485 1.797 2.083 0 3.75-.156 5-.469.677-.208.833-.599.468-1.172a10.195 10.195 0 0 0-1.093-.937c-.365-.209-.678-.235-.938-.078-.312.208-.703.364-1.172.468a17.12 17.12 0 0 1-3.36.313c-2.239 0-3.853-.495-4.843-1.485-.73-.729-1.25-1.77-1.562-3.125-.053-.208-.105-.312-.157-.312zm61.985 3.75c.677 0 1.406.104 2.187.312 0 1.407-.729 2.11-2.187 2.11-1.302 0-2.188-.235-2.657-.703-.156-.157-.234-.313-.234-.47 0-.208.078-.39.234-.546.47-.469 1.355-.703 2.657-.703zm-2.858 21.162v1c0 3.428-6.944 6.042-9.5 6.789-2.556.747-9.5 4.502-9.5 10.211v38h15v-38c0-6.81 3.056-9.07 6.25-10.77 3.195-1.699 6.25-2.837 6.25-5.73v-1.5zm120.432 7.5c-4.49 0-9.472 2.955-11.545 6.938l-21.637 41.562h13l5.705-12.62c2.077-4.594 2.598-4.38 7.3-4.38h10.63c4.599 0 5.209-.236 7.32 4.38l5.772 12.62h16.637l-21.635-41.562c-2.073-3.983-7.057-6.938-11.547-6.938Zm51.818 0c-3.724 0-7.5 3.087-7.5 6.938v41.562h15V71.383c0-.735.412-.944 1.192-.164l27.615 27.615c1.824 1.824 3.775 2.906 7.5 2.906 3.724 0 7.5-3.087 7.5-6.938V53.24h-15v29.357c0 .735-.412.944-1.191.164l-27.616-27.615c-1.824-1.824-3.775-2.906-7.5-2.906zm-330.5 1v47.5h15V79.638l1.034-.793c.694-.533 1.439-1.068 2.44-1.068 1.003 0 1.818.504 2.442 1.129l21.834 21.834h17.967l-24.965-24.965c-.918-.918-1.765-2.379-1.765-3.465 0-1.086.87-2.15 1.675-2.77l21.24-16.3h-15l-26.902 20.645V53.24Zm77 0a7.5 7.5 0 0 0-7.5 7.5v32.5a7.5 7.5 0 0 0 7.5 7.5h44.5v-7.5h-34.5a2.5 2.5 0 0 1-2.5-2.5v-9.25a2.5 2.5 0 0 1 2.5-2.5h28v-6.5h-28a2.5 2.5 0 0 1-2.5-2.5v-6.75a2.5 2.5 0 0 1 2.5-2.5h34.5v-7.5zm100.5 0v47.5h15V81.49a2.5 2.5 0 0 1 2.5-2.5h21.25a2.5 2.5 0 0 1 2.5 2.5v19.25h15v-47.5h-15v16.75a2.5 2.5 0 0 1-2.5 2.5h-21.25a2.5 2.5 0 0 1-2.5-2.5V53.24Zm99.258 9.3c1.066 0 1.54 1.186 2.309 2.868l4.617 10.096c1.013 2.215.357 2.236-.453 2.236H356.64c-.811 0-1.473-.005-.465-2.236l4.565-10.096c.76-1.683 1.218-2.867 2.283-2.867z" style="color:#000;font-style:normal;font-variant:normal;font-weight:400;font-stretch:normal;font-size:medium;font-family:sans-serif;font-variant-ligatures:normal;font-variant-position:normal;font-variant-caps:normal;font-variant-numeric:normal;font-variant-alternates:normal;font-variant-east-asian:normal;font-feature-settings:normal;text-indent:0;text-decoration:none;text-decoration-line:none;text-decoration-style:solid;text-decoration-color:#000;letter-spacing:normal;word-spacing:normal;text-transform:none;writing-mode:lr-tb;direction:ltr;text-orientation:mixed;dominant-baseline:auto;baseline-shift:baseline;text-anchor:start;clip-rule:nonzero;display:inline;overflow:visible;visibility:visible;color-interpolation:sRGB;vector-effect:none;fill:#333;fill-opacity:1;fill-rule:nonzero;stroke:none;stroke-width:5;stroke-linecap:round;stroke-linejoin:round;stroke-miterlimit:4;stroke-dasharray:none;stroke-dashoffset:0;stroke-opacity:1;color-rendering:auto;image-rendering:auto;shape-rendering:auto;text-rendering:auto;enable-background:accumulate;stop-color:#000;stop-opacity:1"/></g></svg>