<svg xmlns="http://www.w3.org/2000/svg" width="300" height="76.841583" viewBox="0 0 300 76.841585"><defs><clipPath id="a" clipPathUnits="userSpaceOnUse"><path d="M0 0h119.62v30.043H0V0Z"/></clipPath><clipPath id="b" clipPathUnits="userSpaceOnUse"><path d="M0 30.042h119.62V0H0v30.042Z"/></clipPath></defs><g clip-path="url(#a)" transform="matrix(2.49124 0 0 -2.49124 1 75.842)"><path d="M0 0h-9.978l-11.253-29.494h9.983L0 0Z" style="fill:#00377e;fill-opacity:1;fill-rule:nonzero;stroke:none" transform="translate(86.884 29.76)"/><path d="m0 0-2.303-6.183H-17.64l-2.007-5.265h13.994l-2.334-5.937h-13.926l-2.198-5.765h15.407l-2.493-6.344h-24.364L-24.313 0H0Z" style="fill:#00377e;fill-opacity:1;fill-rule:nonzero;stroke:none" transform="translate(72.635 29.76)"/><path d="m0 0-11.309-29.494H.038l2.179 5.659-4.345 12.29L10.07-3.348 11.351 0H0Z" style="fill:#00377e;fill-opacity:1;fill-rule:nonzero;stroke:none" transform="translate(11.309 29.76)"/><path d="M0 0h-12.672l-6.004 17.932h12.29L0 0Z" style="fill:#00377e;fill-opacity:1;fill-rule:nonzero;stroke:none" transform="translate(35.086 .267)"/><path d="M0 0h-12.612l-17.154-11.562h12.291L0 0Z" style="fill:#c8006b;fill-opacity:1;fill-rule:nonzero;stroke:none" transform="translate(46.176 29.76)"/><g clip-path="url(#b)"><path d="M0 0s-.255-1.65-3.171-8.518c0 0-.673-1.525-1.355-2.566 0 0-1.416-2.405-4.916-2.643 0 0-2.359-.211-4.827-.019 0 0-3.258-.112-2.559 2.892l.623 2.041s1.678 4.686 3.149 7.769C-11.59 2.042-9.335 2.4-8.277 2.589c0 0 3.11.245 5.85.041 0 0 3.008-.082 2.427-2.63m-19.577-20.38c3.728-.471 10.042-.156 10.042-.156 8.069.131 11.18 4.08 11.18 4.08 1.607 1.48 3.212 4.91 3.212 4.91 2.06 4.343 3.83 9.57 3.83 9.57.924 2.703.888 4.663.888 4.663.134 2.025-1.11 3.633-1.11 3.633C6.704 9.196 1.75 9.249 1.75 9.249c-3.599.337-9.942.016-9.942.016-6.149-.16-9.172-2.97-9.172-2.97-2.919-2.326-4.464-6.319-4.464-6.319l-1.62-3.806c-1.761-4.425-2.767-8.167-2.767-8.167s-2.334-7.471 6.638-8.383" style="fill:#00377e;fill-opacity:1;fill-rule:nonzero;stroke:none" transform="translate(110.034 20.64)"/></g></g></svg>