<svg xmlns="http://www.w3.org/2000/svg" width="1100" height="285.13" version="1.2" viewBox="0 0 825 213.84"><defs><clipPath id="a"><path d="M0 0h219v115H0z"/></clipPath><filter id="b" width="1.0071631" height="1.0369518" x="-0.0035815489" y="-0.018475917"><feGaussianBlur stdDeviation="0.15740911"/></filter></defs><g stroke="none" style="stroke:#fff;stroke-width:1.12525;stroke-linejoin:round"><g style="filter:url(#b)" transform="translate(-3842.3 -4723.9) scale(7.1864)"><path d="M584.855 663.959a.563.563 0 0 0-.539.832c.154.28.155.227.192.553.003.042.012.264.02.478.006.222.012.44.017.541a.563.563 0 0 0 .002.016 2.82 2.82 0 0 0 .52 1.465c.28.38.657.68 1.158.68a.85.85 0 0 0 .568-.21.837.837 0 0 0 .268-.603.563.563 0 0 0-.012-.117l-.053-.252.006-.02-.008.018-.002-.008c.001-.001-.007.042.01-.01.196-.476.237-.568.47-1.15a.563.563 0 0 0 .007-.014l.023-.063a.563.563 0 0 0-.336-.724l-.043-.016a.563.563 0 0 0-.668.227c-.017.027-.168.228-.28.384.022-.14.03-.254.075-.44a.563.563 0 0 0 .014-.071l.02-.168a.563.563 0 0 0 .004-.065c0-.368-.22-.67-.303-.754a1.782 1.782 0 0 0-1.13-.51zm2.965.38a.563.563 0 0 0-.336 1.01c.142.109.349.291.477.497a.563.563 0 0 0 .006.006c.02.031.03.065.047.1l-.096.011a.563.563 0 0 0-.49.557v.043a.563.563 0 0 0 .521.562c.03.002.198.03.327.076a.563.563 0 0 0 .01.004c.136.047-.01-.05.062.034.071.083.133.16.25.248a.906.906 0 0 0 .475.158c.379 0 .574-.228.699-.428.125-.2.191-.435.191-.697 0-.592-.288-1.107-.672-1.498-.273-.28-.667-.38-1.048-.487-.022-.016-.058-.065-.077-.08l-.013.04c-.124-.028-.2-.156-.332-.155z" style="color:#000;fill:#fff;stroke:none"/><path d="M592.555 663.494a.563.563 0 0 0-.04.002l-.058.004a.563.563 0 0 0-.158.033l-.405.15h-.002l-.004.003a4.6 4.6 0 0 1-.572.162c-.065.014-.045.01-.097.017a.563.563 0 0 0-.883-.154c-.048.054-.34.34-.34.776 0 .311.128.548.295.734.114.127.315.18.502.242-.25.277-.552.618-.625.686-.17.154-.3.26-.428.431-.128.173-.209.44-.209.649 0 .138.012.296.117.488.105.192.395.406.684.406a.809.809 0 0 0 .531-.207c.105-.089.168-.173.223-.246l.01-.012c.137-.173.276-.325.36-.412.383-.396.915-.572 1.232-.572.168 0 .174.033.19.053.018.02.036.077.036.107a.28.28 0 0 1-.072.21 1.295 1.295 0 0 1-.37.288h-.001l-.002.002a2.884 2.884 0 0 1-1.12.365.563.563 0 0 0-.521.561v.043a.563.563 0 0 0 .488.559c.148.02.266.02.414.02.642 0 1.574-.028 2.268-.579a.563.563 0 0 0 .002-.002c.455-.366.707-.865.707-1.338 0-.41-.176-.836-.522-1.137-.303-.264-.753-.373-1.244-.408.104-.086.22-.171.182-.15a.563.563 0 0 0 .02-.01c.105-.064.182-.093.31-.227.128-.133.195-.408.195-.51 0-.28-.1-.366-.168-.46a1.502 1.502 0 0 0-.222-.243 1.558 1.558 0 0 0-.27-.197c-.103-.058-.211-.127-.433-.127z" style="color:#000;fill:#fff;stroke:none"/><path d="M596.72 663.363c-.25 0-.524.087-.724.229a.563.563 0 0 0 .11.926c-.287.539-1.086 1.954-1.393 2.404-.11.151-.2.277-.272.435a1.34 1.34 0 0 0-.11.53c0 .175.014.372.153.58.14.208.438.342.662.342.277 0 .55-.178.674-.336.124-.159.17-.29.211-.38a.563.563 0 0 0 .002-.005c.194-.447.276-.635.477-.885h.002c.097-.117.096-.072.135-.104.012.247.017.525.125.832.156.482.64.811 1.238.811.752 0 1.304-.48 1.629-.95.324-.468.487-.962.57-1.243a.563.563 0 0 0-.287-.662l-.047-.024a.563.563 0 0 0-.73.207c-.173.28-.358.532-.569.692a.563.563 0 0 0-.01.008c-.084.067-.17.1-.275.148l-.018-.107a.563.563 0 0 0-.002-.012c-.024-.154-.04-.426-.242-.711-.144-.204-.454-.267-.74-.338.148-.193.272-.396.361-.498l.006-.006.002-.004c.114-.122.185-.191.266-.312.083-.125.137-.362.137-.457 0-.44-.228-.621-.456-.797a1.434 1.434 0 0 0-.884-.313zm2.546 4.287-.01.008.004-.006s.005 0 .006-.002z" style="color:#000;fill:#fff;stroke:none"/><path d="M601.605 663.217c-.447 0-.704.241-.814.361a.563.563 0 0 0 .16.8c-.026.002-.035.007-.064.007-.17 0-.28-.074-.227 0a.563.563 0 0 0-1.006.22l-.023.118a.563.563 0 0 0-.012.111c0 .407.336.7.77.873-.046.074-.081.149-.125.217-.09.139-.173.261-.235.352-.062.09-.133.185-.097.14-.059.068-.124.137-.192.258a1.03 1.03 0 0 0-.12.469c0 .248.103.49.253.642.15.153.301.244.557.244a.563.563 0 0 0 .172-.027l.12-.04a.563.563 0 0 0 .012-.005c.061.383.279.724.547.875.304.171.623.232.926.232.192 0 .613-.014 1.01-.322.08-.062.034-.102.09-.174.04.028.056.043.11.076.116.07.252.17.532.17a.822.822 0 0 0 .615-.298.859.859 0 0 0 .186-.545c0-.381-.275-.693-.473-.84-.113-.09-.425-.183-.681-.28-.013-.079-.034-.145-.034-.24 0-.037.004-.049.008-.074.037.001.047.001.125.053a.563.563 0 0 0 .04.023c.082.045.291.17.57.17a.563.563 0 0 0 .185-.031l.157-.055a.563.563 0 0 0 .338-.328l.074-.191a.563.563 0 0 0 .039-.203c0-.428-.251-.719-.555-.928-.228-.157-.552-.208-.873-.254.003-.026.03-.038.03-.065a.746.746 0 0 0-.186-.478.893.893 0 0 0-.266-.207.964.964 0 0 0-.441-.12.563.563 0 0 0-.004-.019l-.063-.129a.563.563 0 0 0-.146-.187c-.265-.22-.555-.371-.988-.371zm.838 2.385a.563.563 0 0 0 .084.091c-.044.037-.103.033-.144.077-.213.222-.296.556-.33.892a2.14 2.14 0 0 0-.438.098l.545-1.09c.104-.021.19-.048.283-.068zm1.828.021.041.025c-.005-.003-.02-.004-.025-.008 0-.002.036.01-.016-.017z" style="color:#000;fill:#fff;stroke:none"/><path d="M606.066 663.105a.563.563 0 0 0-.777.51 1.27 1.27 0 0 1-.027.235v.006c-.075.287-.409 1.037-.621 1.312a.563.563 0 0 0-.024.656l.024.036a.563.563 0 0 0 .244.164.563.563 0 0 0-.006.006v.043a.563.563 0 0 0 .086.09.563.563 0 0 0-.383.71l.094.204a.563.563 0 0 0 .61.318c.097-.017.135-.025.51-.025h.31c-.314.302-.69.543-1.126.675a.563.563 0 0 0-.398.537v.028a.563.563 0 0 0 .59.562c.866-.043 1.835-.534 2.527-1.383.172.247.3.571.512.733.41.311.848.477 1.263.637a.563.563 0 0 0 .739-.356c.066-.21-.04-.148.254-.281a.563.563 0 0 0 .33-.514v-.031a.563.563 0 0 0-.514-.559c-.045-.004-.178-.055-.24-.062a.563.563 0 0 0 .29-.096l.087-.062a.563.563 0 0 0 .13-.778l-.054-.078a.563.563 0 0 0-.113-.119l-.461-.363a.563.563 0 0 0-.09-.057l-.04-.02c0-.001.005-.003.005-.005a.563.563 0 0 0-.086-.3l-.067-.105a.563.563 0 0 0-.146-.154l-.023-.018c.006-.035.035-.062.037-.097h.492a.563.563 0 0 0 .316-.098l.086-.06a.563.563 0 0 0 .15-.776l-.054-.082a.563.563 0 0 0-.13-.139l-.42-.316a.563.563 0 0 0-.052-.033l-.105-.063a.563.563 0 0 0-.645.05l-.066.054-.057-.069a.563.563 0 0 0-.238-.171l-.707-.27a.563.563 0 0 0-.758.45c0 .01-.005.011-.006.02l-.033-.017a.563.563 0 0 0-.264.024.563.563 0 0 0-.006-.012l-.086-.086a.563.563 0 0 0-.183-.123z" style="color:#000;fill:#fff;stroke:none"/><path d="M611.826 663.113a.563.563 0 0 0-.607.639c-.127-.005-.19 0-.319-.014a.563.563 0 0 0-.576.78l.086.203a.563.563 0 0 0 .299.16.563.563 0 0 0-.272.514c.025.21.063.485.063.923 0 .763-.083 1.248-.152 1.57a.563.563 0 0 0-.002.007.84.84 0 0 1-.116.308.563.563 0 0 0 .352.87l.04.007a.563.563 0 0 0 .337-.095.563.563 0 0 0 .187.095c.289-.048.61-.298.934-.423a.563.563 0 0 0-.037.084l.012.039a.563.563 0 0 0 .627.394c.766-.123 1.451-.49 1.812-.705l-.117.053.191-.06c.025.032.086.095.094.107.077.118.134.223.26.35.13.13.395.251.601.251.429 0 .852-.376.852-.855 0-.31-.235-.453-.422-.631.065-.127.172-.238.172-.37 0-.103-.007-.241-.014-.446-.007-.206-.014-.44-.014-.569 0-.38-.004-.647-.006-.828l.028-.03a.563.563 0 0 0 .037-.736l-.023-.03.039-.028a.563.563 0 0 0 .129-.799l-.06-.078a.563.563 0 0 0-.1-.105l-.387-.305a.563.563 0 0 0-.082-.053l-.102-.055a.563.563 0 0 0-.633.069l-.082.07a.563.563 0 0 0-.092.102l-.043.06h-.591c-.267 0-.508-.008-.762-.03a.563.563 0 0 0-.096.046l-.084-.047a.563.563 0 0 0-.318.025c-.04-.065-.04-.145-.094-.183-.152-.11-.251-.118-.33-.133a.563.563 0 0 0-.002 0z" style="color:#000;fill:#fff;stroke:none"/><path d="M618.092 663.17c-.507 0-.867.328-.926.387a.563.563 0 0 0-.094.627c-.075-.012-.181-.007-.238-.055a.563.563 0 0 0-.922.412 1.07 1.07 0 0 0 .305.785c.07.073.214.064.306.117-.059.07-.096.14-.154.196-.149.14-.262.245-.363.418a1.118 1.118 0 0 0-.129.53c0 .124.002.278.1.475.097.198.398.428.685.428a.563.563 0 0 0 .024-.004c-.005.057-.079.173-.079.211 0 .37.18.68.452.895a.563.563 0 0 0 .013.01c.263.195.531.256.809.306.278.05.563.07.824.07.195 0 .417-.014.623-.035.206-.02.349-.027.547-.09a.563.563 0 0 0 .008-.001.804.804 0 0 0 .553-.756c0-.337-.147-.492-.303-.637a.943.943 0 0 0-.662-.273.563.563 0 0 0-.07.004c.004-.075.027-.196.027-.227 0-.042-.006-.045-.008-.084.355-.109.671-.206 1.06-.266a.563.563 0 0 0 .012-.002c.067-.011.204-.017.385-.15.181-.133.293-.413.293-.607 0-.395-.218-.653-.45-.836a1.38 1.38 0 0 0-.802-.29c.008-.041.045-.061.045-.105 0-.419-.218-.53-.367-.635-.115-.08-.266-.116-.432-.144-.036-.09-.054-.207-.102-.262a1.03 1.03 0 0 0-.275-.224 1.36 1.36 0 0 0-.695-.188z" style="color:#000;fill:#fff;stroke:none"/><path d="M624.457 663.15a.563.563 0 0 0-.629.727c.036.112.024.247.04.328-.134-.004-.2 0-.339-.014a.563.563 0 0 0-.027.014l-.084-.043c.009-.04.04-.048.04-.094a.563.563 0 0 0-.147-.38l-.09-.098a.563.563 0 0 0-.207-.14l-.668-.266a.563.563 0 0 0-.77.486l-.012.18v.004c0 .006-.034.152-.045.21-.01-.001-.027-.008-.037-.011a.563.563 0 0 0-.601.22l-.027.04a.563.563 0 0 0 .152.793c-.083-.055.1.154.105.168a.563.563 0 0 0 .002.006c.024.056.05.09.069.138a.563.563 0 0 0-.489.668l.168.563a.563.563 0 0 0 .088.175l.024.032c-.032.39-.224 1.141-.25 1.197a.563.563 0 0 0 .138.662l.032.027a.563.563 0 0 0 .767-.025c.012-.012.033-.06.045-.072.034.144.062.303.188.404a.767.767 0 0 0 .5.164.92.92 0 0 0 .546-.168c.13-.088.211-.298.276-.5.008.078-.015.119.06.242.136.221.444.344.664.344.282 0 .568-.184.731-.406h.353c.07.106.08.25.174.297.212.105.356.082.399.082.102 0 .26 0 .472-.112.212-.11.45-.432.45-.755 0-.116-.011-.242-.02-.403-.009-.161-.015-.35-.015-.355v-.297l.013-.016a.563.563 0 0 0 .084-.69l-.054-.089.008-.006a.563.563 0 0 0 .14-.793l-.07-.098a.563.563 0 0 0-.08-.088.563.563 0 0 0 .101-.03l.082-.06a.563.563 0 0 0 .135-.78l-.055-.079a.563.563 0 0 0-.1-.107l-.39-.328a.563.563 0 0 0-.103-.069l-.106-.054a.563.563 0 0 0-.31.021.563.563 0 0 0-.172-.422l-.094-.082a.563.563 0 0 0-.277-.133z" style="color:#000;fill:#fff;stroke:none"/><path d="M630.88 663.432a.563.563 0 0 0-.347.343c-.14-.149-.324-.318-.549-.318-.011 0-.197-.011-.408.092-.106.052-.141.244-.23.38-.072-.062-.145-.127-.213-.161a1.08 1.08 0 0 0-.547-.14c-.18 0-.28.046-.352.075a2.475 2.475 0 0 0-.08.033c-.014.007-.098.012.092-.027a.563.563 0 0 0-.148.053c-.165.086-.437.187-.493.187.065 0 .028.007-.044-.088a.563.563 0 0 0-.971.133c-.024.06-.111.248-.111.49 0 .2.033.36.142.584.064.131.3.208.477.323-.312.467-.553.95-.553 1.535 0 .448.135.924.469 1.308.333.385.873.637 1.51.637.61 0 1.198-.238 1.626-.672a.563.563 0 0 0 .006-.008c.391-.41.496-.861.541-1.258.142.112.308.23.553.23.135 0 .28-.017.469-.15.189-.132.344-.421.344-.693a1.18 1.18 0 0 0-.198-.625c-.067-.094-.152-.168-.228-.244.19-.149.457-.231.457-.47.223-.138.504-.236.504-.509 0-.31-.194-.578-.371-.712a1.56 1.56 0 0 0-.51-.247 1.94 1.94 0 0 0-.836-.082zm-1.595 1.681c.033.142.074.268.074.477 0 .396-.056.767-.195 1.101-.093.222-.404.57-.754.57a.296.296 0 0 1-.187-.07c-.046-.043-.09-.203-.09-.351 0-.386.228-.85.326-1.024.26-.45.432-.515.574-.572.055-.022.146-.062.252-.13z" style="color:#000;fill:#fff;stroke:none"/><path d="M633.797 663.307c-.36 0-.653.218-.723.279a.563.563 0 0 0 .217.918c-.003.019-.01.046-.016.07-.111.018-.199.045-.306.045-.163 0-.21-.003-.405-.098a.563.563 0 0 0-.802.573c.048.413.441.779.967.922-.185.41-.35.837-.594 1.222-.089.138-.141.212-.2.33a1.115 1.115 0 0 0-.091.407c0 .51.38.921.87.921.042 0 .347-.043.515-.189.168-.146.259-.31.369-.55.073-.162.157-.418.232-.6.026.592.639 1.351 2.147 1.351.447 0 .752-.047 1.027-.176a.563.563 0 0 0 .006-.002.81.81 0 0 0 .367-.369.804.804 0 0 0 .065-.297c0-.35-.134-.475-.29-.632a.982.982 0 0 0-.706-.31c-.109 0-.21.017-.319.038l.018-.004c-.251.04-.293.057-.547.057-.127 0-.32-.014-.414-.045l-.016-.006c.001-.017.001-.016.016-.11a.563.563 0 0 0-.89-.537c-.157.117-.113.251-.186.385l-.018-.012c.127-.332.25-.618.383-.984a.563.563 0 0 0 .486.273.563.563 0 0 0-.072.293l.015.032a.563.563 0 0 0 .725.267c.216-.092.683-.216.672-.217h.002l.377.026a.563.563 0 0 0 .037.002.804.804 0 0 0 .52-.17.814.814 0 0 0 .28-.6c0-.34-.164-.57-.423-.763-.259-.194-.62-.307-1.068-.307-.056 0-.18.084-.25.088a.77.77 0 0 0-.229-.526c-.124-.126-.326-.207-.547-.232-.043-.107-.061-.24-.123-.309a1.208 1.208 0 0 0-.35-.263 1.495 1.495 0 0 0-.728-.192zm.267 3.648c-.002.01-.003.031-.006.045-.018.045-.05.084-.062.129l.068-.174z" style="color:#000;fill:#fff;stroke:none"/><path d="M637.67 663.959a.563.563 0 0 0-.54.832c.155.282.154.215.184.547a.563.563 0 0 0 .002.02c-.002-.018.014.246.022.466.008.22.013.428.021.551a.563.563 0 0 0 0 .008c.048.58.242 1.08.522 1.46.28.381.658.68 1.158.68a.849.849 0 0 0 .574-.214.837.837 0 0 0 .258-.598.563.563 0 0 0-.014-.117l-.05-.234v-.002l-.002-.01c.003-.005-.007.036.006.002.205-.511.235-.584.472-1.182l-.006.02.028-.063a.563.563 0 0 0-.338-.76l-.047-.015a.563.563 0 0 0-.649.224c-.026.04-.168.228-.279.383.022-.14.027-.254.07-.436a.563.563 0 0 0 .012-.066l.02-.168a.563.563 0 0 0 .004-.064c0-.366-.22-.664-.303-.75-.175-.188-.543-.466-1.125-.514zm2.963.38a.563.563 0 0 0-.34 1.007c.144.112.353.295.486.504a.563.563 0 0 0 .002.002c.02.03.028.065.045.1l-.098.01a.563.563 0 0 0-.49.558v.043a.563.563 0 0 0 .522.562c.034.002.195.029.326.076a.563.563 0 0 0 .01.004c.134.046-.014-.05.072.045l-.006-.008c.072.082.128.156.246.244.118.089.33.158.479.158.379 0 .572-.227.697-.427a1.3 1.3 0 0 0 .193-.698c0-.59-.288-1.106-.671-1.498-.273-.278-.666-.376-1.045-.484-.02-.016-.057-.064-.075-.078l-.013.04c-.126-.03-.205-.16-.34-.16zM588.455 670.115a.563.563 0 0 0-.562.563v.23h-4.352a.563.563 0 0 0-.562.563v1.347a.563.563 0 0 0 .562.563h12.629a.563.563 0 0 0 .562-.563v-1.347a.563.563 0 0 0-.562-.563h-4.277v-.23a.563.563 0 0 0-.563-.563zm.563 1.125h1.75v.23a.563.563 0 0 0 .562.563h4.277v.223h-11.503v-.223h4.351a.563.563 0 0 0 .563-.562zM585.016 677.367a.563.563 0 0 0-.49.29l-1.587 2.84a.563.563 0 0 0 .49.835h2.532a.563.563 0 0 0 .492-.287l1.586-2.84a.563.563 0 0 0-.492-.838zm.33 1.125h1.244l-.96 1.715h-1.241zM592.44 677.387a.563.563 0 0 0-.493.836l1.582 2.843a.563.563 0 0 0 .492.29h2.536a.563.563 0 0 0 .49-.836l-1.586-2.844a.563.563 0 0 0-.49-.29zm.955 1.125h1.244l.959 1.718h-1.246z" style="color:#000;fill:#fff;stroke:none"/><path d="M583.512 672.904a.563.563 0 0 0-.563.563v3.965a.563.563 0 0 0 .563.562h4.379v2.817a.563.563 0 0 0 .562.562h2.875a.563.563 0 0 0 .563-.562v-2.817h4.238a.563.563 0 0 0 .562-.562v-3.965a.563.563 0 0 0-.562-.563zm.562 1.125h11.492v2.84h-4.238a.563.563 0 0 0-.562.563v2.816h-1.75v-2.816a.563.563 0 0 0-.563-.563h-4.379zm2.074.22a.563.563 0 0 0-.562.562v1.16a.563.563 0 0 0 .562.562h7.332a.563.563 0 0 0 .563-.562v-1.16a.563.563 0 0 0-.563-.563zm.563 1.124h6.207v.035h-6.207zM605.928 670.033a.563.563 0 0 0-.524.764l.237.615h-5.76a.563.563 0 0 0-.56.524l-.606 8.757a.563.563 0 0 0 .56.602h2.657a.563.563 0 0 0 .562-.524l.268-3.87h.107v3.796a.563.563 0 0 0 .563.563h2.496a.563.563 0 0 0 .025-.026.563.563 0 0 0 .088.05h2.777a.563.563 0 0 0 .493-.29l.017-.033a.563.563 0 0 0 .494.342h2.797a.563.563 0 0 0 .526-.764l-1.461-3.81.992-1.792a.563.563 0 0 0-.494-.834h-1.506l-.098-.253h1.381a.563.563 0 0 0 .564-.563v-2.508a.563.563 0 0 0-.564-.562h-2.023a.563.563 0 0 0-.543.543l-.143-.367a.563.563 0 0 0-.525-.36zm.82 1.125h1.592l.392 1.018a.563.563 0 0 0 .524.361h.68a.563.563 0 0 0 .564-.562v-.633h.896v1.383h-1.636a.563.563 0 0 0-.526.763l.528 1.38a.563.563 0 0 0 .525.36h.94l-.655 1.184a.563.563 0 0 0-.033.475l1.262 3.29h-1.592l-.275-.716a.563.563 0 0 0-1.016-.072l-.43.77h-1.49l1.77-3.18a.563.563 0 0 0 .033-.477l-1.317-3.418a.563.563 0 0 0-.525-.36h-4.516a.563.563 0 0 0-.56.526l-.09 1.363a.563.563 0 0 0 .56.6h3.012v4.922h-1.37v-3.797a.563.563 0 0 0-.563-.563h-1.196a.563.563 0 0 0-.56.524l-.268 3.87h-1.529l.527-7.632h6.053a.563.563 0 0 0 .525-.766zm-3.777 2.692h3.603l1.082 2.812-1.166 2.096v-4.108a.563.563 0 0 0-.562-.562h-2.973zM614.846 670.037a.563.563 0 0 0-.563.563v1.09a.563.563 0 0 0 .258.257.563.563 0 0 0-.258.258v2.281a.563.563 0 0 0 .563.563h2.078a.563.563 0 0 0 .32-.32.563.563 0 0 0 .36.359h1.433a.563.563 0 0 0 .375-.375.563.563 0 0 0 .336.336h2.578a.563.563 0 0 0 .303-.303.563.563 0 0 0 .342.342h1.437a.563.563 0 0 0 .356-.356.563.563 0 0 0 .316.317h2.16a.563.563 0 0 0 .563-.563v-2.28a.563.563 0 0 0-.155-.155.563.563 0 0 0 .155-.362v-1.09a.563.563 0 0 0-.563-.562zm4.937 1.125h2.508a.563.563 0 0 0-.527.527v.516a.563.563 0 0 0 .47.47.563.563 0 0 0-.47.471v.778h-1.453v-.778a.563.563 0 0 0-.471-.47.563.563 0 0 0 .47-.47v-.517a.563.563 0 0 0-.527-.527zm-4.375 1.606h1.332a.563.563 0 0 0-.379.378v.778h-.953v-1.035zm2.38 0h1.066a.563.563 0 0 0-.38.378v.817h-.308v-.817a.563.563 0 0 0-.379-.378zm5.366 0h1.07a.563.563 0 0 0-.378.378v.817h-.313v-.817a.563.563 0 0 0-.379-.378zm2.11 0h1.414v1.156h-1.035v-.778a.563.563 0 0 0-.38-.378z" style="color:#000;fill:#fff;stroke:none"/><path d="M614.854 674.363a.563.563 0 0 0-.563.565v4.468a.563.563 0 0 0 .563.563h4.347v.89a.563.563 0 0 0 .563.563h7.597a.563.563 0 0 0 .563-.562v-.871a.563.563 0 0 0-.346-.346.563.563 0 0 0 .235-.237v-4.468a.563.563 0 0 0-.563-.565zm.562 1.127h11.27v3.344h-1.829a.563.563 0 0 0 .456-.453v-.54a.563.563 0 0 0-.565-.562h-2.191a.563.563 0 0 0-.563.563v.539a.563.563 0 0 0 .453.453h-.072a.563.563 0 0 0-.564.562v.583a.563.563 0 0 0 .31.308h-1.795v-.89a.563.563 0 0 0-.562-.563h-.036a.563.563 0 0 0 .456-.453v-.54a.563.563 0 0 0-.565-.564h-2.195a.563.563 0 0 0-.563.565v.539a.563.563 0 0 0 .453.453h-1.898zm2.008.067a.563.563 0 0 0-.563.562v.547a.563.563 0 0 0 .563.563h2.191a.563.563 0 0 0 .565-.563v-.547a.563.563 0 0 0-.565-.562zm5.142 0a.563.563 0 0 0-.564.562v.547a.563.563 0 0 0 .564.563h2.192a.563.563 0 0 0 .562-.563v-.547a.563.563 0 0 0-.562-.562zM632.318 670.006a.563.563 0 0 0-.43.201l-1.742 2.078a.563.563 0 0 0 .43.924h2.156a.563.563 0 0 0 .43-.2l.973-1.146 1.049 1.16a.563.563 0 0 0 .416.186h2.156a.563.563 0 0 0 .432-.924l-1.739-2.078a.563.563 0 0 0-.431-.201zm.264 1.125h.7l-.81.953h-.689zm2.406 0h.768l.797.953h-.703z" style="color:#000;fill:#fff;stroke:none"/><path d="M630.908 672.396a.563.563 0 0 0-.562.563v1.383a.563.563 0 0 0 .293.293.563.563 0 0 0-.293.293v1.453a.563.563 0 0 0 .562.562h1.477v1.739h-1.477a.563.563 0 0 0-.562.562v1.383a.563.563 0 0 0 .562.562h6.5a.563.563 0 0 0 .563-.562v-1.383a.563.563 0 0 0-.563-.562h-1.476l.002-1.739h1.44a.563.563 0 0 0 .564-.562v-1.453a.563.563 0 0 0-.315-.313.563.563 0 0 0 .274-.273v-1.383a.563.563 0 0 0-.563-.563zm.563 1.125h5.3v.258h-1.402a.563.563 0 0 0-.562.563v.586a.563.563 0 0 0 .562.562h1.442v.326h-1.442a.563.563 0 0 0-.562.565v2.863a.563.563 0 0 0 .562.563h1.477v.255h-5.375v-.255h1.476a.563.563 0 0 0 .563-.563v-2.863a.563.563 0 0 0-.563-.565h-1.476v-.326h1.476a.563.563 0 0 0 .563-.562v-.586a.563.563 0 0 0-.563-.563h-1.476z" style="color:#000;fill:#fff;stroke:none"/><path d="M630.94 676.436a.563.563 0 0 0-.563.562v1.633a.563.563 0 0 0 .562.562h1.403a.563.563 0 0 0 .562-.562v-1.633a.563.563 0 0 0-.562-.562zm.562 1.125h.277v.505h-.277zM636.04 676.436a.563.563 0 0 0-.563.562v1.633a.563.563 0 0 0 .562.562h1.398a.563.563 0 0 0 .565-.562v-1.633a.563.563 0 0 0-.564-.562zm.564 1.125h.271v.505h-.271z" style="color:#000;fill:#fff;stroke:none"/><path d="M639.87 669.996a.563.563 0 0 0-.306.305.563.563 0 0 0-.265-.266h-1.434a.563.563 0 0 0-.562.563v2.613a.563.563 0 0 0 .562.562h1.442v.372H637.9a.563.563 0 0 0-.562.562v1.344a.563.563 0 0 0 .562.562h.881l-1.482 3.772a.563.563 0 0 0 .523.767h2.121a.563.563 0 0 0 .524-.357l.566-1.447.57 1.449a.563.563 0 0 0 .524.355h2.113a.563.563 0 0 0 .524-.767l-1.477-3.772h.586a.563.563 0 0 0 .563-.562v-1.344a.563.563 0 0 0-.563-.562h-1.137v-.372h1.063a.563.563 0 0 0 .562-.562v-1.418a.563.563 0 0 0-.562-.563h-1.063v-.671a.563.563 0 0 0-.562-.563zm.562 1.125h1.18v.672a.563.563 0 0 0 .562.562h1.062v.293h-1.062a.563.563 0 0 0-.563.563v1.496a.563.563 0 0 0 .563.563h1.137v.218h-.848a.563.563 0 0 0-.524.768l1.477 3.771h-.906l-.953-2.423a.563.563 0 0 0-1.047 0l-.951 2.423h-.91l1.482-3.771a.563.563 0 0 0-.524-.768h-1.144v-.218h1.406a.563.563 0 0 0 .563-.563v-1.496a.563.563 0 0 0-.563-.563h-1.441v-1.488h.308v.633a.563.563 0 0 0 .563.562h.57a.563.563 0 0 0 .563-.562zM541.736 664.465a.563.563 0 0 0-.591.56v9.606a.563.563 0 0 0 .584.562c.311-.012.62-.039.896-.039.258 0 .547.027.902.04a.563.563 0 0 0 .582-.563v-3.98l4 3.146a.563.563 0 0 0 .002.002c.501.389.945.794 1.393 1.234a.563.563 0 0 0 .412.16c.394-.012.782-.039 1.15-.039.327 0 .704.027 1.137.04a.563.563 0 0 0 .578-.563v-.07a.563.563 0 0 0-.203-.432l-1.691-1.402a.563.563 0 0 0-.014-.01c-1.477-1.157-2.987-2.271-4.46-3.399l1.12-.76 4.74-3.06a.563.563 0 0 0-.335-1.033c-.31.016-.577.04-.786.04-.258 0-.519-.024-.804-.04a.563.563 0 0 0-.352.1l-5.14 3.566c-.212.14-.487.308-.747.465v-3.57a.563.563 0 0 0-.59-.561c-.35.016-.636.04-.894.04-.275 0-.582-.024-.889-.04zm.534 1.15c.122.006.227.016.355.016.124 0 .24-.01.36-.016v3.75a.563.563 0 0 0 .015.131c.01.042.048.054.066.092-.022.058-.082.08-.082.14v4.317c-.119-.006-.234-.016-.359-.016-.129 0-.233.01-.355.016zm1.648 3.38c.006.004.008.013.014.019l.117.226zm1.027.403a.563.563 0 0 0 .159.338c1.68 1.304 3.414 2.565 5.076 3.866l.529.439c-.209.007-.414.011-.607.02-.41-.395-.823-.78-1.297-1.149l-.004-.002-4.196-3.3c.125-.074.224-.137.34-.212zM561.506 664.111c-1.32 0-2.56.23-3.527.758-.968.528-1.672 1.436-1.672 2.582 0 1.006.565 1.768 1.28 2.225.716.456 1.58.7 2.405.928.826.226 1.619.434 2.139.705.52.27.719.479.719.923 0 .374-.192.735-.594 1.036-.403.3-1.012.515-1.75.515-1.495 0-2.213-.464-2.965-1.316a.563.563 0 0 0-.422-.192h-.207a.563.563 0 0 0-.553.457c-.078.412-.177.796-.35 1.145a.563.563 0 0 0 .165.7c.484.367 1.126.57 1.803.722.676.152 1.376.23 1.943.23 1.503 0 2.884-.317 3.937-.955 1.054-.638 1.786-1.66 1.786-2.904 0-.971-.583-1.703-1.3-2.139-.715-.435-1.576-.675-2.404-.902-.827-.227-1.623-.443-2.148-.717-.525-.274-.727-.487-.727-.922 0-.297.147-.53.508-.754.361-.223.925-.379 1.559-.379 1.088 0 1.782.402 2.103.975a.563.563 0 0 0 .49.287h.208a.563.563 0 0 0 .52-.348c.173-.419.31-.78.515-1.091a.563.563 0 0 0-.172-.79c-.934-.58-2.205-.779-3.29-.779zm2.096 1.6c.03.012.071.011.101.023l-.023.05c-.025-.026-.052-.049-.078-.073zm-5.403.41c-.146.264-.26.55-.26.87 0 .897.622 1.548 1.33 1.92.71.37 1.557.58 2.374.804.816.224 1.6.462 2.117.777.517.315.758.606.758 1.178 0 .628-.323 1.112-.803 1.539.15-.303.26-.628.26-.977 0-.9-.62-1.554-1.327-1.921-.706-.368-1.549-.57-2.359-.793-.81-.223-1.584-.465-2.096-.791-.51-.327-.761-.645-.761-1.276 0-.577.298-.98.767-1.33zm-.95 7.518c.15.134.312.257.48.373-.205-.07-.39-.13-.534-.203.02-.058.037-.113.053-.17z" style="color:#000;fill:#fff;stroke:none"/><path d="M559.69 675.238c-5.485 0-10.45.226-14.08.727-1.816.25-3.293.565-4.37.978-.538.207-.98.436-1.322.733-.342.296-.596.706-.596 1.168 0 .461.254.871.596 1.168.342.296.784.523 1.322.73 1.077.414 2.554.729 4.37.979 3.63.5 8.595.724 14.08.724 5.484 0 10.45-.227 14.08-.726 1.814-.25 3.29-.563 4.367-.977.538-.207.978-.434 1.32-.73.342-.297.596-.707.596-1.168 0-.462-.254-.872-.596-1.168-.342-.297-.782-.526-1.32-.733-1.076-.413-2.553-.728-4.367-.978-3.63-.5-8.596-.727-14.08-.727zm0 1.125c5.453 0 10.389.227 13.925.715 1.769.244 3.19.557 4.117.914.464.179.803.372.989.533.186.162.207.247.207.319 0 .072-.022.155-.207.316-.186.161-.523.355-.987.533-.927.357-2.35.67-4.119.912-3.537.487-8.472.715-13.926.715-5.453 0-10.39-.228-13.927-.715-1.77-.243-3.191-.555-4.12-.912-.463-.178-.8-.372-.986-.533-.186-.161-.209-.245-.209-.316 0-.072.023-.157.21-.319.185-.161.522-.354.986-.533.928-.357 2.35-.67 4.119-.914 3.537-.488 8.474-.715 13.927-.715zM566.662 664.463a.563.563 0 0 0-.562.562v9.567a.563.563 0 0 0 .562.564h7.543c.34 0 .603-.3.557-.638-.028-.207-.057-.32-.057-.352 0-.019.031-.132.059-.352a.563.563 0 0 0-.623-.628c-.626.072-1.237.11-1.871.125-1.077.023-2.14.051-3.206.046v-2.966h2.676c.594 0 1.195.056 1.846.072a.563.563 0 0 0 .572-.63c-.027-.22-.058-.365-.058-.327 0-.004.023-.09.054-.272a.563.563 0 0 0-.568-.658c-.649.016-1.25.07-1.846.07h-2.676v-2.396h1.043l2.067.025c.62.031 1.233.07 1.83.153l.535-.078.098-.557c-.028-.202-.057-.32-.057-.346 0-.026.031-.133.059-.35a.563.563 0 0 0-.559-.634zm.563 1.127h.81a.563.563 0 0 0-.096.096v3.523c.058.14.169.251.31.309a.563.563 0 0 0-.31.308v4.102a.562.562 0 0 0 .1.101h-.814zM575.88 664.463a.563.563 0 0 0-.593.562v9.606l.004.539.582.021c.308-.012.615-.037.895-.037.258 0 .543.025.898.037a.563.563 0 0 0 .582-.56v-9.606a.563.563 0 0 0-.587-.562c-.352.016-.635.04-.893.04-.28 0-.584-.024-.887-.04zm.532 1.15c.123.006.226.018.356.018.123 0 .238-.012.355-.018v8.43c-.117-.006-.231-.016-.355-.016-.13 0-.233.01-.356.016zM553.55 661.998c-.595 0-1.124.158-1.505.51a1.4 1.4 0 0 0-.354 1.474.563.563 0 0 0 0 .002l2.13 5.825c.078.214.173.4.32.562a.9.9 0 0 0 .654.313c.276 0 .51-.15.656-.313a1.66 1.66 0 0 0 .32-.564l2.125-5.825a1.401 1.401 0 0 0-.351-1.474c-.38-.352-.912-.51-1.506-.51zm0 1.125h2.49c.382 0 .64.117.741.211.1.093.114.11.059.264l-2.045 5.601-2.047-5.6v-.001c-.055-.154-.042-.171.059-.264.101-.094.359-.211.744-.211z" style="color:#000;fill:#fff;stroke:none"/></g><path d="m587.99 666.52.633-.082c.023-.004.09-.043.09-.145 0-.093-.075-.437-.274-.746-.187-.3-.449-.52-.613-.644.738-.008 1.574.836 1.574 1.617 0 .316-.176.563-.328.563-.105 0-.164-.055-.297-.211-.07-.082-.113-.133-.308-.2a1.981 1.981 0 0 0-.477-.109zm-1.016-.621-.023.062c-.242.602-.27.664-.484 1.188a.703.703 0 0 0-.047.195l.078.367c0 .153-.117.25-.274.25-.464 0-1.043-.664-1.117-1.625-.008-.171-.027-.898-.039-1.05-.043-.383-.105-.489-.258-.766.434.035.676.238.774.34.05.05.14.152.14.363l-.02.168c-.081.328-.148.617-.148.902 0 .508.254.856.36.856.074 0 .215-.176.297-.277.191-.239.625-.84.718-.989zM591.39 668.26c.32-.023.828-.137 1.36-.438.468-.269.726-.57.726-.988 0-.297-.188-.722-.79-.722-.491 0-1.14.23-1.636.742a6.39 6.39 0 0 0-.406.468c-.09.122-.195.239-.313.239-.187 0-.238-.196-.238-.332 0-.258.11-.352.457-.668.367-.34 1.778-1.98 1.797-2.024l.012-.027-.059-.047c-.054 0-.793.324-.922.403-.199.109-.254.148-.351.148-.219 0-.469-.273-.469-.527 0-.196.125-.32.195-.399.067.246.102.367.32.367.09 0 .536-.07 1.012-.242l.41-.152.06-.004c.171 0 .53.328.53.465 0 .11-.027.129-.234.254-.262.144-1.316 1.191-1.563 1.546.723-.3 1.004-.398 1.481-.398.957 0 1.375.523 1.375 1.04 0 .304-.137.609-.496.898-.453.359-1.34.457-1.918.457-.149 0-.223 0-.34-.016zM599.67 666.39c-.148.504-.617 1.79-1.66 1.79-.395 0-.64-.216-.707-.423-.067-.183-.09-.511-.106-.773-.02-.266-.066-.586-.367-.586-.242 0-.465.098-.754.445-.25.309-.363.57-.558 1.02-.086.191-.164.382-.371.382-.18 0-.254-.128-.254-.359 0-.223.066-.348.285-.648.375-.551 1.273-2.14 1.52-2.621l.07-.243c0-.136-.157-.246-.446-.324a.646.646 0 0 1 .399-.125c.406 0 .777.34.777.547 0 .113-.023.14-.262.398-.308.352-1.047 1.282-1.25 1.735.438-.297.625-.426 1.008-.426.621 0 .672.387.723.707.039.29.074.512.172.602l.226.086c.274 0 .61-.211.801-.364.305-.23.523-.547.707-.843zM602.05 667.47c-.121 0-.605.012-.605.32 0 .313.57.313.585.313.543 0 .567-.414.57-.551a1.635 1.635 0 0 0-.55-.082m1.328-2.2c.711 0 1.156.403 1.156.704l-.074.191-.156.055c-.121 0-.207-.05-.3-.101a.786.786 0 0 0-.454-.153c-.55 0-.55.512-.55.645 0 .265.05.48.085.625.473.082.762.265.856.34.148.109.246.218.246.394 0 .149-.09.281-.239.281-.144 0-.343-.16-.437-.226-.2-.172-.3-.215-.383-.246-.008.09-.027.347-.254.52-.234.183-.527.202-.668.202-.422 0-.98-.207-.98-.66 0-.465.492-.68 1.11-.68.1 0 .175.008.237.012-.008-.18-.015-.238-.015-.355 0-.59.34-.844.832-.969l.222-.05.024-.056c0-.085-.277-.27-.793-.37a1.4 1.4 0 0 1 .535-.102m-1.941-.38c.093-.237.168-.5.168-.64 0-.12-.055-.23-.399-.293a.563.563 0 0 1 .399-.18c.214 0 .488.126.629.243l.062.129c0 .09-.035.144-.117.265-.074.102-.086.125-.195.34.074-.027.25-.082.425-.164.266-.121.27-.121.336-.121.114 0 .39.098.39.258 0 .101-.089.144-.128.16-.344.117-.695.187-1.234.297-.063.121-.536 1.07-.707 1.418-.153.344-.391.738-.516.824l-.121.04c-.082 0-.246-.095-.246-.325 0-.156.066-.234.187-.375.047-.059.625-.879.91-1.488-.105.02-.218.043-.375.043-.53 0-.722-.297-.722-.489l.023-.117c.156.215.48.23.68.23.25 0 .437-.03.558-.054zM608.32 664.54c.262.098.637.234.637.543 0 .14-.094.223-.219.277l.43.313.066.105c0 .082-.148.063-.309.063-.335.043-.671.09-1 .14a3.41 3.41 0 0 1-.097.696h1.316l.235-.364.09-.066.105.055.46.363.055.078-.085.063h-2.176c.297.37.597.613 1.035.816.613.29 1.148.336 1.371.355v.032c-.422.191-.492.414-.559.625-.824-.317-1.535-.606-1.921-1.711-.45 1.187-1.66 1.64-2.61 1.687v-.027c.852-.258 1.7-.809 2.02-1.777h-1.368c-.39 0-.5.015-.609.035l-.094-.203c.27.027.536.039.805.039h1.305a2.65 2.65 0 0 0 .086-.613c-.196.011-.442.03-.84.03-.469 0-.809-.015-1.008-.023v-.043c1.438-.152 2.691-.46 3.066-.699-.097-.078-.101-.105-.168-.363-.074-.29-.113-.332-.199-.426h-.004a4.277 4.277 0 0 1-.93.856l-.027-.032c.192-.27.426-.78.535-1.066.125-.32.133-.387.168-.64l.707.269.067.082c0 .074-.086.098-.223.125-.098.152-.129.191-.195.277h.957l.226-.32.086-.07.106.062.422.317.054.082-.086.058zm-2.031.004c.098.043.277.11.293.113.144.063.383.23.383.473 0 .168-.141.32-.309.32-.223 0-.258-.172-.313-.484a1.201 1.201 0 0 0-.218-.406 3.708 3.708 0 0 1-1.016.988l-.023-.035c.304-.395.62-1.13.722-1.524 0-.011.04-.168.043-.363l.68.281.086.086c0 .074-.059.09-.203.125-.102.164-.11.184-.195.297h.52l.187-.27.085-.07.106.059.332.273.059.082-.086.055zM613.14 666.74l.05.09c0 .058-.042.058-.257.078-.34.219-.79.453-1.52.582v-.027c.797-.48 1.168-.864 1.27-1.07zm1.438.832c.69.094 1.234.395 1.234.742a.287.287 0 0 1-.29.293c-.167 0-.234-.11-.398-.36-.035-.05-.304-.44-.566-.644zm-1.301-.133.05.07c0 .063-.023.067-.261.102-.574.477-1.43.816-2.012.914l-.02-.039c.641-.27 1.489-.977 1.645-1.215.07-.113.082-.129.113-.176zm-2.043-2.844c.5.106.761.309.761.575 0 .16-.097.28-.273.28-.195 0-.238-.148-.281-.304-.016-.078-.102-.36-.227-.52zm1.406-.261.183-.25.09-.07.106.058.308.25.055.082-.09.059h-1.75c-.347 0-.469.011-.613.039l-.086-.203c.344.035.742.035.8.035h.18c-.007-.426-.058-.559-.101-.668l.617.117c.102.02.14.043.14.105l-.144.133a4.062 4.062 0 0 0 0 .313zm-.496 1.195c.101-.25.246-.68.246-.812v-.204l.59.243.097.093c0 .051-.128.098-.253.16-.223.204-.407.38-.555.52h.465l.18-.227.085-.07.11.059.27.226.05.082-.086.055h-1.75c-.008.469-.027.707-.05.98.32-.214.765-.648.866-.878l.512.324.059.074c0 .07-.102.07-.274.07-.336.211-.648.344-1.172.496-.054.45-.14 1.188-.8 1.809l-.04-.008c.11-.16.169-.34.204-.516a7.82 7.82 0 0 0 .164-1.687c0-.473-.043-.79-.067-.988l.618.199zm1.89 1.754h.957v-.703h-.957zm0-1.613h.957v-.633h-.957zm0 .78h.957v-.655h-.957zm.809-2.202c-.094.14-.207.308-.535.656h.629l.18-.176.081-.058.106.05.34.243.07.09-.187.195c0 .093.008.574.008 1.05 0 .293.027.934.027 1.016 0 .2-.145.297-.352.297-.187 0-.218-.063-.218-.172v-.023h-.95l-.047.156.403.25.066.082-.258.082c-.32.191-.98.531-1.613.633l-.012-.04c.391-.183.93-.616 1.184-.921-.223.008-.262-.051-.262-.16l.004-.172c0-.2.012-.946.012-1.309 0-.785-.012-.87-.07-1.305l.586.192h.097c.031-.32.031-.383.04-.656h-.15c-.394 0-.503.02-.605.03l-.097-.194c.273.023.531.03.808.03h.883l.211-.296.082-.07.102.054.386.305.059.078-.09.063zM617.99 664.15c0-.094-.156-.188-.426-.195.059-.059.223-.223.528-.223.308 0 .593.188.593.324 0 .094-.039.13-.168.262-.047.047-.066.074-.234.305.098-.028.227-.067.547-.207a.416.416 0 0 1 .203-.055c.148 0 .367.148.367.262 0 .093-.086.156-.172.183-.386.14-.761.196-1.277.27-.082.125-.469.648-.527.765.109-.05.312-.136.605-.136.516 0 .633.277.703.453.223-.113.57-.281.79-.387.3-.156.339-.168.339-.258 0-.07-.023-.078-.242-.183.043-.032.11-.059.246-.059.363 0 .742.305.742.582 0 .16-.098.184-.21.203-.54.082-.911.14-1.583.399.016.105.051.265.051.507 0 .137 0 .575-.305.575-.164 0-.293-.16-.293-.383l.008-.453c-.156.09-.484.277-.707.558l-.078.23c0 .356.54.38.84.38.285 0 .574-.043.86-.086l.28-.035c.208 0 .403.21.403.347a.239.239 0 0 1-.168.223c-.148.047-.668.098-1 .098-.46 0-1.039-.075-1.297-.266a.598.598 0 0 1-.238-.453c0-.05.015-.32.207-.55.312-.38.695-.614.879-.731-.043-.266-.09-.52-.399-.52-.3 0-.57.223-.77.54-.062.112-.237.398-.304.448l-.12.043c-.185 0-.224-.191-.224-.34 0-.206.036-.273.32-.542.31-.297.594-.72.723-.918-.097.015-.164.02-.257.02-.598 0-.758-.364-.75-.587.187.156.39.223.753.223.2 0 .407-.027.493-.035.078-.141.27-.485.27-.598M622.81 666.69c.273.082.797.336.797.688a.3.3 0 0 1-.29.308c-.234 0-.273-.25-.284-.32-.047-.309-.145-.531-.246-.649zm-1.578 1.602c.113-.243.324-1.032.324-1.536l-.012-.093.57.164.075.054-.117.125c-.356.813-.594 1.098-.809 1.313zm4.242-3.508.258-.32.098-.07.105.054.39.328.055.078-.082.059h-1.25v.93h.32l.231-.32.094-.075.105.058.348.313.07.098-.086.058h-1.82c-.344 0-.469.012-.61.04l-.093-.2c.355.027.746.027.805.027h.093l-.004-.93h-.324c-.344 0-.465.012-.605.04l-.094-.2c.348.032.75.032.805.032h.218c-.011-.547-.023-.723-.136-1.078l.777.129.094.082-.188.195v.672zm-4.133-.188c.196.051.446.106.602.18.09-.34.172-.75.183-.887l.012-.183.668.265.09.098c0 .05-.113.09-.219.129l-.328.383-.277.273c.086.059.254.192.254.395 0 .18-.157.304-.32.304-.165 0-.2-.07-.372-.488-.054-.137-.195-.348-.32-.43zm1.977.145.082.105c0 .051-.082.078-.211.114-.066.066-.106.117-.492.582-.082.093-.266.28-.399.425l.602-.023c-.102-.234-.164-.32-.211-.375l.012-.027c.824.25.859.62.859.699 0 .125-.11.309-.297.309-.18 0-.219-.137-.234-.196l-.074-.265-.223.062c-.008 1.05.016 2.152.016 2.219 0 .18-.211.281-.356.281-.129 0-.195-.055-.195-.156l.004-.102c.015-.172.015-.613.015-.797 0-.285.012-.906.004-1.304l-.453.11-.136.042-.16.137-.071-.094-.168-.562c.277.043.645.05.883.043.18-.32.433-.961.527-1.235l.067-.297zm.969 3.293h1.093v-1.274h-1.093zm1.043-1.403.18-.222.09-.067.105.055.316.242.078.13-.18.179v.531c0 .121.036.656.036.758 0 .277-.274.305-.36.305-.086 0-.226 0-.226-.184l.011-.195h-1.093c.011.148.027.406-.348.406-.211 0-.211-.129-.211-.215l.012-.27c.008-.246.011-.503.011-.753 0-.297-.023-.762-.086-.93l.68.23zM631.55 664.05c.25.078.484.203.484.422a.2.2 0 0 1-.203.207c-.097 0-.113-.02-.347-.285a1.327 1.327 0 0 0-.52-.407c.106-.015.297-.027.586.063m-.313.566c.149.075.293.172.293.364 0 .132-.093.218-.195.218-.078 0-.098-.023-.254-.238-.222-.32-.289-.383-.55-.574.246.031.492.11.706.23m-3.632-.105c.277 0 .59-.164.754-.25.02-.004.132-.07.226-.07.137 0 .485.105.485.316 0 .113-.13.168-.247.215-.214.086-.535.266-.851.812-.102.18-.402.723-.402 1.305 0 .211.035.54.261.758.203.195.45.226.578.226.649 0 1.106-.515 1.274-.914.176-.421.238-.87.238-1.32a2.81 2.81 0 0 0-.133-.867c-.097-.293-.11-.328-.11-.418 0-.285.282-.285.306-.285.203 0 .242.195.28.363.114.496.419.926.802 1.285.336.324.433.41.433.653 0 .25-.195.28-.25.28-.351 0-.722-.73-1.062-1.39l-.051-.054-.027.058c0 .082.043.555.05.656.016.168.028.383.028.551 0 .34-.051.977-.438 1.383-.32.324-.762.504-1.226.504-1.004 0-1.415-.719-1.415-1.383 0-.734.43-1.289 1.079-2.058l.066-.102-.05-.031c-.099 0-.227.07-.598.27l-.172.05c-.293 0-.391-.43-.391-.57 0-.117.04-.203.07-.281.114.148.278.308.493.308M635.39 666.22c.234-.168.309-.215.453-.34l.078-.113c0-.14-.523-.14-.566-.14-.196 0-.29.015-.395.027.309-.297.824-.352 1.063-.352.71 0 .93.352.93.508 0 .148-.098.207-.239.207l-.414-.027c-.238 0-.656.16-.894.261zm-.79.965c0 .59.743.59.997.59.285 0 .395-.024.637-.063.101-.02.152-.027.21-.027.243 0 .434.254.434.379 0 .015 0 .105-.113.16-.125.059-.402.121-.79.121-1.378 0-1.605-.594-1.605-.828 0-.145.059-.402.258-.55-.008.05-.027.116-.027.218m-.723-2.797c0-.082 0-.168-.172-.277a.62.62 0 0 0-.261-.102.493.493 0 0 1 .351-.14c.262 0 .739.19.739.449 0 .078-.012.101-.098.242-.09.152-.11.195-.176.344.113-.047.211-.086.313-.149.222-.14.25-.156.347-.156.184 0 .309.168.309.273 0 .114-.13.18-.172.2-.063.035-.438.203-1 .343-.348.965-.676 1.856-.973 2.508-.187.41-.289.41-.37.41-.138 0-.31-.129-.31-.36 0-.124.024-.151.204-.433.402-.632.703-1.23.988-2.03a3.008 3.008 0 0 1-.55.062c-.493 0-.7-.309-.727-.543.257.125.437.152.648.152.3 0 .61-.066.77-.11.058-.187.14-.492.14-.683M640.8 666.52l.633-.082c.027-.004.09-.043.09-.145 0-.093-.07-.437-.27-.746-.191-.3-.453-.52-.613-.644.738-.008 1.574.836 1.574 1.617 0 .316-.176.563-.328.563-.11 0-.164-.055-.3-.211-.075-.082-.114-.133-.31-.2a1.941 1.941 0 0 0-.476-.109zm-1.012-.621-.027.062c-.238.602-.266.664-.477 1.188a.598.598 0 0 0-.054.195l.078.367c0 .153-.11.25-.27.25-.468 0-1.039-.664-1.117-1.625-.012-.171-.027-.898-.047-1.05-.035-.383-.097-.489-.25-.766.43.035.676.238.77.34.05.05.14.152.14.363l-.02.168c-.077.328-.14.617-.14.902 0 .508.246.856.352.856.078 0 .219-.176.293-.277.195-.239.625-.84.722-.989zM596.17 671.47h-4.84v-.793h-2.875v.793h-4.914v1.348h12.63zM583.43 680.77h2.531l1.586-2.84h-2.531zM594.97 677.95h-2.531l1.582 2.844h2.535z" style="color:#000;fill:#211e1e;stroke:none" transform="translate(-3842.3 -4723.9) scale(7.1864)"/><path d="M593.48 675.97h-7.332v-1.16h7.332zm2.648-2.504h-12.617v3.965h4.942v3.379h2.875v-3.38h4.8zM612.62 680.74l-1.555-4.055 1.117-2.02h-1.894l-.527-1.378h2.199v-2.508h-2.024v1.195h-.68l-.53-1.379h-2.797l.53 1.38h-6.577l-.606 8.757h2.657l.304-4.394h1.195v4.36h2.497v-6.048h-3.575l.09-1.363h4.516l1.316 3.418-2.234 4.015h2.777l.59-1.058.414 1.078zM627.24 671.69v-1.09h-12.394v1.09h4.902v.516h-4.902v2.281h2.078v-1.34h.68v1.379h1.433v-1.379h.711v1.34h2.578v-1.34h.645v1.379h1.437v-1.379h.672v1.34h2.16v-2.281h-4.914v-.516ZM619.62 678.38h-2.195v-.54h2.195zm-2.195-2.262h2.191v.547h-2.191zm5.133 1.723h2.19v.54h-2.19zm.008-1.723h2.19v.547h-2.19zm-.192 3.86v-.582h4.875v-4.47h-12.395v4.47h4.91v1.453h7.598v-.871zM634.12 671.01l1.48 1.637h2.157l-1.739-2.078h-3.699l-1.742 2.078h2.156zM635.37 676.38h2.004v-1.453h-2.004v-.586h1.965v-1.383h-6.426v1.383h2.04v.586h-2.04v1.453h2.04v2.863h-2.04v1.383h6.5v-1.383h-2.04z" style="color:#000;fill:#211e1e;stroke:none" transform="translate(-3842.3 -4723.9) scale(7.1864)"/><path d="M630.94 678.63h1.402v-1.633h-1.402ZM636.04 678.63h1.398v-1.633h-1.398ZM644.24 680.59l-1.777-4.54h1.41v-1.343h-1.7v-1.496h1.626v-1.418h-1.625v-1.234h-2.305v1.234h-.57v-1.195h-1.434v2.613h2.004v1.496H637.9v1.344h1.707l-1.785 4.539h2.121l1.09-2.781 1.094 2.781z" style="color:#000;fill:#211e1e;stroke:none" transform="translate(-3842.3 -4723.9) scale(7.1864)"/><path d="M544.07 669.28c.375-.195.813-.492 1.105-.688l5.141-3.566c.27.016.543.043.836.043.25 0 .523-.027.816-.043l-4.746 3.063-1.773 1.203c1.672 1.297 3.406 2.558 5.078 3.867l1.691 1.402v.07c-.418-.011-.796-.039-1.152-.039-.394 0-.789.028-1.168.04-.457-.45-.918-.872-1.441-1.278l-4.555-3.582c-.105-.055-.355-.098-.355-.043v4.902c-.336-.011-.63-.039-.922-.039-.309 0-.625.028-.918.04v-9.606c.293.016.61.043.918.043.293 0 .586-.027.922-.043v4.34c.02.082.312.027.523-.086M565.08 671.67c0 2.066-2.316 3.297-5.16 3.297-1.024 0-2.695-.3-3.406-.84.207-.418.316-.855.398-1.289h.207c.816.926 1.758 1.508 3.387 1.508 1.691 0 2.906-.969 2.906-2.114 0-2.69-6.543-1.507-6.543-4.78 0-1.864 2.133-2.778 4.637-2.778 1.004 0 2.218.215 2.992.695-.25.38-.399.782-.567 1.188h-.207c-.437-.781-1.359-1.262-2.593-1.262-1.442 0-2.63.668-2.63 1.695 0 2.664 6.579 1.594 6.579 4.68M559.69 675.8c10.938 0 19.801.91 19.801 3.043s-8.863 3.04-19.801 3.04c-10.938 0-19.805-.907-19.805-3.04s8.867-3.043 19.805-3.043M574.08 665.87a21.766 21.766 0 0 0-1.879-.156l-2.09-.028h-1.61v3.524h3.24c.628 0 1.234-.055 1.859-.07-.02.113-.063.238-.063.367 0 .11.043.238.063.394-.625-.015-1.23-.074-1.86-.074h-3.238v4.102c1.273.027 2.527-.028 3.781-.055a21.071 21.071 0 0 0 1.922-.129c-.02.156-.063.285-.063.422 0 .144.043.281.063.426h-7.543v-9.567h7.418c-.02.153-.063.282-.063.422s.043.281.063.422M575.85 674.63v-9.605c.29.015.605.043.918.043.293 0 .582-.028.918-.043v9.605c-.336-.012-.625-.04-.918-.04-.313 0-.629.028-.918.04" style="color:#000;fill:#1e54ae;stroke:none" transform="translate(-3842.3 -4723.9) scale(7.1864)"/><path d="M556.04 662.56h-2.488c-.98 0-1.578.55-1.332 1.23l2.129 5.825c.246.675.648.675.894 0l2.125-5.825c.246-.68-.351-1.23-1.328-1.23" style="color:#000;fill:#d91738;stroke:none" transform="translate(-3842.3 -4723.9) scale(7.1864)"/><path d="M554.72 678.89c.012.508-.047.926-.387 1.32a1.84 1.84 0 0 1-1.386.625 1.94 1.94 0 0 1-1.926-1.926c0-1.07.875-1.945 1.953-1.945.652 0 1.187.293 1.582.809l-.305.285c-.308-.441-.734-.703-1.285-.703-.852 0-1.527.719-1.527 1.562 0 .399.16.774.437 1.055.274.273.668.477 1.063.477.648 0 1.336-.477 1.336-1.168h-1.114v-.391zM555.91 679.12h.102l1.132 1.645h.512l-1.191-1.676c.574-.051.937-.457.937-1.036 0-.843-.66-1.035-1.367-1.035h-.547v3.746h.422zm0-1.71h.125c.5 0 .95.058.95.675 0 .578-.477.668-.946.668h-.129ZM560.12 676.96c-1.066 0-1.95.871-1.95 1.941 0 1.079.884 1.93 1.95 1.93 1.066 0 1.953-.851 1.953-1.93 0-1.07-.887-1.941-1.953-1.941m0 .39c.86 0 1.535.696 1.535 1.548 0 .843-.683 1.546-1.535 1.546a1.548 1.548 0 0 1-1.535-1.546c0-.852.676-1.547 1.535-1.547M563.21 679.26c0 .277-.008.594.164.832.164.227.48.356.754.356.27 0 .562-.122.734-.333.2-.238.184-.566.184-.855v-2.234h.418v2.347c0 .407-.031.73-.328 1.035a1.36 1.36 0 0 1-1.008.426c-.352 0-.711-.133-.969-.383-.324-.308-.363-.652-.363-1.078v-2.347h.414zM566.8 679.13h.3c.313 0 .637-.04.891-.25.23-.195.356-.5.356-.805 0-.332-.145-.66-.422-.851-.273-.192-.605-.203-.93-.203h-.613v3.746h.418Zm0-1.719h.152c.489 0 .98.043.98.656 0 .536-.394.676-.855.676h-.277Z" style="color:#000;fill:#fff;stroke:none" transform="translate(-3842.3 -4723.9) scale(7.1864)"/></g></svg>