<svg xmlns="http://www.w3.org/2000/svg" xml:space="preserve" id="レイヤー_1" width="820" height="200" x="0px" y="0px" version="1.1" viewBox="0 0 820 200"><style>.st0{opacity:.25;fill:#fcee21}.st2{fill:#fbb03b}.st3{fill:#4d4d4d}.st4{fill:#389db7}.st5{fill:none;stroke:#389db7;stroke-width:1.633;stroke-linecap:round;stroke-linejoin:round;stroke-miterlimit:10}.st6,.st7,.st8{fill:#f7f0ae}.st7,.st8{stroke:#389db7;stroke-width:1.633;stroke-linecap:round;stroke-linejoin:round;stroke-miterlimit:10}.st8{fill:#fff}.st9{fill:#0068b7}.st10,.st11{fill:none;stroke:#fff;stroke-width:2;stroke-miterlimit:10}.st11{stroke-width:2.0863;stroke-linecap:round;stroke-linejoin:round}.st12{opacity:.5}.st13{opacity:.3;fill:#fcee21}.st14,.st15,.st16{opacity:.2;fill:#fcee21}.st15,.st16{opacity:.15}.st16{opacity:.1}.st17{clip-path:url(#SVGID_4_)}.st18{opacity:.5;clip-path:url(#SVGID_6_)}.st19{filter:url(#Adobe_OpacityMaskFilter)}.st20{mask:url(#SVGID_7_)}.st21{fill:#fff}.st22{filter:url(#Adobe_OpacityMaskFilter_1_)}.st23{mask:url(#SVGID_8_)}.st24{filter:url(#Adobe_OpacityMaskFilter_2_)}.st25{mask:url(#SVGID_9_)}.st26{opacity:.2;clip-path:url(#SVGID_6_)}.st27{filter:url(#Adobe_OpacityMaskFilter_3_)}.st28{mask:url(#SVGID_10_)}.st29{filter:url(#Adobe_OpacityMaskFilter_4_)}.st30{mask:url(#SVGID_11_)}.st31{fill:#3b9eba}</style><g id="g56" transform="matrix(4.95783 0 0 4.95783 8.418 5.799)"><g id="g10"><g id="g8"><path id="path4" d="M37.379 19.001C37.379 8.952 29.233.806 19.185.806 9.136.806.991 8.952.991 19.001c0 10.047 8.145 18.194 18.194 18.194 10.048 0 18.194-8.147 18.194-18.194z" style="fill:none"/><path id="path6" d="M19.185.135C8.766.135.319 8.582.319 19.002c0 10.417 8.447 18.864 18.866 18.864S38.05 29.419 38.05 19.001C38.05 8.581 29.605.135 19.185.135zm16.607 18.866c0 2.847-.717 5.526-1.979 7.868l-3.756-11.165a11.787 11.787 0 0 0-.223-.665l-.03-.09-.006.001c-1.632-4.273-5.767-7.308-10.612-7.308-.788 0-1.557.08-2.3.233l2.627-5.477c9.02.174 16.279 7.541 16.279 16.603zm-10.634-3.468a6.907 6.907 0 0 1-5.973 10.375 6.907 6.907 0 0 1-5.97-10.383l.001.001.007-.013a6.9 6.9 0 0 1 5.962-3.421 6.902 6.902 0 0 1 5.973 3.439zM18.643 2.402l-7.474 8.551a11.326 11.326 0 0 0-3.343 8.048c0 2.909 1.097 5.561 2.895 7.57l-6.064.477a16.53 16.53 0 0 1-2.078-8.047C2.578 10.011 9.722 2.69 18.643 2.402Zm.542 33.207c-5.94 0-11.15-3.12-14.085-7.809l11.782 2.325c.013.003.026.006.04.007l.498.099.003-.008c.575.089 1.163.137 1.763.137 5.019 0 9.277-3.258 10.778-7.774l3.423 5.028c-2.914 4.792-8.184 7.995-14.202 7.995z" style="fill:#0068b3"/></g></g><g id="g54"><g id="g18"><path id="path12" d="m49.862 13.092.006-1.914c-1.172-.4-3.176-1.021-4.553-1.208l.006 1.717c1.372.264 3.42.976 4.541 1.405z" style="fill:#0068b3"/><path id="path14" d="M55.081 26.513c-1.771 0-2.955-.06-4.18-.93-.707-.501-1.022-1.603-1.022-2.893v-6.64c0-.996-1.031-.982-1.031-.982h-3.59v1.817h2.77v6.606c-.747 1.094-1.756 2.249-2.768 2.694l-.006 2.123c1.575-.683 2.547-1.569 3.223-2.585.16.518 1.001 1.419 2.247 1.954 1.511.647 2.825.606 4.438.606h8.71v-1.77z" style="fill:#0068b3"/><path id="path16" d="M54.643 17.903v-1.039h3.686v8.904h1.832v-8.904h3.642v-.97c0-.867-.856-.807-.856-.807h-8.326v-2.283c2.825-.403 8.991-1.247 8.991-1.247V9.842s-7.297.858-10.093 1.276c0 0-.735.16-.735 1.06v5.385c.057 3.612-.745 5.708-1.638 5.974l.002 1.893c2.408-.081 3.496-3.186 3.495-7.527z" style="fill:#0068b3"/></g><g id="g26"><path id="path20" d="M84.006 26.661c-.628-.151-2.049-.698-3.547-1.767 1.505-1.656 2.359-3.998 2.628-4.596h-1.832c-.263.526-.634 1.907-2.134 3.502-1.093-1.025-2.111-2.356-2.773-4.042h7.626v-.879c0-.868-.855-.808-.855-.808h-2.036c-.069-.757-.695-.689-.695-.689h-1.53v.689h-3.017a11.741 11.741 0 0 1-.21-1.355c-.235-2.509-.386-5.869-.386-6.917h-1.961c.076 2.686-.06 4.652.569 8.272h-8.381v1.687h8.833c.806 2.362 2.059 4.083 3.401 5.326-1.747 1.348-3.13 1.563-3.13 1.563l.021 1.58c1.353 0 3.211-1.167 4.425-2.078 2.522 1.776 4.939 2.117 4.939 2.117z" style="fill:#0068b3"/><path id="path22" d="m71.483 16.623.216.63h1.763l-1.185-3.268h-1.7l.394 1.146a6.011 6.011 0 0 1-2.057.52l3.634-4.649h-1.795l-1.877 2.34-.755-.599 2.118-2.714h-1.795l-1.472 1.801-.535-.425-.971 1.157 2.447 1.977-.907 1.132h-1.552v1.548l2.911-.002a8.472 8.472 0 0 0 3.118-.594z" style="fill:#0068b3"/><path id="path24" d="m81.997 16.623.216.63h1.762l-1.184-3.268h-1.7l.394 1.146a6.006 6.006 0 0 1-2.057.52l3.633-4.649h-1.794l-1.877 2.34-.754-.599 2.118-2.714h-1.795l-1.471 1.801-.536-.425-.972 1.157 2.449 1.977-.907 1.132H75.97v1.548l2.911-.002a8.468 8.468 0 0 0 3.116-.594z" style="fill:#0068b3"/></g><path id="path28" d="M73.175 20.328h-6.806a.918.918 0 0 0-.919.919v6.13a.92.92 0 0 0 .919.919h6.806a.919.919 0 0 0 .918-.919v-6.13a.918.918 0 0 0-.918-.919zm-6.151 1.443h1.89v1.75h-1.89zm0 3.194h1.89v1.851h-1.89zm5.487 1.876h-2.054v-1.9h2.054zm.033-3.32h-2.087v-1.75h2.087z" style="fill:#0068b3"/><path id="path30" d="M101.01 11.439h-.015v-.693a.874.874 0 0 0-.875-.874H86.475a.874.874 0 0 0-.875.874v16.602c0 .484.391.875.875.875h13.644a.874.874 0 0 0 .875-.875v-.13h.015V11.439Zm-13.354 8.497h11.333v6.425H87.656Zm0-2.033v-6.145h11.333v6.145z" style="fill:#0068b3"/><g id="g38"><path id="path32" d="M154.063 14.362h-3.565c-.482 0-.875.408-.875.911v9.459c0 .503.393.912.875.912h9.242c.482 0 .875-.408.875-.912v-9.459c0-.503-.393-.911-.875-.911h-3.785c.136-.351.244-.715.309-1.113h5.359v-.727c0-1.013-.989-1.004-.989-1.004h-1.666c.302-.513.686-1.198.881-1.648l-2.025-.019c-.09.285-.349.976-.693 1.667h-3.61a10.673 10.673 0 0 0-.982-1.663l-1.977.015c.234.346.673 1.057 1.01 1.648h-3.004v1.731h5.698c-.05.472-.113.807-.203 1.113zm-2.585 4.968h7.272v1.407h-7.272zm0 4.464v-1.247h7.272v1.247zm7.272-6.272h-7.272v-1.334h7.272z" style="fill:#0068b3"/><path id="path34" d="m147.672 13.209.006-1.914c-1.171-.4-3.175-1.021-4.552-1.208l.006 1.716c1.371.265 3.419.978 4.54 1.406z" style="fill:#0068b3"/><path id="path36" d="M152.89 26.556c-1.771 0-2.955-.06-4.179-.928-.708-.502-1.024-1.604-1.024-2.895v-6.64c0-.996-1.031-.982-1.031-.982h-3.59v1.816h2.77v6.719c-.747 1.094-1.757 2.249-2.77 2.694l-.004 2.011c1.574-.683 2.545-1.57 3.223-2.585.16.517 1.001 1.419 2.248 1.954 1.51.647 2.825.606 4.437.606h8.71v-1.771h-8.79z" style="fill:#0068b3"/></g><path id="path40" d="M113.555 14.417h7.821v-1.233c0-1.013-.989-.912-.989-.912h-7.331V9.714h-2.014v2.558h-8.155v2.145h7.652c-1.07 2.996-3.649 6.436-7.688 8.866v2.17c5.252-2.979 7.095-5.524 8.192-7.733v6.266h-4.009l.021 1.935h3.988v2.475h2.014v-2.475h4.049l-.021-1.022c0-1.013-.987-.913-.987-.913h-3.041v-6.255c1.101 2.207 2.97 4.747 8.329 7.722v-2.17c-4.173-2.43-6.761-5.871-7.831-8.866z" style="fill:#0068b3"/><g id="g52"><path id="path42" d="M126.996 11.482c1.227 1.738 3.369 2.832 3.986 3.115l.011-1.873c-1.355-.969-2.251-1.437-3.178-2.94h-1.638c-.927 1.503-1.822 1.97-3.178 2.94l.011 1.873c.617-.283 2.759-1.376 3.986-3.115z" style="fill:#0068b3"/><path id="path44" d="M141.709 19.205c0-1.013-.989-.912-.989-.912h-3.05v-3.582h3.848v-.938c0-1.013-.987-.912-.987-.912h-2.861V9.779h-1.899v3.083h-1.415a31.82 31.82 0 0 0 .062-2.195h-1.865c0 1.942-.139 4.024-.848 4.024l.003 1.944c1.306-.139 1.997-.728 2.356-1.923h1.708v3.582h-4.125v1.85h3.953c-.553 3.594-2.102 5.509-3.956 6.181v2.024c3.84-1.7 4.777-4.255 5.004-5.66.227 1.388 1.174 3.945 5.046 5.66v-2.024c-1.854-.672-3.325-2.587-3.858-6.181h3.874v-.939z" style="fill:#0068b3"/><path id="path46" d="M130.091 25.396c.268-.767.672-2.846.784-3.919l-1.847-.251c-.046.46-.226 2.321-.651 3.875z" style="fill:#0068b3"/><path id="path48" d="m124.948 21.379-1.841.251c.245.986.604 2.606.694 4.138l1.888-.25c-.18-1.644-.314-2.475-.741-4.139z" style="fill:#0068b3"/><path id="path50" d="M130.08 14.758h-7.05v1.85h3.017v1.686h-3.017v1.85h3.017V26.5a32.645 32.645 0 0 1-3.05-.018l.007 1.831c5.979.193 8.011-.703 8.011-.703l-.017-1.906c-.992.514-1.961.516-3.122.655v-6.214h3.157v-.938c0-1.013-.952-.912-.952-.912h-2.205v-1.686h3.157v-.937c-.001-1.015-.953-.914-.953-.914z" style="fill:#0068b3"/></g></g></g></svg>