<svg xmlns="http://www.w3.org/2000/svg" width="870.46143" height="251.46394"><path d="M65.04 1051.19c.39-4.297 1.66-8.154 3.808-11.572 2.148-3.418 4.882-6.69 8.203-9.814a433.794 433.794 0 0 1 38.672-29.004c13.476-8.985 27.05-18.067 40.722-27.246l-11.132 52.148c-1.368 8.79-4.786 15.43-10.254 19.922h58.3c-2.93-3.516-4.59-6.445-4.98-8.79-.39-2.343-.196-4.784.586-7.323l19.043-90.528c12.5-14.453 20.996-28.906 25.488-43.36 4.492-14.452 6.543-26.561 6.152-36.327h-3.515c0 2.734-.928 6.299-2.783 10.693-1.856 4.395-4.444 8.79-7.764 13.184-3.32 4.394-10.45 10.4-21.387 18.017-10.938 7.618-22.559 15.479-34.863 23.584-12.305 8.106-25.39 16.944-39.258 26.514-13.867 9.57-23.682 16.895-29.443 21.973-5.762 5.078-10.205 9.472-13.33 13.183a1104.718 1104.718 0 0 0-9.961 12.012c-3.516 4.297-7.373 10.986-11.573 20.068-4.199 9.082-5.713 20.362-4.54 33.838l3.808-1.172z" style="font-size:300px;font-style:normal;font-variant:normal;font-weight:400;font-stretch:normal;writing-mode:lr-tb;text-anchor:start;fill:#004ea2;fill-opacity:1;stroke:none;font-family:TRM Font MT" transform="matrix(.99 0 0 .99 0 -790.375)"/><path d="M29.59 1045.624c-1.953-2.148-3.174-4.785-3.662-7.91a27.48 27.48 0 0 1 .146-9.375l29.004-122.461h.586l19.922 48.633c-2.344 4.687-3.955 9.277-4.834 13.77-.88 4.491-1.416 8.495-1.611 12.01-.196 3.517.097 8.204.879 14.063l4.101-.586c.781-7.03 3.027-13.232 6.738-18.603 3.711-5.371 8.301-10.596 13.77-15.674 9.375-8.789 17.969-15.722 25.781-20.8 7.812-5.079 17.822-11.524 30.03-19.337a6043.108 6043.108 0 0 0 35.888-23.144c11.719-7.617 21.63-15.576 29.736-23.877 8.106-8.3 15.186-19.14 21.24-32.52 6.055-13.378 9.57-27.197 10.548-41.455h-4.102c-1.367 4.688-3.418 9.424-6.152 14.21-2.735 4.785-6.153 9.228-10.254 13.33a1039.811 1039.811 0 0 1-55.371 37.646 1166.918 1166.918 0 0 0-55.371 37.353c-1.172-3.906-2.588-7.226-4.248-9.96-1.66-2.735-3.956-5.372-6.885-7.91-2.93-2.54-5.86-4.395-8.79-5.567a48.46 48.46 0 0 0-9.081-2.637h-49.22c2.15 2.149 3.516 4.053 4.102 5.713.586 1.66.782 3.565.586 5.713l-31.054 137.988c-1.368 5.86-2.881 10.303-4.541 13.33-1.66 3.028-4.15 5.713-7.471 8.057h29.59z" style="font-size:300px;font-style:normal;font-variant:normal;font-weight:400;font-stretch:normal;writing-mode:lr-tb;text-anchor:start;fill:#00a496;fill-opacity:1;stroke:none;font-family:TRM Font MT" transform="matrix(.99 0 0 .99 0 -790.375)"/><path d="m197.963 723.257 1.14-2.793c-.76.43-1.52.573-2.28.43h-7.754l2.053-8.809h4.218c1.597 0 2.85-.5 3.763-1.503l.456-1.075h-3.877c-1.976 0-3.42.502-4.332 1.504l1.596-8.379h7.297c.76.144 1.216.43 1.369.86l.684-3.223h-15.507c.456.716.456 1.79 0 3.223l-3.877 17.402c-.304.716-.836 1.504-1.596 2.363h16.647zm9.806 0c-.457-.716-.685-1.432-.685-2.148l3.877-17.617c.152-1.29.684-2.364 1.596-3.223h-7.753c.456.86.532 1.934.228 3.223l-3.877 17.402c-.304 1.003-.76 1.79-1.368 2.363h7.982zm14.822 0c-.608-.573-.836-1.36-.684-2.363l3.877-18.262h3.306c.988 0 1.938-.43 2.85-1.289l.457-1.074h-17.331l-1.368 3.223c.912-.573 2.052-.86 3.42-.86h2.965l-4.105 18.262c-.152.716-.684 1.504-1.596 2.363h8.21zm80.27 0c-.608-.859-.76-2.22-.456-4.082l2.736-15.468a9.055 9.055 0 0 1 1.597-3.438h-7.298c.456 1.003.532 2.149.228 3.438l-3.192 16.757c-.76.717-1.673 1.075-2.737 1.075s-1.862-.144-2.394-.43c-.532-.287-.836-.68-.912-1.182-.076-.501-.114-1.325-.114-2.47l2.508-13.965c.304-1.433.836-2.507 1.596-3.223h-7.753c.608 1.003.836 2.149.684 3.438l-2.508 15.683c0 1.432.266 2.4.798 2.9.532.502 1.406.824 2.622.967 1.216.144 2.28.18 3.193.108a9.107 9.107 0 0 0 2.508-.537c.76-.287 1.597-.573 2.509-.86l-.456 1.29h6.84zm-38.31-.644c1.215.43 2.356.68 3.42.752 1.064.071 2.318.107 3.763.107 1.444 0 2.926-.25 4.446-.752 1.52-.501 2.66-1.11 3.42-1.826.76-.716 1.369-1.611 1.825-2.685.456-1.075.684-2.149.684-3.223a5.965 5.965 0 0 0-.798-3.008c-.532-.93-1.786-2.113-3.762-3.545-1.977-1.432-3.08-2.435-3.307-3.008a2.677 2.677 0 0 1-.114-1.718c.152-.573.532-.967 1.14-1.182a8.569 8.569 0 0 1 2.053-.43c.76-.071 1.368-.071 1.824 0 .456.072 1.064.25 1.824.537.76.287 1.52.931 2.28 1.934l.685-4.297c-2.129-.286-3.611-.465-4.447-.537a16.028 16.028 0 0 0-2.623 0c-.912.072-1.9.322-2.964.752a9.076 9.076 0 0 0-2.85 1.826c-.837.788-1.445 1.576-1.825 2.363-.38.788-.532 1.648-.456 2.578.076.931.266 1.72.57 2.364.304.644 1.482 1.683 3.535 3.115 2.052 1.432 3.192 2.614 3.42 3.545.228.93.19 1.683-.114 2.256a4.32 4.32 0 0 1-1.14 1.396c-.456.358-1.064.573-1.824.645a25.56 25.56 0 0 1-2.395.107 5.551 5.551 0 0 1-2.394-.537c-.76-.358-1.672-1.038-2.736-2.04l-1.14 4.51zm-18.244.644.684-2.793c-.608.43-1.292.573-2.052.43h-7.981l2.052-8.809h4.447c1.596 0 2.774-.5 3.534-1.503l.684-1.075h-4.104c-1.977 0-3.421.502-4.333 1.504l1.824-8.379h7.298c.76.144 1.14.43 1.14.86l.684-3.223h-15.507c.456.716.532 1.79.228 3.223l-4.333 17.402c-.152.716-.608 1.504-1.368 2.363h17.103zm14.595 0c-.609-.573-.837-1.36-.684-2.363l3.876-18.262h3.307c.988 0 1.938-.43 2.85-1.289l.456-1.074h-17.33l-1.369 3.223c.76-.573 1.9-.86 3.42-.86h2.965l-4.104 18.262c-.153.716-.685 1.504-1.597 2.363h8.21z" style="font-size:220px;font-style:normal;font-variant:normal;font-weight:400;font-stretch:normal;writing-mode:lr-tb;text-anchor:start;fill:#004ea2;fill-opacity:1;stroke:none;font-family:TRM Font MT" transform="matrix(5.28 0 0 5.28 -749.113 -3575.139)"/></svg>