<svg xmlns="http://www.w3.org/2000/svg" width="640" height="175" viewBox="0 0 640 175"><path d="m81.712 44.744 78.187 77.362-47.655 47.61c-28.138-31.442-30.532-63.04-30.532-73.088Z" style="color:#000;font-style:normal;font-variant:normal;font-weight:400;font-stretch:normal;font-size:medium;font-family:sans-serif;font-variant-ligatures:normal;font-variant-position:normal;font-variant-caps:normal;font-variant-numeric:normal;font-variant-alternates:normal;font-variant-east-asian:normal;font-feature-settings:normal;text-indent:0;text-decoration:none;text-decoration-line:none;text-decoration-style:solid;text-decoration-color:#000;letter-spacing:normal;word-spacing:normal;text-transform:none;writing-mode:lr-tb;direction:ltr;text-orientation:mixed;dominant-baseline:auto;baseline-shift:baseline;text-anchor:start;clip-rule:nonzero;display:inline;overflow:visible;visibility:visible;opacity:1;color-interpolation:sRGB;vector-effect:none;fill:#ffb700;fill-opacity:1;fill-rule:nonzero;stroke:none;stroke-width:3.46356;stroke-linecap:butt;stroke-linejoin:miter;stroke-miterlimit:4;stroke-dasharray:none;stroke-dashoffset:0;stroke-opacity:1;color-rendering:auto;image-rendering:auto;shape-rendering:auto;text-rendering:auto;enable-background:accumulate;stop-color:#000;stop-opacity:1"/><path d="M78.18 44.744 0 122.106l47.648 47.61c28.138-31.442 30.532-63.04 30.532-73.088z" style="color:#000;font-style:normal;font-variant:normal;font-weight:400;font-stretch:normal;font-size:medium;font-family:sans-serif;font-variant-ligatures:normal;font-variant-position:normal;font-variant-caps:normal;font-variant-numeric:normal;font-variant-alternates:normal;font-variant-east-asian:normal;font-feature-settings:normal;text-indent:0;text-decoration:none;text-decoration-line:none;text-decoration-style:solid;text-decoration-color:#000;letter-spacing:normal;word-spacing:normal;text-transform:none;writing-mode:lr-tb;direction:ltr;text-orientation:mixed;dominant-baseline:auto;baseline-shift:baseline;text-anchor:start;clip-rule:nonzero;display:inline;overflow:visible;visibility:visible;opacity:1;color-interpolation:sRGB;vector-effect:none;fill:#e94e00;fill-opacity:1;fill-rule:nonzero;stroke:none;stroke-width:3.46356;stroke-linecap:butt;stroke-linejoin:miter;stroke-miterlimit:4;stroke-dasharray:none;stroke-dashoffset:0;stroke-opacity:1;color-rendering:auto;image-rendering:auto;shape-rendering:auto;text-rendering:auto;enable-background:accumulate;stop-color:#000;stop-opacity:1"/><g style="opacity:1"><path d="M396.945-.996c-2.15.003-4.453.755-6.148 2.389-1.694 1.632-2.567 4.02-2.565 6.25.001 1.956.852 3.801 2.075 5.289-.241.21-.44.262-.698.568-.395.47-.747 1.141-1.011 1.873-2.204-3.054-6.095-5.01-9.96-5.008h-.003c-1.876 0-3.799.543-5.715 1.324.006-.208.009-.444.015-.65a5.196 5.196 0 0 0-4.705-5.33 29.158 29.158 0 0 0-2.726-.13c-.855 0-1.68.055-2.473.148a5.196 5.196 0 0 0-4.592 5.12l-.025 3.173c-.586.074-1.165.155-1.76.23a5.196 5.196 0 0 0-4.52 4.611c-.038.37-.097.94-.097 1.641 0 1.53.159 3.037.713 4.693a5.196 5.196 0 0 0 1.914 2.584c-.56.945-1.11 1.806-1.656 2.639-1.426-6.225-4.38-12.36-8.483-17.023a5.195 5.195 0 0 0-.01-.014 5.195 5.195 0 0 0-.498-.629l-.012-.016a5.195 5.195 0 0 0-.048-.05 5.195 5.195 0 0 0-.034-.036 5.195 5.195 0 0 0-.076-.076 5.195 5.195 0 0 0-.06-.058 5.195 5.195 0 0 0-.053-.05 5.195 5.195 0 0 0-.129-.114 5.195 5.195 0 0 0-.014-.014 5.195 5.195 0 0 0-.091-.076 5.195 5.195 0 0 0-.055-.045 5.195 5.195 0 0 0-.096-.074 5.195 5.195 0 0 0-.056-.043 5.195 5.195 0 0 0-.098-.07 5.195 5.195 0 0 0-.059-.042 5.195 5.195 0 0 0-.1-.066 5.195 5.195 0 0 0-.06-.04 5.195 5.195 0 0 0-.101-.062 5.195 5.195 0 0 0-.063-.037 5.195 5.195 0 0 0-.103-.058 5.195 5.195 0 0 0-.065-.036 5.195 5.195 0 0 0-.105-.054 5.195 5.195 0 0 0-.004-.002 5.195 5.195 0 0 0-.153-.074 5.195 5.195 0 0 0-.017-.008 5.195 5.195 0 0 0-.065-.03 5.195 5.195 0 0 0-.11-.046 5.195 5.195 0 0 0-.068-.028 5.195 5.195 0 0 0-.11-.043 5.195 5.195 0 0 0-.005-.002 5.195 5.195 0 0 0-.176-.06 5.195 5.195 0 0 0-.144-.047 5.195 5.195 0 0 0-.04-.012 5.195 5.195 0 0 0-.023-.006 5.195 5.195 0 0 0-.162-.043 5.195 5.195 0 0 0-.185-.043 5.195 5.195 0 0 0-.16-.031 5.195 5.195 0 0 0-.03-.006 5.195 5.195 0 0 0-.07-.012 5.195 5.195 0 0 0-.12-.017 5.195 5.195 0 0 0-.011-.002 5.195 5.195 0 0 0-.178-.02 5.195 5.195 0 0 0-.166-.013 5.195 5.195 0 0 0-.025-.002 5.195 5.195 0 0 0-.166-.006 5.195 5.195 0 0 0-.026-.002 5.195 5.195 0 0 0-.013 0 5.195 5.195 0 0 0-.117-.002 5.195 5.195 0 0 0-.122.002 5.195 5.195 0 0 0-.011 0 5.195 5.195 0 0 0-.026.002 5.195 5.195 0 0 0-.125.004 5.195 5.195 0 0 0-.16.011 5.195 5.195 0 0 0-.142.014 5.195 5.195 0 0 0-.106.014 5.195 5.195 0 0 0-.037.006 5.195 5.195 0 0 0-.016.002 5.195 5.195 0 0 0-.002 0 5.195 5.195 0 0 0-1.472.445c-1.838.515-3.448 1.303-4.822 2.48a5.196 5.196 0 0 0-.63 7.252c1.15 1.395 2.212 3.295 3.19 5.256l-3.207-2.224a5.196 5.196 0 0 0-4.846-.573c-.144-1.628-.336-3.082-.34-5.193v-.008c0-1.268-.006-2.75.061-4.32a5.196 5.196 0 0 0-4.414-5.356 21.426 21.426 0 0 0-3.197-.242c-.93 0-1.908.032-3.035.233a5.196 5.196 0 0 0-4.288 5.123c.018 12.392.829 19.471 3.66 24.74a5.196 5.196 0 0 0 .022.037c2.342 4.271 6.73 6.763 10.322 6.76 2.614-.002 5.904-1.346 7.897-3.762 1.854-2.248 2.906-5.076 3.783-8.676.15.564.446 1.122.557 1.676a5.196 5.196 0 0 0 5.94 4.105c2.164-.356 4.365-.947 6.554-2.556a5.196 5.196 0 0 0 .135-.104 5.196 5.196 0 0 0 1.08 2.041c1.464 1.703 2.78 2.612 4.56 3.533a5.196 5.196 0 0 0 1.16.434 5.196 5.196 0 0 0 4.26 5.043 15.41 15.41 0 0 0 2.807.23c1.132 0 2.264-.099 3.406-.32A5.196 5.196 0 0 0 371.904 45c1.673.672 3.427 1.097 5.242 1.094 2.607-.004 5.252-.832 7.54-2.233a5.196 5.196 0 0 0 5.587.09c2.17-1.336 3.719-2.998 4.825-5.426a5.196 5.196 0 0 0-1.065-5.836c-.828-.824-1.752-1.464-2.62-2.2.091-1.048.253-1.995.251-3.141-.003-1.595-.2-3.056-.402-4.52.855.561 2.118 1.072 3.379 1.072 1.661 0 2.703-.497 3.713-1.13 4.043-2.533 7.097-7.132 7.572-12.569a5.195 5.195 0 0 0 .19-1.387v-.002a5.195 5.195 0 0 0-.241-1.546c-.243-1.807-.789-3.592-2.043-5.092-1.615-1.931-4.278-3.174-6.887-3.17zm-251.377.223c-1.638 0-2.704.493-3.718 1.134-4.362 2.733-7.766 7.856-7.76 13.946v.004c0 2.329.666 4.712 2.281 6.642 1.616 1.931 4.277 3.171 6.885 3.168h.002c2.157-.001 4.462-.758 6.154-2.392 1.481-1.43 2.21-3.44 2.399-5.413-.155 1-.205 1.932-.202 2.768 0 .883.045 1.837.229 2.875a5.196 5.196 0 0 0 2.89 3.785 61.747 61.747 0 0 1-2.89 5.363 5.196 5.196 0 0 0 .77 6.387c1.849 1.842 3.845 2.79 6.066 3.385a5.196 5.196 0 0 0 1.744.16c.705 1.63 1.751 3.094 3.088 4.145 2.428 1.909 5.412 2.678 8.45 2.673 3.028-.004 6.072-.655 8.558-2.685a9.37 9.37 0 0 0 1.547-1.645 5.196 5.196 0 0 0 .002 0 5.196 5.196 0 0 0 6.625-.384c1.2-1.12 2.091-2.42 2.824-3.924a5.196 5.196 0 0 0 2.312 5.295c2.072 1.325 4.025 1.933 6.42 2.177a5.196 5.196 0 0 0 5.313-3.146 77.776 77.776 0 0 1 2.717-5.772c.36 1.988.964 3.882 2.277 5.512 2.129 2.644 5.616 3.776 8.6 3.772 2.893-.002 5.997-.928 8.501-2.858 1.48-1.14 2.693-2.63 3.795-4.287a5.196 5.196 0 0 0 1.61 3.059c2.191 2.03 4.323 2.692 6.361 3.18a5.196 5.196 0 0 0 3.652-.47 5.196 5.196 0 0 0 .73.368c1.972.801 4.084 1.15 6.073 1.146 2.203 0 4.818-.36 7.08-2.039 2.262-1.678 3.504-4.194 4.219-6.806.328-1.177.528-2.536.74-3.883a5.196 5.196 0 0 0 4.569 1.27c2.602-.537 4.94-1.649 6.867-3.73a5.196 5.196 0 0 0 .515-.653c.563 2.86 1.294 5.367 2.41 7.447a5.196 5.196 0 0 0 .024.04c2.344 4.276 6.73 6.767 10.322 6.763 2.614-.002 5.905-1.348 7.899-3.764 1.854-2.248 2.904-5.075 3.78-8.674.15.562.447 1.12.558 1.672a5.196 5.196 0 0 0 5.939 4.107c2.165-.357 4.364-.95 6.55-2.552a5.196 5.196 0 0 0 2.014-5.266c-1.364-6.446-4.418-12.847-8.666-17.674a5.195 5.195 0 0 0 0-.002 5.195 5.195 0 0 0-.517-.652 5.195 5.195 0 0 0-.01-.012 5.195 5.195 0 0 0-.125-.129 5.195 5.195 0 0 0-.12-.115 5.195 5.195 0 0 0-.107-.098 5.195 5.195 0 0 0-.119-.101 5.195 5.195 0 0 0-.025-.024 5.195 5.195 0 0 0-.057-.045 5.195 5.195 0 0 0-.002-.002 5.195 5.195 0 0 0-.15-.115 5.195 5.195 0 0 0-.147-.103 5.195 5.195 0 0 0-.01-.008 5.195 5.195 0 0 0-.1-.067 5.195 5.195 0 0 0-.06-.039 5.195 5.195 0 0 0-.102-.062 5.195 5.195 0 0 0-.002-.002 5.195 5.195 0 0 0-.164-.094 5.195 5.195 0 0 0-.136-.072 5.195 5.195 0 0 0-.034-.018 5.195 5.195 0 0 0-.064-.031 5.195 5.195 0 0 0-.16-.076 5.195 5.195 0 0 0-.014-.006 5.195 5.195 0 0 0-.11-.047 5.195 5.195 0 0 0-.066-.027 5.195 5.195 0 0 0-.04-.016 5.195 5.195 0 0 0-.14-.05 5.195 5.195 0 0 0-.112-.04 5.195 5.195 0 0 0-.002 0 5.195 5.195 0 0 0-.178-.054 5.195 5.195 0 0 0-.004-.002 5.195 5.195 0 0 0-.069-.02 5.195 5.195 0 0 0-.115-.031 5.195 5.195 0 0 0-.027-.006 5.195 5.195 0 0 0-.16-.037 5.195 5.195 0 0 0-.147-.03 5.195 5.195 0 0 0-.04-.007 5.195 5.195 0 0 0-.073-.012 5.195 5.195 0 0 0-.026-.004 5.195 5.195 0 0 0-.164-.021 5.195 5.195 0 0 0-.187-.02 5.195 5.195 0 0 0-.002 0 5.195 5.195 0 0 0-.006 0 5.195 5.195 0 0 0-.154-.012 5.195 5.195 0 0 0-.032-.002 5.195 5.195 0 0 0-.119-.004 5.195 5.195 0 0 0-.011 0 5.195 5.195 0 0 0-.122-.002 5.195 5.195 0 0 0-.12.002 5.195 5.195 0 0 0-.01 0 5.195 5.195 0 0 0-.02 0 5.195 5.195 0 0 0-.135.006 5.195 5.195 0 0 0-.146.012 5.195 5.195 0 0 0-.018 0 5.195 5.195 0 0 0-.137.016 5.195 5.195 0 0 0-.091.01 5.195 5.195 0 0 0-.028.003 5.195 5.195 0 0 0-.037.006 5.195 5.195 0 0 0-1.467.442c-1.841.514-3.453 1.307-4.83 2.486a5.196 5.196 0 0 0-.629 7.25c1.15 1.395 2.212 3.296 3.19 5.258l-3.21-2.227a5.196 5.196 0 0 0-4.847-.57c-.144-1.628-.336-3.083-.34-5.195v-.008c0-1.25 0-2.743.06-4.34a5.196 5.196 0 0 0-4.411-5.336 21.303 21.303 0 0 0-3.196-.242c-.93 0-1.909.032-3.037.232a5.196 5.196 0 0 0-4.285 5.123c.004 3.135.062 5.92.188 8.432-1.684-3.729-4.005-7.166-6.797-9.944a5.195 5.195 0 0 0-.516-.564 5.195 5.195 0 0 0-.008-.008 5.195 5.195 0 0 0-.03-.025 5.195 5.195 0 0 0-.097-.09 5.195 5.195 0 0 0-.103-.088 5.195 5.195 0 0 0-.059-.049 5.195 5.195 0 0 0-.09-.072 5.195 5.195 0 0 0-.06-.047 5.195 5.195 0 0 0-.094-.068 5.195 5.195 0 0 0-.062-.043 5.195 5.195 0 0 0-.094-.065 5.195 5.195 0 0 0-.02-.011 5.195 5.195 0 0 0-.103-.067 5.195 5.195 0 0 0-.04-.025 5.195 5.195 0 0 0-.066-.04 5.195 5.195 0 0 0-.166-.093 5.195 5.195 0 0 0-.101-.055 5.195 5.195 0 0 0-.026-.011 5.195 5.195 0 0 0-.146-.073 5.195 5.195 0 0 0-.158-.07 5.195 5.195 0 0 0-.018-.008 5.195 5.195 0 0 0-.07-.03 5.195 5.195 0 0 0-.028-.009 5.195 5.195 0 0 0-.152-.058 5.195 5.195 0 0 0-.176-.061 5.195 5.195 0 0 0-.006-.002 5.195 5.195 0 0 0-.01-.002 5.195 5.195 0 0 0-.14-.045 5.195 5.195 0 0 0-.034-.01 5.195 5.195 0 0 0-.11-.029 5.195 5.195 0 0 0-.15-.035 5.195 5.195 0 0 0-.036-.01 5.195 5.195 0 0 0-.075-.016 5.195 5.195 0 0 0-.113-.021 5.195 5.195 0 0 0-.076-.014 5.195 5.195 0 0 0-.055-.008 5.195 5.195 0 0 0-.117-.017 5.195 5.195 0 0 0-.018-.002 5.195 5.195 0 0 0-.033-.004 5.195 5.195 0 0 0-.08-.01 5.195 5.195 0 0 0-.025-.002 5.195 5.195 0 0 0-.166-.014 5.195 5.195 0 0 0-.174-.01 5.195 5.195 0 0 0-.018 0 5.195 5.195 0 0 0-.095-.001 5.195 5.195 0 0 0-.16 0 5.195 5.195 0 0 0-.163.006 5.195 5.195 0 0 0-.123.007 5.195 5.195 0 0 0-.05.004 5.195 5.195 0 0 0-.114.01 5.195 5.195 0 0 0-.117.014 5.195 5.195 0 0 0-.062.008 5.195 5.195 0 0 0-.094.013 5.195 5.195 0 0 0-.125.022 5.195 5.195 0 0 0-.041.008 5.195 5.195 0 0 0-.074.015 5.195 5.195 0 0 0-.153.033 5.195 5.195 0 0 0-.035.008 5.195 5.195 0 0 0-.111.03 5.195 5.195 0 0 0-.094.025 5.195 5.195 0 0 0-.014.004l-.004.002a5.195 5.195 0 0 0-1.086.459 13.953 13.953 0 0 0-4.037 2.383c.072-.34.161-.675.23-1.016a5.196 5.196 0 0 0-3.49-5.983 20.891 20.891 0 0 0-5.953-1.015 5.196 5.196 0 0 0-5.267 4.469c-.211 1.499-.596 3.051-.916 4.59-1.353.161-2.718.278-4.028.47a5.196 5.196 0 0 0-4.406 4.543c-.082.707-.07 1.234-.066 1.576.002 1.605.182 3.187.672 4.772a5.196 5.196 0 0 0 3.394 3.418c-.513 1.248-1.061 2.27-1.603 3.4a5.196 5.196 0 0 0-1.475-2.57l-3.266-3.11a5.196 5.196 0 0 0-7.039-.112c-.402-1.685-1.034-3.283-2.166-4.664-1.153-1.407-2.728-2.286-4.395-2.877.795-1.704 1.307-2.947 2.178-4.705a5.196 5.196 0 0 0-1.933-6.73 16.308 16.308 0 0 0-6.547-2.302 5.196 5.196 0 0 0-5.455 3.182l-11.23 27.361a5.195 5.195 0 0 0 .003-.043 5.195 5.195 0 0 0 .01-.129 5.195 5.195 0 0 0 .01-.146 5.195 5.195 0 0 0 0-.02 5.195 5.195 0 0 0 .004-.126 5.195 5.195 0 0 0 0-.045 5.195 5.195 0 0 0 0-.045 5.195 5.195 0 0 0 0-.045 5.195 5.195 0 0 0-.004-.135 5.195 5.195 0 0 0 0-.012 5.195 5.195 0 0 0-.002-.033 5.195 5.195 0 0 0-.01-.15 5.195 5.195 0 0 0 0-.008 5.195 5.195 0 0 0-.014-.147 5.195 5.195 0 0 0-.023-.19 5.195 5.195 0 0 0-.031-.189 5.195 5.195 0 0 0-.008-.044 5.195 5.195 0 0 0-.03-.143 5.195 5.195 0 0 0-.01-.045 5.195 5.195 0 0 0-.035-.143 5.195 5.195 0 0 0-.011-.042 5.195 5.195 0 0 0-.004-.016 5.195 5.195 0 0 0-.05-.166 5.195 5.195 0 0 0 0-.002 5.195 5.195 0 0 0-.001-.004 5.195 5.195 0 0 0-.059-.18 5.195 5.195 0 0 0-.066-.18 5.195 5.195 0 0 0-.055-.134 5.195 5.195 0 0 0-.017-.041 5.195 5.195 0 0 0-.061-.135 5.195 5.195 0 0 0-.02-.041 5.195 5.195 0 0 0-.015-.03 5.195 5.195 0 0 0-.07-.14 5.195 5.195 0 0 0-.07-.129 5.195 5.195 0 0 0-.022-.039 5.195 5.195 0 0 0-.074-.127 5.195 5.195 0 0 0-.024-.039 5.195 5.195 0 0 0-.08-.123 5.195 5.195 0 0 0-.025-.037 5.195 5.195 0 0 0-.084-.12 5.195 5.195 0 0 0-.067-.089 5.195 5.195 0 0 0-.076-.1 5.195 5.195 0 0 0-.092-.113 5.195 5.195 0 0 0-.029-.035 5.195 5.195 0 0 0-.025-.027 5.195 5.195 0 0 0-.1-.116 5.195 5.195 0 0 0-.002-.002 5.195 5.195 0 0 0-.1-.105 5.195 5.195 0 0 0-.03-.033 5.195 5.195 0 0 0-.048-.045 5.195 5.195 0 0 0-.092-.088 5.195 5.195 0 0 0-.107-.1 5.195 5.195 0 0 0-.033-.029 5.195 5.195 0 0 0-.111-.096 5.195 5.195 0 0 0-.036-.029 5.195 5.195 0 0 0-.115-.09 5.195 5.195 0 0 0-.037-.027 5.195 5.195 0 0 0-.088-.067l-.016-.01-.013-.01a5.195 5.195 0 0 0-.606-.368 38.583 38.583 0 0 0-3.617-2.22 5.196 5.196 0 0 0 3.024-1.43c1.41-1.369 2.338-2.85 3.062-4.419a5.195 5.195 0 0 0 .477-.941 5.195 5.195 0 0 0 .002-.004 5.195 5.195 0 0 0 .062-.176 5.195 5.195 0 0 0 .002-.006 5.195 5.195 0 0 0 .057-.175 5.195 5.195 0 0 0 .002-.006 5.195 5.195 0 0 0 .008-.028 5.195 5.195 0 0 0 .088-.343 5.195 5.195 0 0 0 .02-.092 5.195 5.195 0 0 0 .017-.092 5.195 5.195 0 0 0 .02-.111 5.195 5.195 0 0 0 .01-.077 5.195 5.195 0 0 0 0-.005 5.195 5.195 0 0 0 .009-.063 5.195 5.195 0 0 0 .03-.27 5.195 5.195 0 0 0 .003-.042 5.195 5.195 0 0 0 0-.006 5.195 5.195 0 0 0 .01-.186 5.195 5.195 0 0 0 0-.006 5.195 5.195 0 0 0 .004-.187 5.195 5.195 0 0 0 0-.004 5.195 5.195 0 0 0-.004-.188 5.195 5.195 0 0 0 0-.004 5.195 5.195 0 0 0-.011-.187 5.195 5.195 0 0 0 0-.004 5.195 5.195 0 0 0-.004-.04 5.195 5.195 0 0 0-.06-.444 5.195 5.195 0 0 0-.013-.08 5.195 5.195 0 0 0-.025-.124 5.195 5.195 0 0 0-.014-.064 5.195 5.195 0 0 0-.002-.006 5.195 5.195 0 0 0-.015-.062 5.195 5.195 0 0 0-.03-.123 5.195 5.195 0 0 0-.052-.18 5.195 5.195 0 0 0-.002-.006 5.195 5.195 0 0 0-.057-.176 5.195 5.195 0 0 0-.002-.006 5.195 5.195 0 0 0-.065-.174 5.195 5.195 0 0 0-.002-.005 5.195 5.195 0 0 0-.072-.172 5.195 5.195 0 0 0-.002-.004 5.195 5.195 0 0 0-.017-.04 5.195 5.195 0 0 0-.061-.136 5.195 5.195 0 0 0-.03-.057 5.195 5.195 0 0 0-.15-.28 5.195 5.195 0 0 0-.047-.083 5.195 5.195 0 0 0-.048-.078 5.195 5.195 0 0 0-.061-.096 5.195 5.195 0 0 0-.043-.066 5.195 5.195 0 0 0-.004-.004 5.195 5.195 0 0 0-.105-.152 5.195 5.195 0 0 0-.004-.004 5.195 5.195 0 0 0-.053-.07 5.195 5.195 0 0 0-.063-.083 5.195 5.195 0 0 0-.119-.144 5.195 5.195 0 0 0-.004-.004 5.195 5.195 0 0 0-.123-.14 5.195 5.195 0 0 0-.004-.005 5.195 5.195 0 0 0-.127-.134 5.195 5.195 0 0 0-.004-.004 5.195 5.195 0 0 0-.133-.131 5.195 5.195 0 0 0-.004-.002 5.195 5.195 0 0 0-.11-.102 5.195 5.195 0 0 0-.032-.027 5.195 5.195 0 0 0-.143-.121 5.195 5.195 0 0 0-.004-.002 5.195 5.195 0 0 0-.052-.043 5.195 5.195 0 0 0-.036-.027l-.006-.004a5.195 5.195 0 0 0-.625-.414c-2.971-2.214-6.311-4.106-9.525-5.317a5.196 5.196 0 0 0-5.43 1.115 5.196 5.196 0 0 0-.896-.453 5.196 5.196 0 0 0-3.076-4.818 13.81 13.81 0 0 0-5.758-1.217c-.05 0-.35.043-.447.041a5.195 5.195 0 0 0-1.172.104l-.016.002a5.195 5.195 0 0 0-.08.02 5.195 5.195 0 0 0-.049.009 5.195 5.195 0 0 0-.056.014 5.195 5.195 0 0 0-.104.027 5.195 5.195 0 0 0-.18.05 5.195 5.195 0 0 0-.011.005 5.195 5.195 0 0 0-.106.035 5.195 5.195 0 0 0-.138.047 5.195 5.195 0 0 0-.024.008 5.195 5.195 0 0 0-.166.066 5.195 5.195 0 0 0-.156.068 5.195 5.195 0 0 0-.047.02 5.195 5.195 0 0 0-.105.05 5.195 5.195 0 0 0-.041.02 5.195 5.195 0 0 0-.094.049 5.195 5.195 0 0 0-.162.088 5.195 5.195 0 0 0-.022.014 5.195 5.195 0 0 0-.076.044 5.195 5.195 0 0 0-.144.09 5.195 5.195 0 0 0-.104.069 5.195 5.195 0 0 0-.125.088 5.195 5.195 0 0 0-.045.03 5.195 5.195 0 0 0-.066.052 5.195 5.195 0 0 0-.116.091 5.195 5.195 0 0 0-.043.036 5.195 5.195 0 0 0-.07.06 5.195 5.195 0 0 0-.07.059 5.195 5.195 0 0 0-.092.084 5.195 5.195 0 0 0-.068.066 5.195 5.195 0 0 0-.06.06 5.195 5.195 0 0 0-.052.051 5.195 5.195 0 0 0-.107.114 5.195 5.195 0 0 0-.008.01 5.195 5.195 0 0 0-.111.124 5.195 5.195 0 0 0-.03.038 5.195 5.195 0 0 0-.082.097 5.195 5.195 0 0 0-.054.07 5.195 5.195 0 0 0-.053.07 5.195 5.195 0 0 0-.055.077 5.195 5.195 0 0 0-.084.121 5.195 5.195 0 0 0-.1.154 5.195 5.195 0 0 0-.01.016 5.195 5.195 0 0 0-.076.127 5.195 5.195 0 0 0-.048.088 5.195 5.195 0 0 0-.032.055 5.195 5.195 0 0 0-.056.11 5.195 5.195 0 0 0-.05.102 5.195 5.195 0 0 0-.017.036 5.195 5.195 0 0 0-.048.105 5.195 5.195 0 0 0-.041.096 5.195 5.195 0 0 0-.041.1 5.195 5.195 0 0 0-.04.1 5.195 5.195 0 0 0-.013.04 5.195 5.195 0 0 0-.051.148 5.195 5.195 0 0 0-.018.053 5.195 5.195 0 0 0-.023.076 5.195 5.195 0 0 0-.045.159 5.195 5.195 0 0 0-.04.15 5.195 5.195 0 0 0-.019.09 5.195 5.195 0 0 0-.01.049 5.195 5.195 0 0 0-.015.084 5.195 5.195 0 0 0-.006.025c-.148.812-.381 1.585-.56 2.389-.342.003-.695.03-1.03.03a5.196 5.196 0 0 0-.037 0c-.49.004-.99.003-1.506.003a5.196 5.196 0 0 0-4.992 3.764c0-.035.02-.07.02-.104-.003-1.935-.868-3.78-2.087-5.27.242-.21.44-.268.702-.578.722-.856 1.416-2.401 1.416-3.824 0-1.675-.423-2.358-.71-2.875a5.195 5.195 0 0 0-.055-.119l-.025-.052a5.195 5.195 0 0 0-.02-.04 5.195 5.195 0 0 0-.07-.13 5.195 5.195 0 0 0-.096-.166 5.195 5.195 0 0 0-.021-.037 5.195 5.195 0 0 0-.006-.01 5.195 5.195 0 0 0-.03-.049c0-.002-.004-.004-.005-.006a5.195 5.195 0 0 0-1.52-1.558c-.977-.825-2.199-1.537-3.877-1.537zm296.858 3.82a5.196 5.196 0 0 0-1.537.275l-2.383.81a5.196 5.196 0 0 0-.768.335 5.196 5.196 0 0 0-1.029.197l-2.461.738a5.196 5.196 0 0 0-3.143 7.319c-.337.215-.663.469-.988.717.037-.178.085-.354.121-.532a5.196 5.196 0 0 0-3.486-5.988 20.895 20.895 0 0 0-5.953-1.016 5.196 5.196 0 0 0-5.268 4.461c-.213 1.498-.596 3.047-.916 4.578-1.374.163-2.693.277-4.094.5a5.196 5.196 0 0 0-4.351 4.586c-.072.688-.063 1.202-.063 1.496 0 1.614.184 3.204.676 4.797a5.196 5.196 0 0 0 3.406 3.424c-1.083 2.626-2.236 5.058-3.423 7.096a5.196 5.196 0 0 0 .964 6.433c2.185 2.017 4.306 2.678 6.336 3.17a5.196 5.196 0 0 0 3.573-.416 5.196 5.196 0 0 0 .658.323c1.968.795 4.07 1.144 6.053 1.144a5.196 5.196 0 0 0 .011 0c2.2-.004 4.814-.365 7.076-2.045 2.262-1.678 3.507-4.195 4.223-6.81.303-1.092.482-2.367.686-3.604a5.196 5.196 0 0 0 4.25.998c2.608-.537 4.947-1.647 6.875-3.736a5.196 5.196 0 0 0 .595-.785c-.269 1.133-.587 2.253-.586 3.455a5.196 5.196 0 0 0 0 .004c.006 2.839 1.017 5.678 3 7.705 1.984 2.026 4.812 3.085 7.596 3.082.814 0 1.672-.26 2.522-.44a5.196 5.196 0 0 0 3.54 1.121c1.42-.084 2.753-.414 4.073-.875l.047.079a5.196 5.196 0 0 0 5.697 2.36c4.197-1.036 7.803-2.958 10.373-5.85.877-.988 1.554-2.108 2.139-3.274.753 1.632 1.711 3.17 3.14 4.445a5.196 5.196 0 0 0 6.268.494c.18-.116.349-.276.53-.396a5.196 5.196 0 0 0 3.085 2.531c1.992.6 4.033.803 6.133.799 3.26-.006 6.526-.996 8.887-3.275.504-.487.921-1.037 1.31-1.604a5.196 5.196 0 0 0 4.928 1.764c2.547-.475 4.78-1.517 6.648-3.317a5.196 5.196 0 0 0 .8-.982c.792.76 1.62 1.372 2.495 1.91a5.196 5.196 0 0 0 2.264.748 5.196 5.196 0 0 0 4.313 5.037c1.125.194 2.102.22 3.043.22.958 0 1.925-.02 3.09-.24a5.196 5.196 0 0 0 4.234-5.199 835.842 835.842 0 0 1-.127-13.156c.179-.176.329-.292.508-.46-.184 2.106-.371 4.024-.37 5.847v.006c.001 2.508.598 5.257 2.557 7.428 1.96 2.172 4.947 3.112 7.639 3.109 2.901-.001 5.937-.865 9.035-2.549a5.196 5.196 0 0 0 2.648-5.394l-.777-4.801a5.196 5.196 0 0 0-5.95-4.299c.215-2.311.43-4.914.427-7.305a5.196 5.196 0 0 0 0-.002c-.006-2.63-.822-5.434-2.817-7.506-1.993-2.07-4.893-3.026-7.633-3.025h-.006c-1.693 0-3.313.376-4.851.998a5.196 5.196 0 0 0-4.889-5.264 41.215 41.215 0 0 0-2.435-.082c-.956 0-1.802.05-2.442.09a5.196 5.196 0 0 0-4.877 5.143l-.025 3.129c-.684.082-1.427.196-2.072.265a5.196 5.196 0 0 0-4.616 4.678c-.067.72-.058 1.257-.058 1.662 0 1.18.088 2.38.299 3.596a5.196 5.196 0 0 0 2.379 3.525c-.79 1.132-1.58 2.264-2.334 3.233-1.1-2.266-2.396-4.375-3.95-6.246a5.195 5.195 0 0 0-.705-.985 5.195 5.195 0 0 0-.002-.004 5.195 5.195 0 0 0-.006-.006 5.195 5.195 0 0 0-.132-.138 5.195 5.195 0 0 0-.13-.13 5.195 5.195 0 0 0-.007-.005 5.195 5.195 0 0 0-.096-.088 5.195 5.195 0 0 0-.045-.041 5.195 5.195 0 0 0-.14-.12 5.195 5.195 0 0 0-.007-.003 5.195 5.195 0 0 0-.05-.041 5.195 5.195 0 0 0-.1-.078 5.195 5.195 0 0 0-.148-.108 5.195 5.195 0 0 0-.008-.003 5.195 5.195 0 0 0-.153-.104 5.195 5.195 0 0 0-.006-.004 5.195 5.195 0 0 0-.156-.096 5.195 5.195 0 0 0-.008-.005 5.195 5.195 0 0 0-.158-.09 5.195 5.195 0 0 0-.008-.004 5.195 5.195 0 0 0-.162-.084 5.195 5.195 0 0 0-.008-.004 5.195 5.195 0 0 0-.012-.006 5.195 5.195 0 0 0-.338-.152 5.195 5.195 0 0 0-.158-.06 5.195 5.195 0 0 0-.022-.01 5.195 5.195 0 0 0-.172-.06 5.195 5.195 0 0 0-.148-.044 5.195 5.195 0 0 0-.035-.012 5.195 5.195 0 0 0-.008-.002 5.195 5.195 0 0 0-.178-.047 5.195 5.195 0 0 0-.008-.002 5.195 5.195 0 0 0-.18-.04 5.195 5.195 0 0 0-.267-.048 5.195 5.195 0 0 0-.117-.017 5.195 5.195 0 0 0-.184-.022 5.195 5.195 0 0 0-.008 0 5.195 5.195 0 0 0-.181-.013 5.195 5.195 0 0 0-.01 0 5.195 5.195 0 0 0-.182-.008 5.195 5.195 0 0 0-.01 0 5.195 5.195 0 0 0-.215 0 5.195 5.195 0 0 0-.36.021 5.195 5.195 0 0 0-.181.02 5.195 5.195 0 0 0-.008.002 5.195 5.195 0 0 0-.182.025 5.195 5.195 0 0 0-.01.002 5.195 5.195 0 0 0-.18.033 5.195 5.195 0 0 0-.019.004 5.195 5.195 0 0 0-.096.022c-.004 0-.008.003-.011.004a5.195 5.195 0 0 0-.694.21c1.1-1.48 2.107-3.187 2.602-5.56a5.196 5.196 0 0 0-2.281-5.434c-3.854-2.471-8.358-4.021-12.446-4.77h-.002a5.195 5.195 0 0 0-1.028-.266 5.195 5.195 0 0 0-.06-.008 5.195 5.195 0 0 0-.02-.004 5.195 5.195 0 0 0-.023-.002 5.195 5.195 0 0 0-.166-.02 5.195 5.195 0 0 0-.182-.015 5.195 5.195 0 0 0-.01 0 5.195 5.195 0 0 0-.121-.006 5.195 5.195 0 0 0-.07-.002 5.195 5.195 0 0 0-.147-.002 5.195 5.195 0 0 0-.168.004 5.195 5.195 0 0 0-.144.008 5.195 5.195 0 0 0-.092.005 5.195 5.195 0 0 0-.076.008 5.195 5.195 0 0 0-.09.008 5.195 5.195 0 0 0-.17.024 5.195 5.195 0 0 0-.147.025 5.195 5.195 0 0 0-.086.016 5.195 5.195 0 0 0-.056.011 5.195 5.195 0 0 0-.135.03 5.195 5.195 0 0 0-.063.015 5.195 5.195 0 0 0-.1.024 5.195 5.195 0 0 0-.16.047 5.195 5.195 0 0 0-.132.042 5.195 5.195 0 0 0-.1.034 5.195 5.195 0 0 0-.05.02 5.195 5.195 0 0 0-.114.042 5.195 5.195 0 0 0-.031.012 5.195 5.195 0 0 0-.148.062 5.195 5.195 0 0 0-.094.043 5.195 5.195 0 0 0-.059.026 5.195 5.195 0 0 0-.158.08 5.195 5.195 0 0 0-.135.072 5.195 5.195 0 0 0-.074.041 5.195 5.195 0 0 0-.043.027 5.195 5.195 0 0 0-.121.073 5.195 5.195 0 0 0-.082.052 5.195 5.195 0 0 0-.049.034 5.195 5.195 0 0 0-.148.103 5.195 5.195 0 0 0-.137.104 5.195 5.195 0 0 0-.031.023 5.195 5.195 0 0 0-.065.053 5.195 5.195 0 0 0-.12.101 5.195 5.195 0 0 0-.134.12 5.195 5.195 0 0 0-.023.021 5.195 5.195 0 0 0-.105.1 5.195 5.195 0 0 0-.02.02 5.195 5.195 0 0 0-.084.087 5.195 5.195 0 0 0-.098.108 5.195 5.195 0 0 0-.078.087 5.195 5.195 0 0 0-.002.002 5.195 5.195 0 0 0-.093.112 5.195 5.195 0 0 0-.06.078 5.195 5.195 0 0 0-.083.107 5.195 5.195 0 0 0-.002.004 5.195 5.195 0 0 0-.064.086l-.004.008a5.195 5.195 0 0 0-.002.002 5.195 5.195 0 0 0-.493.873c-.936 1.527-1.617 3.082-1.972 4.709a5.196 5.196 0 0 0 2.625 5.69c-.553 1.493-.897 2.953-.989 4.372a5.196 5.196 0 0 0-2.609 1.639c-1.77 2.065-4.336 4.197-6.723 5.656-.157-4.37-2.442-8.17-5.798-10.832a5.196 5.196 0 0 0 .728-2.111c.052-.452.108-1.032.108-1.732a5.196 5.196 0 0 0 0-.018c-.004-1.31-.076-2.515-.473-4.002a5.196 5.196 0 0 0-5.608-3.82c-1.893.215-3.876.29-5.828.435a5.196 5.196 0 0 0-3.806-3.888 15.118 15.118 0 0 0-3.719-.446c-.788 0-1.554.048-2.352.18a5.196 5.196 0 0 0-4.302 4.445c-.011.085-.017.166-.028.25-.454-.01-.896-.01-1.359-.021a5.196 5.196 0 0 0-5.15 3.875 5.196 5.196 0 0 0-.108-.43c-.87-2.948-2.03-5.62-3.713-7.89a5.196 5.196 0 0 0-4.31-2.102Zm185.74 3.469a5.196 5.196 0 0 0-.34.011c-5.73.376-11.024.672-15.556.784a5.196 5.196 0 0 0-5.051 4.787c-.037.462-.086 1.073-.086 1.802 0 1.166.098 2.43.357 3.752a5.196 5.196 0 0 0 2.24 3.336c-1.738 1.492-3.483 3.01-5.228 4.366a5.196 5.196 0 0 0-1.424 6.494c1.006 1.939 2.177 3.463 3.766 4.851a5.196 5.196 0 0 0 2.38 1.178c.536 2.391 1.885 4.649 3.833 6.172 2.546 1.991 5.784 2.833 9.29 2.828a5.196 5.196 0 0 0 .003 0c5.092-.009 9.629-1.433 12.96-4.281 3.332-2.848 5.199-7.114 5.194-11.463-.005-3.91-1.629-7.699-4.46-10.223-.965-.859-2.075-1.514-3.237-2.076l.248-.229a5.196 5.196 0 0 0 1.498-5.132c-.422-1.608-.957-3.197-2.246-4.899a5.196 5.196 0 0 0-4.141-2.058Zm-29.91 1.255a5.196 5.196 0 0 0-.256.012 596.16 596.16 0 0 0-28.258 2.705 5.196 5.196 0 0 0-4.512 4.358c-.128.824-.097 1.279-.097 1.535a5.196 5.196 0 0 0 0 .012c.004 1.854.284 3.717 1.017 5.605a5.196 5.196 0 0 0 5.641 3.254c1.438-.223 2.81-.365 4.28-.576-.454 1.554-.729 3.125-.727 4.674a5.196 5.196 0 0 0 0 .004c.007 4.347 1.875 8.755 5.361 11.7 3.486 2.946 8.197 4.496 13.865 4.932a5.196 5.196 0 0 0 4.9-2.588c1.332-2.31 1.645-4.247 1.64-6.638 0-.185.047-.626-.126-1.541a5.196 5.196 0 0 0-4.658-4.213c-3.724-.321-5.636-1.119-6.057-1.418-.419-.298-.17.268-.17-.621 0-1.076.118-1.47.538-2.112.42-.642 1.373-1.627 3.422-2.863 1.176-.707 3.576-1.54 5.466-1.814a5.196 5.196 0 0 0 4.418-4.545c.084-.726.073-1.26.073-1.627 0-1.547-.14-3.058-.743-4.768a5.196 5.196 0 0 0-5.017-3.467Zm-147.973 8.686c-.004.213-.043.474-.043.676 0 .772.054 1.405.092 1.88a5.196 5.196 0 0 0 2.652 4.126c-1.778 1.72-3.209 3.665-4.14 5.843a5.196 5.196 0 0 0-.221-1.72c-.768-2.526-1.864-4.988-3.17-7.315l1.533-.468a5.196 5.196 0 0 0 3.297-3.022zm-307.638.703c.091.03.218.133.308.162l-.267-.097c-.006-.003-.034-.06-.041-.065zm90.41 51.569a5.196 5.196 0 0 0-5.09 4.154l-19.285 94.271a5.196 5.196 0 0 0 5.09 6.237h14.082a5.196 5.196 0 0 0 5.09-4.155l12.183-59.554 23.46 60.394a5.196 5.196 0 0 0 4.845 3.315h17.043a5.196 5.196 0 0 0 1.629-.262 5.196 5.196 0 0 0 1.617.258H307.8a5.196 5.196 0 0 0 4.512-2.617l12.548-21.957h34.168l3.075 20.162a5.196 5.196 0 0 0 5.136 4.412h14.082a5.196 5.196 0 0 0 1.44-.203 5.196 5.196 0 0 0 1.453.207h14.078a5.196 5.196 0 0 0 5.09-4.155l12.183-59.552 23.461 60.392a5.196 5.196 0 0 0 4.844 3.315h17.043a5.196 5.196 0 0 0 5.092-4.155l9.064-44.32 29.57 46.082a5.196 5.196 0 0 0 4.374 2.389h15.818a5.196 5.196 0 0 0 4.51-2.617l12.549-21.957h34.168l3.074 20.162a5.196 5.196 0 0 0 5.137 4.412h14.082a5.196 5.196 0 0 0 1.732-.297 5.196 5.196 0 0 0 1.738.3h14.084a5.196 5.196 0 0 0 5.09-4.154l19.281-94.271a5.196 5.196 0 0 0-5.09-6.236h-14.082a5.196 5.196 0 0 0-5.091 4.154l-15.578 76.166-12.631-75.977a5.196 5.196 0 0 0-5.125-4.343h-18.053a5.196 5.196 0 0 0-4.51 2.617l-42.953 75.152-18.113-28.416 46.375-40.234a5.196 5.196 0 0 0-3.405-9.12H525.12a5.196 5.196 0 0 0-3.44 1.301l-43.18 38.125 6.788-33.19a5.196 5.196 0 0 0-5.09-6.235h-14.084a5.196 5.196 0 0 0-5.09 4.154L449.117 131.1l-22.941-59.057a5.196 5.196 0 0 0-4.842-3.314h-17.838a5.196 5.196 0 0 0-5.09 4.154l-15.26 74.605-12.37-74.416a5.196 5.196 0 0 0-5.126-4.343h-18.052a5.196 5.196 0 0 0-4.51 2.617l-42.83 74.931 14.588-71.312a5.196 5.196 0 0 0-5.092-6.236h-14.082a5.196 5.196 0 0 0-5.09 4.154L278.674 131.1l-22.94-59.057a5.196 5.196 0 0 0-4.841-3.314zm4.24 10.39h10.04l28.046 72.203a5.196 5.196 0 0 0 9.933-.842l14.598-71.36h3.477L286.232 163h-9.248l-28.568-73.543a5.196 5.196 0 0 0-9.934.842L223.612 163h-3.477zm113.318 0h10.633l13.945 83.877h-3.488l-3.074-20.162a5.196 5.196 0 0 0-5.137-4.412h-41.646a5.196 5.196 0 0 0-4.51 2.619l-12.549 21.955h-2.115zm57.123 0h10.041l28.05 72.203a5.196 5.196 0 0 0 9.933-.842l14.594-71.36h3.478L456.674 163h-9.248l-28.569-73.54a5.196 5.196 0 0 0-9.931.84L394.053 163h-3.473zm119.348 0h1.021l-39.25 34.05a5.196 5.196 0 0 0-.976 6.718l25.146 39.449a5.196 5.196 0 0 0 8.891-.213l45.727-80.004h10.634l13.944 83.877h-3.489l-3.074-20.162a5.196 5.196 0 0 0-5.137-4.412h-41.644a5.196 5.196 0 0 0-4.512 2.619l-12.549 21.955h-9.962l-28.85-44.957zm98.262 0h3.476L611.666 163h-3.479zm-270.534 1.785a5.196 5.196 0 0 0-4.601 2.617l-26.117 45.698a5.196 5.196 0 0 0 4.51 7.773h33.087a5.196 5.196 0 0 0 5.135-5.978l-6.969-45.698a5.196 5.196 0 0 0-5.045-4.412zm217.03 0a5.196 5.196 0 0 0-4.6 2.617l-26.119 45.698a5.196 5.196 0 0 0 4.51 7.773h33.088a5.196 5.196 0 0 0 5.136-5.978l-6.968-45.698a5.196 5.196 0 0 0-5.047-4.412zm-220.008 20.717 3.809 24.98h-18.086zm217.031 0 3.809 24.98h-18.086z" style="color:#000;font-style:normal;font-variant:normal;font-weight:400;font-stretch:normal;font-size:medium;font-family:sans-serif;font-variant-ligatures:normal;font-variant-position:normal;font-variant-caps:normal;font-variant-numeric:normal;font-variant-alternates:normal;font-variant-east-asian:normal;font-feature-settings:normal;text-indent:0;text-decoration:none;text-decoration-line:none;text-decoration-style:solid;text-decoration-color:#000;letter-spacing:normal;word-spacing:normal;text-transform:none;writing-mode:lr-tb;direction:ltr;text-orientation:mixed;dominant-baseline:auto;baseline-shift:baseline;text-anchor:start;clip-rule:nonzero;display:inline;overflow:visible;visibility:visible;color-interpolation:sRGB;vector-effect:none;fill:#fff;fill-opacity:1;fill-rule:nonzero;stroke:none;stroke-linecap:round;stroke-linejoin:round;stroke-miterlimit:4;stroke-dasharray:none;stroke-dashoffset:0;stroke-opacity:1;color-rendering:auto;image-rendering:auto;shape-rendering:auto;text-rendering:auto;enable-background:accumulate;stop-color:#000;stop-opacity:1" transform="translate(-.504 1.303)"/><path d="m309.755 73.924-19.282 94.271H273.43L243.573 91.34l-15.721 76.856h-14.083l19.285-94.27h17.838l29.333 75.515 15.447-75.516zm325.432 0h-14.082l-19.282 94.271h14.083zm-169.073 0L450.67 149.44l-29.337-75.516h-17.837l-19.282 94.271h14.08l15.72-76.853 29.857 76.853h17.044l19.282-94.27Zm-102.622 69.694h-41.646l-14.045 24.574H293.72l53.879-94.268h18.052l15.672 94.268H367.24zm-1.801-11.821-6.969-45.698-26.118 45.698zm218.831 11.821h-41.646l-14.045 24.574h-15.818l-32.79-51.098 48.896-43.17h16.902l-49.76 43.17 25.145 39.45 47.222-82.62h18.052l15.672 94.268H584.27zm-1.801-11.821-6.969-45.698-26.118 45.698zM146.569 5.089c-.239-.38-.571-.668-1-.668-.24 0-.576.097-.953.336-3.29 2.057-5.338 5.019-5.33 9.549 0 2.67 1.534 4.624 3.965 4.62 2.1 0 3.53-1.343 3.526-3.442 0-1.524-.862-2.574-2.2-3.097-1.146-.377-1.62-.758-1.62-1.382 0-1.475 1.14-3.051 3.044-4.246.568-.336.807-.624.807-.953 0-.194-.093-.433-.239-.717m18.62 5.24a64.55 64.55 0 0 1-1.534 6.53 80.131 80.131 0 0 1-5.168.152c-.512.004-1.025.004-1.54.004-.112.661-.146 1.357-.143 2.057 0 .696.038 1.354.149 1.978a92.15 92.15 0 0 0 5.427-.153c-1.68 4.731-3.8 9.134-6.106 12.916.918.914 2.387 1.683 3.744 2.047 2.56-4.368 4.863-9.726 6.726-15.264a77.737 77.737 0 0 0 6.197-.78c.034-.405.07-.845.07-1.284 0-.915-.115-1.833-.299-2.563a93.123 93.123 0 0 1-4.728.554 80.542 80.542 0 0 0 1.424-5.466 9.183 9.183 0 0 0-3.633-.765c-.184 0-.402 0-.586.038m22.22 25.454c-3.007-2.162-5.834-3.585-8.66-4.389-.298-2.823-.447-5.535-.454-9.019a12.986 12.986 0 0 0-2.126-.18c-.696 0-1.393.073-2.05.187.041 3.335.19 5.902.412 8.25a27.161 27.161 0 0 0-1.76-.072c-5.39.006-8.101 3.241-8.094 6.244 0 3.634 3.017 5.864 7.27 5.857 4.51-.007 7.183-2.026 7.176-6.023 0-.402-.038-.807-.11-1.281 1.98.876 4.294 2.414 6.13 3.986.987-.921 1.94-2.352 2.265-3.56m-14.63-1.517c.807 0 1.538.069 2.2.214.076.59.11 1.136.114 1.576 0 1.725-1.21 2.75-3.187 2.757-2.42 0-3.266-.765-3.27-2.05 0-1.32 1.171-2.494 4.143-2.497M187.9 20.308c-2.643-2.05-5.982-3.913-8.804-4.977-.807.994-1.43 2.096-1.94 3.308 2.677 1.133 5.982 3.141 8.44 5.157 1.022-.99 1.868-2.348 2.304-3.488m8.725 19.83c1.028.657 2.753 1.243 4.146 1.385 1.828-4.33 3.73-8.036 5.34-10.311 1.5-2.13 3.221-3.197 4.614-3.197 1.576 0 2.313 1.06 2.317 3.772v2.164c.01 5.646 2.106 7.918 6.103 7.911 3.886 0 7.11-2.137 9.705-7.824l-3.267-3.11c-2.23 5.354-4.1 6.532-6.078 6.535-1.285 0-2.054-.803-2.06-4.104v-2.275c-.011-4.877-2.138-7.15-5.588-7.142-1.87.003-3.408.776-4.873 2.133l-.149-.073c1.427-3.228 3.727-8.402 6.252-13.5a11.47 11.47 0 0 0-4.475-1.573zm49.134 1.097c1.354.55 2.639.77 4.107.766 3.336 0 5.206-1.032 6.297-5.03.77-2.753 1.202-6.092 1.195-10.892-.007-4.44-1.697-7.042-6.792-7.031-.55 0-1.136 0-1.797.038.62-2.532 1.201-5.026 1.71-7.52a16.509 16.509 0 0 0-4.474-.765 80.005 80.005 0 0 1-1.711 8.583c-2.456.187-5.095.523-7.624.893a7.512 7.512 0 0 0-.034.953c0 1.174.149 2.31.443 3.262a94.677 94.677 0 0 1 6.086-1c-1.791 5.836-4.056 11.34-6.578 15.669.99.917 2.678 1.61 4.039 1.936 2.74-5.137 5.112-11.482 7.048-18.087a32.77 32.77 0 0 1 2.456-.11c2.237-.008 2.826.726 2.83 3.293.006 4.18-.395 7.37-1.05 9.646-.402 1.354-1.025 1.76-2.272 1.763-1.025.003-2.494-.364-3.813-.838zm16.168-25.47c-1.136.332-2.453 1.066-3.478 1.984 2.9 3.117 5.327 7.88 6.983 12.898 1.614-.332 3.152-1.14 4.104-2.168-1.434-4.728-4.34-9.64-7.61-12.715m27.789 12.905c-1.42 6.311-2.3 6.824-3.107 6.824-.662 0-1.247-.291-2.02-1.791-1.582-3.19-2.285-8.063-2.296-15.067 0-1.25 0-2.826.066-4.547-.73-.111-1.576-.184-2.417-.184-.735 0-1.504.042-2.127.153.017 12.098 1.053 18.589 3.037 22.288 1.729 3.152 3.748 4.066 5.764 4.062 2.899 0 5.206-1.95 6.844-9.14zm10.654-12.337c-1.285.187-2.674.883-3.665 1.732 3.38 4.1 6.103 10.037 7.246 15.756 1.576-.26 3.225-.81 4.326-1.618-1.22-5.76-4.233-11.914-7.907-15.87m29.177 12.279c-1.42 6.31-2.3 6.823-3.107 6.823-.658 0-1.247-.291-2.02-1.79-1.579-3.19-2.282-8.064-2.292-15.067 0-1.25-.007-2.827.065-4.548a16.533 16.533 0 0 0-2.42-.184c-.735 0-1.504.042-2.127.153.017 12.098 1.053 18.589 3.04 22.288 1.73 3.152 3.745 4.066 5.764 4.063 2.896 0 5.202-1.95 6.84-9.14zM340.2 16.273c-1.285.187-2.674.884-3.665 1.732 3.38 4.1 6.103 10.037 7.25 15.756 1.575-.26 3.224-.81 4.322-1.618-1.22-5.76-4.233-11.914-7.907-15.87m23.157 6.387c-2.3 4.659-4.68 8.88-7.02 12.22.66.768 2.019 1.794 3.01 2.306 1.097-1.652 2.524-3.855 4.096-6.203l-.131 11.184c.589.107 1.212.145 1.874.145.803 0 1.648-.076 2.417-.225-.08-4.364-.16-8.506-.166-12.725v-2.785c2.12-2.24 4.72-4.336 7.031-5.66 1.392-.806 2.712-1.177 4.032-1.177 2.31 0 3.706 2.376 3.713 7.62 0 1.14-.032 2.203-.143 3.228a13.062 13.062 0 0 0-4.876-.945c-4.437.007-6.782 2.833-6.775 5.694 0 3.484 2.646 5.57 6.72 5.562 3.591-.003 5.936-1.18 7.585-4.118a28.79 28.79 0 0 1 2.826 2.747c1.136-.7 2.268-1.947 2.82-3.156-1.473-1.465-2.903-2.712-4.334-3.66.253-1.653.437-3.45.433-5.355-.014-7.592-2.365-11.804-7.83-11.797-1.615 0-3.444.481-5.498 1.655-1.943 1.105-3.993 2.72-5.642 4.375.07-3.523.139-7.298.243-10.71a24.186 24.186 0 0 0-2.238-.107c-.623 0-1.247.042-1.87.114l-.059 7.7c-2.13.298-4.18.554-6.272.817-.035.33-.07.697-.07 1.098 0 1.029.15 2.165.444 3.045zm13.878 10.612c1.285 0 2.678.364 4.146 1.168-1.025 2.092-2.528 2.753-4.326 2.757-1.905 0-2.823-.731-2.826-1.867 0-1.063.914-2.054 3.006-2.058M400.92 8.82c-.003-2.67-1.534-4.624-3.966-4.62-2.098.003-3.529 1.34-3.525 3.439 0 1.479.862 2.573 2.199 3.096 1.146.333 1.624.714 1.624 1.334 0 1.478-1.14 3.103-3.044 4.298-.575.332-.81.62-.81.956 0 .19.093.43.238.713.288.381.575.669 1.005.669.235 0 .571-.097.952-.336 3.287-2.058 5.334-5.067 5.327-9.55m19.323 32.714c1.355.547 2.64.765 4.108.765 3.336-.006 5.206-1.035 6.3-5.036.766-2.75 1.199-6.085 1.195-10.892-.007-4.437-1.697-7.035-6.795-7.028-.478 0-1.029 0-1.614.038a206.06 206.06 0 0 0 1.714-7.52c-1.357-.44-3.01-.73-4.475-.765a81.132 81.132 0 0 1-1.71 8.548c-2.422.222-5.06.52-7.627.929-.035.329-.035.658-.035.952 0 1.174.149 2.31.443 3.263a92.283 92.283 0 0 1 6.086-.998c-1.753 5.833-4.056 11.336-6.578 15.666.991.914 2.678 1.61 4.036 1.94 2.743-5.14 5.153-11.524 7.051-18.09.88-.073 1.649-.111 2.272-.115 2.238 0 2.827.73 2.83 3.3.007 4.178-.391 7.368-1.05 9.643-.401 1.358-1.024 1.763-2.271 1.763-1.026 0-2.494-.36-3.814-.838zm15.805-25.471c-1.136.333-2.456 1.067-3.481 1.985 2.902 3.11 5.327 7.876 6.982 12.898 1.614-.333 3.156-1.143 4.105-2.172-1.438-4.727-4.34-9.635-7.606-12.711m-.305-5.684c.994 1.76 1.953 4.032 2.615 6.56l2.677-.96c-.665-2.268-1.77-4.723-2.833-6.337zm4.437-1.326c.956 1.5 2.022 3.993 2.65 6.265l2.638-.807c-.737-2.497-1.766-4.73-2.905-6.269zm32.53 33.908c6.854-1.694 10.331-5.881 10.324-11.347-.007-4.655-2.982-8.097-7.97-9.448.18-.658.364-1.32.548-2.016-.918-.62-2.13-.952-3.342-.949-.18 0-.364 0-.548.038-.183.807-.363 1.614-.585 2.387-.33-.042-.624-.039-.953-.039-1.759 0-3.446.226-5.022.593.035-1.244.104-2.456.177-3.703 4.146-.152 8.361-.45 12.576-.862.038-.33.073-.731.073-1.136-.003-.915-.111-1.978-.298-2.678-3.92.447-7.994.748-12.026.9.146-1.43.326-2.933.544-4.474a10.494 10.494 0 0 0-3.962-.18 81.087 81.087 0 0 0-.506 4.77c-.623.037-1.209.037-1.832.04-1.469 0-2.895-.034-4.326-.069-.11.77-.145 1.58-.145 2.345 0 .516.038.99.076 1.469.99.034 1.977.034 2.968.031.99 0 1.981 0 2.972-.038-.108 1.649-.142 3.263-.177 4.911-5.313 2.5-8.607 7.052-8.6 11.454.007 3.412 2.245 5.608 5.396 5.604 1.836 0 3.228-.447 4.984-1.732.222.846.482 1.653.776 2.421 1.282-.076 2.823-.48 3.96-1.07a49.873 49.873 0 0 1-1.179-3.848c3.26-2.83 5.64-6.681 7.243-10.681 3.595.872 4.918 3.145 4.922 5.933.007 3.63-2.266 6.127-8.275 7.713zm-11.354-15.347c.114 2.456.336 4.915.78 7.298-1.722 1.285-2.893 1.614-3.922 1.617-.88 0-1.503-.585-1.506-1.94-.003-2.42 1.718-5.101 4.648-6.975m4.333 4.357c-.295-1.978-.444-3.92-.52-5.974 1.427-.478 3.114-.738 4.728-.742-1.025 2.46-2.414 4.77-4.208 6.716m33.122-3.09c-2.234 2.605-5.202 5.068-8.133 6.83.478 1.431 1.327 2.789 2.39 3.738 2.858-1.836 5.899-4.444 7.946-6.941zm2.178 12.099c1.323.398 2.9.582 4.624.578 4.582-.007 7.146-2.577 7.139-6.795-.003-2.123-.96-4.579-3.786-6.778-1.618-1.278-2.165-2.085-2.168-3.294 0-1.102.29-2.352.983-3.744-1.136-.842-2.604-1.244-3.851-1.24a10.708 10.708 0 0 0-1.386 5.209c.003 1.794.887 3.702 2.647 5.202 2.202 1.905 2.975 3.405 2.978 4.652 0 1.614-1.17 2.57-3.04 2.573-1.539 0-2.862-.253-4.4-.838zm1.57-29.78a10.73 10.73 0 0 0-1.642 3.706c3.411.766 8.07 2.59 11.156 4.492.803-1.025 1.645-2.528 1.936-3.924-3.304-2.12-8.036-3.765-11.45-4.274m15.793 15.746c-1.14.26-2.455.883-3.519 1.655 2.02 2.563 3.862 6.373 4.963 9.93 1.58-.294 3.045-1.032 3.997-1.95-1.143-3.48-3.238-7.218-5.44-9.635m19.987-4.247c-2.486 4.402-5.157 8.368-7.647 11.527.589.987 1.766 2.012 2.719 2.598 1.61-2.127 3.294-4.368 4.866-6.353l-.128 11.444c.623.107 1.392.146 2.161.146.773 0 1.541-.042 2.13-.153-.08-4.475-.124-9.057-.131-13.677v-1.833c1.94-2.13 4.059-4.004 5.784-5.254 1.905-1.288 3.152-1.801 4.104-1.804.99 0 1.469.512 1.469 1.614.007 4.07-.828 9.937-.825 13.092 0 3.408 1.587 5.351 4.995 5.348 2.2 0 3.851-.447 6.56-1.92l-.776-4.8c-2.563 1.729-3.959 2.058-5.168 2.061-.952 0-1.32-.367-1.323-1.392 0-3.045.908-8.805.9-13.093-.006-3.3-1.877-5.35-5.254-5.347-2.053 0-3.886.814-6.227 2.539-1.503 1.1-2.968 2.424-4.177 3.636.07-3.117.211-6.525.353-10.45a36.891 36.891 0 0 0-2.13-.072c-.769 0-1.503.042-2.123.08l-.062 7.661c-2.276.336-4.586.63-6.675.856-.034.367-.034.768-.034 1.174 0 .88.076 1.87.221 2.708l6.418-.96zm48.934-4.62c-4.8 3.09-6.737 7.273-6.734 11.267.01 6.123 4.565 10.702 14.43 11.46.55-.955.949-2.645.945-4.038 0-.183 0-.402-.034-.585-8.361-.72-10.97-3.173-10.976-7.208-.003-3.63 1.534-6.456 6.476-9.435 2.016-1.212 4.839-2.133 7.402-2.504.038-.329.038-.661.038-1.028 0-1.06-.149-2.196-.447-3.041-9.86.71-19.392 1.641-28.01 2.68-.034.222-.034.478-.034.735.003 1.247.225 2.604.665 3.737a406.702 406.702 0 0 1 16.24-2.186zm33.319 4.977 8.936-8.264c-.298-1.136-.776-2.307-1.361-3.08-5.76.378-11.111.68-15.77.794-.034.44-.07.918-.07 1.396 0 .88.074 1.797.26 2.75 3.741-.153 6.633-.343 9.827-.637l.038.107c-4.101 4.482-9.56 9.293-14.762 13.335.627 1.208 1.694 2.563 2.574 3.332 1.427-1.14 2.968-2.28 4.25-3.232 3.04-2.279 6.487-3.422 10.19-3.425 3.993-.007 6.348 2.227 6.348 4.977 0 2.895-1.68 4.88-3.803 5.763-1.143-3.886-3.897-6.155-7.745-6.151-3.266.007-5.35 2.466-5.35 4.922.006 3.446 2.87 6.047 8.187 6.04 8.285-.014 12.975-4.565 12.968-10.543-.007-5.21-3.938-8.794-9.951-8.787-1.58 0-3.083.225-4.693.814zm-1.011 11.076c1.686 0 3.19 1.278 3.82 3.734-.333.076-.845.111-1.396.114-2.677.004-4.142-1.021-4.146-2.268 0-.918.658-1.58 1.722-1.58" style="color:#000;font-style:normal;font-variant:normal;font-weight:400;font-stretch:normal;font-size:medium;font-family:sans-serif;font-variant-ligatures:normal;font-variant-position:normal;font-variant-caps:normal;font-variant-numeric:normal;font-variant-alternates:normal;font-variant-east-asian:normal;font-feature-settings:normal;text-indent:0;text-decoration:none;text-decoration-line:none;text-decoration-style:solid;text-decoration-color:#000;letter-spacing:normal;word-spacing:normal;text-transform:none;writing-mode:lr-tb;direction:ltr;text-orientation:mixed;dominant-baseline:auto;baseline-shift:baseline;text-anchor:start;clip-rule:nonzero;display:inline;overflow:visible;visibility:visible;color-interpolation:sRGB;vector-effect:none;fill:#000;fill-opacity:1;fill-rule:nonzero;stroke:none;stroke-width:10.3907;stroke-linecap:round;stroke-linejoin:round;stroke-miterlimit:4;stroke-dasharray:none;stroke-dashoffset:0;stroke-opacity:1;color-rendering:auto;image-rendering:auto;shape-rendering:auto;text-rendering:auto;enable-background:accumulate;stop-color:#000;stop-opacity:1" transform="translate(-.504 1.303)"/></g></svg>