<svg xmlns="http://www.w3.org/2000/svg" width="900" height="250" viewBox="0 0.025 900 250"><path d="M149.404 67.835c-9.788 0-19.076 1.468-27.88 4.893-14.681 5.384-27.395 14.182-37.183 25.923-11.745 14.68-19.076 32.778-19.076 52.837 0 20.055 7.34 38.642 19.076 52.829 2.936.489 6.362.978 9.298.978 10.277 0 19.565-2.946 27.88-7.84-15.66-9.288-25.927-26.406-25.927-45.976s10.277-36.694 25.922-45.987c8.31-4.894 17.603-7.83 27.875-7.83 3.425 0 6.362.49 9.298.979 25.433 4.404 44.514 26.426 44.514 52.843 0 26.406-19.076 48.423-44.519 52.828-9.787 11.725-22.501 21.023-37.173 25.917 8.8 2.936 18.092 4.894 27.875 4.894 45.982 0 83.649-37.667 83.649-83.644 0-46.476-37.672-83.66-83.654-83.66z" style="color:#000;font-style:normal;font-variant:normal;font-weight:400;font-stretch:normal;font-size:medium;font-family:sans-serif;font-variant-ligatures:normal;font-variant-position:normal;font-variant-caps:normal;font-variant-numeric:normal;font-variant-alternates:normal;font-variant-east-asian:normal;font-feature-settings:normal;text-indent:0;text-decoration:none;text-decoration-line:none;text-decoration-style:solid;text-decoration-color:#000;letter-spacing:normal;word-spacing:normal;text-transform:none;writing-mode:lr-tb;direction:ltr;text-orientation:mixed;dominant-baseline:auto;baseline-shift:baseline;text-anchor:start;clip-rule:nonzero;display:inline;overflow:visible;visibility:visible;color-interpolation:sRGB;vector-effect:none;fill:#36c;fill-opacity:1;fill-rule:nonzero;stroke-width:4.89376;stroke-linecap:butt;stroke-linejoin:miter;stroke-miterlimit:4;stroke-dasharray:none;stroke-dashoffset:0;stroke-opacity:1;color-rendering:auto;image-rendering:auto;shape-rendering:auto;text-rendering:auto;enable-background:accumulate;stop-color:#000;stop-opacity:1;stroke:none;opacity:1"/><path d="M158.697 98.161c-2.936-.49-6.362-.979-9.298-.979-10.267 0-19.56 2.937-27.875 7.83 15.645 9.299 25.922 26.417 25.922 45.982 0 19.565-10.277 36.684-25.927 45.982-8.32 4.894-17.618 7.83-27.895 7.83-3.415 0-6.352-.49-9.288-.979-25.438-4.404-44.513-26.416-44.513-52.833 0-26.416 19.075-48.428 44.513-52.833 9.788-11.735 22.502-21.033 37.178-25.922-8.809-2.936-18.107-4.894-27.894-4.894-45.958.49-83.62 37.682-83.62 84.153 0 45.977 37.662 83.644 83.634 83.644 9.788 0 19.086-1.468 27.895-4.893 14.671-5.384 27.385-14.192 37.168-25.923 11.745-14.68 19.076-32.773 19.076-52.828-.49-20.064-7.341-38.66-19.076-53.332z" style="color:#000;font-style:normal;font-variant:normal;font-weight:400;font-stretch:normal;font-size:medium;font-family:sans-serif;font-variant-ligatures:normal;font-variant-position:normal;font-variant-caps:normal;font-variant-numeric:normal;font-variant-alternates:normal;font-variant-east-asian:normal;font-feature-settings:normal;text-indent:0;text-decoration:none;text-decoration-line:none;text-decoration-style:solid;text-decoration-color:#000;letter-spacing:normal;word-spacing:normal;text-transform:none;writing-mode:lr-tb;direction:ltr;text-orientation:mixed;dominant-baseline:auto;baseline-shift:baseline;text-anchor:start;clip-rule:nonzero;display:inline;overflow:visible;visibility:visible;color-interpolation:sRGB;vector-effect:none;fill:#6cf;fill-opacity:1;fill-rule:nonzero;stroke-width:4.89376;stroke-linecap:butt;stroke-linejoin:miter;stroke-miterlimit:4;stroke-dasharray:none;stroke-dashoffset:0;stroke-opacity:1;color-rendering:auto;image-rendering:auto;shape-rendering:auto;text-rendering:auto;enable-background:accumulate;stop-color:#000;stop-opacity:1;stroke:none;opacity:1"/><path d="M193.922 20.385c-2.936-7.83-24.948-7.34-48.918 1.957-9.298 3.426-17.128 7.34-23.48 11.735-6.362-4.404-14.681-8.319-23.49-11.735-23.965-8.808-45.977-9.787-48.913-1.957-2.937 7.83 14.182 21.523 38.151 30.816 13.214 4.893 26.916 7.34 34.247 7.34 7.33 0 22.012-2.936 34.242-7.34 23.979-8.8 41.092-22.986 38.161-30.811z" style="color:#000;font-style:normal;font-variant:normal;font-weight:400;font-stretch:normal;font-size:medium;font-family:sans-serif;font-variant-ligatures:normal;font-variant-position:normal;font-variant-caps:normal;font-variant-numeric:normal;font-variant-alternates:normal;font-variant-east-asian:normal;font-feature-settings:normal;text-indent:0;text-decoration:none;text-decoration-line:none;text-decoration-style:solid;text-decoration-color:#000;letter-spacing:normal;word-spacing:normal;text-transform:none;writing-mode:lr-tb;direction:ltr;text-orientation:mixed;dominant-baseline:auto;baseline-shift:baseline;text-anchor:start;clip-rule:nonzero;display:inline;overflow:visible;visibility:visible;color-interpolation:sRGB;vector-effect:none;fill:#3c6;fill-opacity:1;fill-rule:nonzero;stroke-width:4.89376;stroke-linecap:butt;stroke-linejoin:miter;stroke-miterlimit:4;stroke-dasharray:none;stroke-dashoffset:0;stroke-opacity:1;color-rendering:auto;image-rendering:auto;shape-rendering:auto;text-rendering:auto;enable-background:accumulate;stop-color:#000;stop-opacity:1;stroke:none;opacity:1"/><g fill="#36c"><path d="M89.45 14.638h14.594v3.298H89.45Z" style="color:#000;font-style:normal;font-variant:normal;font-weight:400;font-stretch:normal;font-size:medium;font-family:sans-serif;font-variant-ligatures:normal;font-variant-position:normal;font-variant-caps:normal;font-variant-numeric:normal;font-variant-alternates:normal;font-variant-east-asian:normal;font-feature-settings:normal;text-indent:0;text-decoration:none;text-decoration-line:none;text-decoration-style:solid;text-decoration-color:#000;letter-spacing:normal;word-spacing:normal;text-transform:none;writing-mode:lr-tb;direction:ltr;text-orientation:mixed;dominant-baseline:auto;baseline-shift:baseline;text-anchor:start;clip-rule:nonzero;display:inline;overflow:visible;visibility:visible;color-interpolation:sRGB;vector-effect:none;fill:#36c;fill-opacity:1;fill-rule:nonzero;stroke-width:1;stroke-linecap:butt;stroke-linejoin:miter;stroke-miterlimit:4;stroke-dasharray:none;stroke-dashoffset:0;stroke-opacity:1;color-rendering:auto;image-rendering:auto;shape-rendering:auto;text-rendering:auto;enable-background:accumulate;stop-color:#000;stop-opacity:1;stroke:none;opacity:1" transform="matrix(4.89376 0 0 4.89376 9.56 14.786)"/><path d="M109.84 23.634h5.1v-3.298h-5.198V14.64h-3.4v5.696H87.65v3.298h8.196V36.23c-1 .1-2 .2-2.897.2v-9.797h-3.4v9.996c-.7 0-1.3.1-1.9.1v3.598c5.1-.1 14.395-.9 18.293-2.2V34.83c-1.5.4-3.998.7-6.6 1v-5.3h5.1v-3.497h-5.1v-3.5h6.998c.402 11.996 3 15.994 8.897 17.493v-3.598c-3.397-1.2-5.097-3.997-5.396-13.794zm-53.675-5.697h7.796v2.9h-2.997c-3.798 0-4.798 1.498-4.798 4.397v15.194h26.49V25.233c0-2.9-1.2-4.398-4.8-4.398h-3.5v-2.9h8.298V14.64H56.165v3.3zm5.297 6.198h2.5v2.3c0 2.897-2.4 4.196-4.198 4.797v-5.497c0-1.1.4-1.6 1.698-1.6zm-1.7 12.993V34.53c4.4-1.1 7.697-4.2 7.697-8.197v-2.198h3.498v5.697c0 2.298.9 3.398 3 3.398h5.097v3.897H59.763Zm17.593-12.993c1.2 0 1.7.5 1.7 1.6v4.198h-3.5c-.898 0-1.1-.1-1.1-1v-4.698h2.9zm-6.397-3.3h-3.5v-2.9h3.5z" style="color:#000;font-style:normal;font-variant:normal;font-weight:400;font-stretch:normal;font-size:medium;font-family:sans-serif;font-variant-ligatures:normal;font-variant-position:normal;font-variant-caps:normal;font-variant-numeric:normal;font-variant-alternates:normal;font-variant-east-asian:normal;font-feature-settings:normal;text-indent:0;text-decoration:none;text-decoration-line:none;text-decoration-style:solid;text-decoration-color:#000;letter-spacing:normal;word-spacing:normal;text-transform:none;writing-mode:lr-tb;direction:ltr;text-orientation:mixed;dominant-baseline:auto;baseline-shift:baseline;text-anchor:start;clip-rule:nonzero;display:inline;overflow:visible;visibility:visible;color-interpolation:sRGB;vector-effect:none;fill:#36c;fill-opacity:1;fill-rule:nonzero;stroke-width:1;stroke-linecap:butt;stroke-linejoin:miter;stroke-miterlimit:4;stroke-dasharray:none;stroke-dashoffset:0;stroke-opacity:1;color-rendering:auto;image-rendering:auto;shape-rendering:auto;text-rendering:auto;enable-background:accumulate;stop-color:#000;stop-opacity:1;stroke:none;opacity:1" transform="matrix(4.89376 0 0 4.89376 9.56 14.786)"/><path d="M112.14 14.638h2.8v4.298h-2.8zm10.895 16.192h-2.5l.6 4.4h2.5m18.292-5.998h5.398v-3.198h-5.7v-4.1h5.2v-3.2h-5.2v-4.497h-3.196v4.498h-1.7c.1-.8.2-1.6.2-2.5v-1.298h-3.2v1.3c0 3.597-.298 4.397-1.398 5.097v3.5c1.7-.3 2.9-1.3 3.6-2.9h2.6v4h-5.7v3.196h5.298c-.8 3.998-2.798 7.098-5.298 7.996v3.6c3.4-.9 5.898-3.998 7.397-7.696 1.397 3.698 3.897 6.897 7.395 7.696v-3.6c-2.7-.897-5-4.095-5.698-7.894zm-13.394 5.998h2.598l.6-4.4h-2.498" style="color:#000;font-style:normal;font-variant:normal;font-weight:400;font-stretch:normal;font-size:medium;font-family:sans-serif;font-variant-ligatures:normal;font-variant-position:normal;font-variant-caps:normal;font-variant-numeric:normal;font-variant-alternates:normal;font-variant-east-asian:normal;font-feature-settings:normal;text-indent:0;text-decoration:none;text-decoration-line:none;text-decoration-style:solid;text-decoration-color:#000;letter-spacing:normal;word-spacing:normal;text-transform:none;writing-mode:lr-tb;direction:ltr;text-orientation:mixed;dominant-baseline:auto;baseline-shift:baseline;text-anchor:start;clip-rule:nonzero;display:inline;overflow:visible;visibility:visible;color-interpolation:sRGB;vector-effect:none;fill:#36c;fill-opacity:1;fill-rule:nonzero;stroke-width:1;stroke-linecap:butt;stroke-linejoin:miter;stroke-miterlimit:4;stroke-dasharray:none;stroke-dashoffset:0;stroke-opacity:1;color-rendering:auto;image-rendering:auto;shape-rendering:auto;text-rendering:auto;enable-background:accumulate;stop-color:#000;stop-opacity:1;stroke:none;opacity:1" transform="matrix(4.89376 0 0 4.89376 9.56 14.786)"/><path d="M129.933 16.038c-1-1.8-1.7-1.9-3.498-1.9-1.8 0-2.5.1-3.5 1.9-.6 1.2-1.6 2-2.8 2.5v3.698c.602-.2 1.2-.4 1.8-.7v2.2h2.7v2.3h-4.1v3.198h4.1v7.697c-1.4.1-2.8.1-4.1.1v3.5c4 0 8.198-.4 11.397-.9v-3.2c-1.3.2-2.7.3-4.198.4V29.33h3.998v-3.298h-3.998v-2.2h2.7v-2.8c.498.3.998.5 1.598.6v-3.498c-1-.3-1.6-1-2.1-2.098zm-6.497 4.597c.898-.7 1.6-1.5 2-2.3.3-.6.498-.898 1-.898.598 0 .697.3.998.9.398.7 1.2 1.6 2.198 2.298zm52.477-4.097 1.398-2.3h-3.897l-1.3 2.3h-4.498l-1.3-2.3h-3.897l1.4 2.3h-3.5v2.898h7.497l-.898 1.6h-.9c-3.798 0-4.598 1.398-4.598 4.297V35.53h17.09V25.232c0-2.9-.998-4.298-4.596-4.298h-3.5l.9-1.6h8.396v-2.898h-3.798v.1zm-11.097 10.794h10.495v1.8h-10.494v-1.8zm0 5.6v-1.9h10.495v1.9h-10.494zm10.496-8.098v.4h-10.495v-.4c0-1.1.5-1.4 1.7-1.4h6.996c1.3.1 1.8.4 1.8 1.4zm-16.492-8.296-6.198-1.9v3.398l6.197 1.9" style="color:#000;font-style:normal;font-variant:normal;font-weight:400;font-stretch:normal;font-size:medium;font-family:sans-serif;font-variant-ligatures:normal;font-variant-position:normal;font-variant-caps:normal;font-variant-numeric:normal;font-variant-alternates:normal;font-variant-east-asian:normal;font-feature-settings:normal;text-indent:0;text-decoration:none;text-decoration-line:none;text-decoration-style:solid;text-decoration-color:#000;letter-spacing:normal;word-spacing:normal;text-transform:none;writing-mode:lr-tb;direction:ltr;text-orientation:mixed;dominant-baseline:auto;baseline-shift:baseline;text-anchor:start;clip-rule:nonzero;display:inline;overflow:visible;visibility:visible;color-interpolation:sRGB;vector-effect:none;fill:#36c;fill-opacity:1;fill-rule:nonzero;stroke-width:1;stroke-linecap:butt;stroke-linejoin:miter;stroke-miterlimit:4;stroke-dasharray:none;stroke-dashoffset:0;stroke-opacity:1;color-rendering:auto;image-rendering:auto;shape-rendering:auto;text-rendering:auto;enable-background:accumulate;stop-color:#000;stop-opacity:1;stroke:none;opacity:1" transform="matrix(4.89376 0 0 4.89376 9.56 14.786)"/><path d="M158.92 32.43v-8.897h-6.197v3.3h2.897v6.497c-.2 1.5-.898 3.3-2.897 3.798v3.6c2.2-.5 3.798-1.7 4.797-3.5 1.1 1.8 3.4 3.2 8.197 3.2h14.194v-3.3h-13.894c-5.597.1-7.096-1.6-7.096-4.697z" style="color:#000;font-style:normal;font-variant:normal;font-weight:400;font-stretch:normal;font-size:medium;font-family:sans-serif;font-variant-ligatures:normal;font-variant-position:normal;font-variant-caps:normal;font-variant-numeric:normal;font-variant-alternates:normal;font-variant-east-asian:normal;font-feature-settings:normal;text-indent:0;text-decoration:none;text-decoration-line:none;text-decoration-style:solid;text-decoration-color:#000;letter-spacing:normal;word-spacing:normal;text-transform:none;writing-mode:lr-tb;direction:ltr;text-orientation:mixed;dominant-baseline:auto;baseline-shift:baseline;text-anchor:start;clip-rule:nonzero;display:inline;overflow:visible;visibility:visible;color-interpolation:sRGB;vector-effect:none;fill:#36c;fill-opacity:1;fill-rule:nonzero;stroke-width:1;stroke-linecap:butt;stroke-linejoin:miter;stroke-miterlimit:4;stroke-dasharray:none;stroke-dashoffset:0;stroke-opacity:1;color-rendering:auto;image-rendering:auto;shape-rendering:auto;text-rendering:auto;enable-background:accumulate;stop-color:#000;stop-opacity:1;stroke:none;opacity:1" transform="matrix(4.89376 0 0 4.89376 9.56 14.786)"/></g></svg>