<svg xmlns="http://www.w3.org/2000/svg" xml:space="preserve" width="1500" height="335.59" x="0px" y="0px" viewBox="0 0 1500 335.58998"><g style="opacity:1"><path d="M640.43 114.043c-26.43 0-47.925 3.394-63.555 14.773-15.63 11.38-23.605 30.578-23.605 57.131 0 26.548 7.977 45.744 23.607 57.121 15.63 11.378 37.123 14.774 63.553 14.774 26.416 0 47.906-3.397 63.535-14.774 15.629-11.376 23.61-30.573 23.61-57.12 0-26.555-7.981-45.753-23.61-57.132-15.63-11.378-37.118-14.773-63.535-14.773zm0 15c25.047 0 43.379 3.653 54.707 11.9 11.328 8.248 17.437 21.251 17.437 45.004 0 23.746-6.11 36.748-17.437 44.994-11.328 8.247-29.66 11.9-54.707 11.9-25.06 0-43.397-3.654-54.725-11.9-11.328-8.245-17.435-21.247-17.435-44.994 0-23.753 6.107-36.757 17.435-45.004s29.664-11.9 54.725-11.9zm0 .783c-15.332 0-27.673 4.86-34.866 15.053-7.192 10.193-9.19 23.836-9.19 41.068 0 17.206 1.998 30.841 9.19 41.03 7.193 10.188 19.533 15.048 34.866 15.048 15.332 0 27.666-4.863 34.851-15.052 7.108-10.08 9.115-23.556 9.158-40.496a7.5 7.5 0 0 0 .018-.53 7.5 7.5 0 0 0-.018-.51c-.04-16.976-2.045-30.465-9.156-40.554-7.185-10.195-19.522-15.057-34.853-15.057zm0 15c12.559 0 18.485 2.87 22.591 8.697 4.107 5.827 6.436 16.497 6.436 32.424 0 15.898-2.327 26.557-6.434 32.381-4.106 5.824-10.035 8.697-22.593 8.697-12.559 0-18.5-2.876-22.612-8.7-4.112-5.826-6.445-16.481-6.445-32.378 0-15.925 2.335-26.591 6.447-32.42 4.113-5.828 10.05-8.7 22.61-8.7z" style="color:#000;font-style:normal;font-variant:normal;font-weight:400;font-stretch:normal;font-size:medium;font-family:sans-serif;font-variant-ligatures:normal;font-variant-position:normal;font-variant-caps:normal;font-variant-numeric:normal;font-variant-alternates:normal;font-variant-east-asian:normal;font-feature-settings:normal;text-indent:0;text-decoration:none;text-decoration-line:none;text-decoration-style:solid;text-decoration-color:#000;letter-spacing:normal;word-spacing:normal;text-transform:none;writing-mode:lr-tb;direction:ltr;text-orientation:mixed;dominant-baseline:auto;baseline-shift:baseline;text-anchor:start;clip-rule:nonzero;display:inline;overflow:visible;visibility:visible;color-interpolation:sRGB;vector-effect:none;fill:#fff;fill-opacity:1;fill-rule:nonzero;stroke:none;stroke-linecap:round;stroke-linejoin:round;stroke-miterlimit:4;stroke-dasharray:none;stroke-dashoffset:0;stroke-opacity:1;color-rendering:auto;image-rendering:auto;shape-rendering:auto;text-rendering:auto;enable-background:accumulate;stop-color:#000;stop-opacity:1" transform="matrix(.99326 0 0 .99326 0 0)"/><path d="M676.958 185.948c0-33.157-8.638-48.622-36.529-48.622-27.891 0-36.556 15.465-36.556 48.622 0 33.102 8.665 48.578 36.556 48.578s36.529-15.477 36.529-48.578m43.117 0c0 50.294-28.183 64.393-79.646 64.393-51.49 0-79.66-14.099-79.66-64.393 0-50.307 28.17-64.406 79.66-64.406 51.464 0 79.646 14.099 79.646 64.406z" style="color:#000;font-style:normal;font-variant:normal;font-weight:400;font-stretch:normal;font-size:medium;font-family:sans-serif;font-variant-ligatures:normal;font-variant-position:normal;font-variant-caps:normal;font-variant-numeric:normal;font-variant-alternates:normal;font-variant-east-asian:normal;font-feature-settings:normal;text-indent:0;text-decoration:none;text-decoration-line:none;text-decoration-style:solid;text-decoration-color:#000;letter-spacing:normal;word-spacing:normal;text-transform:none;writing-mode:lr-tb;direction:ltr;text-orientation:mixed;dominant-baseline:auto;baseline-shift:baseline;text-anchor:start;clip-rule:nonzero;display:inline;overflow:visible;visibility:visible;color-interpolation:sRGB;vector-effect:none;fill:#404848;fill-opacity:1;fill-rule:nonzero;stroke:none;stroke-width:15;stroke-linecap:round;stroke-linejoin:round;stroke-miterlimit:4;stroke-dasharray:none;stroke-dashoffset:0;stroke-opacity:1;color-rendering:auto;image-rendering:auto;shape-rendering:auto;text-rendering:auto;enable-background:accumulate;stop-color:#000;stop-opacity:1" transform="matrix(.99326 0 0 .99326 0 0)"/></g><g style="opacity:1"><path d="M472.498 114.03c-23.925 0-42.642 2.927-56.336 9.624-13.694 6.697-22.326 18.589-22.326 32.672 0 13.993 8.66 24.736 19.545 31.766 10.885 7.03 24.36 11.449 37.531 15.039 14.666 4.018 27.575 7.001 36.129 9.973 4.278 1.485 7.434 3.033 8.898 4.123 1.465 1.09.95.807.95.566 0 1.64-.129 2.068-3.418 3.816-3.29 1.749-9.35 3.392-16.934 4.475a7.5 7.5 0 0 0-.014.002c-17.024 2.463-45.907-.383-69.31-7.072a7.5 7.5 0 0 0-9.56 7.21v16.538a7.5 7.5 0 0 0 5.599 7.254c19.31 5.058 41.994 7.826 64.773 7.826 9.492 0 29.192-.687 47.463-5.936 9.136-2.624 17.996-6.359 25.055-12.351 7.06-5.993 12.15-14.82 12.15-25.324 0-13.144-7.317-23.726-17.369-30.846-10.052-7.12-22.889-11.765-36.762-15.725a7.5 7.5 0 0 0-.004 0c-13.749-3.919-27.467-6.99-37.173-10.193-4.853-1.601-8.692-3.302-10.678-4.633-.957-.642-1.286-.948-1.412-1.053-.066-1.296-.273-1.442 2.902-2.867 3.534-1.585 11.437-3.084 24.215-3.084 17.196 0 37.36 2.437 54.309 7.277a7.5 7.5 0 0 0 9.558-7.212v-16.551a7.5 7.5 0 0 0-5.58-7.25c-19.86-5.257-41.204-8.065-62.201-8.065zm0 15c17.72 0 35.783 2.257 52.781 6.283v1.062c-16.141-3.673-33.372-5.545-48.867-5.545-13.79 0-23.207 1.192-30.355 4.399s-11.791 10.286-11.791 16.894c0 5.93 4.02 10.444 8.09 13.172 4.069 2.728 8.865 4.613 14.33 6.416 10.929 3.606 24.578 6.616 37.757 10.373 13.169 3.759 24.679 8.205 32.211 13.541 7.533 5.336 11.04 10.574 11.04 18.605 0 6.047-2.285 10.007-6.858 13.89-4.573 3.88-11.604 7.105-19.49 9.37-15.774 4.532-34.658 5.352-43.32 5.352-19.4 0-38.697-2.259-55.374-6.092v-1.045c22.716 5.415 47.233 7.795 65.403 5.29a7.5 7.5 0 0 0 .601-.061l.014-.002a7.5 7.5 0 0 0 .68-.131 7.5 7.5 0 0 0 .011-.004c8.097-1.191 15.226-2.792 21.15-5.942 6.108-3.246 11.378-9.534 11.378-17.062 0-5.312-3.332-9.875-6.996-12.602-3.665-2.726-7.954-4.529-12.93-6.258-9.953-3.456-22.792-6.351-37.098-10.271a7.5 7.5 0 0 0-.01-.004c-12.588-3.43-24.889-7.711-33.338-13.168-8.449-5.457-12.681-10.988-12.681-19.164 0-8.679 3.668-14.186 13.916-19.197 10.247-5.012 27.113-8.1 49.746-8.1z" style="color:#000;font-style:normal;font-variant:normal;font-weight:400;font-stretch:normal;font-size:medium;font-family:sans-serif;font-variant-ligatures:normal;font-variant-position:normal;font-variant-caps:normal;font-variant-numeric:normal;font-variant-alternates:normal;font-variant-east-asian:normal;font-feature-settings:normal;text-indent:0;text-decoration:none;text-decoration-line:none;text-decoration-style:solid;text-decoration-color:#000;letter-spacing:normal;word-spacing:normal;text-transform:none;writing-mode:lr-tb;direction:ltr;text-orientation:mixed;dominant-baseline:auto;baseline-shift:baseline;text-anchor:start;clip-rule:nonzero;display:inline;overflow:visible;visibility:visible;color-interpolation:sRGB;vector-effect:none;fill:#fff;fill-opacity:1;fill-rule:nonzero;stroke:none;stroke-linecap:round;stroke-linejoin:round;stroke-miterlimit:4;stroke-dasharray:none;stroke-dashoffset:0;stroke-opacity:1;color-rendering:auto;image-rendering:auto;shape-rendering:auto;text-rendering:auto;enable-background:accumulate;stop-color:#000;stop-opacity:1" transform="matrix(.99326 0 0 .99326 0 0)"/><path d="M477.597 233.509c15.995-2.284 26.791-6.548 26.791-15.716 0-10.142-22.528-13.959-51.504-21.898-25.76-7.021-51.549-17.4-51.549-39.568 0-22.762 24.605-34.798 71.163-34.798 20.326 0 41.071 2.73 60.282 7.815v16.551c-17.804-5.085-38.478-7.564-56.367-7.564-26.568 0-34.647 5.377-34.647 13.792 0 10.588 27.807 15.073 54.737 22.749 27.041 7.719 48.69 18.183 48.69 39.358 0 33.101-59.013 36.111-77.167 36.111-22.166 0-44.316-2.719-62.874-7.58v-16.537c24.368 6.965 53.554 10.018 72.445 7.285" style="color:#000;font-style:normal;font-variant:normal;font-weight:400;font-stretch:normal;font-size:medium;font-family:sans-serif;font-variant-ligatures:normal;font-variant-position:normal;font-variant-caps:normal;font-variant-numeric:normal;font-variant-alternates:normal;font-variant-east-asian:normal;font-feature-settings:normal;text-indent:0;text-decoration:none;text-decoration-line:none;text-decoration-style:solid;text-decoration-color:#000;letter-spacing:normal;word-spacing:normal;text-transform:none;writing-mode:lr-tb;direction:ltr;text-orientation:mixed;dominant-baseline:auto;baseline-shift:baseline;text-anchor:start;clip-rule:nonzero;display:inline;overflow:visible;visibility:visible;color-interpolation:sRGB;vector-effect:none;fill:#404848;fill-opacity:1;fill-rule:nonzero;stroke:none;stroke-width:15;stroke-linecap:round;stroke-linejoin:round;stroke-miterlimit:4;stroke-dasharray:none;stroke-dashoffset:0;stroke-opacity:1;color-rendering:auto;image-rendering:auto;shape-rendering:auto;text-rendering:auto;enable-background:accumulate;stop-color:#000;stop-opacity:1" transform="matrix(.99326 0 0 .99326 0 0)"/></g><g style="opacity:1"><path d="M1250.799 114.03c-23.927 0-42.645 2.928-56.342 9.624-13.697 6.697-22.334 18.588-22.334 32.672 0 13.992 8.66 24.736 19.549 31.766 10.885 7.027 24.36 11.445 37.54 15.035.002 0 0 0 0 0l.013.004c14.647 4.018 27.557 7.001 36.115 9.973 4.28 1.486 7.44 3.034 8.908 4.125 1.468 1.09.951.81.951.564 0 1.637-.131 2.067-3.421 3.816-3.29 1.75-9.346 3.392-16.916 4.475a7.5 7.5 0 0 0-.01.002 7.5 7.5 0 0 0-.01 0c-17.06 2.463-45.948-.384-69.329-7.072a7.5 7.5 0 0 0-9.562 7.21v16.538a7.5 7.5 0 0 0 5.6 7.254c19.306 5.058 41.98 7.826 64.757 7.826 9.492 0 29.19-.687 47.461-5.936 9.136-2.624 17.996-6.359 25.055-12.351 7.06-5.993 12.15-14.82 12.15-25.324 0-13.144-7.317-23.726-17.37-30.846-10.055-7.12-22.896-11.765-36.776-15.725-13.743-3.919-27.458-6.99-37.162-10.193-4.852-1.601-8.69-3.3-10.676-4.63-.957-.643-1.288-.95-1.414-1.056-.067-1.302-.278-1.443 2.893-2.867 3.527-1.583 11.432-3.084 24.224-3.084 17.225 0 37.39 2.436 54.307 7.276a7.5 7.5 0 0 0 9.562-7.211v-16.551a7.5 7.5 0 0 0-5.578-7.25c-19.838-5.258-41.208-8.065-62.191-8.065zm0 15c17.707 0 35.788 2.258 52.77 6.283v1.06c-16.126-3.672-33.356-5.543-48.87-5.543-13.803 0-23.22 1.19-30.367 4.399-7.147 3.208-11.777 10.295-11.777 16.894 0 5.93 4.018 10.444 8.088 13.172 4.069 2.728 8.866 4.613 14.33 6.416 10.927 3.606 24.573 6.616 37.746 10.373 13.175 3.759 24.688 8.205 32.222 13.541 7.535 5.336 11.04 10.574 11.04 18.605 0 6.047-2.285 10.007-6.858 13.89-4.573 3.88-11.601 7.105-19.488 9.37-15.774 4.532-34.658 5.352-43.32 5.352-19.397 0-38.685-2.259-55.358-6.092v-1.043c22.706 5.414 47.231 7.793 65.422 5.29a7.5 7.5 0 0 0 .61-.063l.011-.002a7.5 7.5 0 0 0 .703-.137c8.079-1.191 15.197-2.792 21.118-5.94 6.105-3.245 11.38-9.53 11.38-17.062 0-5.317-3.336-9.878-7.003-12.604-3.668-2.725-7.958-4.527-12.936-6.255-9.956-3.457-22.794-6.353-37.08-10.272a7.5 7.5 0 0 0-.014-.004c-12.601-3.43-24.908-7.711-33.36-13.168-8.451-5.457-12.685-10.988-12.685-19.164 0-8.677 3.67-14.183 13.922-19.195 10.25-5.012 27.12-8.102 49.754-8.102z" style="color:#000;font-style:normal;font-variant:normal;font-weight:400;font-stretch:normal;font-size:medium;font-family:sans-serif;font-variant-ligatures:normal;font-variant-position:normal;font-variant-caps:normal;font-variant-numeric:normal;font-variant-alternates:normal;font-variant-east-asian:normal;font-feature-settings:normal;text-indent:0;text-decoration:none;text-decoration-line:none;text-decoration-style:solid;text-decoration-color:#000;letter-spacing:normal;word-spacing:normal;text-transform:none;writing-mode:lr-tb;direction:ltr;text-orientation:mixed;dominant-baseline:auto;baseline-shift:baseline;text-anchor:start;clip-rule:nonzero;display:inline;overflow:visible;visibility:visible;color-interpolation:sRGB;vector-effect:none;fill:#fff;fill-opacity:1;fill-rule:nonzero;stroke:none;stroke-linecap:round;stroke-linejoin:round;stroke-miterlimit:4;stroke-dasharray:none;stroke-dashoffset:0;stroke-opacity:1;color-rendering:auto;image-rendering:auto;shape-rendering:auto;text-rendering:auto;enable-background:accumulate;stop-color:#000;stop-opacity:1" transform="matrix(.99326 0 0 .99326 0 0)"/><path d="M1255.926 233.509c15.966-2.284 26.775-6.548 26.775-15.716 0-10.142-22.565-13.959-51.504-21.898-25.787-7.021-51.574-17.4-51.574-39.568 0-22.762 24.615-34.798 71.176-34.798 20.311 0 41.084 2.73 60.269 7.815v16.551c-17.775-5.085-38.451-7.564-56.368-7.564-26.596 0-34.646 5.377-34.646 13.792 0 10.588 27.807 15.073 54.723 22.749 27.056 7.719 48.704 18.183 48.704 39.358 0 33.101-59.013 36.111-77.167 36.111-22.164 0-44.302-2.719-62.857-7.58v-16.537c24.35 6.965 53.548 10.018 72.469 7.285" style="color:#000;font-style:normal;font-variant:normal;font-weight:400;font-stretch:normal;font-size:medium;font-family:sans-serif;font-variant-ligatures:normal;font-variant-position:normal;font-variant-caps:normal;font-variant-numeric:normal;font-variant-alternates:normal;font-variant-east-asian:normal;font-feature-settings:normal;text-indent:0;text-decoration:none;text-decoration-line:none;text-decoration-style:solid;text-decoration-color:#000;letter-spacing:normal;word-spacing:normal;text-transform:none;writing-mode:lr-tb;direction:ltr;text-orientation:mixed;dominant-baseline:auto;baseline-shift:baseline;text-anchor:start;clip-rule:nonzero;display:inline;overflow:visible;visibility:visible;color-interpolation:sRGB;vector-effect:none;fill:#404848;fill-opacity:1;fill-rule:nonzero;stroke:none;stroke-width:15;stroke-linecap:round;stroke-linejoin:round;stroke-miterlimit:4;stroke-dasharray:none;stroke-dashoffset:0;stroke-opacity:1;color-rendering:auto;image-rendering:auto;shape-rendering:auto;text-rendering:auto;enable-background:accumulate;stop-color:#000;stop-opacity:1" transform="matrix(.99326 0 0 .99326 0 0)"/></g><g style="opacity:1"><path d="M935.82 116.842c-21.737 0-38.16.884-50.427 9.586-12.268 8.701-17.118 24.331-17.118 47.287v24.771a7.5 7.5 0 0 0 .012.407 7.5 7.5 0 0 0 .002.052c.067 22.703 4.922 38.195 17.106 46.834 12.268 8.7 28.689 9.58 50.425 9.58h81.04a7.5 7.5 0 0 0 7.5-7.5v-17.552a7.5 7.5 0 0 0-7.5-7.5h-70.424c-12.457 0-17.192-2.037-18.706-3.68-1.513-1.644-2.478-5.979-2.478-14.957v-2.195h83.096a7.5 7.5 0 0 0 7.5-7.5v-18.182a7.5 7.5 0 0 0-7.5-7.5h-83.096v-.732c0-8.987.967-13.333 2.482-14.981 1.516-1.648 6.246-3.686 18.702-3.686h67.164a7.5 7.5 0 0 0 7.5-7.5v-17.552a7.5 7.5 0 0 0-7.5-7.5zm0 15h70.28v2.553h-59.664c-13.891 0-23.502 1.746-29.743 8.53-6.24 6.785-6.441 15.52-6.441 25.136v8.232a7.5 7.5 0 0 0 7.5 7.5h83.096v3.182h-83.096a7.5 7.5 0 0 0-7.5 7.5v9.695c0 9.608.203 18.339 6.445 25.117 6.243 6.779 15.849 8.52 29.739 8.52h62.923v2.552H935.82c-21.105 0-34.706-1.821-41.75-6.816-7.044-4.995-10.795-14.05-10.795-35.057v-24.771c0-20.999 3.752-30.056 10.797-35.053 7.045-4.997 20.644-6.82 41.748-6.82z" style="color:#000;font-style:normal;font-variant:normal;font-weight:400;font-stretch:normal;font-size:medium;font-family:sans-serif;font-variant-ligatures:normal;font-variant-position:normal;font-variant-caps:normal;font-variant-numeric:normal;font-variant-alternates:normal;font-variant-east-asian:normal;font-feature-settings:normal;text-indent:0;text-decoration:none;text-decoration-line:none;text-decoration-style:solid;text-decoration-color:#000;letter-spacing:normal;word-spacing:normal;text-transform:none;writing-mode:lr-tb;direction:ltr;text-orientation:mixed;dominant-baseline:auto;baseline-shift:baseline;text-anchor:start;clip-rule:nonzero;display:inline;overflow:visible;visibility:visible;color-interpolation:sRGB;vector-effect:none;fill:#fff;fill-opacity:1;fill-rule:nonzero;stroke:none;stroke-linecap:round;stroke-linejoin:round;stroke-miterlimit:4;stroke-dasharray:none;stroke-dashoffset:0;stroke-opacity:1;color-rendering:auto;image-rendering:auto;shape-rendering:auto;text-rendering:auto;enable-background:accumulate;stop-color:#000;stop-opacity:1" transform="matrix(.99326 0 0 .99326 0 0)"/><path d="M875.775 198.486c0 43.969 17.204 49.373 60.046 49.373h81.039v-17.553h-70.424c-26.346 0-28.685-7.551-28.685-26.137v-9.695h90.596v-18.182h-90.596v-8.231c0-18.601 2.339-26.166 28.685-26.166h67.163v-17.554h-77.778c-42.842 0-60.046 5.42-60.046 49.374v24.771" style="color:#000;font-style:normal;font-variant:normal;font-weight:400;font-stretch:normal;font-size:medium;font-family:sans-serif;font-variant-ligatures:normal;font-variant-position:normal;font-variant-caps:normal;font-variant-numeric:normal;font-variant-alternates:normal;font-variant-east-asian:normal;font-feature-settings:normal;text-indent:0;text-decoration:none;text-decoration-line:none;text-decoration-style:solid;text-decoration-color:#000;letter-spacing:normal;word-spacing:normal;text-transform:none;writing-mode:lr-tb;direction:ltr;text-orientation:mixed;dominant-baseline:auto;baseline-shift:baseline;text-anchor:start;clip-rule:nonzero;display:inline;overflow:visible;visibility:visible;color-interpolation:sRGB;vector-effect:none;fill:#404848;fill-opacity:1;fill-rule:nonzero;stroke:none;stroke-width:15;stroke-linecap:round;stroke-linejoin:round;stroke-miterlimit:4;stroke-dasharray:none;stroke-dashoffset:0;stroke-opacity:1;color-rendering:auto;image-rendering:auto;shape-rendering:auto;text-rendering:auto;enable-background:accumulate;stop-color:#000;stop-opacity:1" transform="matrix(.99326 0 0 .99326 0 0)"/></g><g style="opacity:1"><path d="M722.516 116.842a7.5 7.5 0 0 0-7.5 7.5v17.902a7.5 7.5 0 0 0 7.5 7.5h43.642V247.86a7.5 7.5 0 0 0 .004.23 7.5 7.5 0 0 0 .027.46 7.5 7.5 0 0 0 .026.228 7.5 7.5 0 0 0 .031.229 7.5 7.5 0 0 0 .084.453 7.5 7.5 0 0 0 .053.225 7.5 7.5 0 0 0 .199.66 7.5 7.5 0 0 0 .258.64 7.5 7.5 0 0 0 .435.813 7.5 7.5 0 0 0 .123.193 7.5 7.5 0 0 0 .131.192 7.5 7.5 0 0 0 .135.185 7.5 7.5 0 0 0 .598.7 7.5 7.5 0 0 0 .33.322 7.5 7.5 0 0 0 .53.443 7.5 7.5 0 0 0 .185.135 7.5 7.5 0 0 0 .19.13 7.5 7.5 0 0 0 .796.464 7.5 7.5 0 0 0 .207.101 7.5 7.5 0 0 0 .209.094 7.5 7.5 0 0 0 .43.168 7.5 7.5 0 0 0 .437.14 7.5 7.5 0 0 0 1.586.278 7.5 7.5 0 0 0 .229.011 7.5 7.5 0 0 0 .267.006h42.059a7.5 7.5 0 0 0 7.5-7.5v-98.115h43.654a7.5 7.5 0 0 0 7.5-7.5v-17.902a7.5 7.5 0 0 0-7.5-7.5zm7.5 15H859.37v2.902h-43.654a7.5 7.5 0 0 0-7.5 7.5v98.115h-27.059v-98.115a7.5 7.5 0 0 0-7.5-7.5h-43.642z" style="color:#000;font-style:normal;font-variant:normal;font-weight:400;font-stretch:normal;font-size:medium;font-family:sans-serif;font-variant-ligatures:normal;font-variant-position:normal;font-variant-caps:normal;font-variant-numeric:normal;font-variant-alternates:normal;font-variant-east-asian:normal;font-feature-settings:normal;text-indent:0;text-decoration:none;text-decoration-line:none;text-decoration-style:solid;text-decoration-color:#000;letter-spacing:normal;word-spacing:normal;text-transform:none;writing-mode:lr-tb;direction:ltr;text-orientation:mixed;dominant-baseline:auto;baseline-shift:baseline;text-anchor:start;clip-rule:nonzero;display:inline;overflow:visible;visibility:visible;color-interpolation:sRGB;vector-effect:none;fill:#fff;fill-opacity:1;fill-rule:nonzero;stroke:none;stroke-linecap:round;stroke-linejoin:round;stroke-miterlimit:4;stroke-dasharray:none;stroke-dashoffset:0;stroke-opacity:1;color-rendering:auto;image-rendering:auto;shape-rendering:auto;text-rendering:auto;enable-background:accumulate;stop-color:#000;stop-opacity:1" transform="matrix(.99326 0 0 .99326 0 0)"/><path d="M773.658 247.859h42.058V142.245h51.156v-17.903H722.515v17.903h51.143v105.614" style="color:#000;font-style:normal;font-variant:normal;font-weight:400;font-stretch:normal;font-size:medium;font-family:sans-serif;font-variant-ligatures:normal;font-variant-position:normal;font-variant-caps:normal;font-variant-numeric:normal;font-variant-alternates:normal;font-variant-east-asian:normal;font-feature-settings:normal;text-indent:0;text-decoration:none;text-decoration-line:none;text-decoration-style:solid;text-decoration-color:#000;letter-spacing:normal;word-spacing:normal;text-transform:none;writing-mode:lr-tb;direction:ltr;text-orientation:mixed;dominant-baseline:auto;baseline-shift:baseline;text-anchor:start;clip-rule:nonzero;display:inline;overflow:visible;visibility:visible;color-interpolation:sRGB;vector-effect:none;fill:#404848;fill-opacity:1;fill-rule:nonzero;stroke:none;stroke-width:15;stroke-linecap:round;stroke-linejoin:round;stroke-miterlimit:4;stroke-dasharray:none;stroke-dashoffset:0;stroke-opacity:1;color-rendering:auto;image-rendering:auto;shape-rendering:auto;text-rendering:auto;enable-background:accumulate;stop-color:#000;stop-opacity:1" transform="matrix(.99326 0 0 .99326 0 0)"/></g><g style="opacity:1"><path d="M1026.795 116.842a7.5 7.5 0 0 0-7.5 7.5v17.902a7.5 7.5 0 0 0 7.5 7.5h43.656V247.86a7.5 7.5 0 0 0 0 .23 7.5 7.5 0 0 0 .027.46 7.5 7.5 0 0 0 .025.228 7.5 7.5 0 0 0 .031.229 7.5 7.5 0 0 0 .084.453 7.5 7.5 0 0 0 .053.225 7.5 7.5 0 0 0 .2.66 7.5 7.5 0 0 0 .257.64 7.5 7.5 0 0 0 .436.813 7.5 7.5 0 0 0 .123.193 7.5 7.5 0 0 0 .13.192 7.5 7.5 0 0 0 .135.185 7.5 7.5 0 0 0 .598.7 7.5 7.5 0 0 0 .33.322 7.5 7.5 0 0 0 .53.443 7.5 7.5 0 0 0 .185.135 7.5 7.5 0 0 0 .19.13 7.5 7.5 0 0 0 .796.464 7.5 7.5 0 0 0 .207.101 7.5 7.5 0 0 0 .21.094 7.5 7.5 0 0 0 .429.168 7.5 7.5 0 0 0 .438.14 7.5 7.5 0 0 0 1.586.278 7.5 7.5 0 0 0 .228.011 7.5 7.5 0 0 0 .268.006h42.058a7.5 7.5 0 0 0 7.5-7.5v-98.115h43.658a7.5 7.5 0 0 0 7.5-7.5v-17.902a7.5 7.5 0 0 0-7.5-7.5zm7.5 15h129.373v2.902h-43.658a7.5 7.5 0 0 0-7.5 7.5v98.115h-27.059v-98.115a7.5 7.5 0 0 0-7.5-7.5h-43.656z" style="color:#000;font-style:normal;font-variant:normal;font-weight:400;font-stretch:normal;font-size:medium;font-family:sans-serif;font-variant-ligatures:normal;font-variant-position:normal;font-variant-caps:normal;font-variant-numeric:normal;font-variant-alternates:normal;font-variant-east-asian:normal;font-feature-settings:normal;text-indent:0;text-decoration:none;text-decoration-line:none;text-decoration-style:solid;text-decoration-color:#000;letter-spacing:normal;word-spacing:normal;text-transform:none;writing-mode:lr-tb;direction:ltr;text-orientation:mixed;dominant-baseline:auto;baseline-shift:baseline;text-anchor:start;clip-rule:nonzero;display:inline;overflow:visible;visibility:visible;color-interpolation:sRGB;vector-effect:none;fill:#fff;fill-opacity:1;fill-rule:nonzero;stroke:none;stroke-linecap:round;stroke-linejoin:round;stroke-miterlimit:4;stroke-dasharray:none;stroke-dashoffset:0;stroke-opacity:1;color-rendering:auto;image-rendering:auto;shape-rendering:auto;text-rendering:auto;enable-background:accumulate;stop-color:#000;stop-opacity:1" transform="matrix(.99326 0 0 .99326 0 0)"/><path d="M1077.951 247.859h42.059V142.245h51.158v-17.903h-144.374v17.903h51.157v105.614" style="color:#000;font-style:normal;font-variant:normal;font-weight:400;font-stretch:normal;font-size:medium;font-family:sans-serif;font-variant-ligatures:normal;font-variant-position:normal;font-variant-caps:normal;font-variant-numeric:normal;font-variant-alternates:normal;font-variant-east-asian:normal;font-feature-settings:normal;text-indent:0;text-decoration:none;text-decoration-line:none;text-decoration-style:solid;text-decoration-color:#000;letter-spacing:normal;word-spacing:normal;text-transform:none;writing-mode:lr-tb;direction:ltr;text-orientation:mixed;dominant-baseline:auto;baseline-shift:baseline;text-anchor:start;clip-rule:nonzero;display:inline;overflow:visible;visibility:visible;color-interpolation:sRGB;vector-effect:none;fill:#404848;fill-opacity:1;fill-rule:nonzero;stroke:none;stroke-width:15;stroke-linecap:round;stroke-linejoin:round;stroke-miterlimit:4;stroke-dasharray:none;stroke-dashoffset:0;stroke-opacity:1;color-rendering:auto;image-rendering:auto;shape-rendering:auto;text-rendering:auto;enable-background:accumulate;stop-color:#000;stop-opacity:1" transform="matrix(.99326 0 0 .99326 0 0)"/></g><g style="opacity:1"><path d="M1349.602 116.842a7.5 7.5 0 0 0-7.5 7.5v71.635c0 21.451 4.424 38.352 18.375 48.615 13.95 10.263 34.586 13.248 65.859 13.248 31.07 0 51.62-2.991 65.521-13.258 13.901-10.267 18.325-27.152 18.325-48.605v-71.635a7.5 7.5 0 0 0-7.5-7.5h-42.149a7.5 7.5 0 0 0-.037 0 7.5 7.5 0 0 0-.228.004 7.5 7.5 0 0 0-.23.01 7.5 7.5 0 0 0-.231.017 7.5 7.5 0 0 0-.229.026 7.5 7.5 0 0 0-.904.168 7.5 7.5 0 0 0-.662.199 7.5 7.5 0 0 0-.43.166 7.5 7.5 0 0 0-.21.092 7.5 7.5 0 0 0-.208.1 7.5 7.5 0 0 0-.205.105 7.5 7.5 0 0 0-1.502 1.058 7.5 7.5 0 0 0-.168.159 7.5 7.5 0 0 0-.164.162 7.5 7.5 0 0 0-.158.168 7.5 7.5 0 0 0-.152.172 7.5 7.5 0 0 0-.149.177 7.5 7.5 0 0 0-.277.366 7.5 7.5 0 0 0-.131.189 7.5 7.5 0 0 0-.125.193 7.5 7.5 0 0 0-.232.399 7.5 7.5 0 0 0-.206.412 7.5 7.5 0 0 0-.094.21 7.5 7.5 0 0 0-.242.647 7.5 7.5 0 0 0-.3 1.346 7.5 7.5 0 0 0-.028.229 7.5 7.5 0 0 0-.033.691 7.5 7.5 0 0 0 0 .035v81.46c0 8.4-1.99 12.839-5.693 15.929-3.702 3.09-10.41 5.256-21.148 5.256-10.953 0-17.662-2.136-21.284-5.16-3.621-3.025-5.572-7.44-5.572-16.026v-81.46a7.5 7.5 0 0 0-7.5-7.5zm7.5 15h27.197V205.8c0 11.254 3.344 21.18 10.959 27.539 7.615 6.359 18.083 8.646 30.896 8.646 12.68 0 23.146-2.384 30.76-8.74 7.614-6.355 11.082-16.257 11.082-27.445v-73.96h27.186v64.136c0 19.59-3.226 29.887-12.235 36.54-9.009 6.654-26.631 10.323-56.611 10.323-30.19 0-47.92-3.674-56.97-10.332-9.051-6.658-12.264-16.94-12.264-36.531z" style="color:#000;font-style:normal;font-variant:normal;font-weight:400;font-stretch:normal;font-size:medium;font-family:sans-serif;font-variant-ligatures:normal;font-variant-position:normal;font-variant-caps:normal;font-variant-numeric:normal;font-variant-alternates:normal;font-variant-east-asian:normal;font-feature-settings:normal;text-indent:0;text-decoration:none;text-decoration-line:none;text-decoration-style:solid;text-decoration-color:#000;letter-spacing:normal;word-spacing:normal;text-transform:none;writing-mode:lr-tb;direction:ltr;text-orientation:mixed;dominant-baseline:auto;baseline-shift:baseline;text-anchor:start;clip-rule:nonzero;display:inline;overflow:visible;visibility:visible;color-interpolation:sRGB;vector-effect:none;fill:#fff;fill-opacity:1;fill-rule:nonzero;stroke:none;stroke-linecap:round;stroke-linejoin:round;stroke-miterlimit:4;stroke-dasharray:none;stroke-dashoffset:0;stroke-opacity:1;color-rendering:auto;image-rendering:auto;shape-rendering:auto;text-rendering:auto;enable-background:accumulate;stop-color:#000;stop-opacity:1" transform="matrix(.99326 0 0 .99326 0 0)"/><path d="M1460.497 124.342V205.8c0 19.589-10.923 28.686-34.342 28.686-23.766 0-34.356-8.846-34.356-28.686v-81.458h-42.197v71.635c0 41.043 15.271 54.363 76.734 54.363 61.05 0 76.345-13.32 76.345-54.363v-71.635h-42.184" style="color:#000;font-style:normal;font-variant:normal;font-weight:400;font-stretch:normal;font-size:medium;font-family:sans-serif;font-variant-ligatures:normal;font-variant-position:normal;font-variant-caps:normal;font-variant-numeric:normal;font-variant-alternates:normal;font-variant-east-asian:normal;font-feature-settings:normal;text-indent:0;text-decoration:none;text-decoration-line:none;text-decoration-style:solid;text-decoration-color:#000;letter-spacing:normal;word-spacing:normal;text-transform:none;writing-mode:lr-tb;direction:ltr;text-orientation:mixed;dominant-baseline:auto;baseline-shift:baseline;text-anchor:start;clip-rule:nonzero;display:inline;overflow:visible;visibility:visible;color-interpolation:sRGB;vector-effect:none;fill:#404848;fill-opacity:1;fill-rule:nonzero;stroke:none;stroke-width:15;stroke-linecap:round;stroke-linejoin:round;stroke-miterlimit:4;stroke-dasharray:none;stroke-dashoffset:0;stroke-opacity:1;color-rendering:auto;image-rendering:auto;shape-rendering:auto;text-rendering:auto;enable-background:accumulate;stop-color:#000;stop-opacity:1" transform="matrix(.99326 0 0 .99326 0 0)"/></g><path d="M214.63 106.496c-43.602-13.105-84.95-27.704-79.954-53.428 6.006-30.898 84.894-22.831 130.504-2.739l.526-.553c-4.87-9.686-10.849-15.18-23.4-20.757-29.35-13.035-61.176-22.292-100.17-26.969-57.26-6.864-100.6 3.515-108.875 31.025-10.586 35.202 39.452 69.934 90.083 87.701 54.768 19.193 112.804 21.283 150.263 41.139 20.273 10.751 29.032 33.474 13.091 61.591l.871.141c16.993-13.314 25.697-27.634 25.184-47.505-.747-28.798-25.847-47.92-98.123-69.646" style="color:#000;font-style:normal;font-variant:normal;font-weight:400;font-stretch:normal;font-size:medium;font-family:sans-serif;font-variant-ligatures:normal;font-variant-position:normal;font-variant-caps:normal;font-variant-numeric:normal;font-variant-alternates:normal;font-variant-east-asian:normal;font-feature-settings:normal;text-indent:0;text-decoration:none;text-decoration-line:none;text-decoration-style:solid;text-decoration-color:#000;letter-spacing:normal;word-spacing:normal;text-transform:none;writing-mode:lr-tb;direction:ltr;text-orientation:mixed;dominant-baseline:auto;baseline-shift:baseline;text-anchor:start;clip-rule:nonzero;display:inline;overflow:visible;visibility:visible;opacity:1;color-interpolation:sRGB;vector-effect:none;fill:#ee7b35;fill-opacity:1;fill-rule:nonzero;stroke:none;stroke-width:.993258;stroke-linecap:butt;stroke-linejoin:miter;stroke-miterlimit:4;stroke-dasharray:none;stroke-dashoffset:0;stroke-opacity:1;color-rendering:auto;image-rendering:auto;shape-rendering:auto;text-rendering:auto;enable-background:accumulate;stop-color:#000;stop-opacity:1"/><path d="M275.697 181.69c-.402 14.615-31.551 38.704-68.58 56.015-52.5 24.521-103.92 25.406-114.784 2.09-10.862-23.29 22.944-62.035 75.485-86.5 11.652-5.424 23.248-9.673 34.359-12.772-7.928-1.647-16.08-3.307-24.312-5.078-21.255 6.365-43.742 15.815-66.117 28.34C32 208.465-15.863 274.595 4.81 311.514c20.687 36.945 102.067 30.663 181.84-13.991a362.386 362.386 0 0 0 23.246-14.197c49.222-32.779 78.06-76.95 66.491-101.664l-.691.027" style="color:#000;font-style:normal;font-variant:normal;font-weight:400;font-stretch:normal;font-size:medium;font-family:sans-serif;font-variant-ligatures:normal;font-variant-position:normal;font-variant-caps:normal;font-variant-numeric:normal;font-variant-alternates:normal;font-variant-east-asian:normal;font-feature-settings:normal;text-indent:0;text-decoration:none;text-decoration-line:none;text-decoration-style:solid;text-decoration-color:#000;letter-spacing:normal;word-spacing:normal;text-transform:none;writing-mode:lr-tb;direction:ltr;text-orientation:mixed;dominant-baseline:auto;baseline-shift:baseline;text-anchor:start;clip-rule:nonzero;display:inline;overflow:visible;visibility:visible;opacity:1;color-interpolation:sRGB;vector-effect:none;fill:#2561a7;fill-opacity:1;fill-rule:nonzero;stroke:none;stroke-width:.993258;stroke-linecap:butt;stroke-linejoin:miter;stroke-miterlimit:4;stroke-dasharray:none;stroke-dashoffset:0;stroke-opacity:1;color-rendering:auto;image-rendering:auto;shape-rendering:auto;text-rendering:auto;enable-background:accumulate;stop-color:#000;stop-opacity:1"/></svg>