<svg xmlns="http://www.w3.org/2000/svg" width="147" height="88"><defs><linearGradient id="a" x1="0" x2="1" y1="0" y2="0" gradientTransform="scale(32.17602 -32.17602) rotate(-70.056 -.493 -4.112)" gradientUnits="userSpaceOnUse"><stop offset="0" style="stop-opacity:0;stop-color:#005bac"/><stop offset="1" style="stop-opacity:1;stop-color:#005bac"/></linearGradient><linearGradient id="b" x1="0" x2="1" y1="0" y2="0" gradientTransform="scale(30.06348) rotate(-90 4.904 .838)" gradientUnits="userSpaceOnUse"><stop offset="0" style="stop-opacity:0;stop-color:#005bac"/><stop offset="1" style="stop-opacity:1;stop-color:#005bac"/></linearGradient><linearGradient id="c" x1="0" x2="1" y1="0" y2="0" gradientTransform="matrix(35.67578 0 0 -35.67578 73.007 131.656)" gradientUnits="userSpaceOnUse"><stop offset="0" style="stop-opacity:0;stop-color:#005bac"/><stop offset="1" style="stop-opacity:1;stop-color:#005bac"/></linearGradient><linearGradient id="d" x1="0" x2="1" y1="0" y2="0" gradientTransform="matrix(-42.92676 0 0 42.92676 170.225 143.088)" gradientUnits="userSpaceOnUse"><stop offset="0" style="stop-opacity:0;stop-color:#005bac"/><stop offset="1" style="stop-opacity:1;stop-color:#005bac"/></linearGradient></defs><g fill="#005bac"><path d="m66.2 42.74-.99 2.722h-7.118l-5.8 15.941H47.58l5.803-15.94h-7.123l.993-2.722h18.947zM78.234 52.298c-1.655 4.554-1.344 6.814.906 6.814 1.596 0 3.876-1.167 6.031-7.085 1.593-4.377 1.8-7.022-.76-7.022-2.315 0-4.215 1.903-6.166 7.264l-.011.029zm-5.063-.193c2.238-6.162 7.277-9.618 12.21-9.618 4.157 0 7.51 2.438 5.014 9.295-2.121 5.83-6.73 9.905-12.27 9.905-5.522 0-6.966-4.052-4.964-9.557l.01-.025zM108.235 50.508c.713 0 1.684.006 2.526-.369.947-.408 1.68-1.25 2.117-2.443.35-.973.263-1.683-.265-2.04-.503-.337-1.304-.354-2.358-.354h-1.206l-1.893 5.206h1.08zm-2.876 8.281c.981 0 1.91 0 2.72-.382 1.063-.458 1.891-1.376 2.365-2.678.405-1.117.332-1.962-.344-2.393-.577-.379-1.449-.404-2.749-.404h-1.078l-2.129 5.857h1.215zm6.431-16.048c2.15 0 3.705.102 4.9.763 1.081.605 1.614 1.772.984 3.504-.913 2.503-3.534 3.975-5.833 4.543.67.113 1.81.337 2.648 1.04.829.708 1.22 1.832.606 3.52-.684 1.877-2.515 3.807-5.307 4.658-1.466.492-3.179.634-5.705.634H98.6l6.794-18.662h6.396zM136.364 42.74l-3.681 10.122c-.884 2.436-1.218 3.491-.96 4.439.268 1.121 1.412 1.489 2.338 1.489.917 0 2.643-.362 3.892-2 .598-.76 1.036-1.625 1.883-3.957l3.677-10.092h3.192l-3.78 10.376c-.521 1.439-2.64 8.569-10.83 8.569-1.897 0-4.881-.585-5.3-3.594-.156-1.154.123-2.349 1.024-4.82l3.834-10.531h4.71z"/></g><path fill="url(#a)" d="m123.721 132.287-10.942-30.061h2.363l10.952 30.061h-2.373z" transform="matrix(1.25 0 0 -1.25 -91.259 215.799)"/><path fill="url(#b)" d="m126.511 172.639-10.966-30.064h2.429l10.967 30.064h-2.43z" transform="matrix(1.25 0 0 -1.25 -91.259 215.799)"/><path fill="url(#c)" d="m73.735 132.673-.728-2.034h34.949l.727 2.034H73.735z" transform="matrix(1.25 0 0 -1.25 -91.259 215.799)"/><path fill="url(#d)" d="m128.022 144.099-.723-2.022h42.214l.712 2.022h-42.203z" transform="matrix(1.25 0 0 -1.25 -91.259 215.799)"/></svg>