<svg xmlns="http://www.w3.org/2000/svg" width="1050" height="280" viewBox="0 0 277.81249 74.083335"><path d="M951.23-221.938a6.697 6.697 0 0 0-6.173 4.102 6.697 6.697 0 0 0-2.924-.674h-16.725a6.697 6.697 0 0 0-6.697 6.697c0 3.8-.231 6.87-.412 10.102-2.23-3.094-5.25-7.404-6.244-8.682l-.006-.006c-1.185-1.527-2.434-3.772-5.166-6.017-2.733-2.246-6.77-3.688-11.377-3.856-3.184-.128-10.053-.168-13.272.045-3.246.202-5.858.6-8.33 1.71-2.476 1.111-4.216 2.785-5.51 4.103-1.215 1.238-1.525 1.805-2.52 3.142a366.945 366.945 0 0 0-3.661 5.045 1684.383 1684.383 0 0 0-9.856 13.965c-6.937 9.916-13.57 19.52-13.57 19.52a6.697 6.697 0 0 0 5.51 10.504h26.992v.562h-20.127a6.697 6.697 0 0 0-6.695 6.697v10.92a6.697 6.697 0 0 0 5.338 6.557 6.697 6.697 0 0 0-1.24 3.88v30.714a6.697 6.697 0 0 0-3 5.584V-85.1a6.697 6.697 0 0 0 6.697 6.696h52.216c2.675 0 6.966-.025 11.334-2.192a6.697 6.697 0 0 0 4.961 2.201H940.9a6.697 6.697 0 0 0 5.783-3.32c6.31-10.81 10.19-20.023 13.1-27.994 3.002 8.72 7.004 18.033 12.537 27.894a6.697 6.697 0 0 0 5.84 3.42h20.35a6.697 6.697 0 0 0 5.73-10.164c-10.063-16.63-16.728-32.612-21.506-48.795h10.873a6.697 6.697 0 0 0 6.698-6.697v-10.92a6.697 6.697 0 0 0-6.698-6.697h-15.812v-17.16h13.885a6.697 6.697 0 0 0 6.697-6.698v-10.492a6.697 6.697 0 0 0-6.697-6.697h-13.885v-12.527a6.697 6.697 0 0 0-6.697-6.696zm-538.609.008a6.697 6.697 0 0 0-6.697 6.698v2.045h-58.815a6.697 6.697 0 0 0-6.697 6.697v11.357a6.697 6.697 0 0 0 6.697 6.698h9.403c-.017.013-.036.021-.053.035-4.216 3.5-6.44 9.149-6.44 15.107v34.065c0 5.958 2.221 11.606 6.436 15.11 4.215 3.502 9.581 4.694 15.111 4.694h.686c-12.577 10.683-25.576 20.037-32.434 24.368a6.697 6.697 0 0 0 3.577 12.357h32.02a6.697 6.697 0 0 0 3.929-1.273c7.596-5.504 17.184-13.639 26.572-22.614v22.37a6.697 6.697 0 0 0 6.697 6.697h20.973a6.697 6.697 0 0 0 6.697-6.698v-22.373c9.389 8.976 18.975 17.112 26.573 22.618a6.697 6.697 0 0 0 3.93 1.273h32.019a6.697 6.697 0 0 0 4.49-1.73 6.697 6.697 0 0 0 .096.084 6.697 6.697 0 0 0 .021.02 6.697 6.697 0 0 0 .096.08 6.697 6.697 0 0 0 .15.122 6.697 6.697 0 0 0 .053.041 6.697 6.697 0 0 0 .078.059 6.697 6.697 0 0 0 .092.066 6.697 6.697 0 0 0 .148.104 6.697 6.697 0 0 0 .139.092 6.697 6.697 0 0 0 .023.015 6.697 6.697 0 0 0 .082.05 6.697 6.697 0 0 0 .112.067 6.697 6.697 0 0 0 .03.02 6.697 6.697 0 0 0 .17.096 6.697 6.697 0 0 0 .153.08 6.697 6.697 0 0 0 .184.09 6.697 6.697 0 0 0 .011.005 6.697 6.697 0 0 0 .114.051 6.697 6.697 0 0 0 .08.037 6.697 6.697 0 0 0 .047.02 6.697 6.697 0 0 0 .2.082 6.697 6.697 0 0 0 .175.064 6.697 6.697 0 0 0 .03.012 6.697 6.697 0 0 0 .16.053 6.697 6.697 0 0 0 .167.05 6.697 6.697 0 0 0 .06.018 6.697 6.697 0 0 0 .089.024 6.697 6.697 0 0 0 .101.027 6.697 6.697 0 0 0 .049.012 6.697 6.697 0 0 0 .162.037 6.697 6.697 0 0 0 .215.043 6.697 6.697 0 0 0 .12.021 6.697 6.697 0 0 0 .143.022 6.697 6.697 0 0 0 .186.023 6.697 6.697 0 0 0 .123.012 6.697 6.697 0 0 0 .111.01 6.697 6.697 0 0 0 .041.003 6.697 6.697 0 0 0 .186.012 6.697 6.697 0 0 0 .018 0 6.697 6.697 0 0 0 .203.006 6.697 6.697 0 0 0 .168 0h23.363a6.697 6.697 0 0 0 5.844-3.426c2.79-4.985 7.518-15.928 11.773-26.552v15.398c0 6.177 3.194 12.037 8.031 15.174 4.838 3.136 10.642 4.13 17.034 4.13h68.064a6.697 6.697 0 0 0 6.697-6.697v-6h16.055a6.697 6.697 0 0 0 5.953-9.765c-4.63-8.978-10.96-18.586-17.963-29.56a6.697 6.697 0 0 0-.078-.126 6.697 6.697 0 0 0-.113-.172 6.697 6.697 0 0 0-.006-.01 6.697 6.697 0 0 0-.065-.093 6.697 6.697 0 0 0-.06-.084 6.697 6.697 0 0 0-.026-.033 6.697 6.697 0 0 0-.107-.141 6.697 6.697 0 0 0-.11-.137 6.697 6.697 0 0 0-.027-.033 6.697 6.697 0 0 0-.074-.086 6.697 6.697 0 0 0-.068-.078 6.697 6.697 0 0 0-.026-.027 6.697 6.697 0 0 0-.123-.131 6.697 6.697 0 0 0-.078-.082 6.697 6.697 0 0 0-.074-.075 6.697 6.697 0 0 0-.082-.078 6.697 6.697 0 0 0-.076-.07 6.697 6.697 0 0 0-.156-.14 6.697 6.697 0 0 0-.006-.005 6.697 6.697 0 0 0-.088-.074 6.697 6.697 0 0 0-.092-.078c3.884-3.811 6.045-9.349 6.045-15.363v-28.822c0-6.471-2.403-12.479-6.873-16.28-2.899-2.464-6.39-3.858-10.121-4.595 3.534-3.84 4.423-9.069 2.818-13.674-1.664-4.774-6.89-8.838-12.861-8.838H564.71c-3.701 0-8.454.445-13.044 3.17a6.697 6.697 0 0 0-.008.006c-3.218 1.916-7.544 5.186-13.45 8.797-5.905 3.61-13.033 7.35-20.111 9.46a6.697 6.697 0 0 0-4.783 6.428l.017 11.17a6.697 6.697 0 0 0 6.698 6.686h106.816c.013-.033.03-.008.03-.16v.16h.16c-.131 0-.144.052-.16.088v.047H520.02a6.697 6.697 0 0 0-6.696 6.695v10.484a6.697 6.697 0 0 0 6.696 6.696h106.855v.056c.018.039.021.088.143.088h-.143v.143c0-.14-.017-.108-.031-.143H520.02a6.697 6.697 0 0 0-6.696 6.695v10.475a6.697 6.697 0 0 0 6.696 6.697h2.84c-6.103 13.268-11.883 24.588-15.833 30.993a6.697 6.697 0 0 0-.642-.463c-6.848-4.333-19.837-13.686-32.41-24.37h.677c5.534 0 10.899-1.19 15.114-4.695 4.214-3.504 6.431-9.153 6.431-15.11v-34.064c0-5.958-2.22-11.607-6.437-15.107-.017-.014-.036-.021-.053-.035h9.4a6.697 6.697 0 0 0 6.698-6.698v-11.357a6.697 6.697 0 0 0-6.698-6.697h-58.814v-2.045a6.697 6.697 0 0 0-6.697-6.697zm285.025 3.768a6.697 6.697 0 0 0-6.697 6.697v10.045a6.697 6.697 0 0 0 .004.198c-3.997.506-7.767 1.823-10.9 4.423-4.213 3.497-6.432 9.133-6.444 15.082a6.697 6.697 0 0 0 0 .014v29.287a6.697 6.697 0 0 0 6.696 6.696h8.865c-2.799 3.328-4.32 7.799-4.32 12.492v24.037c0 5.92 2.458 11.453 6.607 14.91 4.15 3.457 9.467 4.867 14.93 4.867h32.154c1.883 4.138 5.172 7.335 8.494 8.969 4.942 2.43 9.812 2.908 13.31 2.908h66.13a6.697 6.697 0 0 0 6.697-6.697v-12.68a6.697 6.697 0 0 0-6.697-6.695h-6.149c1.983-3.1 3.069-6.889 3.069-10.832v-18.787c0-4.695-1.525-9.165-4.323-12.492h7.983a6.697 6.697 0 0 0 6.697-6.696v-29.287a6.697 6.697 0 0 0 0-.014c-.012-5.949-2.233-11.588-6.45-15.084-3.136-2.601-6.91-3.918-10.913-4.423a6.697 6.697 0 0 0 .004-.196v-10.045a6.697 6.697 0 0 0-6.696-6.697zm260.282 9.617h6.472v12.528a6.697 6.697 0 0 0 2.538 5.246 6.697 6.697 0 0 0-2.538 5.246v30.554a6.697 6.697 0 0 0 4.545 6.34 6.697 6.697 0 0 0-.037.04 6.697 6.697 0 0 0-.054.062 6.697 6.697 0 0 0-.075.084 6.697 6.697 0 0 0-.07.082 6.697 6.697 0 0 0-.03.033 6.697 6.697 0 0 0-.085.108 6.697 6.697 0 0 0-.11.142 6.697 6.697 0 0 0-.058.076 6.697 6.697 0 0 0-.041.059 6.697 6.697 0 0 0-.06.086 6.697 6.697 0 0 0-.096.139 6.697 6.697 0 0 0-.032.048 6.697 6.697 0 0 0-.076.12 6.697 6.697 0 0 0-.04.07 6.697 6.697 0 0 0-.05.084 6.697 6.697 0 0 0-.082.146 6.697 6.697 0 0 0-.095.182 6.697 6.697 0 0 0-.018.035 6.697 6.697 0 0 0-.072.15 6.697 6.697 0 0 0-.01.022 6.697 6.697 0 0 0-.057.127 6.697 6.697 0 0 0-.056.133 6.697 6.697 0 0 0-.057.14 6.697 6.697 0 0 0-.059.159 6.697 6.697 0 0 0-.06.177 6.697 6.697 0 0 0-.051.166 6.697 6.697 0 0 0-.03.096 6.697 6.697 0 0 0-.015.057 6.697 6.697 0 0 0-.035.132 6.697 6.697 0 0 0-.026.102 6.697 6.697 0 0 0-.033.154 6.697 6.697 0 0 0-.039.203 6.697 6.697 0 0 0-.006.03 6.697 6.697 0 0 0-.025.156 6.697 6.697 0 0 0-.012.094 6.697 6.697 0 0 0-.02.162 6.697 6.697 0 0 0-.013.14 6.697 6.697 0 0 0-.014.19 6.697 6.697 0 0 0-.004.068 6.697 6.697 0 0 0-.002.055 6.697 6.697 0 0 0-.006.197 6.697 6.697 0 0 0-.002.074 6.697 6.697 0 0 0 .002.065 6.697 6.697 0 0 0 .004.176 6.697 6.697 0 0 0 .01.195 6.697 6.697 0 0 0 .018.21 6.697 6.697 0 0 0 0 .01 6.697 6.697 0 0 0 .013.12 6.697 6.697 0 0 0 .02.156 6.697 6.697 0 0 0 .025.158 6.697 6.697 0 0 0 .02.114 6.697 6.697 0 0 0 .03.154 6.697 6.697 0 0 0 .01.049 6.697 6.697 0 0 0 .025.113 6.697 6.697 0 0 0 .029.125l.014.049a6.697 6.697 0 0 0 .008.03 6.697 6.697 0 0 0 .09.308c4.264 16.72 10.582 33.311 19.69 50.23h-4.868c-8.574-16.148-12.978-30.528-15.336-42.898a6.697 6.697 0 0 0-.032-.15c-.578-2.7-3.49-5.528-6.75-5.58-3.259-.054-6.208 2.678-6.902 5.222a6.697 6.697 0 0 0-.043.166c-.344 1.404-.542 2.718-1.11 5.191a120.32 120.32 0 0 1-2.697 9.79c-2.336 7.304-6.251 17.053-12.472 28.26h-4.754c11.604-21.087 18.384-40.324 21.166-50.495a6.697 6.697 0 0 0-1.658-6.436 6.697 6.697 0 0 0 4.193-5.078c1.078-6.063 2.06-14.365 2.06-26.031v-5.697a6.697 6.697 0 0 0-2.54-5.25 6.697 6.697 0 0 0 2.53-5.243zm-538.61.01h7.58v2.045a6.697 6.697 0 0 0 3.15 5.678 6.697 6.697 0 0 0-3.15 5.68v8.742a6.697 6.697 0 0 0 2.532 5.24 6.697 6.697 0 0 0-2.532 5.242v14.41a6.697 6.697 0 0 0 2.532 5.243 6.697 6.697 0 0 0-2.532 5.24v14.412a6.697 6.697 0 0 0 6.698 6.697h17.46a6.697 6.697 0 0 0-.001.002 6.697 6.697 0 0 0-.045.069 6.697 6.697 0 0 0-.073.109 6.697 6.697 0 0 0-.04.062 6.697 6.697 0 0 0-.08.135 6.697 6.697 0 0 0-.03.047 6.697 6.697 0 0 0-.074.133 6.697 6.697 0 0 0-.04.074 6.697 6.697 0 0 0-.058.108 6.697 6.697 0 0 0-.043.087 6.697 6.697 0 0 0-.058.122 6.697 6.697 0 0 0-.032.07 6.697 6.697 0 0 0-.05.115 6.697 6.697 0 0 0-.057.133 6.697 6.697 0 0 0-.014.035 6.697 6.697 0 0 0-.054.145 6.697 6.697 0 0 0-.04.105 6.697 6.697 0 0 0-.023.066 6.697 6.697 0 0 0-.045.137 6.697 6.697 0 0 0-.03.094 6.697 6.697 0 0 0-.023.082 6.697 6.697 0 0 0-.04.144 6.697 6.697 0 0 0-.022.086 6.697 6.697 0 0 0-.027.114 6.697 6.697 0 0 0-.018.078 6.697 6.697 0 0 0-.04.19 6.697 6.697 0 0 0-.036.214 6.697 6.697 0 0 0-.02.135 6.697 6.697 0 0 0-.021.168 6.697 6.697 0 0 0 0 .004 6.697 6.697 0 0 0-.02.215 6.697 6.697 0 0 0-.011.191 6.697 6.697 0 0 0-.004.1 6.697 6.697 0 0 0-.002.078 6.697 6.697 0 0 0-.002.138 6.697 6.697 0 0 0 0 .018 6.697 6.697 0 0 0 .002.145 6.697 6.697 0 0 0 .004.085 6.697 6.697 0 0 0 .002.073 6.697 6.697 0 0 0 .008.15 6.697 6.697 0 0 0 .008.072 6.697 6.697 0 0 0 .011.15 6.697 6.697 0 0 0 .002.013 6.697 6.697 0 0 0 .02.164 6.697 6.697 0 0 0 .021.152 6.697 6.697 0 0 0 .01.062 6.697 6.697 0 0 0 .01.053 6.697 6.697 0 0 0 .032.168 6.697 6.697 0 0 0 .035.168 6.697 6.697 0 0 0 .011.055 6.697 6.697 0 0 0 .036.14 6.697 6.697 0 0 0 .02.078 6.697 6.697 0 0 0 .025.088 6.697 6.697 0 0 0 .037.127 6.697 6.697 0 0 0 .029.092 6.697 6.697 0 0 0 .037.111 6.697 6.697 0 0 0 .008.026 6.697 6.697 0 0 0 .057.154 6.697 6.697 0 0 0 .052.135 6.697 6.697 0 0 0 .047.117 6.697 6.697 0 0 0 .088.2 6.697 6.697 0 0 0 .074.156 6.697 6.697 0 0 0 .06.12 6.697 6.697 0 0 0 .052.098 6.697 6.697 0 0 0 .03.057 6.697 6.697 0 0 0 .077.133 6.697 6.697 0 0 0 .055.093 6.697 6.697 0 0 0 .043.07 6.697 6.697 0 0 0 .111.175 6.697 6.697 0 0 0 .03.045 6.697 6.697 0 0 0 .093.134 6.697 6.697 0 0 0 .096.131 6.697 6.697 0 0 0 .055.072 6.697 6.697 0 0 0 .054.07 6.697 6.697 0 0 0 .073.09 6.697 6.697 0 0 0 .095.116 6.697 6.697 0 0 0 .035.043 6.697 6.697 0 0 0 .141.154 6.697 6.697 0 0 0 .15.156 6.697 6.697 0 0 0 .09.092l.04.035a6.697 6.697 0 0 0 .261.239c9.522 9.233 20.121 17.868 29.527 24.955h-8.664c-9.71-7.248-23.303-19.214-34.597-31.276a6.697 6.697 0 0 0-11.584 4.578v31.875h-7.582v-31.875a6.697 6.697 0 0 0-11.586-4.576c-11.284 12.06-24.883 24.025-34.596 31.274h-8.645c9.508-7.159 20.245-15.895 29.836-25.229a6.697 6.697 0 0 0 .852-8.586h17.46a6.697 6.697 0 0 0 6.698-6.697v-14.412a6.697 6.697 0 0 0-2.531-5.24 6.697 6.697 0 0 0 2.531-5.243v-14.41a6.697 6.697 0 0 0-2.535-5.246 6.697 6.697 0 0 0 2.525-5.236v-8.742a6.697 6.697 0 0 0-3.15-5.68 6.697 6.697 0 0 0 3.15-5.678zm475.666 1.647a6.697 6.697 0 0 0 .032 0c2.619.094 2.88.423 3.363.82.483.397 1.37 1.666 3.096 3.889a6.697 6.697 0 0 0 .004.006c1.147 1.474 7.125 9.861 11.978 16.664a6.697 6.697 0 0 0-3.45 1.142c-1.14-1.524-12.62-16.875-13.734-18.367a6.697 6.697 0 0 0-.019-.027c-1.43-1.899-4.022-4.106-7.592-4.078-3.57.027-6.052 2.223-7.418 4.045a6.697 6.697 0 0 0-.008.011c-1.481 1.984-14.453 19.329-14.453 19.329a6.697 6.697 0 0 0-.142 7.822h-9.532c2.44-3.514 3.045-4.407 6.223-8.95 3.454-4.936 6.981-9.949 9.773-13.85 1.396-1.95 2.61-3.625 3.52-4.849.91-1.224 1.95-2.383 1.328-1.75 1.081-1.101 1.202-1.162 1.436-1.267.233-.105 1.175-.407 3.689-.563a6.697 6.697 0 0 0 .031-.002c1.068-.07 9.752-.11 11.875-.025zm-260.554.92c-.01.075-.033.18.013.134a6.697 6.697 0 0 0-.011.012c.212-.214-.981.843-2.274 1.848a274.82 274.82 0 0 1-4.45 3.369 611.66 611.66 0 0 1-5.99 4.393 6.697 6.697 0 0 0-1.597 9.214h-17.65c1.938-1.216 3.815-2.366 5.908-3.767 1.599-1.071 3.1-2.098 4.3-2.946.682-.48 1.243-.985 1.727-1.341a6.697 6.697 0 0 0 1.307-1.016c.006-.006.006-.002.012-.008a6.697 6.697 0 0 0 .029-.031 6.697 6.697 0 0 0 .047-.047 6.697 6.697 0 0 0 .006-.006 6.697 6.697 0 0 0 1.46-2.322c.853-1.596 1.425-3.476.645-5.89-.193-.6-.559-1.062-.885-1.556h17.178c.238 0 .15-.026.225-.04zm-69.72.04h2.206c-5.158 3.399-9.973 6.25-13.908 8.104a6.697 6.697 0 0 0-.008.002c-2.647 1.251-4.772 4.202-4.041 7.914.207 1.053.751 2.036 1.422 2.91H527.49c6.611-2.55 12.645-5.828 17.707-8.923 6.455-3.948 11.72-7.767 13.315-8.717 1.992-1.18 3.245-1.29 6.199-1.29zm367.12.813h3.211c-.156 2.848-.244 5.805-.488 8.492a6.697 6.697 0 0 0 2.006 5.412 6.697 6.697 0 0 0-3.102 4.81c-.546 4.133-1.19 7.363-1.814 10.769h-3.164c.154-.717.268-1.095.423-1.868a6.697 6.697 0 0 0 .028-2.482 6.697 6.697 0 0 0 .869-2.346c1.004-5.99 1.72-13.796 2.031-22.787zm-182.383.348h8.485a6.697 6.697 0 0 0-.899 3.347v6.635a6.697 6.697 0 0 0 2.28 5.031 6.697 6.697 0 0 0-2.272 5.024v26.885h-6.695v-26.885a6.697 6.697 0 0 0-2.274-5.027 6.697 6.697 0 0 0 2.274-5.028v-6.635a6.697 6.697 0 0 0-.899-3.347zm139.291 14.318 3.221 4.309h-6.443l3.222-4.309zm-193.592 2.362h1.407c-1.554 1.496-2.559 3.377-3.13 5.412a6.697 6.697 0 0 0-.589 2.748 299596.156 299596.156 0 0 1-.004 20.814h-5.828v-22.578c.006-3.123.67-4.026 1.605-4.803.936-.776 2.99-1.593 6.54-1.593zm115.647 0h1.404c3.56 0 5.619.819 6.555 1.595.936.777 1.6 1.678 1.605 4.801v22.578h-5.826l-.013-20.814c0-3.048-1.474-5.99-3.725-8.16zm-175.496 4h2.67c3.963.014 6.429.973 7.726 2.076 1.298 1.103 2.155 2.502 2.155 6.076v28.822c0 3.566-.855 4.963-2.155 6.067-1.3 1.104-3.769 2.064-7.726 2.078h-2.678c3.046-2.433 4.979-6.146 4.979-10.34v-6.983a6.697 6.697 0 0 0-2.53-5.242 6.697 6.697 0 0 0 2.53-5.242v-6.99c0-4.186-1.931-7.892-4.971-10.322zm-263.73 4.392h2.767c-2.495 2.066-4.215 5.032-4.215 8.59v9.607a6.697 6.697 0 0 0 2.53 5.243 6.697 6.697 0 0 0-2.53 5.24v9.535a6.697 6.697 0 0 0 0 .074 6.697 6.697 0 0 0 .154 1.424c.382 2.942 1.912 5.388 4.063 7.166h-2.77c-3.55 0-5.611-.823-6.55-1.604-.94-.78-1.602-1.686-1.602-4.808v-34.065c0-3.122.662-4.024 1.6-4.802.938-.78 3-1.6 6.552-1.6zm100.316 0h2.77c3.552 0 5.612.821 6.55 1.6.938.778 1.602 1.68 1.602 4.802v34.065c0 3.125-.665 4.031-1.602 4.81-.937.78-2.995 1.602-6.55 1.602h-2.772c2.496-2.065 4.217-5.032 4.217-8.59v-9.61a6.697 6.697 0 0 0-2.53-5.24 6.697 6.697 0 0 0 2.53-5.242v-9.607c0-3.552-1.72-6.522-4.215-8.59zm411.607 6.947h7.582a6.697 6.697 0 0 0-1.193 3.813v13.957a6.697 6.697 0 0 0 2.822 5.459 6.697 6.697 0 0 0-2.822 5.46v46.735a6.697 6.697 0 0 0 2.918 5.528h-11.031a6.697 6.697 0 0 0 2.918-5.528v-46.734a6.697 6.697 0 0 0-2.823-5.461 6.697 6.697 0 0 0 2.823-5.46v-13.956a6.697 6.697 0 0 0-1.194-3.813zm-499.976 3.536h22.42v1.019h-22.42zm56.779 0h22.412v1.019h-22.412zm503.81.193c-.187 2.764-.404 5.17-.685 7.351h-17.92a6.697 6.697 0 0 0-3.1.762 6.697 6.697 0 0 0-3.115-.77h-16.01v-.562h10.483a6.697 6.697 0 0 0 3.166-.797 6.697 6.697 0 0 0 3.164.797H937.3a6.697 6.697 0 0 0 6.558-5.334c.084-.403.16-1.03.245-1.447zm-560.59 24.701h22.42v1.018h-22.42zm56.78 0h22.412v1.018h-22.412zm265.236 5.563h.408c-1.638 1.97-2.747 4.399-2.738 7.105v3.234a6.697 6.697 0 0 0 1.817 4.586 6.697 6.697 0 0 0-1.825 4.594v3.26c0 6.132 5.113 11.295 11.268 11.295h29.172a6.697 6.697 0 0 0 6.697-6.697v-7.858a6.697 6.697 0 0 0-1.818-4.586 6.697 6.697 0 0 0 1.826-4.594v-7.857a6.697 6.697 0 0 0-.479-2.482h7.645a6.697 6.697 0 0 0-.479 2.482v7.857a6.697 6.697 0 0 0 1.82 4.59 6.697 6.697 0 0 0-1.82 4.59v7.858a6.697 6.697 0 0 0 1.858 4.628 6.697 6.697 0 0 0-.08.088 6.697 6.697 0 0 0-.14.164 6.697 6.697 0 0 0-.003.002 6.697 6.697 0 0 0-.135.168 6.697 6.697 0 0 0-.13.174 6.697 6.697 0 0 0-.125.178 6.697 6.697 0 0 0 0 .002 6.697 6.697 0 0 0-.12.18 6.697 6.697 0 0 0 0 .002 6.697 6.697 0 0 0-.113.183 6.697 6.697 0 0 0 0 .002 6.697 6.697 0 0 0-.107.188 6.697 6.697 0 0 0 0 .002 6.697 6.697 0 0 0-.1.191 6.697 6.697 0 0 0-.049.102 6.697 6.697 0 0 0-.047.093 6.697 6.697 0 0 0 0 .002 6.697 6.697 0 0 0-.088.198 6.697 6.697 0 0 0 0 .002 6.697 6.697 0 0 0-.156.404 6.697 6.697 0 0 0 0 .002 6.697 6.697 0 0 0-.068.205 6.697 6.697 0 0 0 0 .002 6.697 6.697 0 0 0-.063.207 6.697 6.697 0 0 0-.054.211 6.697 6.697 0 0 0-.123.64 6.697 6.697 0 0 0-.028.215 6.697 6.697 0 0 0 0 .002 6.697 6.697 0 0 0-.02.215 6.697 6.697 0 0 0 0 .002 6.697 6.697 0 0 0-.013.215 6.697 6.697 0 0 0 0 .002 6.697 6.697 0 0 0-.006.291 6.697 6.697 0 0 0 .002.072 6.697 6.697 0 0 0 .002.11 6.697 6.697 0 0 0 .004.107 6.697 6.697 0 0 0 .004.096 6.697 6.697 0 0 0 .014.193 6.697 6.697 0 0 0 .013.145 6.697 6.697 0 0 0 .018.144 6.697 6.697 0 0 0 0 .002v.002a6.697 6.697 0 0 0 .346 1.409c1.18 4.388 4.916 7.67 9.248 9.005h-6.418c-1.841 0-5.324-.512-7.4-1.533-2.077-1.02-2.61-1.25-2.61-3.592v-.052a6.697 6.697 0 0 0-6.697-6.698h-37.252c-3.136 0-5.236-.83-6.358-1.763-1.121-.934-1.785-1.942-1.785-4.621v-24.037c0-2.907.56-3.544 1.307-4.155.746-.61 2.61-1.373 5.978-1.373zm95.91 0h1.293c3.353 0 5.212.758 5.96 1.37.747.613 1.308 1.253 1.308 4.157v18.787c0 2.912-.561 3.551-1.305 4.16-.743.61-2.602 1.367-5.963 1.367h-1.28c1.623-1.964 2.726-4.378 2.726-7.062v-3.26a6.697 6.697 0 0 0-1.82-4.59 6.697 6.697 0 0 0 1.82-4.59v-3.183a6.697 6.697 0 0 0 0-.074 6.697 6.697 0 0 0-.541-2.637c-.42-1.655-1.128-3.157-2.198-4.445zm123.377 1.367a6.697 6.697 0 0 0 .682.035h12.295c-2.53 7.643-6.412 17.601-11.813 28.707v-24.975a6.697 6.697 0 0 0-1.164-3.767zm-359.73 1.33h10.959a6.697 6.697 0 0 0-1.174 3.785v29.529a6.697 6.697 0 0 0 .225 1.719 6.697 6.697 0 0 0 0 .002c.505 3.011 2.194 5.83 4.496 7.533 1.341.993 2.81 1.672 4.347 2.121h-6.013c-4.824 0-8.204-.974-9.746-1.974-1.543-1-1.926-1.442-1.926-3.936v-35.002a6.697 6.697 0 0 0-1.168-3.777zm29.193 0h10.268a6.697 6.697 0 0 0-.145 7.351c3.026 4.81 6.799 11.275 10.227 17.4h-6.397c-4.03-8.193-9.34-17.577-13.843-24.585a6.697 6.697 0 0 0-.11-.166zm359.498 3.879c.01.052.027.111.037.164 0-.005-.005-.01-.006-.014zm-91.818 5.256h2.32v29.6a6.697 6.697 0 0 0 2.918 5.527h-8.156a6.697 6.697 0 0 0 2.918-5.528zm48.305 0h2.322v26.27c0 6.284-1.327 7.306-2.229 7.911-.734.493-2.444.753-4.52.854 1.07-.573 2.078-1.3 2.776-2.285 1.685-2.379 1.65-4.407 1.65-5.73zm-321.998 6.878c3.24 5.52 6.255 11.01 8.634 15.961h-8.01a6.697 6.697 0 0 0-.027 0c-.494.002-.377-.02-.597-.078zm-53.313.22h6.297c-3.8 9.536-7.74 18.631-10.262 23.734h-7.804c3.627-6.704 7.536-14.518 11.77-23.735zm106.205 0h6.17a709.617 709.617 0 0 1 9.813 15.759h-6.19c-2.697-4.947-6.118-10.287-9.793-15.76zm-14.795 2.054a377.839 377.839 0 0 1 8.928 13.687h-2.76a6.697 6.697 0 0 0-.636-3.423c-1.402-2.921-3.514-6.652-5.532-10.264z" style="color:#000;font-style:normal;font-variant:normal;font-weight:400;font-stretch:normal;font-size:medium;font-family:sans-serif;font-variant-ligatures:normal;font-variant-position:normal;font-variant-caps:normal;font-variant-numeric:normal;font-variant-alternates:normal;font-variant-east-asian:normal;font-feature-settings:normal;text-indent:0;text-decoration:none;text-decoration-line:none;text-decoration-style:solid;text-decoration-color:#000;letter-spacing:normal;word-spacing:normal;text-transform:none;writing-mode:lr-tb;direction:ltr;text-orientation:mixed;dominant-baseline:auto;baseline-shift:baseline;text-anchor:start;clip-rule:nonzero;display:inline;overflow:visible;visibility:visible;color-interpolation:sRGB;vector-effect:none;fill:#fff;fill-opacity:1;fill-rule:nonzero;stroke:none;stroke-linecap:round;stroke-linejoin:round;stroke-miterlimit:4;stroke-dasharray:none;stroke-dashoffset:0;stroke-opacity:1;color-rendering:auto;image-rendering:auto;shape-rendering:auto;text-rendering:auto;enable-background:accumulate;stop-color:#000;stop-opacity:1" transform="matrix(.26458 0 0 .26458 5.237 76.22)"/><path d="M973.83-144.05h19.778v-10.92h-22.51v-30.555h20.582v-10.492h-20.582v-19.224h-19.867v19.224h-10.01c.456-5.01.768-10.295.911-15.796h-16.724c0 11.965-1.009 21.189-2.214 28.377-5.036-7.108-14.331-20.153-16.43-22.85-2.91-3.75-4.277-7.036-11.51-7.295-2.651-.107-10.446-.107-12.59.036-5.767.357-7.116 1.402-9.49 3.822-2.376 2.42-28.877 40.788-28.877 40.788h33.689v13.956h-26.823v10.92h26.823v46.735h-7.01v-36.297h-15.715v36.297h-3V-85.1h52.217c5.894 0 14.805-.367 14.805-15.555v-32.966h-15.715v33.716c0 1.518-.384 2.58-2.197 2.58h-4.795v-46.734h22.707v-10.92h-22.707v-13.956h17.18v-9.885h8.58c-.803 4-1.625 7.233-2.25 9.885h17.216a230.717 230.717 0 0 0 2.794-16.59h11.144v5.696c0 11.296-.938 19.135-1.956 24.859h-23.787v10.92h21.385c-3.071 11.233-11.107 34.671-26.108 58.959H940.9c15.313-26.234 18.1-45.432 18.814-48.342.107-.393.562-.375.642 0 2.634 13.813 7.554 30.073 17.805 48.342h20.35c-12.135-20.055-19.707-39.324-24.68-58.959m-101.685-35.395s12.956-17.322 14.456-19.331c1.34-1.786 2.858-1.875 4.304.045 1.206 1.616 14.42 19.286 14.42 19.286zm-360.358 90.05h23.456c3.143-5.617 11.599-24.921 15.903-37.127h-20.42c-7.198 15.965-14.207 29.76-18.94 37.127m69.781-13.35v-29.528h7.188c5.027 7.822 11.617 19.35 15.403 27.663h21.697c-3.607-7.519-10.938-19.957-15.786-27.663h27.92c10.028-.035 16.555-4.803 16.555-14.84v-28.823c0-10.045-6.518-14.813-16.554-14.849h-12.35s11.653-8.42 13.537-10.313c3.786-3.786 2.045-11.527-4.973-11.527H564.71c-3.33 0-6.33.277-9.625 2.232-4.813 2.866-19.18 14.18-35.074 18.92l.018 11.171h107.006c3.59 0 6.536 3.16 6.536 6.536v6.992H520.02v10.482h113.55v6.983c0 3.375-2.947 6.545-6.536 6.554H520.02v10.473h39.538v35.002c0 8.67 7.152 12.608 18.367 12.608h68.066v-12.715H588.89c-4.411.018-7.322-2.196-7.322-5.357m29.421-98.068c-.928.929-10.973 7.688-14.983 10H556.21c-.858 0-.84-.723-.349-.955 5.402-2.545 11.822-6.295 18.885-11.268h35.422c1.554 0 1.83 1.178.821 2.223m40.02 74.29h-22.465c7.098 10.295 14.527 21.126 18.42 29.153h21.778c-4.393-8.518-10.67-18.081-17.733-29.153m112.801 24.305h38.922c8.599 0 13.965-3.617 13.965-12.224v-18.787c0-8.599-5.375-12.224-13.965-12.224H705.53c-8.616 0-13.983 3.625-13.983 12.224v24.037c0 8.599 6.242 13.081 14.84 13.081h37.252v.054c0 9.84 11.367 11.822 16.707 11.822h66.128v-12.68H770.91c-3.947.018-6.68-2.098-7.099-5.303m29.109-9.162H763.72v-7.857h33.76v3.259c0 2.545-2.035 4.598-4.562 4.598m4.563-20.295v3.259H763.72v-7.858h29.198a4.584 4.584 0 0 1 4.563 4.599m-83.023-4.599h29.18v7.858h-33.743v-3.26a4.573 4.573 0 0 1 4.563-4.598m0 24.894c-2.527 0-4.571-2.053-4.571-4.598v-3.26h33.742v7.858zm57.146-48.493h28.377v8.732h-28.377zm-.018-17.02h28.395v8.742h-28.395zm-64.19 17.02h28.394v8.732h-28.395zm0-17.02h28.394v8.742h-28.395zm-7.867-3.035c0-2.643 1.902-4.786 4.777-4.804h39.341v33.582h20.09v-33.582h39.324c2.875.018 4.76 2.161 4.76 4.804l.017 27.51h19.216v-29.287c-.018-9.072-5.769-13.08-14.858-13.08H763.73v-6.635h45.966v-10.045h-112.05v10.045h46.002v6.634h-48.502c-9.072 0-14.823 4.01-14.84 13.081v29.287h19.215c.009 0 .009-27.501.009-27.51M456.58-126.12h18.072c9.09 0 14.849-4.027 14.849-13.108v-34.065c0-9.08-5.768-13.099-14.85-13.099h-41.055v-8.741h65.512v-11.358h-65.512v-8.741H412.62v8.741H347.11v11.358h65.512v8.741h-41.055c-9.081 0-14.85 4.018-14.85 13.1v34.064c0 9.08 5.769 13.108 14.85 13.108h18.081c-16 15.572-36.44 30.528-46.253 36.725h32.02c10.277-7.447 24.984-20.34 37.199-33.395v38.574h20.974v-38.574c12.224 13.054 26.921 25.948 37.198 33.395h32.02c-9.795-6.197-30.225-21.153-46.226-36.725m12.822-15.287c0 2.643-2.34 4.786-5.214 4.804h-30.591v-14.412H469.4zm-5.214-34.502c2.875.01 5.214 2.152 5.214 4.804v9.608h-35.805v-14.412zm-87.371 4.804c0-2.652 2.348-4.795 5.223-4.804h30.591v14.412h-35.814zm0 29.698v-9.608h35.814v14.412h-30.59c-2.876-.018-5.224-2.161-5.224-4.804" style="color:#000;font-style:normal;font-variant:normal;font-weight:400;font-stretch:normal;font-size:medium;font-family:sans-serif;font-variant-ligatures:normal;font-variant-position:normal;font-variant-caps:normal;font-variant-numeric:normal;font-variant-alternates:normal;font-variant-east-asian:normal;font-feature-settings:normal;text-indent:0;text-decoration:none;text-decoration-line:none;text-decoration-style:solid;text-decoration-color:#000;letter-spacing:normal;word-spacing:normal;text-transform:none;writing-mode:lr-tb;direction:ltr;text-orientation:mixed;dominant-baseline:auto;baseline-shift:baseline;text-anchor:start;clip-rule:nonzero;display:inline;overflow:visible;visibility:visible;color-interpolation:sRGB;vector-effect:none;fill:#231815;fill-opacity:1;fill-rule:nonzero;stroke:none;stroke-width:13.3936;stroke-linecap:round;stroke-linejoin:round;stroke-miterlimit:4;stroke-dasharray:none;stroke-dashoffset:0;stroke-opacity:1;color-rendering:auto;image-rendering:auto;shape-rendering:auto;text-rendering:auto;enable-background:accumulate;stop-color:#000;stop-opacity:1" transform="matrix(.26458 0 0 .26458 5.237 76.22)"/><path d="M46.923 17.997c-12.632 0-22.873 8.33-22.873 18.602 0 10.279 10.241 18.604 22.873 18.604 12.632 0 22.874-8.327 22.874-18.604 0-10.27-10.242-18.602-22.874-18.602m.191 36.696s-.94-18.215-19.367-27.71c0 0 17.671 8.912 37.981-.193-.002 0-16.17 7.17-18.614 27.903" style="color:#000;font-style:normal;font-variant:normal;font-weight:400;font-stretch:normal;font-size:medium;font-family:sans-serif;font-variant-ligatures:normal;font-variant-position:normal;font-variant-caps:normal;font-variant-numeric:normal;font-variant-alternates:normal;font-variant-east-asian:normal;font-feature-settings:normal;text-indent:0;text-decoration:none;text-decoration-line:none;text-decoration-style:solid;text-decoration-color:#000;letter-spacing:normal;word-spacing:normal;text-transform:none;writing-mode:lr-tb;direction:ltr;text-orientation:mixed;dominant-baseline:auto;baseline-shift:baseline;text-anchor:start;clip-rule:nonzero;display:inline;overflow:visible;visibility:visible;color-interpolation:sRGB;vector-effect:none;fill:#e01;fill-opacity:1;fill-rule:nonzero;stroke:none;stroke-width:2.36248;stroke-linecap:butt;stroke-linejoin:miter;stroke-miterlimit:4;stroke-dasharray:none;stroke-dashoffset:0;stroke-opacity:1;color-rendering:auto;image-rendering:auto;shape-rendering:auto;text-rendering:auto;enable-background:accumulate;stop-color:#000"/><path d="M47.259 57.148c-26.701-.06-28.51-20.344-28.51-20.344l-.358.014s.374 22.624 29.052 23.24" style="color:#000;font-style:normal;font-variant:normal;font-weight:400;font-stretch:normal;font-size:medium;font-family:sans-serif;font-variant-ligatures:normal;font-variant-position:normal;font-variant-caps:normal;font-variant-numeric:normal;font-variant-alternates:normal;font-variant-east-asian:normal;font-feature-settings:normal;text-indent:0;text-decoration:none;text-decoration-line:none;text-decoration-style:solid;text-decoration-color:#000;letter-spacing:normal;word-spacing:normal;text-transform:none;writing-mode:lr-tb;direction:ltr;text-orientation:mixed;dominant-baseline:auto;baseline-shift:baseline;text-anchor:start;clip-rule:nonzero;display:inline;overflow:visible;visibility:visible;color-interpolation:sRGB;vector-effect:none;fill:#e01;fill-opacity:1;fill-rule:nonzero;stroke:none;stroke-width:2.36248;stroke-linecap:butt;stroke-linejoin:miter;stroke-miterlimit:4;stroke-dasharray:none;stroke-dashoffset:0;stroke-opacity:1;color-rendering:auto;image-rendering:auto;shape-rendering:auto;text-rendering:auto;enable-background:accumulate;stop-color:#000"/><path d="M47.301 61.84c-32.2-.801-34.407-24.962-34.407-24.962l-.357.011s1.718 27.202 34.946 27.861" style="color:#000;font-style:normal;font-variant:normal;font-weight:400;font-stretch:normal;font-size:medium;font-family:sans-serif;font-variant-ligatures:normal;font-variant-position:normal;font-variant-caps:normal;font-variant-numeric:normal;font-variant-alternates:normal;font-variant-east-asian:normal;font-feature-settings:normal;text-indent:0;text-decoration:none;text-decoration-line:none;text-decoration-style:solid;text-decoration-color:#000;letter-spacing:normal;word-spacing:normal;text-transform:none;writing-mode:lr-tb;direction:ltr;text-orientation:mixed;dominant-baseline:auto;baseline-shift:baseline;text-anchor:start;clip-rule:nonzero;display:inline;overflow:visible;visibility:visible;color-interpolation:sRGB;vector-effect:none;fill:#e01;fill-opacity:1;fill-rule:nonzero;stroke:none;stroke-width:2.36248;stroke-linecap:butt;stroke-linejoin:miter;stroke-miterlimit:4;stroke-dasharray:none;stroke-dashoffset:0;stroke-opacity:1;color-rendering:auto;image-rendering:auto;shape-rendering:auto;text-rendering:auto;enable-background:accumulate;stop-color:#000"/><path d="M47.12 66.602C9.881 65.546 6.97 36.878 6.97 36.878l-.356.011S7.53 68.263 47.3 69.513" style="color:#000;font-style:normal;font-variant:normal;font-weight:400;font-stretch:normal;font-size:medium;font-family:sans-serif;font-variant-ligatures:normal;font-variant-position:normal;font-variant-caps:normal;font-variant-numeric:normal;font-variant-alternates:normal;font-variant-east-asian:normal;font-feature-settings:normal;text-indent:0;text-decoration:none;text-decoration-line:none;text-decoration-style:solid;text-decoration-color:#000;letter-spacing:normal;word-spacing:normal;text-transform:none;writing-mode:lr-tb;direction:ltr;text-orientation:mixed;dominant-baseline:auto;baseline-shift:baseline;text-anchor:start;clip-rule:nonzero;display:inline;overflow:visible;visibility:visible;color-interpolation:sRGB;vector-effect:none;fill:#e01;fill-opacity:1;fill-rule:nonzero;stroke:none;stroke-width:2.36248;stroke-linecap:butt;stroke-linejoin:miter;stroke-miterlimit:4;stroke-dasharray:none;stroke-dashoffset:0;stroke-opacity:1;color-rendering:auto;image-rendering:auto;shape-rendering:auto;text-rendering:auto;enable-background:accumulate;stop-color:#000"/><path d="M46.73 66.602c37.234-1.056 40.145-29.724 40.145-29.724l.36.011s-.92 31.374-40.687 32.624" style="color:#000;font-style:normal;font-variant:normal;font-weight:400;font-stretch:normal;font-size:medium;font-family:sans-serif;font-variant-ligatures:normal;font-variant-position:normal;font-variant-caps:normal;font-variant-numeric:normal;font-variant-alternates:normal;font-variant-east-asian:normal;font-feature-settings:normal;text-indent:0;text-decoration:none;text-decoration-line:none;text-decoration-style:solid;text-decoration-color:#000;letter-spacing:normal;word-spacing:normal;text-transform:none;writing-mode:lr-tb;direction:ltr;text-orientation:mixed;dominant-baseline:auto;baseline-shift:baseline;text-anchor:start;clip-rule:nonzero;display:inline;overflow:visible;visibility:visible;color-interpolation:sRGB;vector-effect:none;fill:#e01;fill-opacity:1;fill-rule:nonzero;stroke:none;stroke-width:2.36248;stroke-linecap:butt;stroke-linejoin:miter;stroke-miterlimit:4;stroke-dasharray:none;stroke-dashoffset:0;stroke-opacity:1;color-rendering:auto;image-rendering:auto;shape-rendering:auto;text-rendering:auto;enable-background:accumulate;stop-color:#000"/><path d="M46.642 61.84c32.2-.804 34.405-24.962 34.405-24.962l.357.011S79.686 64.091 46.458 64.75" style="color:#000;font-style:normal;font-variant:normal;font-weight:400;font-stretch:normal;font-size:medium;font-family:sans-serif;font-variant-ligatures:normal;font-variant-position:normal;font-variant-caps:normal;font-variant-numeric:normal;font-variant-alternates:normal;font-variant-east-asian:normal;font-feature-settings:normal;text-indent:0;text-decoration:none;text-decoration-line:none;text-decoration-style:solid;text-decoration-color:#000;letter-spacing:normal;word-spacing:normal;text-transform:none;writing-mode:lr-tb;direction:ltr;text-orientation:mixed;dominant-baseline:auto;baseline-shift:baseline;text-anchor:start;clip-rule:nonzero;display:inline;overflow:visible;visibility:visible;color-interpolation:sRGB;vector-effect:none;fill:#e01;fill-opacity:1;fill-rule:nonzero;stroke:none;stroke-width:2.36248;stroke-linecap:butt;stroke-linejoin:miter;stroke-miterlimit:4;stroke-dasharray:none;stroke-dashoffset:0;stroke-opacity:1;color-rendering:auto;image-rendering:auto;shape-rendering:auto;text-rendering:auto;enable-background:accumulate;stop-color:#000"/><path d="M46.777 57.148c26.7-.06 28.512-20.344 28.512-20.344l.355.014s-.376 22.624-29.052 23.24M12.471 22.53l.784-1.457a.132.132 0 0 0-.054-.18l-.354-.194c-.036-.016-.069-.021-.102-.009a.12.12 0 0 0-.078.062L10.74 24.33a.136.136 0 0 0 .052.182l.36.191a.12.12 0 0 0 .099.01.13.13 0 0 0 .078-.065l.784-1.457 3.94 2.126a.142.142 0 0 0 .1.009.127.127 0 0 0 .08-.064l.232-.43a.134.134 0 0 0-.052-.182zM18.521 17.86c-1.027-.903-2.582-1.222-3.742.099-.468.536-.697 1.153-.654 1.786.045.709.416 1.398 1.035 1.942 1.03.902 2.587 1.221 3.746-.104.47-.534.695-1.148.655-1.782-.05-.704-.416-1.396-1.04-1.941m.331 2.062c.029.437-.123.843-.449 1.219-.876.997-2.024.612-2.745-.021-.491-.43-.791-.976-.824-1.493-.029-.44.125-.846.453-1.224.87-.992 2.018-.61 2.738.021.49.432.792.978.827 1.498M24.125 16.607l-3.572-.838.53-2.916a.142.142 0 0 0-.062-.137.135.135 0 0 0-.151.007l-.522.404a.127.127 0 0 0-.05.08l-.661 3.66-1.465-1.9a.131.131 0 0 0-.185-.023l-.39.298a.128.128 0 0 0-.049.087.138.138 0 0 0 .026.1l3.062 3.973a.132.132 0 0 0 .184.024l.388-.298a.12.12 0 0 0 .05-.087.149.149 0 0 0-.024-.1l-1.016-1.315.198-1.113 3.15.737c.04.009.077 0 .11-.024l.499-.385a.126.126 0 0 0 .05-.132.126.126 0 0 0-.1-.102M25.122 13.893l.314-3.523a.134.134 0 0 0-.059-.122.13.13 0 0 0-.14-.005l-.505.283a.132.132 0 0 0-.066.106l-.203 2.838-2.537-1.295a.125.125 0 0 0-.125.002l-.506.284a.125.125 0 0 0-.069.12c.003.05.029.092.074.114l3.165 1.563.993 1.765a.123.123 0 0 0 .08.062.114.114 0 0 0 .1-.012l.424-.241a.132.132 0 0 0 .05-.182zM29.913 8.45c-.03-.066-.108-.102-.172-.073l-.454.184a.138.138 0 0 0-.07.07.127.127 0 0 0 0 .102l1.166 2.875c.199.482.237.882.107 1.191-.123.293-.392.522-.825.695-.425.175-.777.198-1.065.075-.31-.132-.56-.444-.754-.926l-1.17-2.88a.137.137 0 0 0-.172-.073l-.451.184a.153.153 0 0 0-.073.071.121.121 0 0 0 0 .1l1.21 2.979c.481 1.183 1.504 1.594 2.735 1.094.626-.256 1.047-.631 1.252-1.116.196-.463.177-1.013-.05-1.58zM39.132 8.788l-.48.087a.133.133 0 0 0-.106.142c.056.744-.293 1.57-1.215 1.74-1.306.247-1.975-.765-2.15-1.707-.118-.64-.018-1.255.275-1.685.248-.361.623-.59 1.115-.682.713-.135 1.346.191 1.62.829.026.057.088.09.15.078l.476-.09a.117.117 0 0 0 .088-.064.128.128 0 0 0 .014-.106c-.361-1.146-1.536-1.484-2.473-1.309-.702.13-1.26.477-1.621 1.002-.4.583-.539 1.354-.383 2.169.248 1.341 1.28 2.551 3.012 2.23 1.229-.232 1.93-1.193 1.831-2.514a.167.167 0 0 0-.05-.097c-.03-.023-.068-.03-.103-.023M41.85 4.986c-.71.057-1.303.34-1.719.823-.458.538-.678 1.287-.614 2.114.106 1.363 1 2.677 2.754 2.542.71-.054 1.3-.34 1.716-.822.458-.536.675-1.288.614-2.115-.106-1.36-.997-2.674-2.75-2.542m1.999 2.601c.05.65-.116 1.253-.452 1.65-.286.333-.678.515-1.171.555-1.326.101-1.881-.976-1.954-1.928-.05-.65.116-1.25.451-1.644.286-.336.683-.525 1.181-.56 1.316-.1 1.869.975 1.945 1.927M49.297 8.674l-.004-.163c-.014-.399-.104-.91-.598-1.155.456-.22.74-.671.751-1.26.01-.398-.108-.732-.35-.984-.29-.305-.75-.478-1.303-.492l-2.346-.05a.13.13 0 0 0-.137.128l-.119 5.016a.116.116 0 0 0 .04.094c.024.026.055.04.09.045l.49.012a.136.136 0 0 0 .136-.132l.05-2.096 1.72.04c.754-.011.832.527.862 1.342l.005.102c.007.229.014.543.132.744a.133.133 0 0 0 .114.061l.538.015c.05 0 .102-.029.123-.074a.134.134 0 0 0-.016-.144c-.156-.189-.17-.727-.178-1.049m-3.246-3.42 1.69.04c.335.007.585.094.746.264.144.15.213.36.206.622-.012.578-.525.834-.99.824l-1.694-.042zM52.858 5.02l-2.261-.263a.124.124 0 0 0-.097.029.128.128 0 0 0-.05.087l-.583 4.98a.133.133 0 0 0 .116.149l.486.057a.144.144 0 0 0 .097-.031.128.128 0 0 0 .05-.09l.234-2.003 1.644.193c.51.06.95-.044 1.278-.302.305-.243.494-.607.546-1.06.113-.958-.444-1.624-1.46-1.747m-1.72.478 1.535.18c.374.042.99.233.9 1.003-.033.265-.134.468-.297.6-.194.151-.473.21-.81.17l-1.536-.18zM57.642 5.759c-.697-.156-1.35-.057-1.886.279-.597.378-1.03 1.032-1.21 1.838-.297 1.33.166 2.851 1.888 3.239.693.153 1.34.056 1.876-.28.598-.377 1.028-1.034 1.21-1.84.3-1.332-.168-2.849-1.878-3.236m1.143 3.071c-.144.636-.477 1.16-.921 1.439-.364.234-.799.295-1.283.187-1.295-.291-1.51-1.484-1.3-2.415.142-.638.478-1.16.917-1.439.371-.234.808-.297 1.293-.186 1.292.29 1.504 1.481 1.294 2.414M63.55 11.859l.045-.154c.111-.382.182-.897-.21-1.283.505-.063.912-.406 1.108-.961.295-.836-.132-1.571-1.115-1.92l-2.216-.78a.13.13 0 0 0-.102.007.13.13 0 0 0-.066.075l-1.665 4.73a.13.13 0 0 0 .077.168l.461.163c.038.011.071.009.102-.005a.15.15 0 0 0 .068-.076l.695-1.975 1.62.572c.726.222.631.753.41 1.54-.006.002-.034.097-.034.097-.061.224-.151.524-.104.749a.141.141 0 0 0 .085.097l.508.18a.14.14 0 0 0 .142-.036.136.136 0 0 0 .03-.142c-.09-.22.07-.739.161-1.046m-2.027-4.257 1.595.562c.6.21.82.605.63 1.136a.777.777 0 0 1-.4.456c-.228.111-.518.114-.797.017l-1.597-.562zM68.219 9.711l-.49-.24c-.047-.027-.103-.017-.148.018l-4.076 3.577a.147.147 0 0 0-.045.12c.008.045.036.08.071.1l.47.236c.05.021.107.017.15-.021l1.178-1.063 1.926.95-.123 1.587a.133.133 0 0 0 .073.13l.468.231c.04.02.085.02.125-.002a.136.136 0 0 0 .066-.106l.423-5.384a.122.122 0 0 0-.068-.132m-.697.744-.204 2.213-1.46-.72zM72.925 13.27a.13.13 0 0 0 .181-.039l.23-.342a.13.13 0 0 0 .019-.1.141.141 0 0 0-.057-.084l-3.388-2.242a.126.126 0 0 0-.182.038l-.227.34a.134.134 0 0 0-.019.099.141.141 0 0 0 .055.085l1.38.917-2.476 3.725a.142.142 0 0 0-.02.102.136.136 0 0 0 .055.082l.409.27a.13.13 0 0 0 .182-.036l2.476-3.73zM75.008 13.943l-.38-.31a.128.128 0 0 0-.097-.028.127.127 0 0 0-.09.05l-3.151 3.897a.132.132 0 0 0 .019.187l.38.307a.148.148 0 0 0 .097.03.144.144 0 0 0 .09-.049l3.151-3.9a.125.125 0 0 0-.019-.185M77.83 16.426c-.49-.518-1.083-.804-1.72-.823-.707-.02-1.428.282-2.03.846-.995.94-1.455 2.46-.246 3.742.484.518 1.077.796 1.71.818.707.021 1.43-.279 2.03-.848.992-.938 1.458-2.457.255-3.735m-.772 3.187c-.478.446-1.047.696-1.57.68-.436-.012-.828-.2-1.166-.56-.91-.964-.42-2.074.276-2.729.473-.449 1.042-.697 1.564-.68.44.014.834.203 1.177.565.905.963.415 2.07-.281 2.724M82.367 23.175l-.238-.425a.133.133 0 0 0-.18-.052l-3.354 1.873 2.074-4.316a.145.145 0 0 0-.003-.125l-.267-.473a.133.133 0 0 0-.18-.052l-4.377 2.448a.13.13 0 0 0-.064.078.14.14 0 0 0 .012.101l.241.426a.132.132 0 0 0 .18.052l3.354-1.874-2.074 4.317a.115.115 0 0 0 .005.122l.262.475a.136.136 0 0 0 .182.052l4.378-2.445a.138.138 0 0 0 .061-.08.12.12 0 0 0-.012-.102" style="color:#000;font-style:normal;font-variant:normal;font-weight:400;font-stretch:normal;font-size:medium;font-family:sans-serif;font-variant-ligatures:normal;font-variant-position:normal;font-variant-caps:normal;font-variant-numeric:normal;font-variant-alternates:normal;font-variant-east-asian:normal;font-feature-settings:normal;text-indent:0;text-decoration:none;text-decoration-line:none;text-decoration-style:solid;text-decoration-color:#000;letter-spacing:normal;word-spacing:normal;text-transform:none;writing-mode:lr-tb;direction:ltr;text-orientation:mixed;dominant-baseline:auto;baseline-shift:baseline;text-anchor:start;clip-rule:nonzero;display:inline;overflow:visible;visibility:visible;color-interpolation:sRGB;vector-effect:none;fill:#e01;fill-opacity:1;fill-rule:nonzero;stroke:none;stroke-width:2.36248;stroke-linecap:butt;stroke-linejoin:miter;stroke-miterlimit:4;stroke-dasharray:none;stroke-dashoffset:0;stroke-opacity:1;color-rendering:auto;image-rendering:auto;shape-rendering:auto;text-rendering:auto;enable-background:accumulate;stop-color:#000"/></svg>