<svg xmlns="http://www.w3.org/2000/svg" width="300" height="148.0829" viewBox="0 0 300 148.0829"><path d="M0 0a2.688 2.688 0 0 0-2.684-2.688h-46.289A2.687 2.687 0 0 0-51.656 0v46.273a2.687 2.687 0 0 0 2.683 2.692h46.289A2.689 2.689 0 0 0 0 46.273V0Z" style="fill:#00a3d9;fill-opacity:1;fill-rule:nonzero;stroke:none" transform="matrix(2.82816 0 0 -2.82816 147.091 139.48)"/><path d="M0 0c-1.414 0-2.6.365-2.6 1.562 0 1.116.946 2.801 2.6 4.627 1.654-1.826 2.596-3.511 2.596-4.627C2.596.365 1.414 0 0 0m0-3.48c4.258 0 6.016 1.425 6.016 3.574 0 2.539-2.534 5.629-4.373 7.545 3.453 3.113 7.929 5.412 9.693 3.65 2.037-2.039.045-8.076-4.764-14.752l6.352-1.805c5.361 9.59 6.496 19.024 2.775 21.563C12.797 18.27 5.498 14.285 0 9.234c-5.502 5.051-12.799 9.036-15.703 7.061-3.721-2.539-2.594-11.973 2.773-21.563l6.352 1.805c-4.809 6.676-6.799 12.713-4.754 14.752 1.758 1.762 6.234-.537 9.686-3.65C-3.48 5.723-6.025 2.633-6.025.094-6.025-2.055-4.262-3.48 0-3.48" style="fill:#fff;fill-opacity:1;fill-rule:nonzero;stroke:none" transform="matrix(2.82816 0 0 -2.82816 74.062 90.336)"/><path d="M0 0a2.689 2.689 0 0 0-2.691-2.688h-46.288A2.685 2.685 0 0 0-51.66 0v46.273a2.682 2.682 0 0 0 2.681 2.688h46.288A2.686 2.686 0 0 0 0 46.273V0Z" style="fill:#00467e;fill-opacity:1;fill-rule:nonzero;stroke:none" transform="matrix(2.82816 0 0 -2.82816 299 139.48)"/><path d="M593.362 368.936h4.995v-1.53h-4.995v1.53zm-3.127 1.971h-4.995v1.686h4.995v-1.686zm0-3.5h-4.995v1.53h4.995v-1.53zm3.127 5.186h4.995v-1.686h-4.995v1.686zm-3.127-7.314v-1.436h-9.571v-2.21h9.57v-1.591h3.128v1.592h9.554v2.209h-9.554v1.436h7.173c.486 0 .792.331.792.806v7.826c0 .467-.331.809-.792.809h-3.075c1.327 1.64 3.708 3.501 5.476 3.942v2.447c-4.076-.744-8.027-3.657-9.574-6.65v6.989h-3.127v-6.988c-1.542 2.992-5.49 5.905-9.571 6.649v-2.447c1.776-.441 4.163-2.302 5.47-3.942h-3.052c-.47 0-.797-.334-.797-.798v-7.837c0-.47.328-.806.797-.806h7.153" style="fill:#fff;fill-opacity:1;fill-rule:nonzero;stroke:none" transform="translate(-413.158 -297.414)"/><path d="M0 0c1.439-.27 3.25-.654 4.514-.984V.035C3.508.361 1.512.877-.012 1.187L0 3.402h-1.365v-7.101H0V0Z" style="fill:#fff;fill-opacity:1;fill-rule:nonzero;stroke:none" transform="matrix(2.82816 0 0 -2.82816 248.806 72.914)"/><path d="M0 0h-4.262l.006 4.502H0V0Zm-5.516-.615c0-.223.18-.416.42-.416H.832c.24 0 .426.193.426.416v5.711c0 .23-.186.424-.426.424h-5.928a.42.42 0 0 1-.42-.424V-.615" style="fill:#fff;fill-opacity:1;fill-rule:nonzero;stroke:none" transform="matrix(2.82816 0 0 -2.82816 280.827 79.758)"/><path d="M0 0h-3.385l-.002.562h-1.109V.006L-7.885 0v-.85H0V0Z" style="fill:#fff;fill-opacity:1;fill-rule:nonzero;stroke:none" transform="matrix(2.82816 0 0 -2.82816 216.089 64.22)"/><path d="M0 0c-.26-.516-.861-1.059-1.385-1.209v-.865C.008-1.906.998-.857 1.268 0H0Z" style="fill:#fff;fill-opacity:1;fill-rule:nonzero;stroke:none" transform="matrix(2.82816 0 0 -2.82816 197.722 77.83)"/><path d="M0 0h-1.26c.264-.857 1.248-1.906 2.649-2.074v.865C.877-1.07.27-.529 0 0" style="fill:#fff;fill-opacity:1;fill-rule:nonzero;stroke:none" transform="matrix(2.82816 0 0 -2.82816 212.161 77.83)"/><path d="m0 0-.002 1.17h4.174V0H0Zm5.012-.803c.158 0 .281.11.281.276v2.222a.281.281 0 0 1-.281.285l-5.85-.007c-.172 0-.281-.112-.281-.276V-.525c0-.164.109-.278.281-.278h2.373l-.004-1.826H.738v-.894h.867c.584 0 1.041-.004 1.041.882v1.834l2.366.004" style="fill:#fff;fill-opacity:1;fill-rule:nonzero;stroke:none" transform="matrix(2.82816 0 0 -2.82816 199.031 73.991)"/><path d="M0 0c.818-.445 1.535-.844 2.078-1.141V.176C1.664.404 1.16.67.592.965c.541 1.029.902 2.18 1.07 3.363L.23 4.33C.076 3.316-.201 2.387-.592 1.574a58.362 58.362 0 0 1-3.556 1.625V2.146c.941-.394 2-.99 3.023-1.521-.764-1.199-2.084-2.178-3.461-2.508l-.004-.933C-2.637-2.619-1.104-1.566 0 0" style="fill:#fff;fill-opacity:1;fill-rule:nonzero;stroke:none" transform="matrix(2.82816 0 0 -2.82816 232.88 75.516)"/></svg>